<svg width="120" height="120" viewBox="0 0 120 120" fill="none" xmlns="http://www.w3.org/2000/svg">
<g clip-path="url(#clip0_1967_143358)">
<path d="M49.075 34.605C48.1036 34.605 47.3171 35.3923 47.3171 36.3628V38.2799C47.3171 39.2513 48.1036 40.0377 49.075 40.0377C50.0454 40.0377 50.8328 39.2513 50.8328 38.2799V36.3628C50.8328 35.3923 50.0454 34.605 49.075 34.605Z" fill="#2AB3DE"/>
<path d="M66.1863 40.0377C67.1567 40.0377 67.9441 39.2513 67.9441 38.2799V36.3628C67.9441 35.3923 67.1567 34.605 66.1863 34.605C65.2149 34.605 64.4285 35.3923 64.4285 36.3628V38.2799C64.4285 39.2513 65.2149 40.0377 66.1863 40.0377Z" fill="#2AB3DE"/>
<path d="M57.6306 41.7195H58.3813C59.3527 41.7195 60.1392 40.9321 60.1392 39.9617C60.1392 39.0782 59.4873 38.3467 58.6377 38.2222V37.7095C58.6377 36.7381 57.8513 35.9517 56.8799 35.9517C55.9094 35.9517 55.1221 36.7381 55.1221 37.7095V38.8356C55.1221 40.4524 56.2244 41.7195 57.6306 41.7195Z" fill="#2AB3DE"/>
<path d="M61.9364 42.0107C60.9659 42.0107 60.1786 42.7981 60.1786 43.7686C60.1786 45.1739 59.036 46.3174 57.6307 46.3174C56.2263 46.3174 55.0828 45.1739 55.0828 43.7686C55.0828 42.7981 54.2963 42.0107 53.325 42.0107C52.3545 42.0107 51.5671 42.7981 51.5671 43.7686C51.5671 47.113 54.2881 49.833 57.6307 49.833C60.9742 49.833 63.6942 47.113 63.6942 43.7686C63.6942 42.7981 62.9078 42.0107 61.9364 42.0107Z" fill="#2AB3DE"/>
<path d="M97.0312 47.6953C97.0312 51.3785 100.028 54.375 103.711 54.375C107.394 54.375 110.391 51.3785 110.391 47.6953C110.391 44.0121 107.394 41.0156 103.711 41.0156C100.028 41.0156 97.0312 44.0121 97.0312 47.6953ZM103.711 44.5312C105.456 44.5312 106.875 45.9503 106.875 47.6953C106.875 49.4394 105.456 50.8594 103.711 50.8594C101.966 50.8594 100.547 49.4394 100.547 47.6953C100.547 45.9503 101.966 44.5312 103.711 44.5312Z" fill="#2AB3DE"/>
<path d="M92.9297 33.75C96.6129 33.75 99.6094 30.7535 99.6094 27.0703C99.6094 23.3871 96.6129 20.3906 92.9297 20.3906C89.2465 20.3906 86.25 23.3871 86.25 27.0703C86.25 30.7535 89.2465 33.75 92.9297 33.75ZM92.9297 23.9062C94.6747 23.9062 96.0938 25.3253 96.0938 27.0703C96.0938 28.8144 94.6747 30.2344 92.9297 30.2344C91.1847 30.2344 89.7656 28.8144 89.7656 27.0703C89.7656 25.3253 91.1847 23.9062 92.9297 23.9062Z" fill="#2AB3DE"/>
<path d="M22.5275 38.0236C26.7426 38.0236 30.1721 34.5941 30.1721 30.379C30.1721 26.1639 26.7426 22.7334 22.5275 22.7334C18.3124 22.7334 14.8828 26.163 14.8828 30.379C14.8828 34.5941 18.3124 38.0236 22.5275 38.0236ZM22.5275 26.2499C24.8044 26.2499 26.6565 28.1021 26.6565 30.379C26.6565 32.6559 24.8044 34.508 22.5275 34.508C20.2505 34.508 18.3984 32.6559 18.3984 30.379C18.3984 28.1021 20.2505 26.2499 22.5275 26.2499Z" fill="#2AB3DE"/>
<path d="M118.242 109.308H97.9605V104.897C102.829 104.551 107.522 100.464 108.612 95.4877L112.657 77.016H113.541C117.102 77.016 120 74.101 120 70.5185C120 66.936 117.102 64.021 113.541 64.021H101.863C100.418 60.3012 96.8024 57.6562 92.5781 57.6562C90.6656 57.6562 88.8794 58.201 87.3605 59.1394C86.3782 58.5699 85.2383 58.2422 84.0234 58.2422C82.7563 58.2422 81.5259 58.6057 80.4703 59.2703C78.674 57.7075 76.3742 56.8359 73.9453 56.8359C73.4052 56.8359 72.876 56.8817 72.3596 56.9641C71.3324 55.6613 70.1376 54.4858 68.79 53.4869C72.42 51.3556 75.1474 47.9874 76.507 44.0396H77.1368C80.159 44.0396 82.6172 41.5714 82.6172 38.5373V35.408C82.6172 33.2318 81.3519 31.3467 79.5218 30.455V26.7792C79.5218 21.5973 77.5415 16.7487 73.9462 13.1259C70.3464 9.49768 65.5234 7.5 60.3653 7.5H55.0443C49.8816 7.5 45.0348 9.49585 41.3965 13.1186C37.749 16.7523 35.7404 21.6037 35.7404 26.7801V30.4559C33.9093 31.3477 32.645 33.2327 32.645 35.408V38.5382C32.645 41.5714 35.1031 44.0396 38.1262 44.0396H38.7552C40.1138 47.9874 42.8421 51.3565 46.4713 53.4869C45.8899 53.9191 45.3378 54.3842 44.8132 54.8776C43.309 51.2833 39.7595 48.75 35.6259 48.75C34.2728 48.75 32.9828 49.0219 31.8063 49.5135C30.8807 49.0274 29.8279 48.75 28.7119 48.75C27.4438 48.75 26.2143 49.1135 25.1587 49.7791C23.3615 48.2153 21.0617 47.3438 18.6337 47.3438C14.1595 47.3438 10.3683 50.3091 9.11499 54.3777H6.45905C2.89764 54.3768 0 57.2919 0 60.8743C0 64.4568 2.89764 67.3718 6.45905 67.3718H7.98157L14.3729 95.5618C15.2985 99.4208 18.4058 102.741 22.0395 104.172V109.308H1.75781C0.786438 109.308 0 110.095 0 111.066C0 112.037 0.786438 112.824 1.75781 112.824H71.0156C71.987 112.824 72.7734 112.037 72.7734 111.066C72.7734 110.095 71.987 109.308 71.0156 109.308H36.2109V104.924H38.9062C39.8776 104.924 40.6641 104.138 40.6641 103.166C40.6641 102.196 39.8776 101.408 38.9062 101.408H25.8389C22.3434 101.408 18.6584 98.356 17.7969 94.7635L11.5869 67.3718H34.6555C37.6117 67.3718 42.6416 69.0729 45.0073 70.8719L45.0302 70.8893C49.6188 74.382 57.4164 77.016 63.1686 77.016H89.2969C90.2682 77.016 91.0547 76.2286 91.0547 75.2582C91.0547 74.2877 90.2682 73.5004 89.2969 73.5004H63.1677C58.1754 73.5004 51.1441 71.1246 47.157 68.0905L47.1341 68.0731C44.1824 65.8264 38.3505 63.8562 34.6545 63.8562H6.45905C4.83582 63.8562 3.51562 62.5186 3.51562 60.8743C3.51562 59.23 4.83582 57.8925 6.45905 57.8925H34.6555C39.6478 57.8925 46.68 60.2682 50.6708 63.3051L50.6891 63.3188C53.6407 65.5655 59.4717 67.5366 63.1677 67.5366H113.541C115.164 67.5366 116.484 68.8742 116.484 70.5185C116.484 72.1628 115.164 73.5004 113.541 73.5004H97.7344C96.763 73.5004 95.9766 74.2868 95.9766 75.2582C95.9766 76.2286 96.763 77.016 97.7344 77.016H109.058L105.178 94.736C104.386 98.3524 100.776 101.408 97.2949 101.408H47.1094C46.138 101.408 45.3516 102.196 45.3516 103.166C45.3516 104.137 46.138 104.924 47.1094 104.924H83.7891V109.308H79.4531C78.4818 109.308 77.6953 110.095 77.6953 111.065C77.6953 112.037 78.4818 112.823 79.4531 112.823H118.242C119.214 112.823 120 112.037 120 111.065C120 110.095 119.214 109.308 118.242 109.308ZM77.4683 38.2874V33.5678C77.5424 33.5495 77.6166 33.5284 77.6889 33.5037C78.5037 33.7454 79.1016 34.5071 79.1016 35.408V38.5382C79.1016 39.5682 78.3206 40.4178 77.3264 40.5139C77.4188 39.7824 77.4683 39.039 77.4683 38.2874ZM36.1597 38.5382V35.408C36.1597 34.5071 36.7566 33.7454 37.5714 33.5037C37.6437 33.5284 37.7179 33.5495 37.793 33.5678V38.2874C37.793 39.0399 37.8415 39.7824 37.9349 40.5139C36.9397 40.4169 36.1597 39.5682 36.1597 38.5382ZM25.5551 104.917C25.6494 104.919 25.7446 104.924 25.8389 104.924H32.6953V109.308H25.5551V104.917ZM12.8952 54.3768C13.9636 52.2913 16.1334 50.8594 18.6328 50.8594C20.5948 50.8594 22.4268 51.7383 23.6591 53.2718C23.9832 53.6755 24.4693 53.9154 24.9866 53.9282C25.5048 53.9392 26.0019 53.7241 26.3452 53.3368C26.9476 52.6556 27.8101 52.2656 28.7109 52.2656C30.0861 52.2656 31.2561 53.1491 31.691 54.3768H12.8952ZM35.3064 54.3887C35.192 53.6627 34.9622 52.9733 34.6326 52.3444C34.9557 52.2931 35.2872 52.2656 35.625 52.2656C37.8946 52.2656 39.8914 53.4467 41.0394 55.2246C39.0555 54.7421 37.0963 54.4473 35.3064 54.3887ZM70.1248 47.9626C69.6542 47.514 69.3695 46.8851 69.3695 46.2085C69.3695 44.8718 70.4572 43.7851 71.7929 43.7851C72.1317 43.7851 72.4567 43.8528 72.7551 43.9819C72.1097 45.4514 71.2189 46.7981 70.1248 47.9626ZM39.2551 29.9066V26.7792C39.2551 22.5449 40.8966 18.5779 43.8766 15.6097C46.8521 12.6471 50.8182 11.0156 55.0443 11.0156H60.3653C64.5786 11.0156 68.5153 12.6443 71.4514 15.6024C74.3884 18.5623 76.0062 22.5311 76.0062 26.7792V29.9057H75.7104V30.1318H74.1605C68.9145 30.1318 64.7141 27.9391 62.6358 24.115C62.3282 23.5483 61.7358 23.1967 61.0913 23.1967C60.4468 23.1967 59.8544 23.5483 59.5468 24.115C57.4677 27.9382 53.2672 30.1318 48.0222 30.1318H39.5508V29.9057H39.2551V29.9066ZM45.1364 47.9626C44.0424 46.7981 43.1516 45.4514 42.5052 43.9819C42.8046 43.8528 43.1296 43.7842 43.4683 43.7842C44.8041 43.7842 45.8917 44.8718 45.8917 46.2076C45.8917 46.8851 45.607 47.514 45.1364 47.9626ZM64.379 64.021H63.1677C60.2115 64.021 55.1816 62.3199 52.8122 60.5173L52.7939 60.5035C51.2585 59.3353 49.3652 58.2651 47.3099 57.355C48.3875 56.3617 49.6115 55.5121 50.9619 54.8547C51.601 54.5435 51.9901 53.8779 51.9479 53.1683C51.9049 52.4579 51.4389 51.8445 50.766 51.6119C49.7269 51.254 48.7509 50.7788 47.8491 50.2075C48.8269 49.1364 49.4073 47.7209 49.4073 46.2076C49.4073 42.9327 46.7432 40.2686 43.4683 40.2686C42.7917 40.2686 42.1271 40.3876 41.5009 40.6091C41.3745 39.8502 41.3086 39.0747 41.3086 38.2874V33.6475H48.0222C53.5153 33.6475 58.1369 31.6489 61.0913 28.0801C64.0073 31.604 68.551 33.5925 73.9526 33.6429V38.2874C73.9526 39.0747 73.8858 39.8502 73.7604 40.6091C73.1332 40.3876 72.4686 40.2686 71.7929 40.2686C68.5181 40.2686 65.8539 42.9327 65.8539 46.2076C65.8539 47.7209 66.4343 49.1364 67.413 50.2075C66.5103 50.7788 65.5344 51.254 64.4952 51.6119C63.8232 51.8445 63.3563 52.4579 63.3142 53.1683C63.2712 53.8779 63.6603 54.5435 64.2993 54.8547C66.0379 55.7007 67.5677 56.8625 68.8422 58.2477C66.7062 59.5276 65.0885 61.582 64.379 64.021ZM68.1308 64.021C69.1708 61.853 71.3846 60.3516 73.9453 60.3516C75.9073 60.3516 77.7393 61.2305 78.9716 62.764C79.2957 63.1677 79.7818 63.4076 80.2991 63.4204C80.8145 63.4332 81.3144 63.2162 81.6577 62.829C82.2601 62.1478 83.1226 61.7578 84.0234 61.7578C85.4553 61.7578 86.6656 62.7136 87.0547 64.021H68.1308ZM90.6409 64.021C90.531 63.2108 90.2774 62.4472 89.9039 61.756C90.7187 61.3815 91.6241 61.1719 92.5781 61.1719C94.8001 61.1719 96.7603 62.3044 97.9193 64.021H90.6409ZM94.4449 109.308H87.3047V104.924H94.4449V109.308Z" fill="#2AB3DE"/>
</g>
<defs>
<clipPath id="clip0_1967_143358">
<rect width="120" height="120" fill="white"/>
</clipPath>
</defs>
</svg>
