<svg width="127" height="109" viewBox="0 0 127 109" fill="none" xmlns="http://www.w3.org/2000/svg">
<path d="M116.95 0H10.05C4.51 0 0 4.51 0 10.05V76.35C0 81.89 4.51 86.4 10.05 86.4H60V101.99H36.72C34.79 101.99 33.22 103.56 33.22 105.49C33.22 107.42 34.79 108.99 36.72 108.99H90.27C92.2 108.99 93.77 107.42 93.77 105.49C93.77 103.56 92.2 101.99 90.27 101.99H66.99V86.4H116.94C122.48 86.4 126.99 81.89 126.99 76.35V10.05C126.99 4.51 122.48 0 116.94 0H116.95ZM120 76.35C120 78.03 118.63 79.4 116.95 79.4H10.05C8.37 79.4 7 78.03 7 76.35V10.05C7 8.37 8.37 7 10.05 7H116.95C118.63 7 120 8.37 120 10.05V76.35Z" fill="#2AB3DE"/>
<path d="M98.65 53.8398H86.69L70.52 27.4198C70.13 26.7898 69.44 26.4298 68.7 26.4698C67.96 26.5098 67.31 26.9598 67 27.6298L53.3 57.2198L44.8 42.3898C44.44 41.7698 43.78 41.3798 43.06 41.3798H28.35C27.25 41.3798 26.35 42.2798 26.35 43.3798C26.35 44.4798 27.25 45.3798 28.35 45.3798H41.9L51.74 62.5598C52.1 63.1798 52.76 63.5698 53.48 63.5698C53.51 63.5698 53.54 63.5698 53.57 63.5698C54.32 63.5398 54.98 63.0898 55.3 62.4098L69.06 32.6998L83.86 56.8898C84.22 57.4798 84.87 57.8498 85.57 57.8498H98.65C99.75 57.8498 100.65 56.9498 100.65 55.8498C100.65 54.7498 99.75 53.8498 98.65 53.8498V53.8398Z" fill="#2AB3DE"/>
</svg>
