<svg width="120" height="120" viewBox="0 0 120 120" fill="none" xmlns="http://www.w3.org/2000/svg">
<g clip-path="url(#clip0_2435_125132)">
<path d="M119.819 115.372L111.893 91.5945C109.425 84.1917 103.16 78.5416 95.5427 76.8485L74.8125 72.2419V63.3434C83.8043 58.188 89.8751 48.4929 89.8751 37.4062V22.8696C89.8751 19.3467 88.7109 15.8543 86.5971 13.0357L86.5816 13.0151C83.9062 9.45352 75.5566 0 60.0021 0C44.4473 0 36.0984 9.44719 33.4183 13.0151L33.4029 13.0357C31.289 15.8543 30.1249 19.3467 30.1249 22.8696V37.4062C30.1249 48.4929 36.1957 58.188 45.1875 63.3434V72.2419L24.4572 76.8485C16.8398 78.5416 10.5747 84.1917 8.10701 91.5945L0.181382 115.372C-0.43268 117.214 0.562944 119.205 2.4049 119.819C4.24732 120.432 6.23787 119.437 6.85193 117.595L14.7776 93.818C16.4686 88.7447 20.7623 84.8726 25.9828 83.7124L30.1251 82.792V98.4834C25.7529 99.9556 22.594 104.091 22.594 108.953C22.594 115.044 27.5496 120 33.6408 120C39.7319 120 44.6876 115.044 44.6876 108.953C44.6876 104.091 41.5286 99.9556 37.1564 98.4834V81.2295L46.9833 79.0458L56.9854 95.6998C57.6208 96.7587 58.7651 97.4065 60 97.4065C61.2349 97.4065 62.3791 96.7584 63.0145 95.6998L73.008 79.0439L82.8436 81.2297V90.795C79.3472 91.6423 71.5467 95.6044 71.5467 105.188V116.484C71.5467 118.426 73.1208 120 75.0623 120H78.828C80.7696 120 82.3437 118.426 82.3437 116.484C82.3437 114.543 80.7696 112.969 78.828 112.969H78.5779V105.188C78.5779 100.889 82.0565 97.4062 86.3592 97.4062C90.6499 97.4062 94.1404 100.897 94.1404 105.188V112.969H93.8906C91.949 112.969 90.375 114.543 90.375 116.484C90.375 118.426 91.949 120 93.8906 120H97.6561C99.5976 120 101.172 118.426 101.172 116.484V105.188C101.172 98.2312 96.3506 92.3827 89.8748 90.7999V82.7918L94.0172 83.7122C99.2376 84.8723 103.531 88.7447 105.222 93.8177L113.148 117.595C113.762 119.437 115.753 120.432 117.595 119.819C119.437 119.205 120.433 117.214 119.819 115.372ZM37.6561 108.953C37.6561 111.167 35.8547 112.969 33.6405 112.969C31.4264 112.969 29.625 111.167 29.625 108.953C29.625 106.739 31.4264 104.937 33.6405 104.937C35.8547 104.937 37.6561 106.739 37.6561 108.953ZM37.1561 22.8696C37.1561 20.8643 37.8166 18.8766 39.0166 17.2695C39.0208 17.2641 39.0248 17.2587 39.0288 17.2533C41.1602 14.4115 47.6625 7.03125 60.0347 7.03125C72.3532 7.03125 78.8749 14.4581 80.9711 17.2533C80.9751 17.2587 80.9794 17.2641 80.9833 17.2695C82.1831 18.8763 82.8438 20.8643 82.8438 22.8696V28.9188L78.004 24.0792C77.2736 23.3489 76.5183 22.5938 75.0621 22.5938C74.5162 22.5938 73.9781 22.7208 73.4899 22.965C65.043 27.1884 54.9572 27.1884 46.5098 22.965C45.1563 22.2877 43.5215 22.5532 42.4519 23.6236L37.1564 28.9137V22.8696H37.1561ZM37.1561 37.4062V36.6593C39.1755 36.0762 41.0269 34.9917 42.5547 33.4643C43.5993 32.4195 44.7686 31.2504 45.6986 30.3204C54.8149 34.1063 65.1846 34.1067 74.3013 30.3204L77.4454 33.4645C78.9731 34.992 80.8244 36.0762 82.8438 36.6593V37.4062C82.8438 50.0023 72.596 60.2501 60 60.2501C47.404 60.2501 37.1561 50.0023 37.1561 37.4062ZM67.7812 74.0888L60 87.0574L52.2187 74.0885V66.251C54.7008 66.9213 57.3091 67.2811 60 67.2811C62.6908 67.2811 65.2992 66.9213 67.7812 66.251V74.0888Z" fill="#2AB3DE"/>
</g>
<defs>
<clipPath id="clip0_2435_125132">
<rect width="120" height="120" fill="white"/>
</clipPath>
</defs>
</svg>
