<svg width="144" height="120" viewBox="0 0 144 120" fill="none" xmlns="http://www.w3.org/2000/svg">
<path d="M106.998 26.246C103.967 25.0047 100.792 23.6345 97.4224 22.1191C96.5519 23.9085 95.6814 25.6012 94.8431 27.31C97.0517 28.0032 102.21 29.0832 106.998 26.2621" fill="#2AB3DE"/>
<path d="M119.508 24.1017C119.862 23.0861 120.975 22.538 121.99 22.8927C123.006 23.2473 123.554 24.3597 123.199 25.3753C122.845 26.3909 121.732 26.939 120.717 26.5843C119.701 26.2297 119.153 25.1173 119.508 24.1017ZM142.205 33.9514C142.48 32.7424 142.786 31.5011 143.124 30.1792C143.415 29.0346 143.011 27.8901 142.205 27.616C127.423 23.9405 117.541 20.8293 102.791 14.0747C101.985 13.8007 100.953 14.4455 100.485 15.5256C99.9534 16.783 99.4053 17.9437 98.8894 19.0721C115.332 26.5037 126.762 30.0664 142.222 33.9353" fill="#2AB3DE"/>
<path d="M140.335 42.9305C140.722 41.0606 141.093 39.1906 141.496 37.2561C137.949 36.3695 134.612 35.4989 131.388 34.5962C133.403 39.787 138.143 42.1245 140.335 42.9467" fill="#2AB3DE"/>
<path d="M98.6314 113.974C103.097 115.506 107.562 117.037 112.028 118.585C112.834 118.859 113.865 118.214 114.333 117.134C121.748 96.2253 129.712 76.6226 137.127 54.9243C138.272 51.5551 139.062 48.5889 139.707 45.7033C137.047 44.7683 130.083 41.5925 128.132 33.6612C125.682 32.9358 123.264 32.1942 120.846 31.3882L110.222 62.3075L105.434 87.5524L97.1322 111.298C96.7775 112.217 97.1 113.458 98.6153 113.974" fill="#2AB3DE"/>
<path d="M86.9599 107.639L94.9557 83.9417L107.901 58.7452L117.67 30.2923C115.203 29.4379 112.705 28.519 110.125 27.5034C103.693 32.533 96.2615 30.7437 93.6016 29.857C92.3442 32.533 91.1513 35.3542 89.9906 38.7234C82.9298 59.4383 78.8351 73.8824 69.7431 101.819C69.453 102.964 69.856 104.109 70.662 104.383C75.2402 105.962 79.8185 107.526 84.4129 109.106C86.2023 109.718 86.6536 108.526 86.9438 107.655" fill="#2AB3DE"/>
<path d="M42.8876 8.39975C32.9735 9.25414 30.0717 4.98218 30.8294 3.04771C28.7337 3.85374 20.351 7.14234 18.3521 9.41535C14.4509 13.8485 12.7582 21.0867 12.4036 27.3576C12.4036 27.3576 17.9168 31.4522 23.9943 30.2271L24.4457 23.2307L24.7197 22.4086C27.2829 34.5474 27.6537 46.9764 28.3952 61.3721C28.4274 62.1297 29.0562 62.7584 29.7977 62.7584C41.5657 62.7423 53.366 61.7267 64.9729 59.76C65.7144 59.631 66.2303 58.9217 66.1174 58.1641C64.4409 44.1553 62.3452 31.5489 62.9578 18.7331L63.5865 19.9099L65.2147 26.7289C71.405 26.8901 76.1606 21.9249 76.1606 21.9249C74.7419 15.7991 71.8402 8.94785 67.2459 5.25623C64.8439 3.33788 55.9131 1.58073 53.898 1.20996C54.7202 2.91875 52.834 7.59372 42.9037 8.43199" fill="#2AB3DE"/>
<path d="M50.5282 1.35535C50.4799 0.726651 47.5298 -0.353427 42.1616 0.11407C36.8096 0.565447 34.0852 2.12914 34.1336 2.75785C34.2787 4.53111 38.5345 5.36939 42.5808 5.03085C46.8205 4.6762 50.6572 2.91905 50.5282 1.35535Z" fill="#2AB3DE"/>
<path d="M31.9639 82.1491C30.8516 82.0524 29.965 81.9557 29.0783 81.7945L29.2879 80.5854C30.1262 80.7305 30.9806 80.8434 32.0606 80.924L31.9639 82.133V82.1491ZM26.1927 80.9723C25.3545 80.5532 24.5323 79.9245 23.7746 79.1185L24.6613 78.2802C25.3222 78.9895 26.0154 79.5215 26.7408 79.8761L26.1927 80.9723ZM30.642 78.2802C27.8693 78.1996 25.9509 73.1055 23.694 73.0732C23.0976 73.0732 22.5011 73.4924 21.9853 74.0727C22.1787 74.508 22.5334 75.2818 23.0331 76.12L21.9853 76.7487C21.5822 76.0717 21.2598 75.4591 21.0503 74.9916C20.0185 76.0717 18.6967 77.6354 17.6166 79.5054C22.7591 82.4877 21.9691 88.0654 21.5984 89.7097C22.7913 89.9999 23.9197 90.3223 24.7096 90.8704C31.6415 95.7066 32.6087 99.6722 37.6384 100.14C37.6384 98.7372 37.8802 94.7877 40.524 91.3218C37.9447 88.9198 37.2676 85.0831 36.5099 82.8101C36.123 82.6005 35.5749 82.4554 34.7689 82.3748L34.914 81.1658C35.3654 81.2141 35.7523 81.2947 36.0908 81.3754C35.5749 77.5064 33.7694 78.3769 30.6259 78.2802" fill="#2AB3DE"/>
<path d="M16.859 80.9404C16.1819 82.4235 15.7306 84.0356 15.7145 85.7283C15.6983 87.969 17.7456 88.7428 20.0187 89.307C20.5829 87.3564 20.5506 83.02 16.859 80.9404" fill="#2AB3DE"/>
<path d="M44.7956 93.3369C43.6349 93.1434 42.6677 92.7888 41.8294 92.2891C39.4597 95.3681 39.2662 99.0114 39.2662 100.156C40.6204 100.108 42.2485 99.8496 44.2475 99.366C47.3749 98.6083 47.1653 96.9963 47.1008 96.1258C46.9558 94.5459 46.2303 93.5787 44.7956 93.3369" fill="#2AB3DE"/>
<path d="M15.0854 100.769C16.1493 100.688 17.0037 100.575 17.8581 100.43L18.0677 101.623C17.1811 101.784 16.2944 101.881 15.1821 101.978L15.0854 100.769ZM20.4213 99.7209C21.1306 99.3662 21.8399 98.8342 22.5009 98.1249L23.3875 98.9632C22.6298 99.7692 21.8077 100.398 20.9694 100.817L20.4213 99.7209ZM11.0552 101.22C11.3938 101.139 11.7807 101.059 12.232 101.011L12.3771 102.22C11.5711 102.316 11.0391 102.461 10.6361 102.671C9.87843 104.928 9.20137 108.765 6.62207 111.166C9.26585 114.616 9.52378 118.566 9.50766 119.984C14.5373 119.517 15.5045 115.535 22.4525 110.715C23.2424 110.167 24.3709 109.845 25.5638 109.554C25.193 107.91 24.4031 102.332 29.5617 99.3501C28.4816 97.4801 27.1597 95.9164 26.128 94.8363C25.9023 95.3038 25.596 95.9325 25.193 96.5935L24.1452 95.9648C24.661 95.1265 25.0157 94.3527 25.193 93.9174C24.6933 93.3532 24.0807 92.918 23.4842 92.918C21.2273 92.9341 19.2929 98.0282 16.5362 98.1249C13.3927 98.2216 11.6033 97.3511 11.0714 101.22" fill="#2AB3DE"/>
<path d="M30.2705 100.785C30.9314 102.268 31.3989 103.88 31.415 105.573C31.4312 107.814 29.3838 108.588 27.1108 109.152C26.5466 107.201 26.5789 102.865 30.2705 100.785" fill="#2AB3DE"/>
<path d="M2.33389 113.181C3.49457 112.987 4.4618 112.633 5.30008 112.133C7.66981 115.212 7.86325 118.855 7.86325 120C6.50912 119.951 4.88094 119.693 2.88199 119.21C-0.245411 118.452 -0.0358435 116.84 0.0286389 115.97C0.173724 114.39 0.899151 113.422 2.33389 113.181" fill="#2AB3DE"/>
</svg>
