<svg width="93" height="108" viewBox="0 0 93 108" fill="none" xmlns="http://www.w3.org/2000/svg">
<path d="M76.0294 39.0335L68.7627 91.7001C68.4127 93.8835 66.146 95.5001 63.4627 95.5001H29.5627C26.8794 95.5001 24.6127 93.8668 24.2627 91.7001L16.996 39.0335C16.5794 36.4168 19.0627 34.0835 22.296 34.0835H70.7294C73.946 34.0835 76.446 36.4168 76.0294 39.0335ZM74.7794 28.9668H18.246C14.4794 28.9668 11.5794 31.6835 12.0627 34.7335L20.546 96.1835C20.946 98.7335 23.596 100.633 26.7294 100.633H66.296C69.4294 100.633 72.0794 98.7335 72.4794 96.1835L80.9627 34.7335C81.446 31.6835 78.546 28.9668 74.7794 28.9668Z" fill="#3EBD5F"/>
<path d="M71.2794 108H21.1127C16.396 108 12.3627 104.467 11.746 99.7833L0.0793799 10.6667C-0.27062 7.96667 0.546048 5.25 2.34605 3.21666C4.14605 1.18333 6.72938 0 9.44605 0H82.9461C85.6627 0 88.2461 1.16666 90.0461 3.21666C91.8461 5.25 92.6627 7.98333 92.3127 10.6667L80.6461 99.7833C80.0294 104.467 76.0127 108 71.2794 108ZM9.44605 4.08333C7.89605 4.08333 6.42938 4.75 5.41271 5.91667C4.39605 7.08333 3.92938 8.61667 4.12938 10.15L15.7794 99.2667C16.1294 101.933 18.4127 103.933 21.096 103.933H71.2627C73.946 103.933 76.2294 101.933 76.5794 99.2667L88.2294 10.15C88.4294 8.61667 87.9627 7.08333 86.9461 5.91667C85.9294 4.75 84.4627 4.08333 82.9127 4.08333H9.44605Z" fill="#3EBD5F"/>
</svg>
