<svg width="114" height="120" viewBox="0 0 114 120" fill="none" xmlns="http://www.w3.org/2000/svg">
<path d="M110.844 0H52.6024C50.9869 0 49.6727 1.31414 49.6727 2.92969V14.6309C49.6727 15.6019 50.4598 16.3887 51.4305 16.3887C52.4013 16.3887 53.1884 15.6019 53.1884 14.6309V3.51562H110.258V45.5447H53.1884V22.834C53.1884 21.863 52.4013 21.0762 51.4305 21.0762C50.4598 21.0762 49.6727 21.863 49.6727 22.834V46.1306C49.6727 47.7462 50.9869 49.0603 52.6024 49.0603H55.1548V67.3547H47.4769C46.5077 67.3547 45.7191 66.5663 45.7191 65.5969V40.7437C45.7191 37.8361 43.3535 35.4703 40.4456 35.4703H20.0339V34.6172C20.0339 32.6489 18.4336 31.0477 16.4667 31.0477H11.0902C9.12187 31.0477 7.52062 32.6489 7.52062 34.6172V48.0567C2.7532 52.4508 0 58.5968 0 65.1673C0 73.1571 4.06875 80.5221 10.8834 84.8681C11.7626 85.429 12.7699 85.7093 13.7777 85.7093C14.7851 85.7093 15.7929 85.429 16.6716 84.8681C23.4867 80.5219 27.5555 73.1571 27.5555 65.1673C27.5555 58.5966 24.8018 52.4501 20.0339 48.056V46.1625H32.4253C33.3947 46.1625 34.1831 46.9509 34.1831 47.9203V75.6516C34.1831 78.5592 36.5487 80.925 39.4566 80.925H55.1548V107.392C55.1548 109.007 56.4689 110.321 58.0845 110.321H62.5687C62.0803 111.242 61.8023 112.29 61.8023 113.403C61.8023 117.041 64.7618 120 68.3993 120C72.0368 120 74.9962 117.04 74.9962 113.403C74.9962 112.29 74.7183 111.242 74.2298 110.321H89.2165C88.728 111.242 88.4501 112.29 88.4501 113.403C88.4501 117.041 91.4095 120 95.047 120C98.6848 120 101.644 117.04 101.644 113.403C101.644 112.29 101.366 111.242 100.878 110.321H105.362C106.977 110.321 108.292 109.007 108.292 107.392V89.9911C108.292 89.0201 107.505 88.2333 106.534 88.2333C105.563 88.2333 104.776 89.0201 104.776 89.9911V106.806H58.6704V80.925H74.2706V83.7771H70.5005C68.8852 83.7771 67.571 85.0912 67.571 86.7068V100.082C67.571 101.698 68.8852 103.012 70.5005 103.012H92.9463C94.5619 103.012 95.876 101.698 95.876 100.082V86.7068C95.876 85.0912 94.5619 83.7771 92.9463 83.7771H89.1762V80.925H93.0488C94.6643 80.925 95.9784 79.6109 95.9784 77.9953V64.56C98.4326 63.8067 100.222 61.5197 100.222 58.822C100.222 55.5131 97.5298 52.8211 94.2209 52.8211C90.9119 52.8211 88.2199 55.5131 88.2199 58.822C88.2199 61.5197 90.0091 63.8067 92.463 64.56V77.4094H89.1764V73.9671C89.1764 72.353 87.8632 71.04 86.2493 71.04H77.198C75.5838 71.04 74.2706 72.3532 74.2706 73.9671V77.4094H58.6704V70.8703H68.055C69.6703 70.8703 70.9842 69.5562 70.9842 67.9406V64.56C73.4379 63.8067 75.2269 61.5197 75.2269 58.822C75.2269 55.5131 72.5348 52.8211 69.2259 52.8211C65.917 52.8211 63.225 55.5131 63.225 58.822C63.225 61.5197 65.0147 63.807 67.4688 64.5602V67.3549H58.6706V49.0605H104.777V81.7882C104.777 82.7592 105.563 83.546 106.534 83.546C107.505 83.546 108.292 82.7592 108.292 81.7882V49.0603H110.845C112.46 49.0603 113.774 47.7462 113.774 46.1306V2.92969C113.774 1.31414 112.46 0 110.844 0V0ZM71.4809 113.403C71.4809 115.102 70.0987 116.484 68.3995 116.484C66.7003 116.484 65.3182 115.102 65.3182 113.403C65.3182 111.704 66.7003 110.322 68.3995 110.322C70.0987 110.322 71.4809 111.704 71.4809 113.403ZM98.1291 113.403C98.1291 115.102 96.7467 116.484 95.0475 116.484C93.3483 116.484 91.9662 115.102 91.9662 113.403C91.9662 111.704 93.3483 110.322 95.0475 110.322C96.7467 110.322 98.1291 111.704 98.1291 113.403ZM94.2209 56.3365C95.5915 56.3365 96.7062 57.4514 96.7062 58.8218C96.7062 60.1922 95.591 61.3073 94.2206 61.3073C92.8502 61.3073 91.7353 60.1922 91.7353 58.8218C91.7353 57.4514 92.8502 56.3365 94.2209 56.3365ZM92.3604 99.4966H71.0866V87.293H92.3604V99.4966ZM77.7862 74.5556H85.6605V83.7771H77.7862V74.5556ZM69.2259 56.3365C70.5966 56.3365 71.7113 57.4514 71.7113 58.8218C71.7113 60.1922 70.5966 61.3073 69.2264 61.3073C67.8555 61.3073 66.7404 60.1922 66.7404 58.8218C66.7404 57.4514 67.8553 56.3365 69.2259 56.3365ZM11.0902 34.5633H16.4667C16.4946 34.5633 16.5183 34.5879 16.5183 34.6172V45.3759C14.8336 44.3791 12.7209 44.3794 11.0362 45.3764V34.6172C11.0362 34.587 11.0599 34.5633 11.0902 34.5633ZM24.0398 65.1673C24.0398 71.9501 20.5786 78.2067 14.7811 81.904C14.1715 82.293 13.384 82.2926 12.7741 81.904C6.97688 78.207 3.51586 71.9501 3.51586 65.1673C3.51586 58.5551 6.63961 52.3423 12.7741 48.4301C13.0791 48.2358 13.4285 48.1385 13.7777 48.1385C14.1272 48.1385 14.4764 48.2358 14.7813 48.4301C20.958 52.3695 24.0398 58.5703 24.0398 65.1673ZM55.1548 77.4094H39.4566C38.4874 77.4094 37.6988 76.6209 37.6988 75.6516V47.9203C37.6988 45.0127 35.3332 42.6469 32.4253 42.6469H20.0339V38.9859H40.4456C41.415 38.9859 42.2034 39.7744 42.2034 40.7437V65.5969C42.2034 68.5045 44.569 70.8703 47.4769 70.8703H55.1548V77.4094Z" fill="#2AB3DE"/>
<path d="M88.605 41.264C90.3312 41.264 91.7353 39.8598 91.7353 38.1337V10.9272C91.7353 9.20102 90.3312 7.79688 88.605 7.79688H60.5998C58.8736 7.79688 57.4695 9.20102 57.4695 10.9272V38.1334C57.4695 39.8596 58.8736 41.2637 60.5998 41.2637H88.605V41.264ZM60.9849 11.3125H88.2197V37.7484H60.9849V11.3125Z" fill="#2AB3DE"/>
<path d="M100.997 22.2135C104.199 22.2135 106.805 19.6082 106.805 16.406C106.805 13.2035 104.199 10.5981 100.997 10.5981C97.7946 10.5981 95.1893 13.2035 95.1893 16.406C95.1893 19.6082 97.7946 22.2135 100.997 22.2135ZM100.997 14.1138C102.261 14.1138 103.289 15.1422 103.289 16.406C103.289 17.6697 102.261 18.6979 100.997 18.6979C99.7332 18.6979 98.705 17.6697 98.705 16.406C98.705 15.1422 99.7332 14.1138 100.997 14.1138Z" fill="#2AB3DE"/>
<path d="M100.997 38.4626C104.199 38.4626 106.805 35.8572 106.805 32.655C106.805 29.4525 104.199 26.8472 100.997 26.8472C97.7946 26.8472 95.1893 29.4525 95.1893 32.655C95.1893 35.8572 97.7946 38.4626 100.997 38.4626ZM100.997 30.3628C102.261 30.3628 103.289 31.3912 103.289 32.655C103.289 33.9187 102.261 34.9469 100.997 34.9469C99.7332 34.9469 98.705 33.9187 98.705 32.655C98.705 31.3912 99.7332 30.3628 100.997 30.3628Z" fill="#2AB3DE"/>
<path d="M76.4438 31.859C75.6952 31.859 75.0279 31.3847 74.7828 30.6764L72.2773 23.4408L72.0328 23.9208C71.7331 24.5102 71.1277 24.8812 70.4663 24.8812H66.0975C65.1265 24.8812 64.3397 24.0944 64.3397 23.1234C64.3397 22.1524 65.1265 21.3656 66.0975 21.3656H69.3886L71.0192 18.1624C71.3389 17.534 72 17.1588 72.7064 17.2062C73.4096 17.2547 74.0159 17.7187 74.2465 18.3846L76.4072 24.6241L77.0878 22.5703C77.3264 21.851 77.9986 21.3654 78.7564 21.3654H83.1068C84.0778 21.3654 84.8646 22.1522 84.8646 23.1232C84.8646 24.0942 84.0778 24.881 83.1068 24.881H80.0257L78.1123 30.6541C77.8751 31.3694 77.209 31.8539 76.4555 31.859C76.4518 31.859 76.4478 31.859 76.4438 31.859Z" fill="#2AB3DE"/>
</svg>
