<svg width="160" height="111" viewBox="0 0 160 111" fill="none" xmlns="http://www.w3.org/2000/svg">
<path d="M79.4989 91.9943C59.2928 91.9943 42.9016 75.6193 42.9016 55.397C42.9016 35.1748 59.2928 18.7998 79.4989 18.7998C99.705 18.7998 116.096 35.1748 116.096 55.397C116.096 75.6193 99.7211 91.9943 79.4989 91.9943V91.9943ZM79.7414 0C49.2059 0 24.4575 24.7484 24.4575 55.2839C24.4575 85.8193 49.2059 110.568 79.7414 110.568C110.277 110.568 135.025 85.8193 135.025 55.2839C135.025 24.7484 110.277 0 79.7414 0" fill="#3EBD5F"/>
<path d="M79.3857 24.312C62.1216 24.312 48.1229 38.3108 48.1229 55.5749C48.1229 72.839 62.1216 86.8378 79.3857 86.8378C96.6498 86.8378 110.649 72.839 110.649 55.5749C110.649 38.3108 96.6498 24.312 79.3857 24.312" fill="#3EBD5F"/>
<path d="M155.862 6.36914H155.344V26.5106C155.344 27.5451 154.504 28.4019 153.453 28.4019C152.402 28.4019 151.562 27.5613 151.562 26.5106V6.36914H146.761C146.793 6.48229 146.809 6.61161 146.809 6.74093V26.5106C146.809 27.3996 146.001 28.1109 144.999 28.1109C143.997 28.1109 143.188 27.3996 143.188 26.5106V6.74093C143.188 6.61161 143.205 6.48229 143.237 6.36914H142.752C140.473 6.36914 138.614 8.37359 138.614 10.8468V35.0941C138.614 37.5674 140.473 39.5718 142.752 39.5718H145.306V99.7052C145.306 101.936 147.343 103.746 149.848 103.746C152.354 103.746 154.391 101.936 154.391 99.7052V39.5718H155.862C158.141 39.5718 160 37.5674 160 35.0941V10.8468C160 8.37359 158.141 6.36914 155.862 6.36914Z" fill="#3EBD5F"/>
<path d="M26.2841 23.1318C26.2841 12.2367 20.4001 3.39453 13.142 3.39453C5.88402 3.39453 0 12.2367 0 23.1318C0 31.6507 3.5886 38.9088 8.61588 41.673C8.61588 41.7861 8.59972 41.8993 8.59972 42.0286V102.227C8.59972 104.457 10.6365 106.268 13.142 106.268C15.6476 106.268 17.6844 104.457 17.6844 102.227V42.0286C17.6844 41.9154 17.6844 41.7861 17.6682 41.673C22.6955 38.9088 26.2841 31.6507 26.2841 23.1318" fill="#3EBD5F"/>
</svg>
