<svg width="66" height="120" viewBox="0 0 66 120" fill="none" xmlns="http://www.w3.org/2000/svg">
<path d="M12.0789 48.7895C12.7631 48.7895 13.3069 49.3334 13.3069 50.0176C13.3069 50.7018 12.7455 51.2457 12.0789 51.2457C11.4122 51.2457 10.8508 50.6843 10.8508 50.0176C10.8508 49.351 11.3947 48.7895 12.0789 48.7895ZM12.6052 44.386C13.2894 44.386 13.8333 44.9474 13.8333 45.6141C13.8333 46.2808 13.2718 46.8422 12.6052 46.8422C11.9385 46.8422 11.3771 46.2983 11.3771 45.6141C11.3771 44.9299 11.921 44.386 12.6052 44.386ZM16.9736 38.4562C17.4824 38.4562 17.9034 38.8773 17.9034 39.386C17.9034 39.8948 17.4824 40.3159 16.9736 40.3159C16.4648 40.3159 16.0438 39.8948 16.0438 39.386C16.0438 38.8773 16.4648 38.4562 16.9736 38.4562ZM22.0964 35.0527C22.7806 35.0527 23.3245 35.5966 23.3245 36.2808C23.3245 36.965 22.7806 37.5088 22.0964 37.5088C21.4122 37.5088 20.8683 36.9474 20.8683 36.2808C20.8683 35.6141 21.4122 35.0527 22.0964 35.0527ZM26.2718 29.5264C26.9561 29.5264 27.4999 30.0878 27.4999 30.7545C27.4999 31.4211 26.9561 31.9825 26.2718 31.9825C25.5876 31.9825 25.0438 31.4387 25.0438 30.7545C25.0438 30.0703 25.5876 29.5264 26.2718 29.5264ZM26.2718 36.0176C25.7631 36.0176 25.342 35.5966 25.342 35.0878C25.342 34.579 25.7631 34.158 26.2718 34.158C26.7806 34.158 27.2017 34.579 27.2017 35.0878C27.2017 35.5966 26.7806 36.0176 26.2718 36.0176ZM1.83325 61.4211C2.71045 62.1229 3.76308 62.4562 4.79816 62.4562C6.20167 62.4562 7.60518 61.8422 8.55255 60.6492C8.60518 60.5966 12.2192 56.0176 17.0789 50.386C16.8332 50.1404 16.5876 49.8597 16.3771 49.5615C15.4297 48.2106 15.0789 46.579 15.3596 44.965C15.8859 42.0176 18.4297 39.8773 21.4122 39.8773C21.7806 39.8773 22.1315 39.9124 22.4999 39.9825C23.6929 40.1931 24.8859 40.386 26.0262 40.5439C29.114 37.3334 31.5175 35.1053 33.3069 33.5615V41.2632C34.4999 41.3159 35.3245 41.351 36.3069 41.351C43.9034 41.351 49.2368 39.772 52.2017 36.6492C53.8683 34.8948 54.5701 32.7545 54.8157 30.9124H56.2017C55.9385 33.0001 55.149 35.5088 53.1666 37.5966C48.2543 42.7545 37.5701 44.0527 22.2368 41.3334C19.6403 40.8773 17.149 42.5966 16.6929 45.2106C16.2368 47.8071 17.9561 50.2983 20.5701 50.7545C26.2718 51.772 31.4824 52.2808 36.149 52.2808C46.9561 52.2808 54.9736 49.579 60.0964 44.1931C64.2368 39.8422 65.5175 34.7018 65.7982 30.7369C65.9911 28.0001 65.6929 25.9474 65.535 24.965C65.3596 22.5615 63.3771 20.7896 60.9385 20.7896H55.0438C52.535 24.965 47.6403 28.386 42.0262 28.386C37.6227 28.386 33.6578 26.386 30.9385 23.3334C27.3771 25.7545 22.3947 30.1931 14.9911 38.3334C7.60518 46.4562 1.2894 54.4036 1.02624 54.7369C-0.605341 56.8071 -0.254469 59.7895 1.81571 61.4387" fill="#3EBD5F"/>
<path d="M36.2017 53.6318C35.2543 53.6318 34.4999 53.6143 33.3069 53.5616V112.614C33.3069 116.702 36.6929 120 40.7806 120C44.8684 120 48.2543 116.702 48.2543 112.614V70.3687H50.6403V112.614C50.6403 116.702 54.0262 120 58.114 120C62.2017 120 65.5876 116.702 65.5876 112.614V38.123C64.3947 40.4915 63.2543 42.9125 61.149 45.123C55.7806 50.7722 47.3947 53.6318 36.2192 53.6318" fill="#3EBD5F"/>
<path d="M42.0262 26.8772C49.4473 26.8772 55.4648 20.8597 55.4648 13.4386C55.4648 6.01754 49.4473 0 42.0262 0C34.6052 0 28.5876 6.01754 28.5876 13.4386C28.5876 20.8597 34.6052 26.8772 42.0262 26.8772Z" fill="#3EBD5F"/>
<path d="M11.3596 37C11.6754 36.9298 11.8859 36.614 11.8157 36.2807C11.7455 35.9649 11.4297 35.7544 11.0964 35.8246C9.71045 36.1228 8.71045 36.7719 8.11395 37.7544C7.20167 39.2632 7.64027 40.9649 7.65782 41.0351C7.72799 41.2982 7.97361 41.4737 8.23677 41.4737C8.2894 41.4737 8.34202 41.4737 8.39466 41.4561C8.71045 41.3684 8.90343 41.0526 8.81571 40.7368C8.81571 40.7368 8.49992 39.4386 9.14904 38.3684C9.5701 37.6842 10.3069 37.2281 11.3596 37" fill="#3EBD5F"/>
<path d="M5.39461 41.1402C5.39461 41.1402 5.48233 41.1402 5.51741 41.1402C5.8332 41.07 6.04373 40.7542 5.97356 40.4384C5.97356 40.4209 5.5525 38.3507 6.7104 36.649C7.46478 35.5261 8.72794 34.8069 10.4823 34.4911C10.7981 34.4384 11.0262 34.1226 10.9736 33.7893C10.9209 33.456 10.6051 33.2454 10.2893 33.2981C8.21917 33.6665 6.67531 34.5612 5.74549 35.9647C4.30689 38.0876 4.81566 40.5612 4.8332 40.6665C4.88584 40.9472 5.13145 41.1402 5.41215 41.1402" fill="#3EBD5F"/>
</svg>
