<svg width="160" height="100" viewBox="0 0 160 100" fill="none" xmlns="http://www.w3.org/2000/svg">
<path d="M159.846 95.3502C159.747 90.1857 159.185 68.2504 157.643 67.8209C152.666 66.2903 132.713 73.2497 117.66 69.3295C112.738 64.9689 107.915 60.5642 103.246 56.1595C107.65 55.7962 113.244 54.3426 115.667 49.5525C119.631 41.6351 97.3874 24.3137 90.1307 18.951C84.6248 11.5401 81.8059 1.3323 81.7728 1.26623C81.6589 0.842756 81.3815 0.481877 81.0015 0.262977C80.6215 0.0440767 80.1701 -0.0149123 79.7467 0.0989866C79.3232 0.212885 78.9623 0.490342 78.7434 0.870319C78.5245 1.2503 78.4655 1.70167 78.5794 2.12514C78.7006 2.57662 81.6076 13.1368 87.6421 21.1313C87.736 21.2603 87.8515 21.372 87.9834 21.4617C105.151 34.1141 114.18 45.1258 112.705 48.077C110.425 52.6468 103.477 53.0873 99.8871 52.9882C92.0027 45.3681 85.1424 38.2876 80.7047 33.4975C80.4123 33.1873 80.0531 32.9478 79.6543 32.797C79.2556 32.6463 78.8277 32.5883 78.4032 32.6275C77.9792 32.6717 77.5713 32.8141 77.2119 33.0435C76.8526 33.2729 76.5516 33.5829 76.333 33.949L75.2869 35.6668C74.1044 33.0846 73.1 30.4246 72.2807 27.7053C72.1351 27.3126 71.8457 26.9899 71.4711 26.8025C71.0964 26.6151 70.6646 26.577 70.263 26.6959C69.8614 26.8149 69.52 27.082 69.3078 27.4431C69.0957 27.8043 69.0287 28.2326 69.1204 28.6413C70.1845 32.2259 71.5665 35.7084 73.2498 39.0474L68.9332 46.1279C63.2842 37.6158 54.618 29.5222 53.3076 28.344C48.7157 21.9132 41.2718 11.2648 40.534 9.62411C40.4429 9.42672 40.3138 9.2492 40.1541 9.1017C39.9944 8.9542 39.8072 8.8396 39.6032 8.76445C39.3992 8.68929 39.1824 8.65505 38.9652 8.66368C38.748 8.67231 38.5346 8.72364 38.3372 8.81475C38.1398 8.90585 37.9623 9.03494 37.8148 9.19464C37.6673 9.35435 37.5527 9.54155 37.4775 9.74554C37.4024 9.94954 37.3681 10.1663 37.3767 10.3836C37.3854 10.6008 37.4367 10.8142 37.5278 11.0116C38.629 13.4672 49.4865 28.6854 50.7419 30.4032C50.8069 30.5011 50.8847 30.59 50.9731 30.6675C56.4789 35.6668 70.7281 50.3894 70.5409 58.5161C70.5507 59.1779 70.4113 59.8334 70.133 60.4339C69.8547 61.0344 69.4446 61.5645 68.9332 61.9847C68.57 62.2564 68.1548 62.4504 67.7133 62.5546C67.2719 62.6588 66.8138 62.671 66.3675 62.5904C56.0825 61.4892 33.1452 34.7088 25.1727 24.4899C24.904 24.1438 24.5088 23.9187 24.0741 23.8639C23.6394 23.8092 23.2008 23.9294 22.8547 24.1981C22.5086 24.4668 22.2835 24.8619 22.2288 25.2966C22.174 25.7313 22.2942 26.17 22.5629 26.5161C23.6641 27.8595 45.0378 55.1465 59.7274 63.5264C59.8563 63.8336 60.0751 64.0946 60.3551 64.2752C61.0187 64.7861 61.4634 65.53 61.5994 66.3564C61.8086 67.8319 61.0048 69.6599 59.2539 71.7081C57.7783 73.3929 51.8871 75.8705 28.4762 62.7666C15.141 55.3116 2.74185 46.4472 2.60971 46.3591C2.43405 46.2213 2.23227 46.1206 2.01657 46.0629C1.80086 46.0053 1.57572 45.992 1.35473 46.0239C1.13374 46.0557 0.921504 46.132 0.730836 46.2482C0.540168 46.3643 0.37503 46.5179 0.245399 46.6997C0.115768 46.8815 0.0243362 47.0877 -0.0233726 47.3058C-0.0710813 47.5239 -0.0740764 47.7494 -0.0321768 47.9687C0.00972279 48.188 0.0956472 48.3965 0.220405 48.5817C0.345162 48.7669 0.506163 48.9248 0.693678 49.046C0.814807 49.1341 13.3461 58.0976 26.8355 65.6406C32.2478 68.7631 37.8827 71.483 43.6944 73.7783L43.5292 73.9434C30.205 87.9503 20.9222 87.9834 20.79 87.9834C20.0628 87.9621 19.3558 88.225 18.8192 88.7163C18.2826 89.2077 17.9586 89.8888 17.916 90.6152C17.8861 91.3447 18.1461 92.0564 18.6392 92.5949C19.1323 93.1334 19.8184 93.4549 20.5478 93.4892C20.8891 93.4892 55.0695 95.0749 88.8203 96.5505C108.641 97.4094 124.454 98.0811 135.785 98.5216C142.194 98.7748 147.546 98.973 151.29 99.0832L155.694 99.1933H156.135C157.698 99.1933 159.868 98.995 160.022 96.5725C160.044 96.1574 159.984 95.7421 159.846 95.3502ZM34.4335 88.611C39.249 85.5735 43.6468 81.9197 47.5154 77.7425L49.4204 75.7494L49.1782 75.5291C51.1186 76.0533 53.1151 76.3417 55.1245 76.388C58.0867 76.388 60.278 75.5511 61.7315 73.8664C64.1651 71.0584 65.2112 68.3605 64.8368 65.8719C64.8368 65.7948 64.8368 65.7397 64.8368 65.6626C65.232 65.7606 65.6329 65.8342 66.0371 65.8829C66.3526 65.8991 66.6686 65.8991 66.9841 65.8829C68.4489 65.9232 69.8807 65.4434 71.0254 64.5284C71.8986 63.8077 72.5992 62.9004 73.0756 61.8733C73.552 60.8461 73.7921 59.7253 73.7783 58.5931C73.6993 56.0042 73.0248 53.4683 71.8072 51.1823L72.1486 51.3805L79.119 39.8512C83.8761 44.7955 94.7006 55.9613 106.924 67.1712C120.218 79.3135 131.303 87.998 140.179 93.2249C116.295 92.2669 71.4108 90.2958 34.4335 88.611Z" fill="#2AB3DE"/>
</svg>
