<svg width="139" height="120" viewBox="0 0 139 120" fill="none" xmlns="http://www.w3.org/2000/svg">
<path d="M135.111 45.3926V45.3625C136.563 39.9821 134.508 34.3909 130.08 31.2097L130.556 29.4203C131.96 24.1665 128.833 18.75 123.585 17.3402C118.337 15.9364 112.915 19.0633 111.505 24.3111L111.041 26.0403C105.6 26.5283 100.865 30.4144 99.4186 35.7887V35.8189C95.9361 36.6563 93.1164 39.3435 92.1765 42.8561C91.6403 44.8564 91.7488 46.9169 92.4597 48.8148C90.845 50.2909 89.6762 52.2009 89.1038 54.3397L79.7409 89.2848C78.9396 92.2671 79.3553 95.3941 80.9038 98.0752C82.4522 100.756 84.9465 102.672 87.9349 103.474L111.234 109.716C112.234 109.981 113.24 110.113 114.228 110.113C119.343 110.113 124.037 106.697 125.423 101.528L134.785 66.5825C135.358 64.4497 135.291 62.2084 134.635 60.1237C136.189 58.8284 137.334 57.0751 137.864 55.0989C138.81 51.5622 137.714 47.8448 135.117 45.3866L135.111 45.3926ZM112.583 30.2216L114.276 30.2939L115.584 25.4077C116.391 22.4012 119.488 20.6118 122.494 21.4191C125.501 22.2265 127.29 25.3233 126.483 28.3298L125.169 33.2281L126.634 34.0234C130.092 35.8972 131.899 39.7351 131.2 43.5489L103.702 36.2346C105.004 32.5533 108.631 30.071 112.577 30.2277L112.583 30.2216ZM96.2555 43.9526C96.8339 41.7896 98.6594 40.1689 100.859 39.8315L131.737 48.0436C133.562 49.4233 134.382 51.7791 133.785 54.0023C133.448 55.2616 132.707 56.334 131.664 57.0932L96.4965 47.5797C96.0145 46.4289 95.9241 45.1636 96.2494 43.9466L96.2555 43.9526ZM130.706 65.492L121.344 100.437C120.289 104.359 116.246 106.697 112.318 105.649L89.0194 99.4068C87.1216 98.9007 85.537 97.6776 84.5489 95.9725C83.5608 94.2674 83.3017 92.2792 83.8078 90.3813L93.1707 55.4363C93.5623 53.9662 94.4058 52.6708 95.5626 51.7068L130.532 61.1661C131.02 62.5578 131.086 64.0641 130.706 65.498V65.492Z" fill="#2AB3DE"/>
<path d="M62.2443 18.6533V11.8872C62.2443 9.18201 59.756 6.97686 56.6953 6.97686H53.978C53.6346 5.35613 52.2549 2.25928 46.7058 2.25928C41.1568 2.25928 39.7771 5.36215 39.4336 6.97686H36.7164C33.6557 6.97686 31.1673 9.17598 31.1673 11.8872V18.6533C27.1547 20.1837 24.2928 24.0577 24.2928 28.5946V94.4358C24.2928 100.304 29.0706 105.082 34.939 105.082H39.1023L43.603 108.275C41.5605 110.511 33.4207 115.782 2.10875 115.782C0.945926 115.782 0 116.728 0 117.891C0 119.054 0.945926 120 2.10875 120C31.9385 120 42.7173 115.331 46.507 111.414C47.2421 110.655 47.7 109.944 47.9892 109.33C48.3868 109.203 48.7724 109.01 49.1279 108.763L54.3154 105.082H58.4787C64.347 105.082 69.1249 100.304 69.1249 94.4358V28.5946C69.1249 24.0517 66.263 20.1776 62.2503 18.6533H62.2443ZM36.7104 11.1944H39.4276C41.5062 11.1944 43.2354 9.82066 43.5367 7.92278C43.5909 7.56731 43.7656 6.47678 46.6998 6.47678C48.6459 6.47678 49.7123 6.96481 49.8629 7.92278C50.1642 9.82066 51.8934 11.1944 53.972 11.1944H56.6893C57.5147 11.1944 58.0208 11.6402 58.0208 11.8872V17.9544H35.3788V11.8872C35.3788 11.6462 35.8849 11.1944 36.7104 11.1944ZM64.9013 94.4418C64.9013 97.9845 62.0154 100.871 58.4727 100.871H52.9658L46.7299 105.329L40.4459 100.871H34.939C31.3963 100.871 28.5103 97.9845 28.5103 94.4418V28.5946C28.5103 25.0519 31.3963 22.1659 34.939 22.1659H58.4727C62.0154 22.1659 64.9013 25.0519 64.9013 28.5946V94.4358V94.4418Z" fill="#2AB3DE"/>
<path d="M95.0676 63.146L124.463 71.0225L117.298 97.764C116.523 100.656 113.549 102.373 110.656 101.598L91.7365 96.5287C88.8441 95.7537 87.1272 92.7799 87.9023 89.8875L95.0676 63.146Z" fill="#2AB3DE"/>
<path d="M31.7698 56.2192H61.6417V93.4839C61.6417 96.153 59.4788 98.3159 56.8097 98.3159H36.6018C33.9327 98.3159 31.7698 96.153 31.7698 93.4839V56.2192Z" fill="#2AB3DE"/>
<path d="M28.8658 13.7189H18.8884V2.10875C18.8884 0.945926 17.9425 0 16.7796 0C15.6168 0 14.6709 0.945926 14.6709 2.10875V28.3416C14.6709 29.5044 15.6168 30.4504 16.7796 30.4504C17.9425 30.4504 18.8884 29.5044 18.8884 28.3416V16.7314H28.8658V13.7189Z" fill="#2AB3DE"/>
<path d="M43.4463 16.7072H37.343V13.6946H43.4463C44.4103 13.6946 45.1996 13.0198 45.1996 12.1884V9.61572H48.2121V12.1884C48.2121 14.6828 46.0732 16.7072 43.4463 16.7072Z" fill="#2AB3DE"/>
</svg>
