<svg width="117" height="120" viewBox="0 0 117 120" fill="none" xmlns="http://www.w3.org/2000/svg">
<g clip-path="url(#clip0_2663_1651460)">
<path d="M89.4536 79.9245L79.9245 89.4536C77.7194 91.6587 74.146 91.6587 71.9409 89.4536L51.7998 69.3125H86.8252L89.4536 71.9409C91.6587 74.146 91.6587 77.7194 89.4536 79.9245Z" fill="#2AB3DE"/>
<path d="M113.01 117.307C119.783 117.307 113.01 107 113.01 107C113.01 107 106.237 117.307 113.01 117.307Z" fill="#2AB3DE"/>
<path d="M110.028 106.917L90.0344 86.9237L93.6176 83.3405C95.6455 81.3126 96.7579 78.6153 96.7579 75.7506C96.7579 72.886 95.6455 70.1887 93.6176 68.1608L45.2337 19.7867C42.0245 16.5776 37.2797 15.8393 33.3518 17.5521L30.6447 14.845L31.8654 13.6243C33.8539 11.6358 33.8539 8.40693 31.8654 6.42826L26.9433 1.4865C24.9646 -0.502012 21.7358 -0.502012 19.7472 1.4865L1.48638 19.7474C-0.502134 21.7359 -0.502134 24.9648 1.48638 26.9434L6.41829 31.8753C7.41255 32.8696 8.71198 33.3618 10.0212 33.3618C11.3305 33.3618 12.6299 32.8696 13.6242 31.8753L14.8449 30.6547L17.552 33.3618C15.8391 37.2896 16.5774 42.0345 19.7866 45.2437L68.1607 93.6178C70.2575 95.7047 73.004 96.758 75.7505 96.758C78.497 96.758 81.2436 95.7146 83.3404 93.6178L86.9236 90.0345L103.806 106.917H110.038H110.028ZM9.20418 29.0895L4.27227 24.1575C3.81944 23.7047 3.81944 22.9762 4.27227 22.5234L22.5331 4.27239C22.7596 4.04598 23.0549 3.93769 23.3502 3.93769C23.6455 3.93769 23.9409 4.04598 24.1673 4.27239L29.0992 9.20431C29.552 9.65714 29.552 10.3856 29.0992 10.8384L10.8383 29.0895C10.3855 29.5423 9.65701 29.5423 9.20418 29.0895ZM27.8687 17.621L30.0442 19.7966L19.8063 30.0345L17.6308 27.8589L27.8687 17.621ZM80.5643 90.822C77.9162 93.4701 73.6045 93.4701 70.9564 90.822L22.5627 42.4479C21.2829 41.1682 20.5742 39.4553 20.5742 37.644C20.5742 35.8327 21.2829 34.1198 22.5627 32.8401L32.84 22.5628C34.1689 21.2338 35.9015 20.5743 37.6439 20.5743C39.3863 20.5743 41.1287 21.2338 42.4478 22.5628L90.8219 70.9369C92.1016 72.2166 92.8104 73.9295 92.8104 75.7408C92.8104 77.5521 92.1016 79.265 90.8219 80.5447L80.5446 90.822H80.5643Z" fill="#2AB3DE"/>
</g>
<defs>
<clipPath id="clip0_2663_1651460">
<rect width="116.082" height="120" fill="white"/>
</clipPath>
</defs>
</svg>
