<svg width="52" height="52" viewBox="0 0 52 52" fill="none" xmlns="http://www.w3.org/2000/svg">
<g filter="url(#filter0_i_2620_258236)">
<circle cx="26" cy="26" r="26" fill="white"/>
<path d="M12.512 12.5343C12.8399 12.2062 13.2846 12.0219 13.7483 12.0219C14.212 12.0219 14.6567 12.2062 14.9846 12.5343L25.9891 23.547L36.9935 12.5343C37.1548 12.3671 37.3478 12.2338 37.5611 12.1421C37.7745 12.0504 38.0039 12.0021 38.2361 12.0001C38.4683 11.998 38.6986 12.0423 38.9135 12.1303C39.1284 12.2183 39.3236 12.3483 39.4878 12.5126C39.652 12.6769 39.7819 12.8723 39.8698 13.0873C39.9577 13.3024 40.002 13.5328 39.9999 13.7652C39.9979 13.9976 39.9497 14.2272 39.858 14.4407C39.7664 14.6542 39.6332 14.8473 39.4661 15.0088L28.4617 26.0215L39.4661 37.0343C39.7847 37.3643 39.9609 37.8064 39.957 38.2652C39.953 38.724 39.7691 39.163 39.4448 39.4874C39.1206 39.8119 38.682 39.9959 38.2235 39.9999C37.765 40.0039 37.3233 39.8275 36.9935 39.5088L25.9891 28.496L14.9846 39.5088C14.6548 39.8275 14.2131 40.0039 13.7546 39.9999C13.2961 39.9959 12.8575 39.8119 12.5333 39.4874C12.2091 39.163 12.0252 38.724 12.0212 38.2652C12.0172 37.8064 12.1935 37.3643 12.512 37.0343L23.5164 26.0215L12.512 15.0088C12.1842 14.6806 12 14.2355 12 13.7715C12 13.3075 12.1842 12.8624 12.512 12.5343V12.5343Z" fill="#212529"/>
</g>
<defs>
<filter id="filter0_i_2620_258236" x="0" y="-2" width="52" height="54" filterUnits="userSpaceOnUse" color-interpolation-filters="sRGB">
<feFlood flood-opacity="0" result="BackgroundImageFix"/>
<feBlend mode="normal" in="SourceGraphic" in2="BackgroundImageFix" result="shape"/>
<feColorMatrix in="SourceAlpha" type="matrix" values="0 0 0 0 0 0 0 0 0 0 0 0 0 0 0 0 0 0 127 0" result="hardAlpha"/>
<feOffset dy="-2"/>
<feGaussianBlur stdDeviation="2"/>
<feComposite in2="hardAlpha" operator="arithmetic" k2="-1" k3="1"/>
<feColorMatrix type="matrix" values="0 0 0 0 0 0 0 0 0 0 0 0 0 0 0 0 0 0 0.5 0"/>
<feBlend mode="normal" in2="shape" result="effect1_innerShadow_2620_258236"/>
</filter>
</defs>
</svg>
