<svg width="212" height="112" viewBox="0 0 212 112" fill="none" xmlns="http://www.w3.org/2000/svg">
<rect width="212" height="112" rx="56" fill="white"/>
<rect x="4" y="4" width="204" height="104" rx="52" fill="#54D0F8"/>
<g clip-path="url(#clip0_2620_326329)">
<path d="M170.136 64.0822L170.624 61.1823C170.659 60.9738 170.616 60.7594 170.502 60.5816C170.387 60.4039 170.211 60.2757 170.007 60.2224L166.21 59.2218C166.008 59.1697 165.794 59.1944 165.609 59.2912C165.423 59.3879 165.28 59.5498 165.207 59.7459L165.051 60.1612C163.778 59.4736 162.432 58.9346 161.037 58.5546C163.109 57.7648 164.983 56.5296 166.529 54.9357C168.074 53.3418 169.254 51.4277 169.985 49.3276C170.717 47.2275 170.981 44.9922 170.761 42.7785C170.541 40.5647 169.842 38.4261 168.712 36.5125V36.4376L168.603 36.3899C167.346 34.2941 165.605 32.5324 163.528 31.2531C161.451 29.9739 159.098 29.2146 156.667 29.0393C154.237 28.8639 151.8 29.2776 149.562 30.2455C147.324 31.2134 145.35 32.7072 143.807 34.601C142.264 36.4948 141.197 38.7332 140.696 41.1276C140.195 43.5221 140.274 46.0024 140.927 48.3597C141.58 50.717 142.787 52.8822 144.448 54.673C146.108 56.4639 148.173 57.8278 150.468 58.6499C149.98 58.7997 149.498 58.9631 149.024 59.1469C148.414 59.3851 147.817 59.671 147.227 59.9706L147.064 59.5962C146.97 59.3867 146.797 59.2229 146.583 59.1401C146.476 59.0928 146.361 59.0684 146.244 59.0684C146.127 59.0684 146.012 59.0928 145.905 59.1401L141.986 61.0938C141.828 61.1705 141.697 61.2949 141.612 61.4499C141.527 61.6048 141.492 61.7826 141.512 61.9583L141.776 64.1503C138.054 68.1761 135.989 73.4695 136 78.9631C136 79.1882 136.088 79.4043 136.245 79.5648C136.403 79.7253 136.617 79.8172 136.841 79.8208V79.8208C136.953 79.8217 137.064 79.8003 137.167 79.758C137.271 79.7156 137.365 79.6531 137.444 79.574C137.524 79.4949 137.587 79.4008 137.63 79.2971C137.673 79.1934 137.695 79.0822 137.695 78.9699C137.688 74.4135 139.223 69.99 142.047 66.4239L142.373 69.1469H141.858C141.633 69.1469 141.417 69.2365 141.258 69.3961C141.099 69.5557 141.01 69.7721 141.01 69.9978C141.01 70.2235 141.099 70.4399 141.258 70.5995C141.417 70.7591 141.633 70.8487 141.858 70.8487H142.576L143.783 80.9644C143.806 81.1714 143.905 81.3624 144.06 81.5006C144.216 81.6388 144.416 81.7146 144.624 81.7132H155.661C155.802 81.7131 155.941 81.6775 156.065 81.6097C156.189 81.5419 156.295 81.444 156.371 81.3249C156.448 81.2059 156.494 81.0694 156.505 80.928C156.516 80.7866 156.492 80.6446 156.434 80.5151L155.166 77.765H157.492C157.609 78.7433 158.045 79.6552 158.732 80.3586C159.681 81.2291 160.906 81.7333 162.19 81.7813C162.285 81.7813 162.475 81.7813 162.732 81.7813C164.038 81.8041 165.309 81.3601 166.319 80.5288C167.546 79.46 168.169 77.8058 168.19 75.6343L169.776 66.2401C172.711 69.8351 174.309 74.3423 174.298 78.9903C174.298 79.216 174.388 79.4324 174.546 79.592C174.705 79.7516 174.921 79.8412 175.146 79.8412V79.8412C175.258 79.8412 175.369 79.819 175.473 79.7759C175.576 79.7328 175.67 79.6696 175.75 79.59C175.829 79.5103 175.892 79.4158 175.935 79.3117C175.978 79.2077 176 79.0961 176 78.9835C176.01 73.4471 173.912 68.1164 170.136 64.0822V64.0822ZM168.827 61.6996L167.186 71.5907C166.991 71.2879 166.764 71.0072 166.508 70.7534C165.663 69.9446 164.591 69.4148 163.437 69.2354L166.556 61.0665L168.827 61.6996ZM165.586 35.151C160.883 33.4669 156.026 32.2538 151.085 31.5295C153.587 30.6203 156.302 30.4792 158.885 31.1241C161.467 31.769 163.8 33.1708 165.586 35.151V35.151ZM148.332 32.8841C150.122 33.0816 159.383 34.2456 167.444 37.731C167.925 38.5935 168.309 39.5066 168.59 40.4539C160.773 37.2749 149.363 35.6888 145.539 35.2463C146.361 34.3372 147.3 33.5428 148.332 32.8841V32.8841ZM147.2 37.1932C145.645 37.9285 144.18 38.8422 142.834 39.9161C143.203 38.8238 143.709 37.7831 144.339 36.8188C144.766 36.8937 145.79 37.0094 147.2 37.1932ZM142.102 44.2864C142.103 43.8316 142.128 43.3772 142.176 42.925C145.247 39.5213 149.729 37.9624 150.502 37.7174C155.925 38.5819 163.668 40.1408 169.003 42.5302C169.084 43.119 169.127 43.7125 169.132 44.3069C169.05 47.8533 167.589 51.2267 165.061 53.705C162.534 56.1832 159.14 57.5694 155.607 57.5667C152.074 57.564 148.683 56.1728 146.158 53.6907C143.634 51.2086 142.178 47.833 142.102 44.2864V44.2864ZM149.675 60.7398C151.647 59.9635 153.746 59.5619 155.864 59.5553V59.5553C155.923 59.562 155.982 59.562 156.041 59.5553C158.98 59.5679 161.868 60.3291 164.434 61.7677L161.614 69.1877H151.349L147.959 61.5567C148.516 61.2542 149.089 60.9815 149.675 60.7398V60.7398ZM145.376 80.0318L144.19 70.1135C144.193 70.0818 144.193 70.0499 144.19 70.0182C144.192 69.9012 144.168 69.7852 144.122 69.6778L143.268 62.3804L145.905 61.1142L154.305 80.0318H145.376ZM165.22 79.2285C164.416 79.8756 163.392 80.181 162.366 80.0795H162.251C161.833 80.0952 161.417 80.0233 161.028 79.8685C160.639 79.7136 160.287 79.4792 159.994 79.1801C159.7 78.881 159.472 78.5239 159.324 78.1314C159.176 77.7389 159.11 77.3197 159.132 76.9004C159.133 76.7888 159.111 76.6782 159.068 76.5753C159.024 76.4723 158.961 76.3792 158.881 76.3014C158.72 76.1423 158.504 76.052 158.278 76.0495L154.888 76.0904C154.739 76.0992 154.594 76.146 154.468 76.2265L152.095 70.8964H162.651C163.636 70.9374 164.574 71.331 165.295 72.006C165.721 72.4843 166.048 73.0431 166.256 73.6497C166.464 74.2564 166.55 74.8986 166.508 75.539C166.508 77.2408 166.068 78.4865 165.22 79.2285Z" fill="#4BBBEB"/>
</g>
<g filter="url(#filter0_di_2620_326329)">
<circle cx="56" cy="56" r="50" fill="white"/>
</g>
<g clip-path="url(#clip1_2620_326329)">
<path d="M63.86 63.36C67.9064 61.6287 71.3482 58.7358 73.7496 55.0473C76.151 51.3589 77.404 47.0409 77.35 42.64C77.3549 42.5701 77.3549 42.4999 77.35 42.43L73.18 18C73.1241 17.7251 72.9773 17.477 72.7632 17.2956C72.5492 17.1142 72.2804 17.0101 72 17H40.83C40.541 16.9988 40.2605 17.0978 40.0362 17.2801C39.8119 17.4624 39.6578 17.7168 39.6 18L35.45 42.43C35.4451 42.4999 35.4451 42.5701 35.45 42.64C35.3932 47.0325 36.6396 51.3432 39.0317 55.0276C41.4239 58.712 44.8545 61.6046 48.89 63.34C36.37 66.83 27.07 78.9 27 93.22C26.9987 93.3837 27.0298 93.546 27.0915 93.6976C27.1532 93.8492 27.2444 93.9871 27.3596 94.1033C27.4749 94.2195 27.612 94.3117 27.7631 94.3747C27.9142 94.4376 28.0763 94.47 28.24 94.47C28.4045 94.4727 28.5679 94.4426 28.7207 94.3814C28.8734 94.3203 29.0125 94.2294 29.1298 94.114C29.247 93.9986 29.3402 93.861 29.4037 93.7092C29.4673 93.5574 29.5 93.3945 29.5 93.23C29.4747 88.2303 30.7456 83.3095 33.1887 78.9473C35.6318 74.5851 39.1637 70.9305 43.44 68.34V71.34C43.4337 71.531 43.472 71.7208 43.5519 71.8943C43.6317 72.0679 43.7509 72.2205 43.9 72.34L55.51 82C55.6776 82.1373 55.8771 82.2301 56.09 82.27H56.25C56.323 82.2804 56.397 82.2804 56.47 82.27C56.7605 82.2687 57.0421 82.1701 57.27 81.99L68.86 72.34C69.005 72.2175 69.1206 72.0641 69.1985 71.8911C69.2764 71.718 69.3145 71.5297 69.31 71.34V68.34C73.5906 70.9332 77.1253 74.5925 79.5687 78.9603C82.012 83.3282 83.2805 88.2553 83.25 93.26C83.2526 93.5898 83.3855 93.9052 83.6196 94.1374C83.8538 94.3697 84.1702 94.5 84.5 94.5C84.6642 94.4987 84.8264 94.4651 84.9776 94.401C85.1288 94.337 85.2658 94.2438 85.381 94.1268C85.4961 94.0098 85.5871 93.8713 85.6487 93.7191C85.7103 93.567 85.7413 93.4042 85.74 93.24C85.68 78.92 76.38 66.84 63.86 63.36ZM41.89 19.5H70.89L74.32 39.67C68.4585 38.3388 62.479 37.5951 56.47 37.45C50.4095 37.5992 44.3793 38.3563 38.47 39.71L41.89 19.5ZM37.89 42.74L37.95 42.38C44.0261 40.9578 50.2317 40.1604 56.47 40C62.6385 40.1754 68.7732 40.9761 74.78 42.39L74.85 42.79C74.79 53.6 66.53 62.37 56.39 62.37C46.25 62.37 38 53.55 37.93 42.74H37.89ZM66.81 70.82L56.4 79.48L45.94 70.79V67.05C49.1582 65.5939 52.6477 64.8339 56.18 64.82H56.44C60.0153 64.8232 63.5494 65.5831 66.81 67.05V70.82Z" fill="#333333"/>
<path d="M52.08 30.0002H55.56V33.6002C55.56 33.9317 55.6917 34.2496 55.9261 34.4841C56.1605 34.7185 56.4785 34.8502 56.81 34.8502C57.1415 34.8502 57.4595 34.7185 57.6939 34.4841C57.9283 34.2496 58.06 33.9317 58.06 33.6002V30.0002H61.22C61.5515 30.0002 61.8694 29.8685 62.1039 29.6341C62.3383 29.3996 62.47 29.0817 62.47 28.7502C62.47 28.4187 62.3383 28.1007 62.1039 27.8663C61.8694 27.6319 61.5515 27.5002 61.22 27.5002H58.06V23.9302C58.06 23.5987 57.9283 23.2807 57.6939 23.0463C57.4595 22.8119 57.1415 22.6802 56.81 22.6802C56.4785 22.6802 56.1605 22.8119 55.9261 23.0463C55.6917 23.2807 55.56 23.5987 55.56 23.9302V27.5302H52.08C51.7485 27.5302 51.4305 27.6619 51.1961 27.8963C50.9617 28.1307 50.83 28.4487 50.83 28.7802C50.83 29.1117 50.9617 29.4296 51.1961 29.6641C51.4305 29.8985 51.7485 30.0302 52.08 30.0302V30.0002Z" fill="#333333"/>
</g>
<defs>
<filter id="filter0_di_2620_326329" x="3" y="0" width="113" height="112" filterUnits="userSpaceOnUse" color-interpolation-filters="sRGB">
<feFlood flood-opacity="0" result="BackgroundImageFix"/>
<feColorMatrix in="SourceAlpha" type="matrix" values="0 0 0 0 0 0 0 0 0 0 0 0 0 0 0 0 0 0 127 0" result="hardAlpha"/>
<feOffset dx="4"/>
<feGaussianBlur stdDeviation="3"/>
<feComposite in2="hardAlpha" operator="out"/>
<feColorMatrix type="matrix" values="0 0 0 0 0 0 0 0 0 0 0 0 0 0 0 0 0 0 0.25 0"/>
<feBlend mode="normal" in2="BackgroundImageFix" result="effect1_dropShadow_2620_326329"/>
<feBlend mode="normal" in="SourceGraphic" in2="effect1_dropShadow_2620_326329" result="shape"/>
<feColorMatrix in="SourceAlpha" type="matrix" values="0 0 0 0 0 0 0 0 0 0 0 0 0 0 0 0 0 0 127 0" result="hardAlpha"/>
<feOffset dx="-3" dy="-3"/>
<feGaussianBlur stdDeviation="3"/>
<feComposite in2="hardAlpha" operator="arithmetic" k2="-1" k3="1"/>
<feColorMatrix type="matrix" values="0 0 0 0 0 0 0 0 0 0 0 0 0 0 0 0 0 0 0.15 0"/>
<feBlend mode="normal" in2="shape" result="effect2_innerShadow_2620_326329"/>
</filter>
<clipPath id="clip0_2620_326329">
<rect width="40.0106" height="52.78" fill="white" transform="translate(136 29)"/>
</clipPath>
<clipPath id="clip1_2620_326329">
<rect width="58.75" height="77.5" fill="white" transform="translate(27 17)"/>
</clipPath>
</defs>
</svg>
