<svg width="158" height="120" viewBox="0 0 158 120" fill="none" xmlns="http://www.w3.org/2000/svg">
<path d="M68.3269 29.0168H8.05333V7.06184H68.3269V29.0168ZM75.2178 35.0185C75.9701 34.3517 76.3976 33.4796 76.3976 32.5221V3.53947C76.3976 2.61613 75.9701 1.69279 75.2178 1.04303C74.4654 0.376177 73.4224 0 72.3623 0H4.0351C2.97496 0 1.93193 0.376177 1.17958 1.04303C0.427229 1.69279 -0.000244141 2.59903 -0.000244141 3.53947V32.5392C-0.000244141 33.4625 0.427229 34.3859 1.17958 35.0356C1.93193 35.6854 2.97496 36.0787 4.0351 36.0787H72.3623C73.4395 36.0787 74.4483 35.7196 75.2178 35.0356" fill="#2AB3DE"/>
<path d="M36.0784 53.4851H59.2474V59.5381H45.2605C43.8755 59.5381 42.7469 60.5127 42.7469 61.7268C42.7469 62.9408 43.8755 63.9154 45.2605 63.9154H59.2474V68.156H45.2605C43.8755 68.156 42.7469 69.1306 42.7469 70.3446C42.7469 71.5586 43.8584 72.5333 45.2605 72.5333H59.2474V76.7909H45.2776C43.8926 76.7909 42.764 77.7655 42.764 78.9795C42.764 80.1936 43.8926 81.1682 45.2776 81.1682H59.2474V88.7772H36.0784V53.4338V53.4851ZM10.242 41.0371V103.431C10.242 104.354 10.6694 105.261 11.4218 105.927C12.1741 106.577 13.2172 106.953 14.2773 106.953H62.9578C64.0351 106.953 65.0439 106.594 65.8134 105.91C66.5828 105.243 66.9932 104.371 66.9932 103.431V41.0371H28.2642V99.7889H18.4665V41.0371H10.2249H10.242Z" fill="#2AB3DE"/>
<path d="M157.139 105.329V115.212C153.275 117.777 146.469 119.607 138.518 120C137.937 118.837 136.74 118.034 135.355 118.034C133.97 118.034 132.773 118.837 132.192 120C124.241 119.607 117.435 117.777 113.571 115.212V106.218C117.572 108.304 123.659 109.741 130.619 110.083C130.755 109.809 130.926 109.553 131.114 109.33C124.001 108.869 117.897 107.244 114.135 104.97C118.102 102.576 124.685 100.901 132.311 100.542C132.927 101.585 134.055 102.286 135.355 102.286C136.654 102.286 137.783 101.585 138.399 100.542C146.401 100.918 153.257 102.747 157.156 105.329" fill="#2AB3DE"/>
<path d="M104.885 87.871H91.5303C86.1783 87.871 83.528 91.5473 83.528 94.4028C83.528 96.1811 80.8606 96.1811 80.8606 94.4028C80.8606 89.9571 84.8104 85.2036 91.5303 85.2036H104.885C106.663 85.2036 106.663 87.871 104.885 87.871ZM125.865 81.5786H92.4194C84.7249 81.5786 78.347 87.2555 78.347 94.4028C78.347 101.55 84.7249 107.227 92.4194 107.227H110.014V103.824H108.219C107.466 102.012 106.577 99.0195 106.577 94.967C106.577 89.256 107.808 86.2808 108.595 84.9642H125.848C131.986 84.9642 136.517 89.427 136.517 94.3857C136.517 95.6339 136.227 96.8479 135.714 97.9765C136.894 98.0278 138.091 98.1132 139.287 98.2329C139.698 97.0189 139.92 95.7365 139.92 94.3857C139.92 87.2384 133.559 81.5615 125.848 81.5615" fill="#2AB3DE"/>
</svg>
