<svg width="273" height="112" viewBox="0 0 273 112" fill="none" xmlns="http://www.w3.org/2000/svg">
<path d="M0 56C0 25.0721 25.0721 0 56 0H217C247.928 0 273 25.0721 273 56V56C273 86.9279 247.928 112 217 112H56C25.0721 112 0 86.9279 0 56V56Z" fill="white"/>
<rect x="4" y="4" width="265" height="104" rx="52" fill="#54D0F8"/>
<g filter="url(#filter0_di_1139_129344)">
<circle cx="56" cy="56" r="50" fill="white"/>
</g>
<path d="M133.807 64.24C133.807 65.328 134.671 66.16 135.727 66.16C136.815 66.16 137.679 65.328 137.679 64.24V56.464C137.679 53.84 139.247 52.272 141.487 52.272C143.791 52.272 145.103 53.776 145.103 56.4V64.24C145.103 65.328 145.967 66.16 147.055 66.16C148.143 66.16 148.975 65.328 148.975 64.24V55.216C148.975 51.312 146.767 48.752 142.959 48.752C140.335 48.752 138.767 50.128 137.679 51.696V50.864C137.679 49.776 136.815 48.912 135.727 48.912C134.639 48.912 133.807 49.776 133.807 50.864V64.24ZM168.659 50.864C168.659 49.776 167.763 48.912 166.707 48.912C165.619 48.912 164.755 49.776 164.755 50.864V58.64C164.755 61.264 163.187 62.8 160.947 62.8C158.643 62.8 157.331 61.328 157.331 58.704V50.864C157.331 49.776 156.467 48.912 155.379 48.912C154.323 48.912 153.459 49.776 153.459 50.864V59.856C153.459 63.792 155.667 66.352 159.475 66.352C162.099 66.352 163.667 64.976 164.755 63.376V64.24C164.755 65.328 165.651 66.16 166.707 66.16C167.795 66.16 168.659 65.296 168.659 64.24V50.864ZM173.495 64.24C173.495 65.328 174.359 66.16 175.415 66.16C176.503 66.16 177.367 65.296 177.367 64.24V59.248C177.367 55.248 179.255 53.136 182.007 52.656C182.871 52.496 183.543 51.824 183.543 50.8C183.543 49.68 182.839 48.88 181.623 48.88C179.927 48.88 178.263 50.48 177.367 52.592V50.864C177.367 49.776 176.503 48.912 175.415 48.912C174.327 48.912 173.495 49.776 173.495 50.864V64.24ZM192.505 66.32C196.025 66.32 198.777 64.56 198.777 61.008V60.944C198.777 57.904 195.993 56.784 193.529 56.016C191.545 55.376 189.721 54.864 189.721 53.616V53.552C189.721 52.592 190.585 51.888 192.089 51.888C193.273 51.888 194.681 52.336 196.057 53.04C196.313 53.168 196.505 53.232 196.825 53.232C197.721 53.232 198.425 52.56 198.425 51.664C198.425 50.992 198.041 50.48 197.497 50.192C195.865 49.328 193.977 48.816 192.185 48.816C188.825 48.816 186.169 50.768 186.169 53.968V54.032C186.169 57.264 188.953 58.288 191.449 58.992C193.433 59.6 195.225 60.048 195.225 61.36V61.424C195.225 62.544 194.265 63.248 192.601 63.248C191.065 63.248 189.369 62.704 187.737 61.616C187.513 61.488 187.225 61.392 186.905 61.392C186.009 61.392 185.337 62.096 185.337 62.96C185.337 63.6 185.657 64.08 186.073 64.304C188.025 65.648 190.361 66.32 192.505 66.32ZM205.657 56.368C206.009 53.744 207.673 51.92 210.041 51.92C212.601 51.92 214.073 53.872 214.329 56.368H205.657ZM216.569 64.144C216.857 63.856 217.081 63.44 217.081 62.96C217.081 62.064 216.409 61.392 215.545 61.392C215.097 61.392 214.841 61.52 214.553 61.744C213.465 62.64 212.185 63.216 210.553 63.216C208.057 63.216 206.105 61.68 205.689 58.928H216.281C217.273 58.928 218.105 58.16 218.105 57.072C218.105 53.168 215.449 48.752 210.073 48.752C205.241 48.752 201.817 52.72 201.817 57.552V57.616C201.817 62.832 205.593 66.384 210.489 66.384C213.113 66.384 215.033 65.52 216.569 64.144Z" fill="white"/>
<path d="M84 93.6663C83.922 77.3589 71.4487 64.1419 56.065 64.1419L55.935 64.1143C40.5513 64.1143 28.078 77.3313 28 93.6387" stroke="#333333" stroke-width="2.5" stroke-miterlimit="10" stroke-linecap="round" stroke-linejoin="round"/>
<path d="M36.3945 43.2818L40.5263 19H56.066H55.9621H71.5017L75.6335 43.2818C75.6335 54.7881 66.8502 64.1145 56.014 64.1145C45.1778 64.1145 36.3945 54.7881 36.3945 43.2818Z" stroke="#333333" stroke-width="2.5" stroke-miterlimit="10" stroke-linecap="round" stroke-linejoin="round"/>
<path d="M51.7246 29.4844H60.8197" stroke="#333333" stroke-width="2.5" stroke-miterlimit="10" stroke-linecap="round"/>
<path d="M56.4287 24.6572V34.3148" stroke="#333333" stroke-width="2.5" stroke-miterlimit="10" stroke-linecap="round"/>
<path d="M67.6286 67.4248V71.9225L56.0908 81.5248L55.9349 81.4972L44.3711 71.8949V67.4248" stroke="#333333" stroke-width="2.5" stroke-miterlimit="10" stroke-linecap="round" stroke-linejoin="round"/>
<path d="M75.2685 41.9294C75.2685 41.9294 65.004 39.3633 56.0908 39.3633C47.1776 39.3633 36.9131 41.9294 36.9131 41.9294" stroke="#333333" stroke-width="2.5" stroke-miterlimit="10" stroke-linecap="round" stroke-linejoin="round"/>
<defs>
<filter id="filter0_di_1139_129344" x="3" y="0" width="113" height="112" filterUnits="userSpaceOnUse" color-interpolation-filters="sRGB">
<feFlood flood-opacity="0" result="BackgroundImageFix"/>
<feColorMatrix in="SourceAlpha" type="matrix" values="0 0 0 0 0 0 0 0 0 0 0 0 0 0 0 0 0 0 127 0" result="hardAlpha"/>
<feOffset dx="4"/>
<feGaussianBlur stdDeviation="3"/>
<feComposite in2="hardAlpha" operator="out"/>
<feColorMatrix type="matrix" values="0 0 0 0 0 0 0 0 0 0 0 0 0 0 0 0 0 0 0.25 0"/>
<feBlend mode="normal" in2="BackgroundImageFix" result="effect1_dropShadow_1139_129344"/>
<feBlend mode="normal" in="SourceGraphic" in2="effect1_dropShadow_1139_129344" result="shape"/>
<feColorMatrix in="SourceAlpha" type="matrix" values="0 0 0 0 0 0 0 0 0 0 0 0 0 0 0 0 0 0 127 0" result="hardAlpha"/>
<feOffset dx="-3" dy="-3"/>
<feGaussianBlur stdDeviation="3"/>
<feComposite in2="hardAlpha" operator="arithmetic" k2="-1" k3="1"/>
<feColorMatrix type="matrix" values="0 0 0 0 0 0 0 0 0 0 0 0 0 0 0 0 0 0 0.15 0"/>
<feBlend mode="normal" in2="shape" result="effect2_innerShadow_1139_129344"/>
</filter>
</defs>
</svg>
