<svg width="82" height="111" viewBox="0 0 82 111" fill="none" xmlns="http://www.w3.org/2000/svg">
<path d="M78 108.676C78.0052 109.78 78.9048 110.672 80.0093 110.666C81.1139 110.661 82.0051 109.762 82 108.657L78 108.676ZM41.0905 66.4886L40.6648 68.4428C40.8047 68.4733 40.9474 68.4886 41.0905 68.4886V66.4886ZM40.9095 66.4492L41.3352 64.495C41.1953 64.4646 41.0526 64.4492 40.9095 64.4492V66.4492ZM2.16961e-05 108.618C-0.00512671 109.722 0.886121 110.622 1.99068 110.627C3.09524 110.632 3.99483 109.741 3.99998 108.636L2.16961e-05 108.618ZM82 108.657C81.887 84.4251 63.7771 64.4886 41.0905 64.4886V68.4886C61.2587 68.4886 77.8958 86.3151 78 108.676L82 108.657ZM41.5162 64.5345L41.3352 64.495L40.4838 68.4034L40.6648 68.4428L41.5162 64.5345ZM40.9095 64.4492C18.2229 64.4492 0.112967 84.3857 2.16961e-05 108.618L3.99998 108.636C4.1042 86.2757 20.7413 68.4492 40.9095 68.4492V64.4492Z" fill="#2AB3DE"/>
<path d="M13.6924 36.6883L19.4474 2H41.0919H40.9471H62.5917L68.3467 36.6883C68.3467 53.1258 56.1128 66.4493 41.0195 66.4493C25.9263 66.4493 13.6924 53.1258 13.6924 36.6883Z" stroke="#2AB3DE" stroke-width="4" stroke-miterlimit="10" stroke-linecap="round" stroke-linejoin="round"/>
<path d="M35.0463 14.9785C33.9417 14.9785 33.0463 15.8739 33.0463 16.9785C33.0463 18.0831 33.9417 18.9785 35.0463 18.9785V14.9785ZM47.7145 18.9785C48.819 18.9785 49.7145 18.0831 49.7145 16.9785C49.7145 15.8739 48.819 14.9785 47.7145 14.9785V18.9785ZM35.0463 18.9785H47.7145V14.9785H35.0463V18.9785Z" fill="#2AB3DE"/>
<path d="M43.597 10.082C43.597 8.97746 42.7016 8.08203 41.597 8.08203C40.4925 8.08203 39.597 8.97746 39.597 10.082H43.597ZM39.597 23.8785C39.597 24.9831 40.4925 25.8785 41.597 25.8785C42.7016 25.8785 43.597 24.9831 43.597 23.8785H39.597ZM39.597 10.082V23.8785H43.597V10.082H39.597Z" fill="#2AB3DE"/>
<path d="M59.197 71.1777C59.197 70.0732 58.3016 69.1777 57.197 69.1777C56.0925 69.1777 55.197 70.0732 55.197 71.1777H59.197ZM57.197 77.6029L58.4955 79.1241C58.9407 78.7441 59.197 78.1882 59.197 77.6029H57.197ZM41.1265 91.3206L40.7693 93.2884C41.3603 93.3957 41.9681 93.2317 42.425 92.8418L41.1265 91.3206ZM40.9093 91.2812L39.6126 92.8038C39.881 93.0324 40.2052 93.186 40.5521 93.249L40.9093 91.2812ZM24.8026 77.5635H22.8026C22.8026 78.1496 23.0597 78.7062 23.5058 79.0862L24.8026 77.5635ZM26.8026 71.1777C26.8026 70.0732 25.9072 69.1777 24.8026 69.1777C23.698 69.1777 22.8026 70.0732 22.8026 71.1777H26.8026ZM55.197 71.1777V77.6029H59.197V71.1777H55.197ZM55.8986 76.0818L39.828 89.7994L42.425 92.8418L58.4955 79.1241L55.8986 76.0818ZM41.4837 89.3527L41.2665 89.3133L40.5521 93.249L40.7693 93.2884L41.4837 89.3527ZM42.2061 89.7585L26.0994 76.0409L23.5058 79.0862L39.6126 92.8038L42.2061 89.7585ZM26.8026 77.5635V71.1777H22.8026V77.5635H26.8026Z" fill="#2AB3DE"/>
<path d="M67.341 36.6941C68.4109 36.9684 69.5007 36.3235 69.7751 35.2535C70.0494 34.1835 69.4044 33.0938 68.3345 32.8194L67.341 36.6941ZM13.9173 32.8194C12.8474 33.0938 12.2024 34.1835 12.4767 35.2535C12.7511 36.3235 13.8409 36.9684 14.9108 36.6941L13.9173 32.8194ZM67.8377 34.7567C68.3345 32.8194 68.3342 32.8194 68.3339 32.8193C68.3337 32.8192 68.3334 32.8191 68.333 32.819C68.3323 32.8189 68.3314 32.8186 68.3303 32.8183C68.328 32.8178 68.3249 32.817 68.3209 32.8159C68.3129 32.8139 68.3015 32.811 68.2866 32.8073C68.257 32.7998 68.2139 32.7889 68.1577 32.7749C68.0454 32.7469 67.8811 32.7064 67.6685 32.6551C67.2435 32.5525 66.6258 32.4068 65.847 32.2323C64.29 31.8835 62.086 31.4193 59.4894 30.955C54.3137 30.0297 47.5038 29.0908 41.1259 29.0908V33.0908C47.1628 33.0908 53.7088 33.9849 58.7854 34.8926C61.3148 35.3448 63.4611 35.797 64.9727 36.1356C65.7282 36.3048 66.3244 36.4455 66.7298 36.5434C66.9324 36.5923 67.0873 36.6305 67.1905 36.6562C67.2421 36.6691 67.2808 36.6788 67.306 36.6852C67.3186 36.6884 67.3279 36.6907 67.3338 36.6922C67.3367 36.693 67.3387 36.6935 67.34 36.6938C67.3406 36.694 67.3409 36.6941 67.3411 36.6941C67.3412 36.6941 67.3412 36.6941 67.3412 36.6941C67.3411 36.6941 67.341 36.6941 67.8377 34.7567ZM41.1259 29.0908C34.748 29.0908 27.9381 30.0297 22.7624 30.955C20.1657 31.4193 17.9618 31.8835 16.4048 32.2323C15.626 32.4068 15.0082 32.5525 14.5832 32.6551C14.3707 32.7064 14.2063 32.7469 14.094 32.7749C14.0379 32.7889 13.9948 32.7998 13.9651 32.8073C13.9503 32.811 13.9389 32.8139 13.9309 32.8159C13.9269 32.817 13.9238 32.8178 13.9215 32.8183C13.9204 32.8186 13.9195 32.8189 13.9188 32.819C13.9184 32.8191 13.918 32.8192 13.9179 32.8193C13.9176 32.8194 13.9173 32.8194 14.4141 34.7567C14.9108 36.6941 14.9107 36.6941 14.9106 36.6941C14.9106 36.6941 14.9106 36.6941 14.9107 36.6941C14.9108 36.6941 14.9112 36.694 14.9118 36.6938C14.913 36.6935 14.9151 36.693 14.918 36.6922C14.9239 36.6907 14.9331 36.6884 14.9458 36.6852C14.971 36.6788 15.0097 36.6691 15.0613 36.6562C15.1645 36.6305 15.3194 36.5923 15.522 36.5434C15.9274 36.4455 16.5236 36.3048 17.2791 36.1356C18.7907 35.797 20.937 35.3448 23.4664 34.8926C28.543 33.9849 35.089 33.0908 41.1259 33.0908V29.0908Z" fill="#2AB3DE"/>
</svg>
