<svg width="168" height="436" viewBox="0 0 168 436" fill="none" xmlns="http://www.w3.org/2000/svg">
<path d="M53.3195 326.117L55.1216 356.106C56.6234 368.28 65.6694 405.48 65.1806 410.82C65.1806 410.82 68.4492 414.107 77.9428 410.327C79.4269 409.747 77.2125 396.414 78.5023 388.298C79.8333 379.892 79.7803 365.26 79.2679 358.419L74.368 324.343C74.368 333.039 69.6565 335.862 63.8437 335.862C58.0309 335.862 53.3195 333.01 53.3195 324.343V326.117Z" fill="#CCCCCC" stroke="#808080" stroke-width="4" stroke-miterlimit="10" stroke-linecap="round"/>
<path d="M46.9702 77.3029C46.9702 77.3029 42.0173 92.5552 41.0809 98.7524L23.295 95.6451C23.295 95.6451 27.0819 76.9551 46.9702 77.3029Z" fill="#CCCCCC" stroke="#808080" stroke-width="4" stroke-miterlimit="10" stroke-linecap="round"/>
<path d="M83.7783 53.0303C90.0269 53.0303 91.8055 59.7144 95.6453 56.8332C101.47 52.4679 108.119 38.0388 108.119 38.0388C108.119 38.0388 112.636 23.6445 105.693 13.0067C98.749 2.36888 84.0728 2.80946 84.0728 2.80946C84.0728 2.80946 69.3494 2.36888 62.4235 13.0067C55.4976 23.6445 59.9971 38.0388 59.9971 38.0388C59.9971 38.0388 64.3552 53.1114 70.3682 57.4419C74.1728 60.2014 77.7181 53.0303 83.7783 53.0303Z" fill="#CCCCCC" stroke="#808080" stroke-width="4" stroke-miterlimit="10" stroke-linecap="round"/>
<path d="M3.24127 232.609C0.808966 258.204 9.07172 260.435 12.4463 260.98C12.6048 261.007 12.7673 260.997 12.9213 260.952C13.0753 260.907 13.2167 260.827 13.3345 260.72C13.4524 260.612 13.5435 260.479 13.6009 260.331C13.6582 260.184 13.6803 260.025 13.6654 259.867L12.1401 242.105C12.1206 241.887 12.1571 241.667 12.2461 241.466C12.3351 241.265 12.4738 241.09 12.6495 240.955C12.8253 240.821 13.0325 240.732 13.2521 240.697C13.4718 240.662 13.6969 240.681 13.9069 240.754C17.5229 242.006 23.4123 244.169 24.2957 242.713C24.8198 241.821 15.55 232.47 12.6819 229.537C12.4541 229.304 12.1788 229.122 11.8743 229.002C11.5697 228.882 11.2428 228.827 10.9151 228.841C8.5888 228.963 3.3885 231.131 3.24127 232.609Z" fill="#CCCCCC" stroke="#808080" stroke-width="4" stroke-miterlimit="10" stroke-linecap="round"/>
<path d="M74.368 324.517C74.368 333.184 69.6565 336.036 63.8437 336.036C58.0309 336.036 53.3195 333.184 53.3195 324.517C53.3195 315.851 56.7353 320.645 62.554 320.645C68.3726 320.645 74.368 315.856 74.368 324.517Z" fill="#CCCCCC" stroke="#808080" stroke-width="4" stroke-miterlimit="10" stroke-linecap="round"/>
<path d="M83.855 155.658C100.416 155.658 119.144 144.266 119.144 144.266C118.59 132.579 127.159 97.6047 127.159 97.6047C127.159 97.6047 123.973 116.938 83.855 116.938C48.9076 116.938 41.0983 97.6047 41.0983 97.6047L40.9629 97.7787C40.9629 97.7787 49.3905 132.562 48.8428 144.266C48.8428 144.266 67.5651 155.658 84.1259 155.658" fill="#CCCCCC"/>
<path d="M119.144 144.266L120.183 145.975L121.198 145.358L121.142 144.171L119.144 144.266ZM127.159 97.6047L129.133 97.9299L125.217 97.1288L127.159 97.6047ZM41.0983 97.6047L42.9528 96.8557L41.653 93.6377L39.5204 96.3758L41.0983 97.6047ZM40.9629 97.7787L39.385 96.5497L38.7918 97.3114L39.0191 98.2496L40.9629 97.7787ZM48.8428 144.266L46.845 144.173L46.7896 145.358L47.8033 145.975L48.8428 144.266ZM83.855 157.658C92.5339 157.658 101.649 154.689 108.487 151.805C111.929 150.353 114.841 148.902 116.896 147.813C117.924 147.268 118.739 146.813 119.3 146.492C119.581 146.331 119.798 146.204 119.947 146.116C120.021 146.072 120.079 146.038 120.118 146.014C120.138 146.002 120.154 145.993 120.164 145.986C120.17 145.983 120.174 145.98 120.177 145.978C120.179 145.978 120.18 145.977 120.181 145.976C120.182 145.976 120.182 145.975 120.182 145.975C120.183 145.975 120.183 145.975 119.144 144.266C118.105 142.557 118.105 142.557 118.105 142.557C118.105 142.557 118.105 142.557 118.105 142.557C118.105 142.557 118.105 142.557 118.104 142.558C118.102 142.559 118.1 142.56 118.096 142.562C118.089 142.567 118.077 142.574 118.061 142.584C118.029 142.603 117.979 142.633 117.912 142.672C117.779 142.751 117.578 142.869 117.314 143.02C116.786 143.321 116.009 143.756 115.022 144.279C113.048 145.326 110.243 146.723 106.933 148.119C100.266 150.931 91.737 153.658 83.855 153.658V157.658ZM121.142 144.171C121.013 141.46 121.417 137.25 122.141 132.336C122.86 127.464 123.871 122.035 124.904 116.951C125.936 111.87 126.986 107.15 127.778 103.7C128.174 101.975 128.506 100.568 128.738 99.5938C128.854 99.1065 128.945 98.7273 129.007 98.4704C129.038 98.3419 129.062 98.244 129.078 98.1785C129.086 98.1457 129.092 98.121 129.096 98.1047C129.098 98.0965 129.1 98.0904 129.101 98.0863C129.101 98.0843 129.101 98.0829 129.102 98.0819C129.102 98.0815 129.102 98.0811 129.102 98.0809C129.102 98.0807 129.102 98.0807 127.159 97.6047C125.217 97.1288 125.217 97.129 125.217 97.1294C125.217 97.1297 125.217 97.1302 125.216 97.1307C125.216 97.1319 125.216 97.1336 125.215 97.1359C125.214 97.1404 125.212 97.1469 125.21 97.1556C125.206 97.1729 125.2 97.1986 125.192 97.2324C125.175 97.2999 125.151 97.3998 125.119 97.5303C125.056 97.7914 124.964 98.175 124.847 98.6669C124.612 99.6507 124.279 101.068 123.88 102.805C123.083 106.277 122.025 111.031 120.984 116.155C119.944 121.275 118.917 126.781 118.184 131.753C117.457 136.684 116.998 141.229 117.146 144.361L121.142 144.171ZM127.159 97.6047C125.186 97.2795 125.186 97.2777 125.187 97.2758C125.187 97.2753 125.187 97.2736 125.187 97.2726C125.188 97.2706 125.188 97.2688 125.188 97.2674C125.189 97.2645 125.189 97.2627 125.189 97.262C125.189 97.2607 125.189 97.2638 125.187 97.2712C125.184 97.2861 125.178 97.3181 125.166 97.3662C125.144 97.4625 125.103 97.6227 125.035 97.838C124.901 98.2686 124.661 98.9184 124.254 99.716C123.442 101.306 121.954 103.503 119.273 105.734C113.923 110.183 103.601 114.938 83.855 114.938V118.938C104.227 118.938 115.557 114.027 121.83 108.809C124.96 106.206 126.777 103.57 127.816 101.535C128.334 100.52 128.657 99.6596 128.853 99.0329C128.951 98.7196 129.018 98.4645 129.061 98.2775C129.083 98.184 129.099 98.1075 129.111 98.0492C129.117 98.02 129.121 97.9954 129.125 97.9755C129.127 97.9655 129.128 97.9567 129.13 97.9491C129.13 97.9453 129.131 97.9418 129.131 97.9386C129.132 97.937 129.132 97.9349 129.132 97.9341C129.132 97.932 129.133 97.9299 127.159 97.6047ZM83.855 114.938C66.7749 114.938 56.5237 110.223 50.5863 105.683C47.6044 103.403 45.6736 101.139 44.4991 99.473C43.9115 98.6397 43.5129 97.9559 43.2671 97.4947C43.1442 97.2642 43.0596 97.0895 43.0087 96.9798C42.9832 96.925 42.9662 96.8865 42.9571 96.8654C42.9525 96.8548 42.9499 96.8487 42.9492 96.847C42.9489 96.8462 42.949 96.8465 42.9496 96.8479C42.9499 96.8486 42.9503 96.8496 42.9508 96.8509C42.9511 96.8516 42.9516 96.8528 42.9517 96.8531C42.9522 96.8544 42.9528 96.8557 41.0983 97.6047C39.2439 98.3538 39.2445 98.3553 39.2451 98.3568C39.2454 98.3574 39.2461 98.3591 39.2466 98.3603C39.2476 98.3628 39.2487 98.3656 39.25 98.3686C39.2525 98.3747 39.2555 98.382 39.259 98.3905C39.2661 98.4074 39.2753 98.429 39.2865 98.455C39.3091 98.5071 39.3402 98.5771 39.3805 98.6639C39.461 98.8375 39.5783 99.0781 39.7372 99.3762C40.055 99.9724 40.5396 100.799 41.2301 101.778C42.612 103.738 44.8176 106.307 48.1565 108.86C54.8606 113.987 65.9878 118.938 83.855 118.938V114.938ZM39.5204 96.3758L39.385 96.5497L42.5408 99.0076L42.6762 98.8337L39.5204 96.3758ZM40.9629 97.7787C39.0191 98.2496 39.0191 98.2497 39.0192 98.2498C39.0192 98.2501 39.0193 98.2504 39.0194 98.2509C39.0197 98.2518 39.02 98.2533 39.0205 98.2553C39.0215 98.2592 39.0229 98.2653 39.0249 98.2735C39.0288 98.2897 39.0348 98.3143 39.0426 98.3469C39.0583 98.4121 39.0817 98.5094 39.1122 98.6372C39.1733 98.8928 39.2631 99.2699 39.3772 99.7546C39.6055 100.724 39.9313 102.123 40.3207 103.839C41.0998 107.272 42.1323 111.968 43.1473 117.027C44.163 122.088 45.1576 127.495 45.8635 132.352C46.5752 137.25 46.9723 141.454 46.845 144.173L50.8407 144.36C50.9873 141.226 50.5363 136.693 49.8219 131.777C49.1016 126.821 48.092 121.337 47.0692 116.24C46.0457 111.139 45.0056 106.408 44.2216 102.954C43.8294 101.226 43.5011 99.8162 43.2707 98.8376C43.1555 98.3483 43.0647 97.9668 43.0026 97.7071C42.9715 97.5772 42.9477 97.4778 42.9315 97.4107C42.9234 97.3771 42.9173 97.3516 42.9131 97.3344C42.911 97.3257 42.9094 97.3192 42.9084 97.3147C42.9078 97.3125 42.9074 97.3108 42.9071 97.3096C42.907 97.309 42.9069 97.3086 42.9068 97.3083C42.9067 97.3079 42.9066 97.3077 40.9629 97.7787ZM48.8428 144.266C47.8033 145.975 47.8037 145.975 47.8041 145.975C47.8044 145.975 47.8049 145.976 47.8054 145.976C47.8064 145.977 47.8077 145.977 47.8093 145.978C47.8125 145.98 47.8168 145.983 47.8222 145.986C47.833 145.993 47.8484 146.002 47.8682 146.014C47.9078 146.038 47.9651 146.072 48.0395 146.116C48.1884 146.204 48.4057 146.331 48.6863 146.491C49.2474 146.813 50.0623 147.268 51.09 147.813C53.144 148.902 56.0559 150.353 59.4967 151.805C66.3331 154.689 75.447 157.658 84.1259 157.658V153.658C76.244 153.658 67.7163 150.931 61.0514 148.119C57.7416 146.723 54.9378 145.326 52.9639 144.279C51.9777 143.756 51.2005 143.322 50.6731 143.02C50.4094 142.869 50.2082 142.751 50.0747 142.672C50.008 142.633 49.9582 142.603 49.9259 142.584C49.9098 142.574 49.898 142.567 49.8907 142.563C49.8871 142.56 49.8846 142.559 49.8832 142.558C49.8825 142.558 49.8821 142.557 49.882 142.557C49.8819 142.557 49.882 142.557 49.882 142.557C49.8822 142.557 49.8824 142.557 48.8428 144.266Z" fill="#808080"/>
<path d="M121.588 77.303C121.588 77.303 126.541 92.5553 127.442 98.7525L145.227 95.6452C145.227 95.6452 141.441 76.9552 121.588 77.303Z" fill="#CCCCCC" stroke="#808080" stroke-width="4" stroke-miterlimit="10" stroke-linecap="round"/>
<path d="M23.9427 157.652C24.3517 157.697 24.7638 157.6 25.1079 157.377C25.4519 157.155 25.7064 156.822 25.8273 156.434C27.2466 151.797 30.0205 139.576 33.666 131.425C38.8487 119.831 40.5095 106.422 40.9924 101.048C41.0497 100.392 40.8554 99.7382 40.4478 99.2158C40.0402 98.6933 39.4487 98.3399 38.7898 98.225L25.8744 95.9699C25.5464 95.9115 25.21 95.9173 24.8843 95.9872C24.5586 96.057 24.2501 96.1894 23.9766 96.3768C23.703 96.5643 23.4697 96.803 23.2901 97.0794C23.1104 97.3557 22.988 97.6643 22.9297 97.9873C20.8685 109.477 12.4703 157.507 13.6422 156.602L23.9427 157.652Z" fill="#CCCCCC" stroke="#808080" stroke-width="4" stroke-miterlimit="10" stroke-linecap="round"/>
<path d="M51.1804 177.936L48.9071 144.44C48.9071 144.44 67.6352 155.855 84.1961 155.855H83.9252C100.486 155.855 119.208 144.457 119.208 144.457L116.393 177.953C116.393 177.953 103.931 192.243 84.0606 192.243C64.19 192.243 51.1804 177.936 51.1804 177.936Z" fill="#CCCCCC" stroke="#808080" stroke-width="4" stroke-miterlimit="10" stroke-linecap="round"/>
<path d="M73.9248 57.6448C76.6162 56.4216 79.6139 53.0071 83.7777 53.0071C88.8543 53.0071 91.0451 57.4187 93.7248 57.5289L95.6447 71.8247C95.6447 71.8247 89.0899 73.5348 84.0721 73.7667C80.0753 73.4688 76.1018 72.9208 72.1757 72.1261L73.9425 57.6332L73.9248 57.6448Z" fill="#CCCCCC" stroke="#808080" stroke-width="4" stroke-miterlimit="10" stroke-linecap="round"/>
<path d="M84.0725 228.319C106.935 228.319 121.623 217.739 123.443 200.603C124.797 180.539 116.087 178.168 116.087 178.168C116.087 178.168 103.943 192.081 84.0725 192.081C64.2019 192.081 51.4632 178.168 51.4632 178.168C51.4632 178.168 43.3418 180.539 44.6963 200.603C46.522 217.745 61.1865 228.319 84.0725 228.319Z" fill="#CCCCCC" stroke="#808080" stroke-width="4" stroke-miterlimit="10" stroke-linecap="round"/>
<path d="M44.6848 200.615C46.3515 216.267 58.3009 226.395 77.8241 228.053L78.3483 228.099C78.684 236.528 74.3671 314.106 74.3671 324.517C74.3671 315.822 68.3658 320.645 62.5531 320.645C57.0701 320.645 53.719 316.39 53.348 323.149C53.3445 323.197 53.3242 323.243 53.2906 323.278C53.257 323.313 53.2121 323.335 53.1636 323.341C53.115 323.348 53.0658 323.337 53.0243 323.312C52.9827 323.286 52.9515 323.247 52.9357 323.202C46.6165 300.407 39.3137 221.908 44.6141 200.748" fill="#CCCCCC"/>
<path d="M77.8241 228.053L78.0004 226.06L77.9934 226.06L77.8241 228.053ZM78.3483 228.099L80.3467 228.019L80.2767 226.262L78.5245 226.107L78.3483 228.099ZM53.348 323.149L55.3428 323.294L55.344 323.277L55.345 323.259L53.348 323.149ZM52.9357 323.202L51.0084 323.736L51.0249 323.795L51.0449 323.853L52.9357 323.202ZM42.696 200.827C43.5814 209.142 47.2215 216.072 53.2781 221.118C59.306 226.14 67.5978 229.191 77.6549 230.046L77.9934 226.06C68.5273 225.256 61.0827 222.414 55.8385 218.045C50.6228 213.7 47.4548 207.74 46.6735 200.403L42.696 200.827ZM77.6479 230.045L78.172 230.091L78.5245 226.107L78.0004 226.06L77.6479 230.045ZM76.3499 228.179C76.5131 232.278 75.5271 253.635 74.4858 275.47C73.451 297.169 72.3671 319.248 72.3671 324.517H76.3671C76.3671 319.375 77.4417 297.459 78.4813 275.66C79.5145 253.995 80.5191 232.349 80.3467 228.019L76.3499 228.179ZM76.3671 324.517C76.3671 322.214 75.9903 320.279 74.864 318.95C73.6277 317.492 71.9303 317.249 70.5333 317.323C69.1991 317.394 67.676 317.786 66.4044 318.078C65.028 318.393 63.7584 318.645 62.5531 318.645V322.645C64.2541 322.645 65.9144 322.294 67.2981 321.977C68.7866 321.635 69.8537 321.365 70.7464 321.317C71.5763 321.273 71.7425 321.454 71.8131 321.537C71.9937 321.75 72.3671 322.473 72.3671 324.517H76.3671ZM62.5531 318.645C61.4379 318.645 60.3954 318.429 59.373 318.154C58.484 317.915 57.2572 317.514 56.3097 317.382C55.2315 317.231 53.724 317.297 52.6248 318.639C51.7339 319.726 51.446 321.309 51.351 323.04L55.345 323.259C55.3872 322.49 55.4683 321.96 55.5609 321.604C55.6548 321.243 55.737 321.152 55.7188 321.174C55.5235 321.412 55.2661 321.275 55.7574 321.343C56.3794 321.43 57.0417 321.67 58.3346 322.017C59.4942 322.329 60.9267 322.645 62.5531 322.645V318.645ZM51.3533 323.005C51.3838 322.583 51.5614 322.191 51.8479 321.893L54.7334 324.663C55.0871 324.294 55.3052 323.811 55.3428 323.294L51.3533 323.005ZM51.8479 321.893C52.134 321.595 52.5109 321.408 52.9124 321.357L53.4147 325.326C53.9133 325.263 54.38 325.031 54.7334 324.663L51.8479 321.893ZM52.9124 321.357C53.3135 321.307 53.7225 321.393 54.0711 321.607L51.9774 325.016C52.4091 325.281 52.9165 325.389 53.4147 325.326L52.9124 321.357ZM54.0711 321.607C54.4202 321.822 54.6898 322.153 54.8266 322.55L51.0449 323.853C51.2132 324.341 51.5453 324.75 51.9774 325.016L54.0711 321.607ZM54.8631 322.667C51.7597 311.473 48.3641 286.319 46.4115 261.207C45.4375 248.68 44.8274 236.223 44.7896 225.596C44.7516 214.906 45.296 206.257 46.5542 201.234L42.674 200.262C41.282 205.819 40.7516 214.918 40.7896 225.61C40.8278 236.365 41.4445 248.925 42.4236 261.517C44.3771 286.643 47.7926 312.136 51.0084 323.736L54.8631 322.667Z" fill="#808080"/>
<path d="M14.9377 156.736L22.6292 157.542C23.0306 157.541 23.4272 157.627 23.7907 157.795C24.1541 157.962 24.4755 158.207 24.7316 158.511C24.9877 158.815 25.1723 159.171 25.2721 159.554C25.3719 159.937 25.3844 160.336 25.3089 160.724C24.4255 165.223 22.2641 172.864 17.7999 172.725C12.2286 172.551 12.2757 167.507 11.7045 160.446C11.5749 158.881 13.3476 156.736 14.9377 156.736Z" fill="#CCCCCC" stroke="#808080" stroke-width="4" stroke-miterlimit="10" stroke-linecap="round"/>
<path d="M23.0654 168.104C21.8463 170.736 20.1207 172.8 17.8003 172.742C14.673 172.649 13.3185 171.003 12.6294 168.353L3.79541 231.925C3.79541 231.925 8.00629 228.702 11.8344 229.079C13.2281 223.195 15.0386 217.415 17.2526 211.78C20.9099 202.464 23.6837 173.756 22.9888 168.353" fill="#CCCCCC"/>
<path d="M17.8003 172.742L17.741 174.741L17.7503 174.741L17.8003 172.742ZM12.6294 168.353L14.565 167.85L12.033 158.115L10.6485 168.078L12.6294 168.353ZM3.79541 231.925L1.81445 231.65L1.14419 236.473L5.01106 233.513L3.79541 231.925ZM11.8344 229.079L11.6384 231.069L13.3777 231.24L13.7805 229.54L11.8344 229.079ZM17.2526 211.78L19.114 212.511L19.1143 212.511L17.2526 211.78ZM21.2506 167.263C20.6965 168.46 20.087 169.388 19.4618 169.988C18.8616 170.563 18.341 170.755 17.8502 170.742L17.7503 174.741C19.5799 174.787 21.0824 173.975 22.2299 172.875C23.3523 171.799 24.2151 170.38 24.8801 168.945L21.2506 167.263ZM17.8596 170.743C16.6554 170.707 16.0384 170.389 15.6585 170.038C15.2381 169.649 14.862 168.991 14.565 167.85L10.6938 168.857C11.086 170.364 11.7316 171.855 12.9426 172.975C14.194 174.132 15.818 174.684 17.741 174.741L17.8596 170.743ZM10.6485 168.078L1.81445 231.65L5.77638 232.2L14.6104 168.629L10.6485 168.078ZM3.79541 231.925C5.01106 233.513 5.01069 233.513 5.01034 233.514C5.01024 233.514 5.0099 233.514 5.00971 233.514C5.00932 233.514 5.009 233.515 5.00873 233.515C5.00821 233.515 5.00793 233.515 5.0079 233.515C5.00783 233.516 5.00875 233.515 5.01064 233.513C5.01441 233.511 5.02203 233.505 5.03336 233.496C5.05605 233.48 5.09352 233.452 5.14467 233.416C5.24711 233.343 5.40357 233.234 5.60525 233.103C6.01074 232.838 6.58773 232.489 7.26731 232.153C8.68935 231.448 10.287 230.936 11.6384 231.069L12.0303 227.088C9.5537 226.844 7.13183 227.756 5.49141 228.568C4.63976 228.99 3.92478 229.423 3.4211 229.752C3.1682 229.917 2.96577 230.057 2.82298 230.159C2.75151 230.209 2.69477 230.251 2.65391 230.281C2.63346 230.296 2.61697 230.309 2.60458 230.318C2.59838 230.323 2.5932 230.327 2.58906 230.33C2.58698 230.331 2.58517 230.333 2.58362 230.334C2.58285 230.334 2.58214 230.335 2.5815 230.335C2.58118 230.336 2.58074 230.336 2.58058 230.336C2.58016 230.336 2.57976 230.337 3.79541 231.925ZM13.7805 229.54C15.1524 223.748 16.9346 218.058 19.114 212.511L15.3911 211.048C13.1426 216.771 11.3038 222.642 9.88823 228.618L13.7805 229.54ZM19.1143 212.511C21.0513 207.577 22.6789 197.819 23.739 188.833C24.2746 184.293 24.6742 179.869 24.8963 176.23C25.1141 172.66 25.1742 169.666 24.9725 168.098L21.0051 168.608C21.1509 169.742 21.1248 172.363 20.9037 175.986C20.6868 179.54 20.2947 183.888 19.7665 188.365C18.6991 197.413 17.1112 206.667 15.3909 211.049L19.1143 212.511Z" fill="#808080"/>
<path d="M77.7837 410.35C68.2841 414.13 65.0214 410.843 65.0214 410.843C65.0214 410.843 60.5161 414.408 62.3241 417.962C64.1321 421.515 58.6433 432.982 69.4679 433.034C79.8508 433.104 82.9074 429.023 80.0687 424.118C79.8929 423.804 79.6546 423.528 79.3679 423.306C78.6906 422.802 77.2595 421.115 78.9262 416.385C81.0463 410.414 77.7837 410.35 77.7837 410.35Z" fill="#CCCCCC" stroke="#808080" stroke-width="4" stroke-miterlimit="10" stroke-linecap="round"/>
<path d="M114.697 326.117L112.93 356.106C111.429 368.28 102.383 405.48 102.871 410.82C102.871 410.82 99.6028 414.107 90.1091 410.327C88.625 409.747 90.8394 396.414 89.5497 388.298C88.2187 379.892 88.2717 365.26 88.784 358.419L93.684 324.343C93.684 333.039 98.3955 335.862 104.208 335.862C110.021 335.862 114.697 333.01 114.697 324.343V326.117Z" fill="#CCCCCC" stroke="#808080" stroke-width="4" stroke-miterlimit="10" stroke-linecap="round"/>
<path d="M164.757 232.609C167.196 258.203 158.927 260.435 155.552 260.98C155.394 261.007 155.231 260.997 155.077 260.952C154.923 260.907 154.782 260.827 154.664 260.719C154.546 260.612 154.455 260.479 154.398 260.331C154.34 260.184 154.318 260.025 154.333 259.867L155.859 242.105C155.878 241.886 155.842 241.667 155.753 241.466C155.664 241.265 155.525 241.09 155.349 240.955C155.173 240.821 154.966 240.732 154.747 240.697C154.527 240.662 154.302 240.681 154.092 240.754C150.511 242.006 144.575 244.168 143.721 242.713C143.191 241.821 152.46 232.47 155.329 229.536C155.558 229.306 155.833 229.125 156.137 229.005C156.442 228.885 156.768 228.829 157.095 228.841C159.457 228.963 164.64 231.131 164.757 232.609Z" fill="#CCCCCC" stroke="#808080" stroke-width="4" stroke-miterlimit="10" stroke-linecap="round"/>
<path d="M93.6542 324.517C93.6542 333.184 98.3657 336.036 104.178 336.036C109.991 336.036 114.697 333.184 114.697 324.517C114.697 315.851 111.281 320.645 105.468 320.645C99.6554 320.645 93.6542 315.856 93.6542 324.517Z" fill="#CCCCCC" stroke="#808080" stroke-width="4" stroke-miterlimit="10" stroke-linecap="round"/>
<path d="M144.085 157.652C143.673 157.698 143.258 157.599 142.912 157.373C142.567 157.147 142.313 156.809 142.195 156.417C140.776 151.78 138.002 139.559 134.356 131.409C129.174 119.814 127.513 106.405 127.03 101.031C126.973 100.375 127.167 99.7214 127.574 99.1989C127.982 98.6765 128.574 98.323 129.232 98.2082L142.148 95.9531C142.476 95.8946 142.812 95.9005 143.138 95.9703C143.464 96.0401 143.772 96.1726 144.046 96.36C144.319 96.5474 144.553 96.7862 144.732 97.0625C144.912 97.3389 145.034 97.6474 145.093 97.9705C147.166 109.449 155.564 157.507 154.386 156.603L144.085 157.652Z" fill="#CCCCCC" stroke="#808080" stroke-width="4" stroke-miterlimit="10" stroke-linecap="round"/>
<path d="M123.431 200.748C128.731 221.908 121.405 300.407 115.092 323.202C115.079 323.251 115.049 323.295 115.006 323.324C114.963 323.354 114.911 323.366 114.859 323.36C114.807 323.353 114.759 323.328 114.725 323.289C114.691 323.251 114.673 323.201 114.673 323.149C114.302 316.39 110.951 320.645 105.474 320.645C99.6615 320.645 93.6544 315.851 93.6544 324.517C93.6544 314.083 89.3375 236.528 89.6732 228.099L90.1973 228.053C109.72 226.395 121.676 216.255 123.337 200.615" fill="#CCCCCC"/>
<path d="M115.092 323.202L113.164 322.668L113.156 322.697L113.149 322.728L115.092 323.202ZM114.673 323.149L116.673 323.183L116.674 323.111L116.67 323.04L114.673 323.149ZM89.6732 228.099L89.4969 226.107L87.7447 226.262L87.6747 228.019L89.6732 228.099ZM90.1973 228.053L90.0281 226.06L90.0211 226.06L90.1973 228.053ZM121.491 201.234C122.749 206.257 123.292 214.905 123.252 225.595C123.212 236.223 122.599 248.679 121.622 261.206C119.665 286.319 116.265 311.473 113.164 322.668L117.019 323.735C120.232 312.136 123.652 286.643 125.61 261.517C126.592 248.925 127.211 236.365 127.252 225.61C127.292 214.918 126.763 205.819 125.371 200.262L121.491 201.234ZM113.149 322.728C113.255 322.291 113.519 321.917 113.881 321.671L116.131 324.978C116.579 324.674 116.904 324.212 117.035 323.676L113.149 322.728ZM113.881 321.671C114.243 321.425 114.679 321.322 115.106 321.375L114.611 325.344C115.142 325.411 115.683 325.283 116.131 324.978L113.881 321.671ZM115.106 321.375C115.534 321.429 115.934 321.636 116.226 321.968L113.224 324.611C113.584 325.02 114.08 325.278 114.611 325.344L115.106 321.375ZM116.226 321.968C116.519 322.3 116.681 322.732 116.673 323.183L112.674 323.116C112.664 323.669 112.863 324.201 113.224 324.611L116.226 321.968ZM116.67 323.04C116.575 321.309 116.288 319.726 115.397 318.639C114.298 317.297 112.791 317.231 111.712 317.382C110.765 317.514 109.539 317.915 108.651 318.154C107.629 318.429 106.588 318.645 105.474 318.645V322.645C107.099 322.645 108.531 322.329 109.69 322.017C110.982 321.669 111.643 321.43 112.265 321.343C112.756 321.275 112.498 321.412 112.303 321.174C112.284 321.152 112.367 321.243 112.461 321.604C112.553 321.96 112.634 322.49 112.676 323.259L116.67 323.04ZM105.474 318.645C104.267 318.645 102.996 318.394 101.619 318.081C100.346 317.791 98.8225 317.403 97.4878 317.334C96.0914 317.262 94.396 317.507 93.16 318.961C92.0321 320.287 91.6544 322.22 91.6544 324.517H95.6544C95.6544 322.482 96.0275 321.763 96.2076 321.552C96.2796 321.467 96.4493 321.286 97.2812 321.329C98.1749 321.375 99.2436 321.643 100.732 321.981C102.115 322.296 103.775 322.645 105.474 322.645V318.645ZM95.6544 324.517C95.6544 319.237 94.5705 297.158 93.5356 275.461C92.4943 253.63 91.5083 232.278 91.6716 228.179L87.6747 228.019C87.5023 232.349 88.5069 253.989 89.5401 275.651C90.5798 297.448 91.6544 319.363 91.6544 324.517H95.6544ZM89.8494 230.091L90.3735 230.045L90.0211 226.06L89.4969 226.107L89.8494 230.091ZM90.3665 230.046C100.424 229.191 108.717 226.137 114.746 221.114C120.803 216.067 124.443 209.136 125.325 200.826L121.348 200.404C120.569 207.734 117.402 213.694 112.185 218.041C106.94 222.412 99.4937 225.256 90.0281 226.06L90.3665 230.046Z" fill="#808080"/>
<path d="M153.083 156.736L145.392 157.542C144.99 157.541 144.594 157.627 144.231 157.794C143.867 157.962 143.546 158.207 143.291 158.511C143.035 158.815 142.851 159.172 142.752 159.555C142.653 159.937 142.641 160.337 142.718 160.724C143.595 165.223 145.757 172.864 150.221 172.725C155.798 172.551 155.745 167.507 156.322 160.446C156.446 158.881 154.679 156.736 153.083 156.736Z" fill="#CCCCCC" stroke="#808080" stroke-width="4" stroke-miterlimit="10" stroke-linecap="round"/>
<path d="M144.958 168.104C146.177 170.736 147.902 172.8 150.223 172.742C153.35 172.649 154.704 171.003 155.399 168.353L164.233 231.925C164.233 231.925 160.028 228.702 156.194 229.079C154.801 223.196 152.993 217.415 150.782 211.78C147.119 202.464 144.345 173.756 145.04 168.353" fill="#CCCCCC"/>
<path d="M150.223 172.742L150.273 174.741L150.282 174.741L150.223 172.742ZM155.399 168.353L157.38 168.078L156.003 158.169L153.465 167.846L155.399 168.353ZM164.233 231.925L163.017 233.512L166.885 236.478L166.214 231.65L164.233 231.925ZM156.194 229.079L154.248 229.54L154.651 231.24L156.39 231.069L156.194 229.079ZM150.782 211.78L152.644 211.05L152.643 211.048L150.782 211.78ZM143.143 168.945C143.808 170.38 144.671 171.799 145.793 172.875C146.941 173.975 148.443 174.787 150.273 174.741L150.173 170.742C149.682 170.755 149.161 170.563 148.561 169.988C147.936 169.389 147.326 168.46 146.772 167.264L143.143 168.945ZM150.282 174.741C152.205 174.684 153.829 174.132 155.08 172.975C156.291 171.856 156.939 170.367 157.334 168.861L153.465 167.846C153.165 168.989 152.788 169.648 152.366 170.037C151.985 170.389 151.367 170.707 150.163 170.743L150.282 174.741ZM153.418 168.629L162.252 232.2L166.214 231.65L157.38 168.078L153.418 168.629ZM164.233 231.925C165.45 230.338 165.45 230.337 165.449 230.337C165.449 230.337 165.449 230.337 165.448 230.336C165.448 230.336 165.447 230.335 165.446 230.335C165.445 230.334 165.443 230.332 165.441 230.331C165.437 230.327 165.431 230.324 165.425 230.319C165.413 230.31 165.396 230.297 165.376 230.282C165.335 230.252 165.278 230.21 165.207 230.159C165.064 230.058 164.862 229.917 164.609 229.752C164.106 229.424 163.391 228.991 162.54 228.569C160.899 227.755 158.478 226.845 155.999 227.088L156.39 231.069C157.745 230.936 159.343 231.448 160.763 232.152C161.442 232.489 162.019 232.838 162.424 233.102C162.625 233.234 162.781 233.342 162.883 233.415C162.934 233.452 162.972 233.479 162.995 233.496C163.006 233.504 163.013 233.51 163.017 233.513C163.019 233.514 163.02 233.515 163.02 233.515C163.02 233.515 163.02 233.515 163.019 233.514C163.019 233.514 163.018 233.514 163.018 233.513C163.018 233.513 163.018 233.513 163.017 233.513C163.017 233.513 163.017 233.512 164.233 231.925ZM158.141 228.618C156.726 222.643 154.889 216.772 152.644 211.05L148.92 212.51C151.097 218.058 152.877 223.748 154.248 229.54L158.141 228.618ZM152.643 211.048C150.921 206.667 149.331 197.413 148.263 188.365C147.735 183.888 147.342 179.54 147.125 175.986C146.904 172.363 146.878 169.742 147.024 168.609L143.056 168.098C142.855 169.666 142.915 172.66 143.133 176.23C143.355 179.869 143.755 184.293 144.291 188.834C145.351 197.819 146.981 207.577 148.921 212.512L152.643 211.048Z" fill="#808080"/>
<path d="M90.2447 410.35C99.7383 414.13 103.001 410.843 103.001 410.843C103.001 410.843 107.501 414.431 105.698 417.985C103.896 421.538 109.379 433.005 98.5546 433.057C88.1717 433.127 85.1151 429.046 87.9538 424.141C88.1255 423.826 88.3622 423.55 88.6487 423.33C89.326 422.825 90.7571 421.138 89.0963 416.408C86.9761 410.414 90.2447 410.35 90.2447 410.35Z" fill="#CCCCCC" stroke="#808080" stroke-width="4" stroke-miterlimit="10" stroke-linecap="round"/>
<path d="M127.159 97.6047C127.159 97.6047 123.973 116.938 83.855 116.938C48.9076 116.938 41.0983 97.6047 41.0983 97.6047L40.9629 97.7786L41.0277 97.9525C41.9287 91.7321 46.917 77.1523 46.917 77.1523L71.9762 71.6971H72.3708C72.3708 71.6971 79.5735 73.616 84.2202 73.616H83.9492C88.5901 73.616 95.7927 71.6971 95.7927 71.6971H96.1873L121.246 77.1523C121.246 77.1523 126.211 91.7321 127.136 97.9525" fill="#CCCCCC"/>
<path d="M41.0983 97.6047L42.9528 96.8556L41.653 93.6377L39.5204 96.3757L41.0983 97.6047ZM40.9629 97.7786L39.385 96.5497L38.699 97.4305L39.0887 98.4767L40.9629 97.7786ZM41.0277 97.9525L39.1535 98.6506L41.8852 105.984L43.007 98.2392L41.0277 97.9525ZM46.917 77.1523L46.4916 75.198L45.3898 75.4379L45.0247 76.5048L46.917 77.1523ZM71.9762 71.6971V69.6971H71.761L71.5508 69.7429L71.9762 71.6971ZM72.3708 71.6971L72.8856 69.7645L72.6326 69.6971H72.3708V71.6971ZM95.7927 71.6971V69.6971H95.5309L95.2779 69.7645L95.7927 71.6971ZM96.1873 71.6971L96.6127 69.7429L96.4025 69.6971H96.1873V71.6971ZM121.246 77.1523L123.14 76.5076L122.776 75.4383L121.672 75.198L121.246 77.1523ZM127.159 97.6047C125.186 97.2794 125.186 97.2776 125.187 97.2758C125.187 97.2753 125.187 97.2735 125.187 97.2725C125.188 97.2705 125.188 97.2688 125.188 97.2673C125.189 97.2644 125.189 97.2626 125.189 97.262C125.189 97.2606 125.189 97.2637 125.187 97.2712C125.184 97.286 125.178 97.3181 125.166 97.3662C125.144 97.4624 125.103 97.6227 125.035 97.8379C124.901 98.2685 124.661 98.9184 124.254 99.716C123.442 101.306 121.954 103.503 119.273 105.734C113.923 110.183 103.601 114.938 83.855 114.938V118.938C104.227 118.938 115.557 114.027 121.83 108.809C124.96 106.206 126.777 103.57 127.816 101.535C128.334 100.52 128.657 99.6596 128.853 99.0328C128.951 98.7195 129.018 98.4644 129.061 98.2774C129.083 98.1839 129.099 98.1074 129.111 98.0491C129.117 98.0199 129.121 97.9953 129.125 97.9754C129.127 97.9654 129.128 97.9566 129.13 97.9491C129.13 97.9453 129.131 97.9418 129.131 97.9386C129.132 97.937 129.132 97.9348 129.132 97.934C129.132 97.9319 129.133 97.9299 127.159 97.6047ZM83.855 114.938C66.7749 114.938 56.5237 110.223 50.5863 105.683C47.6044 103.403 45.6736 101.138 44.4991 99.4729C43.9115 98.6396 43.5129 97.9558 43.2671 97.4946C43.1442 97.2641 43.0596 97.0894 43.0087 96.9797C42.9832 96.9249 42.9662 96.8864 42.9571 96.8653C42.9525 96.8548 42.9499 96.8486 42.9492 96.8469C42.9489 96.8461 42.949 96.8464 42.9496 96.8478C42.9499 96.8485 42.9503 96.8496 42.9508 96.8509C42.9511 96.8515 42.9516 96.8527 42.9517 96.853C42.9522 96.8543 42.9528 96.8556 41.0983 97.6047C39.2439 98.3537 39.2445 98.3552 39.2451 98.3567C39.2454 98.3574 39.2461 98.359 39.2466 98.3602C39.2476 98.3627 39.2487 98.3655 39.25 98.3685C39.2525 98.3747 39.2555 98.382 39.259 98.3904C39.2661 98.4073 39.2753 98.4289 39.2865 98.4549C39.3091 98.507 39.3402 98.5771 39.3805 98.6638C39.461 98.8374 39.5783 99.0781 39.7372 99.3762C40.055 99.9723 40.5396 100.799 41.2301 101.778C42.612 103.738 44.8176 106.307 48.1565 108.86C54.8606 113.987 65.9878 118.938 83.855 118.938V114.938ZM39.5204 96.3757L39.385 96.5497L42.5408 99.0075L42.6762 98.8336L39.5204 96.3757ZM39.0887 98.4767L39.1535 98.6506L42.9019 97.2543L42.8371 97.0804L39.0887 98.4767ZM43.007 98.2392C43.4318 95.307 44.8552 90.253 46.2219 85.8075C46.8969 83.612 47.5444 81.6081 48.0233 80.1527C48.2627 79.4253 48.4597 78.8356 48.5966 78.4284C48.6651 78.2248 48.7185 78.0669 48.7547 77.9603C48.7728 77.9069 48.7866 77.8664 48.7958 77.8394C48.8004 77.8259 48.8038 77.8158 48.8061 77.8092C48.8072 77.8058 48.8081 77.8034 48.8086 77.8018C48.8089 77.801 48.8091 77.8004 48.8092 77.8001C48.8093 77.7999 48.8093 77.7998 48.8093 77.7997C48.8093 77.7997 48.8093 77.7997 46.917 77.1523C45.0247 76.5048 45.0247 76.505 45.0246 76.5052C45.0246 76.5053 45.0245 76.5055 45.0244 76.5058C45.0242 76.5063 45.0239 76.5071 45.0236 76.5081C45.0229 76.51 45.022 76.5129 45.0207 76.5166C45.0182 76.524 45.0145 76.5349 45.0096 76.5491C44.9999 76.5777 44.9855 76.6198 44.9669 76.6748C44.9296 76.7847 44.8749 76.9461 44.8053 77.1534C44.6659 77.5678 44.4661 78.1658 44.2237 78.9025C43.7392 80.3751 43.0833 82.4049 42.3986 84.632C41.0459 89.0315 39.5246 94.3776 39.0483 97.6658L43.007 98.2392ZM47.3424 79.1065L72.4016 73.6514L71.5508 69.7429L46.4916 75.198L47.3424 79.1065ZM71.9762 73.6971H72.3708V69.6971H71.9762V73.6971ZM72.3708 71.6971C71.8559 73.6297 71.8561 73.6298 71.8563 73.6298C71.8564 73.6299 71.8567 73.6299 71.8569 73.63C71.8573 73.6301 71.8578 73.6302 71.8585 73.6304C71.8597 73.6308 71.8615 73.6312 71.8636 73.6318C71.8679 73.6329 71.874 73.6345 71.8817 73.6366C71.8971 73.6406 71.9194 73.6465 71.9481 73.654C72.0055 73.6689 72.0889 73.6905 72.1958 73.7177C72.4095 73.7722 72.7177 73.8493 73.1011 73.9415C73.8671 74.1258 74.9375 74.3713 76.158 74.6172C78.5608 75.1012 81.6865 75.616 84.2202 75.616V71.616C82.1071 71.616 79.3081 71.1714 76.9479 70.696C75.7869 70.4621 74.7663 70.228 74.0366 70.0524C73.6721 69.9648 73.3813 69.892 73.1829 69.8415C73.0838 69.8162 73.0079 69.7966 72.9575 69.7834C72.9324 69.7769 72.9136 69.7719 72.9015 69.7687C72.8955 69.7671 72.8911 69.766 72.8884 69.7653C72.8871 69.7649 72.8862 69.7647 72.8857 69.7646C72.8855 69.7645 72.8854 69.7645 72.8854 69.7645C72.8854 69.7645 72.8854 69.7645 72.8854 69.7645C72.8855 69.7645 72.8856 69.7645 72.3708 71.6971ZM84.2202 71.616H83.9492V75.616H84.2202V71.616ZM83.9492 75.616C86.4801 75.616 89.6044 75.1011 92.0063 74.6172C93.2265 74.3713 94.2967 74.1257 95.0626 73.9415C95.4459 73.8493 95.7541 73.7722 95.9678 73.7177C96.0747 73.6905 96.158 73.6689 96.2154 73.654C96.2441 73.6465 96.2664 73.6406 96.2818 73.6366C96.2896 73.6345 96.2956 73.6329 96.2999 73.6318C96.3021 73.6312 96.3038 73.6308 96.3051 73.6304C96.3057 73.6302 96.3062 73.6301 96.3067 73.63C96.3069 73.6299 96.3071 73.6299 96.3072 73.6298C96.3074 73.6298 96.3076 73.6297 95.7927 71.6971C95.2779 69.7645 95.278 69.7645 95.2781 69.7645C95.2781 69.7645 95.2782 69.7645 95.2781 69.7645C95.2781 69.7645 95.278 69.7645 95.2778 69.7646C95.2773 69.7647 95.2764 69.7649 95.2751 69.7653C95.2724 69.766 95.2681 69.7671 95.262 69.7687C95.2499 69.7719 95.2312 69.7769 95.206 69.7834C95.1556 69.7966 95.0797 69.8162 94.9806 69.8415C94.7823 69.892 94.4914 69.9648 94.127 70.0524C93.3974 70.228 92.3769 70.4621 91.2162 70.696C88.8566 71.1714 86.0592 71.616 83.9492 71.616V75.616ZM95.7927 73.6971H96.1873V69.6971H95.7927V73.6971ZM95.7619 73.6514L120.821 79.1065L121.672 75.198L96.6127 69.7429L95.7619 73.6514ZM121.246 77.1523C119.353 77.797 119.353 77.7969 119.353 77.797C119.353 77.7971 119.353 77.7972 119.353 77.7974C119.354 77.7977 119.354 77.7983 119.354 77.7991C119.355 77.8007 119.355 77.8031 119.356 77.8065C119.359 77.8131 119.362 77.8232 119.367 77.8367C119.376 77.8638 119.39 77.9043 119.408 77.9576C119.444 78.0644 119.497 78.2223 119.565 78.4259C119.702 78.8332 119.898 79.423 120.136 80.1505C120.613 81.6062 121.259 83.6105 121.932 85.8063C123.296 90.2511 124.721 95.3092 125.158 98.2465L129.114 97.6584C128.626 94.3754 127.106 89.0334 125.756 84.6332C125.073 82.4065 124.42 80.3771 123.937 78.9046C123.696 78.1681 123.497 77.5702 123.358 77.1559C123.289 76.9487 123.234 76.7873 123.197 76.6774C123.179 76.6225 123.164 76.5804 123.155 76.5518C123.15 76.5376 123.146 76.5267 123.144 76.5193C123.142 76.5156 123.142 76.5127 123.141 76.5108C123.141 76.5098 123.14 76.5091 123.14 76.5085C123.14 76.5083 123.14 76.508 123.14 76.5079C123.14 76.5077 123.14 76.5076 121.246 77.1523Z" fill="#808080"/>
</svg>
