<svg width="129" height="120" viewBox="0 0 129 120" fill="none" xmlns="http://www.w3.org/2000/svg">
<path d="M64.1258 120C116.605 120 128.209 60.5279 128.209 60.5279C128.251 60.3007 128.255 60.0682 128.222 59.8396C126.66 50.8175 123.924 42.0386 120.085 33.7261C111.662 15.7042 99.1347 4.15998 83.8835 0.34611C78.0857 -1.10333 74.1158 2.30649 70.9304 5.04932C68.5724 7.08025 66.5394 8.83326 64.1258 8.83326C61.3466 8.83326 59.2686 7.123 56.8572 5.13911C53.4986 2.37063 49.3149 -1.08196 42.32 0.324731C27.3745 3.31768 15.3065 14.6289 7.42003 33.0484C3.81119 41.6444 1.32233 50.6687 0.014616 59.8994C-0.00998593 60.1087 -0.00350221 60.3205 0.0338565 60.5279C0.0338565 60.5279 11.6465 120 64.1258 120ZM112.485 87.9733C100.849 106.386 84.5762 115.724 64.1258 115.724C43.6754 115.724 27.4023 106.386 15.7661 87.9733C12.5781 82.8715 9.91771 77.4585 7.82622 71.8178C10.7403 75.4099 13.8823 78.8111 17.2326 82.0002C31.6159 95.6716 47.8334 102.897 64.1258 102.897C90.8913 102.897 110.369 84.3219 120.374 71.9546C118.291 77.5464 115.648 82.9133 112.485 87.9733ZM66.2636 90.0705V69.96C85.6194 59.4163 107.335 67.369 115.416 71.0781C105.458 82.7164 87.5648 98.6218 64.1258 98.6218C44.9538 98.6218 29.6384 87.8963 20.1679 78.9004C17.5552 76.4077 15.0775 73.7772 12.7453 71.0204C20.3945 67.3198 41.1228 59.4376 61.9879 70.0049V90.0705H66.2636ZM43.1751 4.51486C48.184 3.51222 50.9482 5.79756 54.1507 8.43777C56.7973 10.6269 59.8052 13.1089 64.1258 13.1089C68.1256 13.1089 71.0993 10.5435 73.7203 8.29026C76.6534 5.76121 79.1782 3.58705 82.8488 4.49348C96.9862 8.02944 108.197 18.4406 116.167 35.4385C118.335 40.1107 120.138 44.9438 121.56 49.8944C120.064 48.0024 118.341 45.9223 116.359 43.7439C114.619 41.8199 112.823 39.9771 111.025 38.2796C107.453 34.8725 103.609 31.7617 99.5324 28.978C94.0962 25.2352 88.1537 22.2874 81.8846 20.2236C70.3446 16.4547 57.9048 16.4547 46.3647 20.2236C40.0984 22.2872 34.1582 25.2336 28.7234 28.9737C22.5498 33.2106 16.9019 38.1666 11.8988 43.7375C9.67757 46.1789 7.7685 48.4984 6.16941 50.5657C9.79729 35.8361 19.5372 9.24159 43.1751 4.51486ZM109.766 43.0384H104.744C103.61 43.0384 102.523 42.5879 101.721 41.7861C100.919 40.9843 100.469 39.8967 100.469 38.7628V34.9147C103.125 36.9275 105.668 39.0858 108.086 41.3795C108.648 41.9161 109.206 42.4804 109.766 43.0384ZM96.1931 31.9217V38.7628C96.1931 39.8967 95.7426 40.9843 94.9408 41.7861C94.1389 42.5879 93.0514 43.0384 91.9174 43.0384H87.6418C86.5078 43.0384 85.4203 42.5879 84.6185 41.7861C83.8166 40.9843 83.3662 39.8967 83.3662 38.7628V25.3159C87.8711 27.0409 92.1726 29.2562 96.1931 31.9217ZM79.0905 23.8771V38.7628C79.0905 39.8967 78.64 40.9843 77.8382 41.7861C77.0364 42.5879 75.9488 43.0384 74.8149 43.0384H70.5392C69.4053 43.0384 68.3177 42.5879 67.5159 41.7861C66.714 40.9843 66.2636 39.8967 66.2636 38.7628V21.7585C70.6095 21.9398 74.9171 22.6512 79.0905 23.8771ZM61.9879 21.7585V38.7628C61.9879 39.8967 61.5375 40.9843 60.7356 41.7861C59.9338 42.5879 58.8463 43.0384 57.7123 43.0384H53.4366C52.3027 43.0384 51.2151 42.5879 50.4133 41.7861C49.6115 40.9843 49.161 39.8967 49.161 38.7628V23.8771C53.3343 22.6505 57.6419 21.9391 61.9879 21.7585ZM44.8854 25.3159V38.7628C44.8854 39.8967 44.4349 40.9843 43.6331 41.7861C42.8312 42.5879 41.7437 43.0384 40.6097 43.0384H36.3341C35.2001 43.0384 34.1126 42.5879 33.3107 41.7861C32.5089 40.9843 32.0584 39.8967 32.0584 38.7628V31.9217C36.0792 29.2566 40.3806 27.0413 44.8854 25.3159ZM27.7828 34.9361V38.7628C27.7828 39.8967 27.3323 40.9843 26.5305 41.7861C25.7286 42.5879 24.6411 43.0384 23.5071 43.0384H18.4961C21.4026 40.1276 24.5054 37.4197 27.7828 34.9339V34.9361ZM14.4428 47.3141H23.5071C24.7255 47.3103 25.9288 47.0445 27.0354 46.5347C28.142 46.0249 29.126 45.2831 29.9206 44.3596C30.7153 45.2831 31.6993 46.0249 32.8058 46.5347C33.9124 47.0445 35.1157 47.3103 36.3341 47.3141H40.6097C41.8281 47.3103 43.0314 47.0445 44.1379 46.5347C45.2445 46.0249 46.2285 45.2831 47.0232 44.3596C47.8178 45.2831 48.8018 46.0249 49.9084 46.5347C51.015 47.0445 52.2183 47.3103 53.4366 47.3141H57.7123C58.9306 47.3103 60.1339 47.0445 61.2405 46.5347C62.3471 46.0249 63.3311 45.2831 64.1258 44.3596C64.9204 45.2831 65.9044 46.0249 67.011 46.5347C68.1176 47.0445 69.3209 47.3103 70.5392 47.3141H74.8149C76.0332 47.3103 77.2365 47.0445 78.3431 46.5347C79.4497 46.0249 80.4337 45.2831 81.2283 44.3596C82.023 45.2831 83.007 46.0249 84.1136 46.5347C85.2202 47.0445 86.4234 47.3103 87.6418 47.3141H91.9174C93.1358 47.3103 94.3391 47.0445 95.4457 46.5347C96.5523 46.0249 97.5363 45.2831 98.3309 44.3596C99.1256 45.2831 100.11 46.0249 101.216 46.5347C102.323 47.0445 103.526 47.3103 104.744 47.3141H113.811C117.411 51.3244 120.688 55.6135 123.611 60.141C122.706 61.5626 120.876 64.2969 118.219 67.6704C110.487 63.9741 86.0363 54.2021 64.0873 66.2594C40.5969 54.2598 17.363 63.895 9.9619 67.6298C7.34093 64.2777 5.53661 61.5605 4.63872 60.1474C7.56218 55.6171 10.8405 51.3258 14.4428 47.3141Z" fill="#2AB3DE"/>
</svg>
