<svg width="73" height="120" viewBox="0 0 73 120" fill="none" xmlns="http://www.w3.org/2000/svg">
<path d="M36.4249 0C16.3385 0 0 16.3385 0 36.4249C0 42.487 1.48532 48.2211 4.54232 53.9551C4.57686 54.0242 4.66321 54.1796 4.81865 54.456C5.09499 54.9568 5.3886 55.475 5.69948 55.9931H5.71675C6.37305 57.0466 7.34024 58.4629 8.56649 60.0345C9.2228 60.8808 9.93092 61.7444 10.6736 62.6598C13.1088 65.6822 16.1485 69.43 16.943 71.5544C18.8601 76.5803 19.2055 80.3454 19.2055 80.38L19.5337 84.456H53.247L53.5924 80.3972C53.5924 80.3972 53.9378 76.5976 55.8549 71.5544C56.6667 69.43 59.6891 65.6822 62.1416 62.6598C62.8843 61.7444 63.5924 60.8808 64.2487 60.0345C65.4922 58.4629 66.4421 57.0294 67.0984 55.9758H67.1157C67.4093 55.4922 67.7029 54.9741 67.9793 54.4732C68.1347 54.1796 68.2383 54.0069 68.2729 53.9551C71.3299 48.2211 72.8152 42.487 72.8152 36.4249C72.8152 16.3385 56.4767 0 36.3903 0" fill="#3EBD5F"/>
<path d="M54.3178 93.9206C54.3178 96.2522 52.418 98.1521 50.0864 98.1521H22.798C20.4664 98.1521 18.5665 96.2522 18.5665 93.9206C18.5665 91.589 20.4491 89.6892 22.798 89.6892H50.0864C52.418 89.6892 54.3178 91.589 54.3178 93.9206Z" fill="#3EBD5F"/>
<path d="M52.9534 106.028C52.9534 108.325 51.468 110.173 49.6373 110.173H23.1952C21.3817 110.173 19.8964 108.325 19.8964 106.028C19.8964 103.731 21.3817 101.883 23.1952 101.883H49.6373C51.468 101.883 52.9534 103.748 52.9534 106.028Z" fill="#3EBD5F"/>
<path d="M44.5596 116.287C44.5596 117.599 43.5061 118.653 42.1934 118.653C42.1934 118.653 40.19 120 36.4249 120C32.6598 120 30.6736 118.653 30.6736 118.653C29.361 118.653 28.3074 117.599 28.3074 116.287C28.3074 114.974 29.361 113.921 30.6736 113.921H42.1934C43.5061 113.921 44.5596 114.991 44.5596 116.287" fill="#3EBD5F"/>
</svg>
