<svg width="168" height="436" viewBox="0 0 168 436" fill="none" xmlns="http://www.w3.org/2000/svg">
<path d="M53.1555 317.868L54.9519 345.141C56.4488 357.4 65.4658 394.865 64.9785 400.236C64.9785 400.236 68.2366 403.552 77.6997 399.74C79.1791 399.156 76.9718 385.73 78.2574 377.557C79.5841 369.098 79.5313 354.359 79.0206 347.47L74.1364 316.076C74.1364 324.832 69.4401 331.878 63.646 331.878C57.8519 331.878 53.1555 324.803 53.1555 316.076V317.868Z" fill="#CCCCCC" stroke="#808080" stroke-width="3.57895" stroke-miterlimit="10" stroke-linecap="round"/>
<path d="M79.3553 264.407C79.6899 272.889 74.1365 307.383 74.1365 317.868V316.251C74.1365 316.251 74.9701 300.542 63.6461 300.454C52.322 300.367 53.1556 317.868 53.1556 317.868C46.7804 296.946 39.0666 223.883 44.4615 202.127C44.4615 202.127 67.092 194.059 79.3553 225.261V264.407Z" fill="#CCCCCC" stroke="#808080" stroke-width="3.57895" stroke-miterlimit="10" stroke-linecap="round"/>
<path d="M76.5607 399.669C76.749 399.576 76.9591 399.535 77.1689 399.55C77.3787 399.565 77.5806 399.636 77.7534 399.756C77.9262 399.875 78.0636 400.038 78.1512 400.229C78.2388 400.419 78.2734 400.629 78.2513 400.837C77.9226 404.836 78.3629 410.971 78.4333 414.45C78.5273 418.688 71.9759 427.456 70.6492 429.382C70.5919 429.468 70.5227 429.544 70.4437 429.61C69.4398 430.468 62.2721 436.142 55.1806 430.778C55.0774 430.696 54.9865 430.599 54.9106 430.492L49.275 422.208C46.8916 419.517 55.1454 414.036 57.2705 412.074C60.6871 408.893 63.2583 406.336 64.086 401.216C64.1098 401.046 64.171 400.883 64.2653 400.74C64.3596 400.596 64.4846 400.474 64.6315 400.384C64.7784 400.294 64.9435 400.237 65.1151 400.217C65.2866 400.197 65.4604 400.216 65.6241 400.271C67.215 400.814 69.9095 401.537 72.1402 401.146C73.6721 400.847 75.1581 400.351 76.5607 399.669Z" fill="#CCCCCC" stroke="#808080" stroke-width="3.57895" stroke-miterlimit="10" stroke-linecap="round"/>
<path d="M3.76282 231.752L11.7642 172.764C11.7642 172.764 27.0566 171.048 25.9824 176.372C25.0196 181.141 20.8223 203.837 17.1767 213.218C14.9699 218.892 13.1652 224.713 11.7759 230.638" fill="#CCCCCC"/>
<path d="M11.7642 172.764L11.5646 170.986L10.1785 171.141L9.99096 172.524L11.7642 172.764ZM25.9824 176.372L27.7364 176.726L27.7365 176.726L25.9824 176.372ZM17.1767 213.218L18.8445 213.867L18.8447 213.866L17.1767 213.218ZM5.53605 231.993L13.5374 173.005L9.99096 172.524L1.98958 231.512L5.53605 231.993ZM11.7642 172.764C11.9638 174.542 11.9635 174.542 11.9634 174.542C11.9634 174.542 11.9633 174.542 11.9633 174.542C11.9634 174.542 11.9637 174.542 11.9642 174.542C11.9653 174.542 11.9672 174.542 11.9701 174.542C11.9758 174.541 11.9852 174.54 11.998 174.539C12.0235 174.536 12.0629 174.532 12.1153 174.527C12.2199 174.516 12.3759 174.501 12.5757 174.483C12.9756 174.448 13.549 174.404 14.2349 174.366C15.6141 174.29 17.4148 174.245 19.1617 174.357C20.9569 174.472 22.4957 174.743 23.4685 175.189C23.944 175.407 24.1362 175.601 24.2013 175.696C24.2271 175.734 24.2737 175.793 24.2282 176.018L27.7365 176.726C27.9596 175.62 27.7633 174.567 27.1585 173.68C26.5929 172.851 25.7665 172.305 24.9595 171.935C23.3671 171.205 21.2842 170.907 19.3906 170.786C17.4486 170.661 15.4934 170.713 14.0389 170.792C13.3078 170.832 12.6949 170.88 12.2627 170.918C12.0464 170.937 11.875 170.954 11.7561 170.966C11.6967 170.972 11.6503 170.977 11.6181 170.98C11.602 170.982 11.5894 170.983 11.5804 170.984C11.576 170.985 11.5724 170.985 11.5698 170.985C11.5684 170.985 11.5673 170.985 11.5665 170.986C11.5661 170.986 11.5656 170.986 11.5654 170.986C11.565 170.986 11.5646 170.986 11.7642 172.764ZM24.2283 176.018C23.7403 178.435 22.4589 185.258 20.8373 192.684C19.2084 200.143 17.2734 208.029 15.5088 212.57L18.8447 213.866C20.7255 209.027 22.712 200.874 24.3339 193.447C25.963 185.987 27.2617 179.078 27.7364 176.726L24.2283 176.018ZM15.509 212.57C13.2717 218.322 11.4421 224.223 10.0337 230.229L13.5182 231.046C14.8882 225.203 16.668 219.463 18.8445 213.867L15.509 212.57Z" fill="#808080"/>
<path d="M13.1424 172.285C13.1424 172.285 7.6479 154.801 20.0106 154.801C30.4362 154.801 26.5383 172.063 25.0121 173.482C21.1467 172.446 17.138 172.042 13.1424 172.285Z" fill="#CCCCCC" stroke="#808080" stroke-width="3.57895" stroke-miterlimit="10" stroke-linecap="round"/>
<path d="M46.8271 81.3246C46.8271 81.3246 41.8901 93.1807 40.9567 99.421L23.228 96.2921C23.228 96.2921 27.0027 80.9744 46.8271 81.3246Z" fill="#CCCCCC" stroke="#808080" stroke-width="3.57895" stroke-miterlimit="10" stroke-linecap="round"/>
<path d="M83.8122 68.4118C99.3981 68.4118 107.793 38.2843 107.793 38.2843C107.793 38.2843 112.295 23.7896 105.374 13.0777C98.453 2.36583 83.8122 2.80948 83.8122 2.80948C83.8122 2.80948 69.1361 2.36583 62.2325 13.0777C55.3289 23.7896 59.8139 38.2843 59.8139 38.2843C59.8139 38.2843 68.2086 68.4118 83.8122 68.4118Z" fill="#CCCCCC" stroke="#808080" stroke-width="3.57895" stroke-miterlimit="10" stroke-linecap="round"/>
<path d="M3.23961 232.459C0.815122 258.232 9.05132 262.23 12.4151 262.779C12.573 262.806 12.735 262.796 12.8885 262.75C13.042 262.705 13.183 262.625 13.3004 262.516C13.4179 262.408 13.5087 262.274 13.5659 262.125C13.6231 261.977 13.6451 261.817 13.6302 261.658L12.1098 243.772C12.0904 243.552 12.1267 243.331 12.2155 243.129C12.3042 242.927 12.4424 242.75 12.6176 242.615C12.7928 242.479 12.9994 242.39 13.2183 242.354C13.4372 242.319 13.6616 242.339 13.8709 242.412C17.4754 243.673 23.3458 245.85 24.2264 244.385C24.7488 243.486 15.5088 234.07 12.6499 231.116C12.4228 230.882 12.1484 230.699 11.8449 230.578C11.5413 230.457 11.2154 230.402 10.8888 230.416C8.56995 230.538 3.38637 230.97 3.23961 232.459Z" fill="#CCCCCC" stroke="#808080" stroke-width="3.57895" stroke-miterlimit="10" stroke-linecap="round"/>
<path d="M11.7757 230.555C11.7757 230.555 6.12852 230.299 3.76282 231.752L11.7757 230.555Z" fill="#CCCCCC"/>
<path d="M11.7757 230.555C11.857 228.768 11.8567 228.768 11.8565 228.768C11.8563 228.768 11.856 228.768 11.8558 228.768C11.8553 228.768 11.8547 228.768 11.854 228.768C11.8527 228.768 11.851 228.768 11.849 228.767C11.845 228.767 11.8396 228.767 11.8328 228.767C11.8194 228.766 11.8006 228.766 11.7768 228.765C11.7292 228.763 11.6613 228.761 11.5755 228.758C11.4039 228.754 11.1597 228.749 10.8607 228.749C10.2645 228.747 9.44062 228.761 8.53357 228.823C7.63138 228.886 6.61611 228.998 5.64649 229.2C4.70217 229.398 3.67349 229.707 2.82602 230.227L4.69962 233.277C5.035 233.071 5.59935 232.867 6.37924 232.704C7.13381 232.546 7.9739 232.449 8.77922 232.394C9.57968 232.339 10.3154 232.326 10.852 232.328C11.1194 232.328 11.3349 232.332 11.4814 232.336C11.5545 232.338 11.6103 232.34 11.6466 232.341C11.6647 232.342 11.678 232.342 11.686 232.343C11.69 232.343 11.6928 232.343 11.6942 232.343C11.6949 232.343 11.6953 232.343 11.6953 232.343C11.6953 232.343 11.6952 232.343 11.6951 232.343C11.695 232.343 11.6948 232.343 11.6948 232.343C11.6946 232.343 11.6944 232.343 11.7757 230.555Z" fill="#808080"/>
<path d="M94.1673 65.0963L95.3414 75.8316C95.3414 75.8316 88.8135 80.4491 83.8119 80.6826C78.7927 80.4432 72.2589 75.8316 72.2589 75.8316L73.433 64.9504C73.4435 64.8517 73.4821 64.7581 73.5444 64.6806C73.6067 64.6031 73.69 64.5449 73.7845 64.513C73.8789 64.4811 73.9806 64.4767 74.0775 64.5004C74.1744 64.5241 74.2624 64.575 74.3312 64.6468C75.5434 65.905 76.9976 66.908 78.6072 67.5965C80.2169 68.2849 81.9493 68.6447 83.7015 68.6545C85.4537 68.6643 87.19 68.3239 88.8073 67.6535C90.4247 66.9831 91.8901 65.9964 93.1165 64.7519C93.1908 64.6566 93.293 64.5866 93.4089 64.5513C93.5249 64.5161 93.649 64.5175 93.7642 64.5552C93.8794 64.593 93.9799 64.6653 94.0521 64.7621C94.1243 64.859 94.1646 64.9758 94.1673 65.0963Z" fill="#CCCCCC" stroke="#808080" stroke-width="3.57895" stroke-miterlimit="10" stroke-linecap="round"/>
<path d="M63.646 332.047C69.4397 332.047 74.1364 324.975 74.1364 316.251C74.1364 307.527 69.4397 300.455 63.646 300.455C57.8522 300.455 53.1555 307.527 53.1555 316.251C53.1555 324.975 57.8522 332.047 63.646 332.047Z" fill="#CCCCCC" stroke="#808080" stroke-width="3.57895" stroke-miterlimit="10" stroke-linecap="round"/>
<path d="M83.8111 193.428C103.618 193.428 116.31 178.835 116.31 178.835C116.31 178.835 124.405 181.806 123.055 202.01C123.055 202.01 99.4264 194.736 88.1611 225.138H79.4494C68.1782 194.736 44.5497 202.01 44.5497 202.01C43.1995 181.806 51.2948 178.835 51.2948 178.835C51.2948 178.835 63.9926 193.428 83.8111 193.428Z" fill="#CCCCCC" stroke="#808080" stroke-width="3.57895" stroke-miterlimit="10" stroke-linecap="round"/>
<path d="M83.6637 114.943C95.2225 114.943 94.2304 121.563 106.629 121.563C118.117 121.563 126.688 98.6157 126.688 98.6157C125.79 92.352 120.818 81.1731 120.818 81.1731L95.8389 75.6799H95.4456C95.4456 75.6799 88.2661 80.5309 83.6402 80.5309H83.9102C79.2785 80.5309 72.0989 75.6799 72.0989 75.6799H71.7056L46.727 81.1731C46.727 81.1731 41.7782 92.352 40.8566 98.6157C40.8566 98.6157 49.4274 121.563 60.9158 121.563C73.3141 121.563 72.322 114.943 83.8867 114.943" fill="#CCCCCC"/>
<path d="M126.688 98.6157L128.364 99.2418L128.524 98.8138L128.459 98.3617L126.688 98.6157ZM120.818 81.1731L122.453 80.4458L122.085 79.6196L121.202 79.4254L120.818 81.1731ZM95.8389 75.6799L96.2233 73.9322L96.0334 73.8905H95.8389V75.6799ZM95.4456 75.6799V73.8905H94.8977L94.4438 74.1972L95.4456 75.6799ZM72.0989 75.6799L73.1008 74.1972L72.6468 73.8905H72.0989V75.6799ZM71.7056 75.6799V73.8905H71.5112L71.3213 73.9322L71.7056 75.6799ZM46.727 81.1731L46.3426 79.4254L45.4575 79.62L45.0907 80.4487L46.727 81.1731ZM40.8566 98.6157L39.0862 98.3552L39.0191 98.8106L39.1802 99.2418L40.8566 98.6157ZM83.6637 116.733C86.3718 116.733 88.2695 117.119 89.7794 117.662C91.3129 118.213 92.5129 118.945 93.9079 119.786C95.2868 120.617 96.8304 121.535 98.861 122.223C100.902 122.915 103.362 123.353 106.629 123.353V119.774C103.696 119.774 101.631 119.383 100.01 118.834C98.3781 118.281 97.1226 117.544 95.7549 116.72C94.4033 115.906 92.9092 114.984 90.9903 114.294C89.0478 113.595 86.735 113.154 83.6637 113.154V116.733ZM106.629 123.353C110.114 123.353 113.212 121.615 115.799 119.315C118.397 117.004 120.65 113.978 122.485 111.036C124.327 108.083 125.793 105.141 126.797 102.945C127.3 101.845 127.689 100.926 127.953 100.279C128.086 99.9561 128.187 99.7005 128.256 99.5238C128.29 99.4355 128.317 99.3669 128.335 99.3194C128.344 99.2957 128.351 99.2772 128.356 99.2642C128.358 99.2577 128.36 99.2526 128.362 99.2488C128.362 99.247 128.363 99.2454 128.363 99.2443C128.364 99.2437 128.364 99.243 128.364 99.2428C128.364 99.2422 128.364 99.2418 126.688 98.6157C125.012 97.9895 125.012 97.9893 125.012 97.9891C125.012 97.9891 125.012 97.989 125.012 97.9891C125.012 97.9894 125.011 97.9899 125.011 97.9908C125.01 97.9926 125.009 97.9958 125.008 98.0003C125.004 98.0094 124.999 98.0238 124.991 98.0435C124.976 98.0829 124.953 98.1432 124.922 98.2229C124.86 98.3824 124.766 98.6198 124.641 98.9239C124.392 99.5323 124.022 100.406 123.542 101.457C122.579 103.564 121.184 106.359 119.448 109.142C117.704 111.938 115.661 114.648 113.42 116.64C111.169 118.643 108.887 119.774 106.629 119.774V123.353ZM128.459 98.3617C127.979 95.0138 126.444 90.488 125.089 86.9115C124.403 85.0986 123.745 83.4857 123.259 82.326C123.016 81.7458 122.815 81.2781 122.675 80.9543C122.605 80.7924 122.55 80.6665 122.512 80.5805C122.493 80.5374 122.478 80.5044 122.468 80.4818C122.464 80.4705 122.46 80.4618 122.457 80.4558C122.456 80.4528 122.455 80.4504 122.454 80.4488C122.454 80.4479 122.453 80.4473 122.453 80.4468C122.453 80.4465 122.453 80.4463 122.453 80.4462C122.453 80.446 122.453 80.4458 120.818 81.1731C119.183 81.9003 119.182 81.9002 119.182 81.9002C119.182 81.9003 119.182 81.9003 119.183 81.9004C119.183 81.9006 119.183 81.9009 119.183 81.9014C119.183 81.9025 119.184 81.9042 119.185 81.9066C119.187 81.9114 119.191 81.9188 119.195 81.9289C119.204 81.949 119.217 81.9794 119.235 82.0198C119.271 82.1006 119.323 82.2209 119.391 82.377C119.526 82.689 119.721 83.1436 119.958 83.7092C120.432 84.8413 121.074 86.4146 121.743 88.1794C123.098 91.7583 124.498 95.9538 124.917 98.8697L128.459 98.3617ZM121.202 79.4254L96.2233 73.9322L95.4546 77.4276L120.433 82.9208L121.202 79.4254ZM95.8389 73.8905H95.4456V77.4694H95.8389V73.8905ZM95.4456 75.6799C94.4438 74.1972 94.4439 74.1971 94.4441 74.197C94.4441 74.1969 94.4443 74.1969 94.4443 74.1968C94.4444 74.1968 94.4443 74.1968 94.4442 74.1969C94.4439 74.1971 94.4432 74.1976 94.442 74.1983C94.4398 74.1999 94.4358 74.2026 94.4301 74.2063C94.4188 74.2139 94.4009 74.2258 94.3766 74.2419C94.328 74.274 94.2541 74.3226 94.1571 74.3852C93.9631 74.5105 93.6776 74.6918 93.3195 74.9103C92.6015 75.3484 91.5997 75.9312 90.4633 76.512C88.0948 77.7223 85.4836 78.7415 83.6402 78.7415V82.3204C86.4227 82.3204 89.7141 80.914 92.0919 79.6989C93.3286 79.0669 94.4108 78.437 95.1836 77.9655C95.5708 77.7292 95.8823 77.5315 96.099 77.3915C96.2074 77.3215 96.2922 77.2658 96.3511 77.2269C96.3805 77.2075 96.4034 77.1922 96.4196 77.1814C96.4277 77.176 96.4341 77.1717 96.4387 77.1686C96.441 77.167 96.4429 77.1657 96.4444 77.1647C96.4451 77.1642 96.4457 77.1638 96.4462 77.1635C96.4465 77.1633 96.4468 77.1631 96.4469 77.163C96.4472 77.1628 96.4474 77.1627 95.4456 75.6799ZM83.6402 82.3204H83.9102V78.7415H83.6402V82.3204ZM83.9102 78.7415C82.0636 78.7415 79.4506 77.7221 77.0818 76.5119C75.945 75.9311 74.9431 75.3483 74.2251 74.9103C73.8669 74.6917 73.5814 74.5105 73.3874 74.3852C73.2905 74.3226 73.2165 74.274 73.1679 74.2419C73.1436 74.2258 73.1257 74.2139 73.1144 74.2063C73.1088 74.2025 73.1048 74.1999 73.1025 74.1983C73.1014 74.1976 73.1006 74.1971 73.1003 74.1969C73.1002 74.1968 73.1002 74.1968 73.1002 74.1968C73.1003 74.1968 73.1004 74.1969 73.1004 74.197C73.1006 74.1971 73.1008 74.1972 72.0989 75.6799C71.0971 77.1627 71.0973 77.1628 71.0976 77.163C71.0977 77.1631 71.098 77.1633 71.0983 77.1635C71.0988 77.1638 71.0994 77.1642 71.1001 77.1647C71.1016 77.1657 71.1035 77.167 71.1058 77.1686C71.1105 77.1717 71.1169 77.176 71.1249 77.1814C71.1411 77.1922 71.164 77.2075 71.1935 77.2269C71.2523 77.2659 71.3371 77.3215 71.4456 77.3916C71.6623 77.5315 71.9739 77.7293 72.3611 77.9655C73.134 78.437 74.2165 79.067 75.4536 79.699C77.8324 80.9143 81.1251 82.3204 83.9102 82.3204V78.7415ZM72.0989 73.8905H71.7056V77.4694H72.0989V73.8905ZM71.3213 73.9322L46.3426 79.4254L47.1113 82.9208L72.09 77.4276L71.3213 73.9322ZM46.727 81.1731C45.0907 80.4487 45.0906 80.4488 45.0905 80.449C45.0905 80.4492 45.0904 80.4494 45.0903 80.4496C45.09 80.4501 45.0898 80.4508 45.0894 80.4516C45.0887 80.4533 45.0876 80.4556 45.0863 80.4586C45.0836 80.4646 45.0798 80.4733 45.0749 80.4846C45.0649 80.5072 45.0504 80.5402 45.0316 80.5832C44.994 80.6692 44.9392 80.7951 44.8694 80.9569C44.7298 81.2806 44.5301 81.7482 44.288 82.3283C43.804 83.4877 43.1486 85.1003 42.4635 86.9127C41.1115 90.4894 39.5781 95.0119 39.0862 98.3552L42.627 98.8762C43.0567 95.9558 44.4585 91.757 45.8113 88.1782C46.4785 86.413 47.118 84.8393 47.5907 83.707C47.8269 83.1412 48.021 82.6865 48.1557 82.3744C48.223 82.2183 48.2754 82.0979 48.3108 82.0171C48.3284 81.9767 48.3418 81.9462 48.3507 81.9261C48.3551 81.916 48.3584 81.9086 48.3605 81.9038C48.3616 81.9014 48.3623 81.8996 48.3628 81.8986C48.363 81.8981 48.3632 81.8977 48.3633 81.8975C48.3633 81.8974 48.3633 81.8974 48.3633 81.8973C48.3633 81.8974 48.3633 81.8974 46.727 81.1731ZM40.8566 98.6157C39.1802 99.2418 39.1804 99.2422 39.1806 99.2428C39.1807 99.243 39.1809 99.2437 39.1811 99.2443C39.1816 99.2454 39.1822 99.247 39.1829 99.2488C39.1843 99.2526 39.1862 99.2577 39.1887 99.2642C39.1936 99.2772 39.2006 99.2957 39.2096 99.3194C39.2277 99.3669 39.2541 99.4355 39.2886 99.5238C39.3575 99.7005 39.4588 99.9561 39.5911 100.279C39.8557 100.926 40.2449 101.845 40.7477 102.945C41.7511 105.141 43.2171 108.083 45.0597 111.036C46.8946 113.978 49.1479 117.004 51.7457 119.315C54.3324 121.615 57.4303 123.353 60.9158 123.353V119.774C58.6571 119.774 56.3754 118.643 54.124 116.64C51.8837 114.648 49.8402 111.938 48.0963 109.142C46.3602 106.359 44.9654 103.564 44.0029 101.457C43.5226 100.406 43.1524 99.5323 42.9034 98.9239C42.779 98.6198 42.6849 98.3824 42.6227 98.2229C42.5916 98.1432 42.5684 98.0829 42.5534 98.0435C42.5459 98.0238 42.5404 98.0094 42.537 98.0003C42.5353 97.9958 42.5341 97.9926 42.5334 97.9908C42.5331 97.9899 42.5329 97.9894 42.5328 97.9891C42.5327 97.989 42.5328 97.9891 42.5328 97.9891C42.5328 97.9893 42.5329 97.9895 40.8566 98.6157ZM60.9158 123.353C64.1821 123.353 66.6422 122.915 68.6836 122.224C70.7143 121.535 72.258 120.617 73.6372 119.786C75.0324 118.946 76.2331 118.213 77.7673 117.662C79.2782 117.119 81.177 116.733 83.8867 116.733V113.154C80.8141 113.154 78.5002 113.595 76.557 114.294C74.6373 114.983 73.1426 115.906 71.7905 116.72C70.4224 117.544 69.1666 118.281 67.5349 118.834C65.9139 119.383 63.8486 119.774 60.9158 119.774V123.353Z" fill="#808080"/>
<path d="M83.594 156.722C100.102 156.722 118.77 145.251 118.77 145.251C118.218 133.483 126.959 98.5452 126.959 98.5452C126.959 98.5452 118.188 121.218 106.694 121.218C94.3016 121.218 95.2937 114.593 83.729 114.593H83.999C72.4402 114.593 73.4323 121.218 61.0339 121.218C49.5455 121.218 40.9571 98.265 40.9571 98.265L40.6636 99.4209C40.6636 99.4209 49.2227 133.465 48.6767 145.251C48.6767 145.251 67.3388 156.722 83.8464 156.722" fill="#CCCCCC"/>
<path d="M118.77 145.251L119.706 146.776L120.607 146.223L120.557 145.168L118.77 145.251ZM126.959 98.5452L128.695 98.9795L125.29 97.8996L126.959 98.5452ZM61.0339 121.218V123.008V121.218ZM40.9571 98.265L42.6331 97.6379L40.6298 92.2839L39.2227 97.8245L40.9571 98.265ZM40.6636 99.4209L38.9292 98.9804L38.8179 99.4186L38.9281 99.8572L40.6636 99.4209ZM48.6767 145.251L46.8892 145.169L46.8403 146.223L47.7397 146.776L48.6767 145.251ZM83.594 158.512C92.2079 158.512 101.266 155.534 108.074 152.633C111.498 151.174 114.396 149.716 116.44 148.621C117.462 148.074 118.273 147.616 118.831 147.294C119.11 147.132 119.325 147.005 119.473 146.917C119.547 146.873 119.604 146.839 119.643 146.815C119.662 146.803 119.677 146.794 119.688 146.787C119.693 146.784 119.698 146.781 119.701 146.78C119.702 146.779 119.703 146.778 119.704 146.777C119.705 146.777 119.705 146.777 119.706 146.777C119.706 146.776 119.706 146.776 118.77 145.251C117.833 143.727 117.833 143.727 117.833 143.727C117.833 143.727 117.833 143.727 117.833 143.727C117.833 143.727 117.832 143.727 117.832 143.727C117.83 143.728 117.828 143.73 117.824 143.732C117.816 143.737 117.805 143.744 117.788 143.754C117.756 143.774 117.706 143.804 117.639 143.844C117.505 143.924 117.303 144.043 117.04 144.195C116.512 144.5 115.735 144.939 114.75 145.466C112.778 146.522 109.977 147.932 106.671 149.341C100.017 152.176 91.4876 154.933 83.594 154.933V158.512ZM120.557 145.168C120.428 142.416 120.845 138.177 121.586 133.255C122.321 128.37 123.355 122.935 124.409 117.848C125.464 112.765 126.535 108.046 127.344 104.597C127.748 102.872 128.086 101.466 128.323 100.492C128.441 100.005 128.535 99.6263 128.598 99.3694C128.63 99.241 128.654 99.1431 128.67 99.0775C128.678 99.0447 128.685 99.02 128.689 99.0036C128.691 98.9954 128.692 98.9893 128.693 98.9853C128.694 98.9833 128.694 98.9818 128.694 98.9808C128.695 98.9803 128.695 98.98 128.695 98.9798C128.695 98.9796 128.695 98.9795 126.959 98.5452C125.223 98.1109 125.223 98.1111 125.223 98.1115C125.223 98.1118 125.222 98.1122 125.222 98.1128C125.222 98.114 125.222 98.1157 125.221 98.1179C125.22 98.1224 125.218 98.1289 125.216 98.1376C125.212 98.1548 125.205 98.1804 125.197 98.2141C125.18 98.2815 125.156 98.3812 125.123 98.5115C125.059 98.7722 124.965 99.1553 124.845 99.6465C124.606 100.629 124.266 102.045 123.859 103.78C123.046 107.249 121.967 112 120.905 117.122C119.843 122.241 118.795 127.747 118.047 132.722C117.304 137.661 116.835 142.203 116.982 145.335L120.557 145.168ZM126.959 98.5452C125.29 97.8996 125.29 97.8994 125.29 97.8992C125.29 97.8992 125.29 97.8991 125.29 97.8992C125.29 97.8994 125.29 97.9 125.289 97.9009C125.289 97.9026 125.287 97.9058 125.286 97.9102C125.282 97.9192 125.277 97.9334 125.269 97.9529C125.254 97.9917 125.23 98.0512 125.198 98.1299C125.135 98.2875 125.038 98.5219 124.911 98.8223C124.657 99.4232 124.279 100.287 123.79 101.325C122.809 103.406 121.39 106.167 119.63 108.917C117.862 111.678 115.794 114.357 113.534 116.327C111.263 118.306 108.964 119.429 106.694 119.429V123.008C110.172 123.008 113.279 121.296 115.885 119.025C118.503 116.743 120.783 113.753 122.644 110.847C124.513 107.928 126.005 105.021 127.027 102.851C127.54 101.763 127.937 100.856 128.208 100.217C128.343 99.897 128.446 99.6444 128.517 99.4698C128.552 99.3824 128.579 99.3146 128.598 99.2677C128.607 99.2442 128.614 99.2259 128.619 99.2131C128.622 99.2066 128.624 99.2016 128.625 99.1978C128.626 99.196 128.626 99.1945 128.627 99.1933C128.627 99.1927 128.627 99.1921 128.627 99.1918C128.628 99.1913 128.628 99.1908 126.959 98.5452ZM106.694 119.429C103.763 119.429 101.699 119.038 100.079 118.488C98.4482 117.935 97.1931 117.198 95.8253 116.373C94.4734 115.558 92.9789 114.635 91.0591 113.944C89.1159 113.245 86.8018 112.803 83.729 112.803V116.382C86.4385 116.382 88.3372 116.768 89.8478 117.312C91.3818 117.864 92.5822 118.597 93.977 119.438C95.3558 120.269 96.899 121.189 98.9289 121.878C100.97 122.57 103.429 123.008 106.694 123.008V119.429ZM83.729 116.382H83.999V112.803H83.729V116.382ZM83.999 112.803C80.9276 112.803 78.6145 113.245 76.672 113.944C74.753 114.635 73.2588 115.558 71.9072 116.373C70.5395 117.198 69.284 117.935 67.6525 118.488C66.0318 119.038 63.9666 119.429 61.0339 119.429V123.008C64.3004 123.008 66.7606 122.57 68.8022 121.878C70.8329 121.189 72.3765 120.269 73.7554 119.438C75.1504 118.597 76.3504 117.863 77.8838 117.312C79.3935 116.768 81.2911 116.382 83.999 116.382V112.803ZM61.0339 119.429C58.7752 119.429 56.4924 118.297 54.2392 116.294C51.997 114.301 49.9513 111.59 48.2052 108.794C46.4669 106.01 45.07 103.214 44.1058 101.107C43.6247 100.056 43.2538 99.1812 43.0043 98.5726C42.8796 98.2684 42.7854 98.0309 42.7231 97.8714C42.6919 97.7916 42.6687 97.7313 42.6536 97.6919C42.6461 97.6722 42.6406 97.6578 42.6372 97.6487C42.6355 97.6442 42.6343 97.641 42.6336 97.6392C42.6332 97.6383 42.633 97.6377 42.633 97.6375C42.6329 97.6374 42.633 97.6375 42.6329 97.6374C42.633 97.6376 42.6331 97.6379 40.9571 98.265C39.2811 98.8921 39.2813 98.8926 39.2815 98.8931C39.2816 98.8934 39.2818 98.894 39.282 98.8946C39.2825 98.8958 39.2831 98.8973 39.2838 98.8992C39.2852 98.9029 39.2871 98.9081 39.2896 98.9146C39.2945 98.9276 39.3015 98.946 39.3106 98.9698C39.3287 99.0173 39.3551 99.0859 39.3897 99.1742C39.4587 99.3509 39.5602 99.6066 39.6928 99.93C39.9579 100.577 40.3477 101.495 40.8514 102.596C41.8565 104.793 43.3247 107.735 45.1695 110.689C47.0066 113.631 49.262 116.659 51.8614 118.969C54.4496 121.27 57.5485 123.008 61.0339 123.008V119.429ZM39.2227 97.8245L38.9292 98.9804L42.398 99.8613L42.6915 98.7055L39.2227 97.8245ZM40.6636 99.4209C38.9281 99.8572 38.9281 99.8572 38.9282 99.8574C38.9282 99.8576 38.9283 99.8579 38.9284 99.8584C38.9286 99.8593 38.929 99.8608 38.9295 99.8627C38.9305 99.8666 38.932 99.8726 38.934 99.8806C38.938 99.8965 38.944 99.9206 38.952 99.9525C38.9679 100.016 38.9917 100.112 39.0227 100.237C39.0848 100.487 39.1759 100.857 39.2919 101.331C39.5238 102.281 39.8548 103.652 40.2504 105.334C41.0419 108.7 42.0911 113.307 43.1227 118.28C44.155 123.255 45.1664 128.58 45.8852 133.383C46.6092 138.221 47.0169 142.41 46.8892 145.169L50.4643 145.334C50.6095 142.2 50.152 137.713 49.4247 132.853C48.6922 127.958 47.6663 122.562 46.627 117.553C45.5872 112.541 44.5307 107.901 43.7344 104.515C43.3361 102.821 43.0027 101.44 42.7687 100.482C42.6516 100.003 42.5595 99.6295 42.4964 99.3753C42.4649 99.2482 42.4407 99.151 42.4243 99.0853C42.4161 99.0524 42.4098 99.0275 42.4056 99.0106C42.4035 99.0022 42.4019 98.9958 42.4008 98.9914C42.4002 98.9892 42.3998 98.9876 42.3995 98.9864C42.3994 98.9859 42.3993 98.9854 42.3992 98.9851C42.3991 98.9848 42.399 98.9845 40.6636 99.4209ZM48.6767 145.251C47.7397 146.776 47.74 146.776 47.7405 146.776C47.7407 146.777 47.7412 146.777 47.7417 146.777C47.7427 146.778 47.7439 146.779 47.7454 146.779C47.7485 146.781 47.7527 146.784 47.758 146.787C47.7686 146.794 47.7838 146.803 47.8033 146.815C47.8424 146.838 47.8992 146.873 47.973 146.917C48.1206 147.005 48.3363 147.132 48.6152 147.294C49.1728 147.616 49.9832 148.073 51.0056 148.621C53.0491 149.716 55.9462 151.174 59.3696 152.633C66.1755 155.533 75.2324 158.512 83.8464 158.512V154.933C75.9528 154.933 67.4249 152.176 60.7728 149.341C57.4672 147.932 54.6671 146.522 52.6956 145.466C51.7105 144.939 50.9339 144.5 50.4065 144.195C50.1428 144.043 49.9415 143.924 49.8077 143.844C49.7408 143.804 49.6907 143.774 49.6582 143.754C49.6419 143.744 49.63 143.737 49.6226 143.732C49.6189 143.73 49.6163 143.728 49.6148 143.728C49.6141 143.727 49.6136 143.727 49.6134 143.727C49.6134 143.727 49.6134 143.727 49.6134 143.727C49.6135 143.727 49.6138 143.727 48.6767 145.251Z" fill="#808080"/>
<path d="M164.235 231.758L156.24 172.764C156.24 172.764 140.977 171.048 142.016 176.372C142.978 181.141 147.176 203.837 150.821 213.218C153.028 218.894 154.83 224.717 156.216 230.643" fill="#CCCCCC"/>
<path d="M156.24 172.764L158.013 172.524L157.826 171.142L156.44 170.986L156.24 172.764ZM142.016 176.372L140.259 176.714L140.262 176.726L142.016 176.372ZM150.821 213.218L149.153 213.866L149.153 213.867L150.821 213.218ZM166.009 231.518L158.013 172.524L154.466 173.004L162.462 231.999L166.009 231.518ZM156.24 172.764C156.44 170.986 156.439 170.986 156.439 170.986C156.439 170.986 156.438 170.986 156.438 170.986C156.437 170.986 156.436 170.985 156.435 170.985C156.432 170.985 156.428 170.985 156.424 170.984C156.415 170.983 156.402 170.982 156.386 170.98C156.354 170.977 156.308 170.972 156.248 170.966C156.13 170.954 155.959 170.937 155.743 170.918C155.311 170.88 154.699 170.832 153.969 170.792C152.517 170.713 150.564 170.661 148.624 170.786C146.731 170.907 144.649 171.206 143.055 171.935C142.248 172.304 141.422 172.848 140.854 173.675C140.247 174.558 140.043 175.607 140.259 176.714L143.772 176.029C143.728 175.805 143.774 175.744 143.803 175.702C143.871 175.603 144.067 175.408 144.544 175.189C145.52 174.743 147.059 174.472 148.853 174.357C150.598 174.245 152.396 174.29 153.773 174.366C154.458 174.404 155.03 174.448 155.429 174.483C155.629 174.501 155.784 174.516 155.889 174.527C155.941 174.532 155.98 174.536 156.006 174.539C156.018 174.54 156.028 174.541 156.033 174.542C156.036 174.542 156.038 174.542 156.039 174.542C156.04 174.542 156.04 174.542 156.04 174.542C156.04 174.542 156.04 174.542 156.04 174.542C156.04 174.542 156.04 174.542 156.24 172.764ZM140.262 176.726C140.736 179.078 142.035 185.987 143.664 193.447C145.286 200.874 147.273 209.027 149.153 213.866L152.489 212.57C150.725 208.029 148.79 200.143 147.161 192.684C145.539 185.258 144.258 178.435 143.77 176.018L140.262 176.726ZM149.153 213.867C151.329 219.464 153.107 225.206 154.474 231.051L157.959 230.236C156.554 224.227 154.726 218.324 152.489 212.57L149.153 213.867Z" fill="#808080"/>
<path d="M154.843 172.285C154.843 172.285 160.338 154.801 147.975 154.801C137.555 154.801 141.447 172.063 142.974 173.482C146.839 172.446 150.848 172.042 154.843 172.285Z" fill="#CCCCCC" stroke="#808080" stroke-width="3.57895" stroke-miterlimit="10" stroke-linecap="round"/>
<path d="M121.204 81.3246C121.204 81.3246 126.141 93.1807 127.04 99.421L144.768 96.2921C144.768 96.2921 140.994 80.9744 121.204 81.3246Z" fill="#CCCCCC" stroke="#808080" stroke-width="3.57895" stroke-miterlimit="10" stroke-linecap="round"/>
<path d="M154.714 157.674C155.889 158.585 147.517 110.191 145.451 98.6331C145.393 98.3078 145.271 97.9971 145.092 97.7188C144.913 97.4406 144.68 97.2001 144.407 97.0114C144.135 96.8227 143.827 96.6893 143.503 96.619C143.178 96.5487 142.843 96.5428 142.516 96.6017L129.642 98.8725C128.985 98.9869 128.395 99.3427 127.99 99.8693C127.584 100.396 127.392 101.055 127.452 101.715C127.928 107.127 129.589 120.641 134.749 132.31C138.858 141.551 142.252 158.433 142.252 158.433C142.252 158.433 146.531 151.311 154.714 157.674Z" fill="#CCCCCC" stroke="#808080" stroke-width="3.57895" stroke-miterlimit="10" stroke-linecap="round"/>
<path d="M164.758 232.459C167.188 258.232 158.946 262.23 155.583 262.779C155.425 262.806 155.264 262.796 155.111 262.751C154.958 262.705 154.817 262.626 154.7 262.518C154.583 262.411 154.492 262.278 154.434 262.13C154.376 261.981 154.354 261.822 154.367 261.664L155.888 243.772C155.907 243.552 155.871 243.331 155.782 243.129C155.694 242.927 155.555 242.75 155.38 242.615C155.205 242.479 154.998 242.39 154.779 242.355C154.56 242.319 154.336 242.339 154.127 242.412C150.563 243.673 144.646 245.85 143.789 244.385C143.261 243.486 152.501 234.07 155.365 231.116C155.592 230.882 155.867 230.698 156.17 230.578C156.474 230.457 156.8 230.402 157.127 230.416C159.428 230.538 164.617 230.97 164.758 232.459Z" fill="#CCCCCC" stroke="#808080" stroke-width="3.57895" stroke-miterlimit="10" stroke-linecap="round"/>
<path d="M156.222 230.555C156.222 230.555 161.887 230.299 164.235 231.758L156.222 230.555Z" fill="#CCCCCC"/>
<path d="M156.222 230.555C156.303 232.343 156.303 232.343 156.303 232.343C156.303 232.343 156.302 232.343 156.302 232.343C156.302 232.343 156.302 232.343 156.302 232.343C156.302 232.343 156.303 232.343 156.303 232.343C156.305 232.343 156.307 232.343 156.312 232.343C156.32 232.342 156.333 232.342 156.351 232.341C156.387 232.34 156.443 232.338 156.517 232.336C156.664 232.332 156.88 232.328 157.148 232.328C157.686 232.326 158.423 232.339 159.225 232.395C160.031 232.45 160.871 232.547 161.624 232.706C162.403 232.869 162.962 233.074 163.29 233.278L165.18 230.238C164.334 229.712 163.304 229.402 162.361 229.203C161.391 228.999 160.375 228.887 159.471 228.824C158.563 228.761 157.737 228.747 157.14 228.749C156.84 228.749 156.595 228.754 156.423 228.758C156.337 228.761 156.269 228.763 156.221 228.765C156.198 228.765 156.179 228.766 156.165 228.767C156.158 228.767 156.153 228.767 156.149 228.767C156.147 228.767 156.145 228.768 156.144 228.768C156.143 228.768 156.143 228.768 156.142 228.768C156.142 228.768 156.142 228.768 156.142 228.768C156.141 228.768 156.141 228.768 156.222 230.555Z" fill="#808080"/>
<path d="M113.986 317.868L112.183 345.141C110.686 357.4 101.675 394.865 102.157 400.236C102.157 400.236 98.8986 403.552 89.4355 399.74C87.9562 399.156 90.1635 385.73 88.8485 377.557C87.5218 369.098 87.5746 354.364 88.0853 347.47L92.9695 316.076C92.9695 324.832 97.6659 331.878 103.46 331.878C109.254 331.878 113.956 324.803 113.956 316.076L113.986 317.868Z" fill="#CCCCCC" stroke="#808080" stroke-width="3.57895" stroke-miterlimit="10" stroke-linecap="round"/>
<path d="M87.7793 264.407C87.4506 272.889 92.9981 307.383 92.9981 317.868V316.251C92.9981 316.251 92.1586 300.542 103.483 300.454C114.807 300.367 113.979 317.868 113.979 317.868C120.354 296.946 128.068 223.883 122.673 202.127C122.673 202.127 100.043 194.059 87.7734 225.261L87.7793 264.407Z" fill="#CCCCCC" stroke="#808080" stroke-width="3.57895" stroke-miterlimit="10" stroke-linecap="round"/>
<path d="M90.5799 399.669C90.3913 399.574 90.1805 399.532 89.9698 399.546C89.7591 399.561 89.5562 399.632 89.3825 399.751C89.2088 399.871 89.0707 400.034 88.9829 400.226C88.895 400.417 88.8606 400.628 88.8833 400.836C89.212 404.835 88.7718 410.97 88.7013 414.45C88.6133 418.688 95.1588 427.456 96.4855 429.382C96.5412 429.468 96.6106 429.545 96.691 429.61C97.7007 430.468 104.863 436.148 111.954 430.777C112.059 430.697 112.15 430.6 112.224 430.491L117.86 422.208C120.249 419.517 111.989 414.035 109.864 412.074C106.448 408.892 103.882 406.335 103.054 401.216C103.031 401.045 102.97 400.882 102.875 400.737C102.78 400.593 102.655 400.471 102.507 400.381C102.359 400.29 102.194 400.233 102.021 400.214C101.849 400.195 101.675 400.214 101.511 400.27C99.9256 400.813 97.2252 401.537 94.9944 401.146C93.4642 400.848 91.9799 400.351 90.5799 399.669Z" fill="#CCCCCC" stroke="#808080" stroke-width="3.57895" stroke-miterlimit="10" stroke-linecap="round"/>
<path d="M103.489 332.047C109.283 332.047 113.98 324.975 113.98 316.251C113.98 307.527 109.283 300.454 103.489 300.454C97.6955 300.454 92.9988 307.527 92.9988 316.251C92.9988 324.975 97.6955 332.047 103.489 332.047Z" fill="#CCCCCC" stroke="#808080" stroke-width="3.57895" stroke-miterlimit="10" stroke-linecap="round"/>
<path d="M13.6072 157.674C12.4332 158.585 20.8102 110.191 22.8708 98.6331C22.9288 98.3078 23.0509 97.9971 23.2299 97.7188C23.409 97.4406 23.6415 97.2001 23.9142 97.0114C24.1869 96.8227 24.4944 96.6893 24.819 96.619C25.1436 96.5487 25.479 96.5428 25.806 96.6017L38.6798 98.8725C39.3367 98.9881 39.9262 99.344 40.3325 99.8701C40.7388 100.396 40.9325 101.054 40.8753 101.715C40.394 107.127 38.7385 120.635 33.5725 132.304C29.4632 141.545 26.076 158.433 26.076 158.433C26.076 158.433 21.7965 151.311 13.6072 157.674Z" fill="#CCCCCC" stroke="#808080" stroke-width="3.57895" stroke-miterlimit="10" stroke-linecap="round"/>
<path d="M51.0245 179.155L48.7585 145.426C48.7585 145.426 67.4265 156.92 83.9341 156.92H83.6641C100.172 156.92 118.834 145.444 118.834 145.444L116.028 179.173C116.028 179.173 103.606 193.562 83.7991 193.562C63.9923 193.562 51.0245 179.155 51.0245 179.155Z" fill="#CCCCCC" stroke="#808080" stroke-width="3.57895" stroke-miterlimit="10" stroke-linecap="round"/>
<path d="M75.9999 46.0001C75.9999 48.5001 78.9998 51.0001 83.9998 51.0001C88.9999 51.0001 92.3332 47.6668 92.9998 46.0001" stroke="#808080" stroke-width="2.68421" stroke-linecap="round"/>
<circle cx="75.4999" cy="26.5002" r="2.5" fill="#808080"/>
<circle cx="93.4999" cy="26.5001" r="2.5" fill="#808080"/>
<path d="M46.9321 81.4051C46.9321 81.4051 41.9951 93.2611 41.0617 99.5015L23.333 96.3726C23.333 96.3726 27.1077 81.0548 46.9321 81.4051Z" fill="#CCCCCC" stroke="#808080" stroke-width="3.57895" stroke-miterlimit="10" stroke-linecap="round"/>
</svg>
