<svg width="141" height="89" viewBox="0 0 141 89" fill="none" xmlns="http://www.w3.org/2000/svg">
<g clip-path="url(#clip0_4602_114330)">
<path d="M115.9 44.6744C112.434 44.6744 109.609 42.3149 109.609 39.402C109.609 36.4891 112.434 34.1296 115.9 34.1296C119.367 34.1296 122.192 36.4988 122.192 39.402C122.192 42.3052 119.367 44.6744 115.9 44.6744V44.6744ZM87.2082 5.38889H98.5783C100.054 5.38889 102.355 6.36957 103.229 7.36967L110.997 16.322H87.2179V5.38889H87.2082ZM70.8571 44.6452C67.381 44.6452 64.5652 42.2761 64.5652 39.3729C64.5652 36.4697 67.3907 34.1005 70.8571 34.1005C74.3234 34.1005 77.149 36.4697 77.149 39.3729C77.149 42.2761 74.3234 44.6452 70.8571 44.6452ZM69.7599 7.3017C70.2939 6.34044 72.0611 5.38889 73.333 5.38889H80.7707V16.322H64.7497L69.7502 7.3017H69.7599ZM136.203 18.9534L120.221 16.7784C119.92 16.7298 119.58 16.6813 119.231 16.6327L108.443 4.20431C106.365 1.80601 102.122 0 98.5783 0H73.3233C69.5462 0 65.4973 2.16526 63.9049 5.03934L57.6519 16.3317H51.2726C48.2334 16.3317 45.7672 18.3999 45.7672 20.9438V28.8864C44.7379 29.6049 44 30.8866 44 32.7897V34.887C44 37.4309 46.4663 39.4991 49.5054 39.4991H58.1179C58.2053 45.3249 63.8758 50.0438 70.8571 50.0438C77.8383 50.0438 83.5088 45.3249 83.5962 39.4991H103.181C103.239 45.3346 108.929 50.073 115.91 50.073C122.891 50.073 128.581 45.3346 128.649 39.4991H135.495C138.534 39.4991 141 37.4309 141 34.887V23.8956C141 21.5556 138.942 19.4291 136.203 18.9436" fill="#4BBBEB"/>
<path d="M37.0193 73.6282C35.8313 73.1047 34.4462 73.6564 33.9343 74.8467C31.5209 80.4062 26.0342 83.9982 19.9558 83.9982C11.5416 83.9982 4.69549 77.1521 4.69549 68.7378C4.69549 63.2816 7.63488 58.2176 12.3633 55.5154C13.4925 54.8744 13.8823 53.44 13.239 52.313C12.598 51.1861 11.1612 50.787 10.0366 51.4396C3.84558 54.9729 0 61.6006 0 68.7378C0 79.7417 8.95193 88.6937 19.9558 88.6937C27.9077 88.6937 35.0847 83.9912 38.2401 76.7155C38.7566 75.5275 38.2119 74.1446 37.0193 73.6282Z" fill="#4BBBEB"/>
<path d="M53.8315 76.0839C53.3478 74.8772 51.9909 74.2902 50.7794 74.7739L47.2672 76.1802L42.1562 59.8211C41.8486 58.8397 40.94 58.173 39.9117 58.173H23.1441L22.414 53.4775H31.6946C32.9928 53.4775 34.0423 52.428 34.0423 51.1297C34.0423 49.8315 32.9928 48.782 31.6946 48.782H21.6862L20.4724 40.9616C22.2567 39.9521 23.4775 38.0621 23.4775 35.8694C23.4775 32.6318 20.8457 30 17.6081 30C14.373 30 11.7387 32.6318 11.7387 35.8694C11.7387 38.4683 13.4478 40.6518 15.7933 41.4218L18.8102 60.8799C18.9887 62.0255 19.9724 62.8685 21.1297 62.8685H38.1861L43.5389 80.0023C43.7361 80.6268 44.1822 81.141 44.7739 81.4226C45.0908 81.5752 45.4383 81.6504 45.7811 81.6504C46.0769 81.6504 46.3727 81.5964 46.6545 81.4837L52.5238 79.136C53.7282 78.6548 54.3127 77.2883 53.8315 76.0839Z" fill="#4BBBEB"/>
<g clip-path="url(#clip1_4602_114330)">
<path d="M98.6183 48.9564C98.9861 49.8415 99.4062 50.697 99.8055 51.5677C100.223 52.4776 98.891 53.3164 98.4684 52.3954C98.2979 52.0237 98.1239 51.6541 97.951 51.2843C96.0142 56.8939 93.154 62.1635 89.0352 66.4845C84.7073 71.0249 79.1665 74.1725 73.2418 76.1287C69.2328 77.4525 65.0049 78.2477 60.7784 77.7841C59.7718 77.6737 60.1438 76.1441 61.1385 76.2532C65.1503 76.6932 69.1795 75.814 72.9715 74.5619C76.0037 73.5607 78.9131 72.2214 81.6173 70.5214C86.8079 67.2586 90.8861 62.5997 93.7347 57.1949C94.7372 55.2931 95.5779 53.3123 96.2936 51.2867C96.0923 51.4371 95.8917 51.5886 95.6926 51.7426C94.89 52.3633 94.0701 51.02 94.8647 50.4056C95.7105 49.7514 96.5791 49.1347 97.4524 48.5186C97.8996 48.2034 98.4358 48.5173 98.6183 48.9564Z" fill="#4BBBEB"/>
</g>
</g>
<defs>
<clipPath id="clip0_4602_114330">
<rect width="141" height="89" fill="white"/>
</clipPath>
<clipPath id="clip1_4602_114330">
<rect width="37.1237" height="37.1237" fill="white" transform="matrix(0.228971 -0.973433 -0.973433 -0.228971 94.1375 85.6377)"/>
</clipPath>
</defs>
</svg>
