<svg width="54" height="120" viewBox="0 0 54 120" fill="none" xmlns="http://www.w3.org/2000/svg">
<path d="M34.0565 85.6056L32.6719 84.5587V56.2261H20.65V84.5587L19.2654 85.6056C16.1924 87.9357 14.4364 91.4815 14.4364 95.3312C14.4364 102.068 19.924 107.556 26.661 107.556C33.398 107.556 38.8855 102.068 38.8855 95.3312C38.8855 91.4815 37.1295 87.9357 34.0565 85.6056" fill="#2AB3DE"/>
<path d="M45.69 24.7868H40.6246C39.6622 24.7868 38.8686 24.0101 38.8686 23.0308C38.8686 22.0515 39.6453 21.2748 40.6246 21.2748H45.69C46.6525 21.2748 47.4461 22.0515 47.4461 23.0308C47.4461 24.0101 46.6525 24.7868 45.69 24.7868ZM45.69 38.0751H40.6246C39.6622 38.0751 38.8686 37.2984 38.8686 36.3191C38.8686 35.3398 39.6453 34.5631 40.6246 34.5631H45.69C46.6525 34.5631 47.4461 35.3398 47.4461 36.3191C47.4461 37.2984 46.6525 38.0751 45.69 38.0751ZM45.69 51.3634H40.6246C39.6622 51.3634 38.8686 50.5699 38.8686 49.6074C38.8686 48.645 39.6453 47.8514 40.6246 47.8514H45.69C46.6525 47.8514 47.4461 48.6281 47.4461 49.6074C47.4461 50.5867 46.6525 51.3634 45.69 51.3634ZM45.69 64.6518H40.6246C39.6622 64.6518 38.8686 63.8751 38.8686 62.8957C38.8686 61.9164 39.6453 61.1397 40.6246 61.1397H45.69C46.6525 61.1397 47.4461 61.9333 47.4461 62.8957C47.4461 63.8582 46.6525 64.6518 45.69 64.6518ZM45.69 77.9401H40.6246C39.6622 77.9401 38.8686 77.1634 38.8686 76.184C38.8686 75.2047 39.6453 74.428 40.6246 74.428H45.69C46.6525 74.428 47.4461 75.2047 47.4461 76.184C47.4461 77.1634 46.6525 77.9401 45.69 77.9401ZM26.6609 111.034C17.9822 111.034 10.9412 103.993 10.9412 95.3145C10.9412 90.1984 13.3726 85.6733 17.1548 82.8029V20.2955C17.1548 15.6015 21.4098 11.8024 26.6609 11.8024C31.9121 11.8024 36.167 15.6015 36.167 20.2955V82.8198C39.9492 85.6902 42.3806 90.2322 42.3806 95.3314C42.3806 104.01 35.3397 111.051 26.6609 111.051V111.034ZM26.6609 0C11.9374 0 -0.00012207 10.2153 -0.00012207 22.8113V97.1887C-0.00012207 109.785 11.9374 120 26.6609 120C41.3844 120 53.3051 109.785 53.3051 97.1887V22.8113C53.3051 10.2153 41.3675 0 26.6609 0Z" fill="#2AB3DE"/>
</svg>
