<svg width="212" height="112" viewBox="0 0 212 112" fill="none" xmlns="http://www.w3.org/2000/svg">
<rect width="212" height="112" rx="56" fill="white"/>
<rect x="4" y="4" width="204" height="104" rx="52" fill="#4EE074"/>
<g clip-path="url(#clip0_2620_326589)">
<path d="M61.0962 60.7043C63.8512 59.5203 66.1946 57.5419 67.8296 55.0195C69.4645 52.4971 70.3176 49.5441 70.2809 46.5345C70.2842 46.4866 70.2842 46.4387 70.2809 46.3908L67.4417 29.6839C67.4037 29.4959 67.3037 29.3262 67.158 29.2021C67.0123 29.0781 66.8292 29.0069 66.6383 29H45.4162C45.2194 28.9992 45.0284 29.0669 44.8757 29.1916C44.7231 29.3162 44.6181 29.4902 44.5788 29.6839L41.7532 46.3908C41.7499 46.4387 41.7499 46.4866 41.7532 46.5345C41.7145 49.5383 42.5632 52.4863 44.1919 55.006C45.8206 57.5256 48.1563 59.5038 50.9039 60.6906C42.3796 63.0773 36.0477 71.3316 36 81.1247C35.9991 81.2366 36.0203 81.3476 36.0623 81.4513C36.1044 81.5549 36.1664 81.6492 36.2449 81.7287C36.3234 81.8082 36.4167 81.8712 36.5196 81.9143C36.6225 81.9573 36.7328 81.9795 36.8443 81.9795V81.9795C36.9563 81.9813 37.0675 81.9607 37.1715 81.9189C37.2756 81.8771 37.3702 81.8149 37.4501 81.736C37.5299 81.6571 37.5933 81.563 37.6366 81.4592C37.6799 81.3554 37.7022 81.244 37.7022 81.1315C37.685 77.7124 38.5502 74.3471 40.2136 71.3639C41.877 68.3808 44.2817 65.8815 47.1932 64.1099V66.1616C47.189 66.2921 47.215 66.4219 47.2694 66.5406C47.3238 66.6594 47.4049 66.7637 47.5064 66.8454L55.4111 73.4516C55.5252 73.5455 55.661 73.609 55.806 73.6363H55.9149C55.9646 73.6434 56.015 73.6434 56.0647 73.6363C56.2625 73.6353 56.4542 73.5679 56.6094 73.4448L64.5005 66.8454C64.5991 66.7617 64.6779 66.6568 64.7309 66.5384C64.7839 66.4201 64.8099 66.2913 64.8068 66.1616V64.1099C67.7213 65.8833 70.1279 68.3858 71.7915 71.3729C73.455 74.36 74.3186 77.7294 74.2979 81.152C74.2997 81.3775 74.3902 81.5932 74.5496 81.7521C74.709 81.9109 74.9244 82 75.149 82V82C75.2607 81.9991 75.3712 81.9761 75.4741 81.9323C75.5771 81.8885 75.6704 81.8248 75.7488 81.7448C75.8272 81.6648 75.8891 81.57 75.9311 81.466C75.973 81.3619 75.9941 81.2506 75.9932 81.1383C75.9524 71.3453 69.6205 63.0841 61.0962 60.7043ZM46.1379 30.7097H65.8826L68.2179 44.5034C64.2271 43.593 60.1559 43.0844 56.0647 42.9852C51.9384 43.0872 47.8327 43.6049 43.8094 44.5307L46.1379 30.7097ZM43.4145 46.6028L43.4553 46.3567C47.5923 45.3841 51.8174 44.8387 56.0647 44.729C60.2645 44.849 64.4414 45.3966 68.5311 46.3635L68.5788 46.637C68.5379 54.0297 62.9141 60.0272 56.0102 60.0272C49.1064 60.0272 43.4894 53.9955 43.4417 46.6028H43.4145ZM63.1047 65.8059L56.017 71.7283L48.8953 65.7854V63.2277C51.0865 62.2319 53.4623 61.7122 55.8673 61.7027V61.7027H56.0443C58.4785 61.7049 60.8848 62.2246 63.1047 63.2277V65.8059Z" fill="#3EBD5F"/>
<path d="M53.0757 37.8902H55.445V40.3521C55.445 40.5789 55.5347 40.7963 55.6943 40.9566C55.8539 41.1169 56.0704 41.207 56.2961 41.207C56.5218 41.207 56.7383 41.1169 56.8979 40.9566C57.0575 40.7963 57.1472 40.5789 57.1472 40.3521V37.8902H59.2987C59.5244 37.8902 59.7408 37.8001 59.9004 37.6398C60.06 37.4795 60.1497 37.2621 60.1497 37.0354C60.1497 36.8087 60.06 36.5912 59.9004 36.4309C59.7408 36.2706 59.5244 36.1805 59.2987 36.1805H57.1472V33.7391C57.1472 33.5124 57.0575 33.295 56.8979 33.1347C56.7383 32.9743 56.5218 32.8843 56.2961 32.8843C56.0704 32.8843 55.8539 32.9743 55.6943 33.1347C55.5347 33.295 55.445 33.5124 55.445 33.7391V36.2011H53.0757C52.85 36.2011 52.6335 36.2911 52.4739 36.4514C52.3143 36.6117 52.2246 36.8292 52.2246 37.0559C52.2246 37.2826 52.3143 37.5 52.4739 37.6604C52.6335 37.8207 52.85 37.9107 53.0757 37.9107V37.8902Z" fill="#3EBD5F"/>
</g>
<g filter="url(#filter0_di_2620_326589)">
<circle cx="156" cy="56" r="50" fill="white"/>
</g>
<g clip-path="url(#clip1_2620_326589)">
<path d="M177.35 68.5002L178.07 64.2402C178.123 63.9339 178.058 63.619 177.89 63.3578C177.721 63.0967 177.461 62.9084 177.16 62.8302L171.56 61.3602C171.262 61.2837 170.946 61.3201 170.673 61.4621C170.4 61.6042 170.189 61.8421 170.08 62.1302L169.85 62.7402C167.973 61.7301 165.987 60.9383 163.93 60.3802C166.985 59.2199 169.75 57.4054 172.03 55.064C174.31 52.7225 176.05 49.9107 177.129 46.8256C178.207 43.7406 178.598 40.4569 178.273 37.2049C177.949 33.953 176.917 30.8113 175.25 28.0002V27.8902L175.09 27.8202C173.235 24.7414 170.668 22.1534 167.604 20.2742C164.54 18.395 161.069 17.2796 157.484 17.022C153.899 16.7644 150.305 17.3722 147.004 18.794C143.703 20.2159 140.792 22.4103 138.516 25.1923C136.24 27.9743 134.666 31.2625 133.927 34.7799C133.187 38.2973 133.304 41.9409 134.267 45.4038C135.23 48.8667 137.011 52.0474 139.46 54.6781C141.909 57.3088 144.955 59.3124 148.34 60.5202C147.62 60.7402 146.91 60.9802 146.21 61.2502C145.31 61.6002 144.43 62.0202 143.56 62.4602L143.32 61.9102C143.18 61.6025 142.925 61.3619 142.61 61.2402C142.453 61.1707 142.282 61.1349 142.11 61.1349C141.938 61.1349 141.768 61.1707 141.61 61.2402L135.83 64.1102C135.596 64.2228 135.403 64.4057 135.277 64.6333C135.152 64.8609 135.1 65.122 135.13 65.3802L135.52 68.6002C130.029 74.5142 126.984 82.2901 127 90.3602C127 90.6909 127.13 91.0084 127.362 91.2441C127.594 91.4799 127.909 91.6149 128.24 91.6202C128.405 91.6215 128.569 91.5901 128.721 91.5279C128.874 91.4657 129.013 91.3738 129.13 91.2576C129.248 91.1414 129.341 91.0032 129.404 90.8509C129.467 90.6985 129.5 90.5352 129.5 90.3702C129.49 83.6769 131.754 77.1788 135.92 71.9402L136.4 75.9402H135.64C135.309 75.9402 134.991 76.0719 134.756 76.3063C134.522 76.5407 134.39 76.8587 134.39 77.1902C134.39 77.5217 134.522 77.8396 134.756 78.0741C134.991 78.3085 135.309 78.4402 135.64 78.4402H136.7L138.48 93.3002C138.515 93.6042 138.66 93.8848 138.889 94.0878C139.118 94.2909 139.414 94.4021 139.72 94.4002H156C156.208 94.4 156.413 94.3477 156.596 94.2481C156.779 94.1484 156.935 94.0046 157.048 93.8297C157.161 93.6548 157.229 93.4544 157.245 93.2467C157.261 93.0389 157.225 92.8304 157.14 92.6402L155.27 88.6002H158.7C158.873 90.0373 159.516 91.3769 160.53 92.4102C161.929 93.6889 163.736 94.4296 165.63 94.5002C165.77 94.5002 166.05 94.5002 166.43 94.5002C168.356 94.5336 170.231 93.8815 171.72 92.6602C173.53 91.0902 174.45 88.6602 174.48 85.4702L176.82 71.6702C181.148 76.9511 183.506 83.5723 183.49 90.4002C183.49 90.7317 183.622 91.0496 183.856 91.2841C184.091 91.5185 184.409 91.6502 184.74 91.6502C184.906 91.6502 185.069 91.6176 185.222 91.5543C185.375 91.4909 185.514 91.3981 185.631 91.2811C185.748 91.1641 185.841 91.0252 185.904 90.8724C185.967 90.7195 186 90.5556 186 90.3902C186.014 82.2573 182.92 74.4264 177.35 68.5002ZM175.42 65.0002L173 79.5302C172.712 79.0854 172.377 78.673 172 78.3002C170.753 77.112 169.172 76.3338 167.47 76.0702L172.07 64.0702L175.42 65.0002ZM170.64 26.0002C163.703 23.5262 156.538 21.7442 149.25 20.6802C152.941 19.3446 156.946 19.1373 160.755 20.0846C164.564 21.032 168.005 23.0912 170.64 26.0002ZM145.19 22.6702C147.83 22.9602 161.49 24.6702 173.38 29.7902C174.089 31.0572 174.656 32.3986 175.07 33.7902C163.54 29.1202 146.71 26.7902 141.07 26.1402C142.282 24.8048 143.668 23.6377 145.19 22.6702ZM143.52 29.0002C141.226 30.0803 139.065 31.4226 137.08 33.0002C137.624 31.3956 138.37 29.8667 139.3 28.4502C139.93 28.5602 141.44 28.7302 143.52 29.0002ZM136 39.4202C136.003 38.7521 136.039 38.0845 136.11 37.4202C140.64 32.4202 147.25 30.1302 148.39 29.7702C156.39 31.0402 167.81 33.3302 175.68 36.8402C175.799 37.7053 175.862 38.577 175.87 39.4502C175.75 44.6599 173.594 49.6155 169.866 53.256C166.137 56.8966 161.132 58.9328 155.92 58.9289C150.709 58.925 145.707 56.8812 141.984 53.235C138.261 49.5889 136.113 44.6301 136 39.4202ZM147.17 63.5902C150.079 62.4498 153.175 61.8598 156.3 61.8502C156.386 61.86 156.474 61.86 156.56 61.8502C160.895 61.8686 165.155 62.9869 168.94 65.1002L164.78 76.0002H149.64L144.64 64.7902C145.462 64.3458 146.306 63.9453 147.17 63.5902ZM140.83 91.9302L139.08 77.3602C139.085 77.3136 139.085 77.2667 139.08 77.2202C139.083 77.0483 139.049 76.8778 138.98 76.7202L137.72 66.0002L141.61 64.1402L154 91.9302H140.83ZM170.1 90.7502C168.914 91.7006 167.403 92.1493 165.89 92.0002H165.72C165.104 92.0232 164.489 91.9177 163.916 91.6902C163.343 91.4628 162.824 91.1184 162.391 90.679C161.958 90.2397 161.622 89.715 161.403 89.1384C161.184 88.5619 161.088 87.946 161.12 87.3302C161.121 87.1662 161.088 87.0037 161.025 86.8525C160.961 86.7013 160.868 86.5645 160.75 86.4502C160.512 86.2165 160.193 86.0839 159.86 86.0802L154.86 86.1402C154.64 86.1531 154.426 86.222 154.24 86.3402L150.74 78.5102H166.31C167.763 78.5705 169.146 79.1486 170.21 80.1402C170.838 80.8428 171.32 81.6637 171.628 82.5549C171.935 83.446 172.062 84.3895 172 85.3302C172 87.8302 171.35 89.6602 170.1 90.7502Z" fill="#333333"/>
</g>
<defs>
<filter id="filter0_di_2620_326589" x="96" y="0" width="112" height="112" filterUnits="userSpaceOnUse" color-interpolation-filters="sRGB">
<feFlood flood-opacity="0" result="BackgroundImageFix"/>
<feColorMatrix in="SourceAlpha" type="matrix" values="0 0 0 0 0 0 0 0 0 0 0 0 0 0 0 0 0 0 127 0" result="hardAlpha"/>
<feOffset dx="-4"/>
<feGaussianBlur stdDeviation="3"/>
<feComposite in2="hardAlpha" operator="out"/>
<feColorMatrix type="matrix" values="0 0 0 0 0 0 0 0 0 0 0 0 0 0 0 0 0 0 0.25 0"/>
<feBlend mode="normal" in2="BackgroundImageFix" result="effect1_dropShadow_2620_326589"/>
<feBlend mode="normal" in="SourceGraphic" in2="effect1_dropShadow_2620_326589" result="shape"/>
<feColorMatrix in="SourceAlpha" type="matrix" values="0 0 0 0 0 0 0 0 0 0 0 0 0 0 0 0 0 0 127 0" result="hardAlpha"/>
<feOffset dx="-3" dy="-3"/>
<feGaussianBlur stdDeviation="3"/>
<feComposite in2="hardAlpha" operator="arithmetic" k2="-1" k3="1"/>
<feColorMatrix type="matrix" values="0 0 0 0 0 0 0 0 0 0 0 0 0 0 0 0 0 0 0.15 0"/>
<feBlend mode="normal" in2="shape" result="effect2_innerShadow_2620_326589"/>
</filter>
<clipPath id="clip0_2620_326589">
<rect width="40" height="53" fill="white" transform="translate(36 29)"/>
</clipPath>
<clipPath id="clip1_2620_326589">
<rect width="58.99" height="77.5" fill="white" transform="translate(127 17)"/>
</clipPath>
</defs>
</svg>
