<svg width="110" height="110" viewBox="0 0 110 110" fill="none" xmlns="http://www.w3.org/2000/svg">
<g clip-path="url(#clip0_917_202)">
<path d="M46.9846 75.0819L41.1918 79.9739" stroke="#2AB3DE" stroke-width="4" stroke-miterlimit="10" stroke-linecap="round" stroke-linejoin="round"/>
<path d="M68.7521 79.9272L63.015 75.0819" stroke="#2AB3DE" stroke-width="4" stroke-miterlimit="10" stroke-linecap="round" stroke-linejoin="round"/>
<path d="M20.1704 35.0696C16.3775 35.0696 13.3029 31.995 13.3029 28.2021V12.1309C13.3029 10.9444 14.2648 9.9825 15.4514 9.9825H24.8894C26.076 9.9825 27.0379 10.9444 27.0379 12.1309V28.2021C27.0379 31.9947 23.963 35.0696 20.1704 35.0696Z" stroke="#2AB3DE" stroke-width="4" stroke-miterlimit="10" stroke-linecap="round" stroke-linejoin="round"/>
<path d="M89.8296 35.0696C86.0368 35.0696 82.9622 31.995 82.9622 28.2021V12.1309C82.9622 10.9444 83.924 9.9825 85.1106 9.9825H94.5487C95.7353 9.9825 96.6971 10.9444 96.6971 12.1309V28.2021C96.6971 31.9947 93.6225 35.0696 89.8296 35.0696Z" stroke="#2AB3DE" stroke-width="4" stroke-miterlimit="10" stroke-linecap="round" stroke-linejoin="round"/>
<path d="M94.2375 33.793V66.4965C94.2375 68.733 92.4245 70.5461 90.188 70.5461C87.9514 70.5461 86.1384 68.733 86.1384 66.4965V34.1889" stroke="#2AB3DE" stroke-width="4" stroke-miterlimit="10" stroke-linecap="round" stroke-linejoin="round"/>
<path d="M24.22 33.9346V66.4963C24.22 68.7328 22.4069 70.5459 20.1704 70.5459C17.9339 70.5459 16.1208 68.7328 16.1208 66.4963V34.0007" stroke="#2AB3DE" stroke-width="4" stroke-miterlimit="10" stroke-linecap="round" stroke-linejoin="round"/>
<path d="M47.8783 28.0902H27.6609" stroke="#2AB3DE" stroke-width="4" stroke-miterlimit="10" stroke-linecap="round" stroke-linejoin="round"/>
<path d="M27.5894 14.3258H47.8783" stroke="#2AB3DE" stroke-width="4" stroke-miterlimit="10" stroke-linecap="round" stroke-linejoin="round"/>
<path d="M12.7013 28.0902H3.75977C2.57318 28.0902 1.61133 27.1283 1.61133 25.9417V16.4742C1.61133 15.2876 2.57318 14.3258 3.75977 14.3258H12.8446" stroke="#2AB3DE" stroke-width="4" stroke-miterlimit="10" stroke-linecap="round" stroke-linejoin="round"/>
<path d="M15.8439 45.4229C10.9201 43.8391 7.05439 42.2997 4.60217 41.2498C3.1857 40.6433 1.61133 41.6853 1.61133 43.2261V56.6925C1.61133 57.8563 2.53924 58.8092 3.70262 58.839C8.22314 58.9555 12.2326 59.4498 15.7876 60.2467" stroke="#2AB3DE" stroke-width="4" stroke-miterlimit="10" stroke-linecap="round" stroke-linejoin="round"/>
<path d="M85.7497 47.8459C77.023 50.0738 66.3943 51.9004 55 51.9004C43.7325 51.9004 33.2134 50.1142 24.5421 47.92" stroke="#2AB3DE" stroke-width="4" stroke-miterlimit="10" stroke-linecap="round" stroke-linejoin="round"/>
<path d="M94.392 60.2067C97.9024 59.4333 101.853 58.9536 106.297 58.839C107.461 58.8092 108.389 57.8561 108.389 56.6925V43.2261C108.389 41.6853 106.814 40.6433 105.398 41.2498C103.011 42.2716 99.2857 43.757 94.5489 45.2959" stroke="#2AB3DE" stroke-width="4" stroke-miterlimit="10" stroke-linecap="round" stroke-linejoin="round"/>
<path d="M64.2701 71.1997C63.0412 75.1508 59.3555 78.0196 55 78.0196C49.6392 78.0196 45.2936 73.674 45.2936 68.3132C45.2936 62.9524 49.6392 58.6068 55 58.6068C59.0206 58.6068 62.4701 61.0513 63.9437 64.535" stroke="#2AB3DE" stroke-width="4" stroke-miterlimit="10" stroke-linecap="round" stroke-linejoin="round"/>
<path d="M36.4255 72.669C43.2942 81.8331 43.3959 92.9992 43.0665 97.7273C42.9801 98.9667 43.9678 100.017 45.2102 100.017H64.7896C66.032 100.017 67.0197 98.9667 66.9333 97.7273C66.4677 91.0428 66.8635 71.4918 86.0232 62.92" stroke="#2AB3DE" stroke-width="4" stroke-miterlimit="10" stroke-linecap="round" stroke-linejoin="round"/>
<path d="M24.5418 63.1787C27.1977 64.4209 29.4824 65.8777 31.446 67.4818" stroke="#2AB3DE" stroke-width="4" stroke-miterlimit="10" stroke-linecap="round" stroke-linejoin="round"/>
<path d="M68.8884 14.3258H48.0932C44.2924 14.3258 41.2111 17.4071 41.2111 21.2079C41.2111 25.0089 44.2924 28.09 48.0932 28.09H68.8884" stroke="#2AB3DE" stroke-width="4" stroke-miterlimit="10" stroke-linecap="round" stroke-linejoin="round"/>
<path d="M82.5778 14.3258H75.9108" stroke="#2AB3DE" stroke-width="4" stroke-miterlimit="10" stroke-linecap="round" stroke-linejoin="round"/>
<path d="M97.1268 28.0902H106.24C107.427 28.0902 108.389 27.1283 108.389 25.9417V16.4742C108.389 15.2876 107.427 14.3258 106.24 14.3258H96.9826" stroke="#2AB3DE" stroke-width="4" stroke-miterlimit="10" stroke-linecap="round" stroke-linejoin="round"/>
<path d="M75.9108 28.0902H82.7473" stroke="#2AB3DE" stroke-width="4" stroke-miterlimit="10" stroke-linecap="round" stroke-linejoin="round"/>
</g>
<defs>
<clipPath id="clip0_917_202">
<rect width="110" height="110" fill="white"/>
</clipPath>
</defs>
</svg>
