<svg width="100" height="100" viewBox="0 0 100 100" fill="none" xmlns="http://www.w3.org/2000/svg">
<path d="M31.2989 45.1729C31.821 39.9266 32.3048 35.0728 32.604 32.0716C32.8081 30.025 33.5293 28.0381 34.7207 26.238L37.1809 22.521C39.0075 19.7611 40.0277 16.6842 40.1595 13.5375L40.517 5" stroke="#4BBBEB" stroke-width="4" stroke-miterlimit="10" stroke-linecap="round" stroke-linejoin="round"/>
<path d="M34.9644 81.6235C34.8079 81.5253 34.6539 81.4248 34.5027 81.322C31.703 79.4177 29.9353 76.664 29.4568 73.6867C29.0535 71.177 28.9753 68.6387 29.223 66.1153C29.5064 63.2274 29.926 58.9883 30.3818 54.3975" stroke="#4BBBEB" stroke-width="4" stroke-miterlimit="10" stroke-linecap="round" stroke-linejoin="round"/>
<path d="M7.21418 54.3828L7.88241 56.4323C10.0288 63.0145 11.1081 69.8048 11.0918 76.6236C11.0622 80.176 10.014 83.6849 7.93111 86.79C7.82951 86.9416 7.72549 87.0921 7.61948 87.2419C6.99225 88.1269 6.66144 89.135 6.66144 90.1618C6.66144 93.3207 9.7478 95.8814 13.5551 95.8814C16.3953 95.8814 19.2297 95.6693 22.0241 95.2478L22.4327 95.1862C26.9123 94.5103 31.4958 94.4522 35.9984 95.0139C37.3082 95.1695 39.6091 95.3943 41.536 95.5762C43.6886 95.7794 45.8528 95.8814 48.0193 95.8814H56.9151C59.8371 95.8814 62.2056 93.916 62.2056 91.4919C62.2056 90.038 60.7852 88.8594 59.0331 88.8594H55.7186C52.5875 88.8594 49.5014 88.2456 46.7119 87.0654C45.1555 86.4069 43.3514 85.6329 41.6085 84.8603" stroke="#4BBBEB" stroke-width="4" stroke-miterlimit="10" stroke-linecap="round" stroke-linejoin="round"/>
<path d="M4.95696 29.252C3.87263 32.5142 3.37565 35.8971 3.48738 39.2902C3.5524 41.2647 3.82304 43.2293 4.29556 45.1623" stroke="#4BBBEB" stroke-width="4" stroke-miterlimit="10" stroke-linecap="round" stroke-linejoin="round"/>
<path d="M9.66209 5L9.91951 6.73661C10.7211 12.1421 9.95698 17.6284 7.69091 22.7399L7.48352 23.2075" stroke="#4BBBEB" stroke-width="4" stroke-miterlimit="10" stroke-linecap="round" stroke-linejoin="round"/>
<path d="M11.122 54.3373H4.20392C2.98669 54.3373 2 53.5186 2 52.5087V47.0229C2 46.013 2.98669 45.1943 4.20392 45.1943H11.122" stroke="#4BBBEB" stroke-width="4" stroke-miterlimit="10" stroke-linecap="round" stroke-linejoin="round"/>
<path d="M24.9926 45.1943H31.8702C33.0874 45.1943 34.0741 46.013 34.0741 47.0229V52.5087C34.0741 53.5186 33.0874 54.3373 31.8702 54.3373H24.9644" stroke="#4BBBEB" stroke-width="4" stroke-miterlimit="10" stroke-linecap="round" stroke-linejoin="round"/>
<path d="M18.037 57.0799C22.9058 57.0799 26.8527 53.8052 26.8527 49.7655C26.8527 45.7259 22.9058 42.4512 18.037 42.4512C13.1683 42.4512 9.22137 45.7259 9.22137 49.7655C9.22137 53.8052 13.1683 57.0799 18.037 57.0799Z" stroke="#4BBBEB" stroke-width="4" stroke-miterlimit="10" stroke-linecap="round" stroke-linejoin="round"/>
<path d="M18.037 52.0515C19.5585 52.0515 20.7919 51.0281 20.7919 49.7657C20.7919 48.5033 19.5585 47.48 18.037 47.48C16.5155 47.48 15.2821 48.5033 15.2821 49.7657C15.2821 51.0281 16.5155 52.0515 18.037 52.0515Z" stroke="#4BBBEB" stroke-width="4" stroke-miterlimit="10" stroke-linecap="round" stroke-linejoin="round"/>
<path d="M57.427 24.5962L55.0236 29.4116H59.8304L57.427 34.227" stroke="#4BBBEB" stroke-width="4" stroke-miterlimit="10" stroke-linecap="round" stroke-linejoin="round"/>
<path d="M73.2059 54.5283V48.3672" stroke="#4BBBEB" stroke-width="4" stroke-miterlimit="10" stroke-linecap="round" stroke-linejoin="round"/>
<path d="M34.1364 49.7656H39.4648C45.6763 49.7656 50.7119 53.9436 50.7119 59.0973V70.1603C50.7119 75.314 55.7474 79.4919 61.9589 79.4919C68.1704 79.4919 73.2059 75.314 73.2059 70.1603V60.9283" stroke="#4BBBEB" stroke-width="4" stroke-miterlimit="10" stroke-linecap="round" stroke-linejoin="round"/>
<path d="M83.3439 15.9717H95.7961C97.0133 15.9717 98 16.7903 98 17.8003V41.0234C98 42.0333 97.0133 42.852 95.7961 42.852H50.6158C49.3986 42.852 48.4119 42.0333 48.4119 41.0234V17.8003C48.4119 16.7903 49.3986 15.9717 50.6158 15.9717H75.6302" stroke="#4BBBEB" stroke-width="4" stroke-miterlimit="10" stroke-linecap="round" stroke-linejoin="round"/>
<path d="M91.3882 21.4575H66.4839V37.3663H91.3882V21.4575Z" stroke="#4BBBEB" stroke-width="4" stroke-miterlimit="10" stroke-linecap="round" stroke-linejoin="round"/>
<path d="M66.5942 26.7603H91.2781" stroke="#4BBBEB" stroke-width="4" stroke-miterlimit="10" stroke-linecap="round" stroke-linejoin="round"/>
<path d="M75.6302 32.063H82.2419" stroke="#4BBBEB" stroke-width="4" stroke-miterlimit="10" stroke-linecap="round" stroke-linejoin="round"/>
<path d="M85.8103 42.8516V46.5087C85.8103 47.5187 84.8236 48.3373 83.6064 48.3373H62.8052C61.588 48.3373 60.6013 47.5187 60.6013 46.5087V42.8516" stroke="#4BBBEB" stroke-width="4" stroke-miterlimit="10" stroke-linecap="round" stroke-linejoin="round"/>
</svg>
