<svg width="160" height="108" viewBox="0 0 160 108" fill="none" xmlns="http://www.w3.org/2000/svg">
<path d="M119.991 57.994H117.339C117.339 58.3738 117.339 58.7129 117.339 59.0588C117.339 73.8983 117.339 88.7378 117.339 103.577C117.339 104.371 116.851 104.907 116.451 105.503C116.342 105.666 116.349 105.904 116.234 106.053C115.949 106.419 115.664 106.806 115.305 107.097C114.952 107.382 114.511 107.552 114.104 107.775C113.867 107.904 113.643 108.148 113.399 108.162C112.612 108.209 111.819 108.121 111.039 108.196C109.56 108.325 108.55 107.579 107.498 106.663C106.345 105.659 105.938 104.506 105.945 103.021C105.966 80.0701 105.959 57.1191 105.959 34.1681C105.959 33.8222 105.959 33.4763 105.959 32.8591C105.518 33.2932 105.091 33.5238 105.036 33.8154C104.914 34.5207 104.399 34.8463 103.985 35.3075C103.7 35.633 103.775 36.162 103.327 36.5283C102.418 37.2743 101.639 38.1763 100.798 39.0038C100.214 39.5803 99.2308 39.6888 98.7832 40.15C97.9761 40.9842 96.7282 40.1093 96.1042 41.1334C96.0296 41.2623 95.3853 41.2623 95.2768 41.113C94.7613 40.428 94.056 40.679 93.4117 40.6179C93.0319 40.5773 92.6249 40.7807 92.3401 40.1975C92.2044 39.9126 91.438 39.7023 91.1328 39.6617C90.1833 39.5396 89.9392 38.6443 89.2406 38.312C88.7726 38.0882 88.3589 37.7355 87.9656 37.3896C87.3552 36.8606 86.7041 36.413 86.4463 35.5042C86.2971 34.9684 85.5918 34.6089 85.212 34.107C84.8661 33.6526 84.4659 33.1372 84.3845 32.6082C84.2489 31.679 84.2896 30.7091 84.3778 29.7664C84.4117 29.4205 84.7304 29.0678 84.9814 28.7762C85.2934 28.4167 85.6596 28.098 86.0394 27.7996C86.1886 27.6843 86.4192 27.6232 86.6159 27.6164C87.267 27.5961 87.9181 27.5757 88.5692 27.6164C88.8066 27.6368 89.0371 27.8335 89.261 27.9623C89.3288 27.9962 89.3695 28.1251 89.4237 28.1183C90.6852 28.0776 90.9226 29.4748 91.8857 29.8546C91.8314 30.743 92.4961 31.1907 93.0522 31.6586C93.6423 32.1537 93.9407 33.0558 94.9105 33.0761C95.0055 33.0761 95.0937 33.2864 95.2022 33.3813C95.2903 33.4559 95.3989 33.5712 95.5006 33.5644C96.0093 33.5509 97.1283 32.2826 97.3725 31.8418C97.6913 31.2653 98.2338 30.8176 98.6882 30.3158C98.7493 30.2479 98.8985 30.2276 98.9256 30.153C99.1291 29.5765 99.2512 28.9593 99.5225 28.4235C99.8616 27.7589 100.33 27.162 100.743 26.5381C100.859 26.3617 100.967 26.1718 101.082 25.9955C101.211 25.8056 101.347 25.6225 101.476 25.4394C101.544 25.3376 101.639 25.2427 101.672 25.1274C101.856 24.4288 102.371 23.8591 102.574 23.2351C102.825 22.462 103.571 22.0415 103.741 21.4989C104.094 20.3663 104.975 19.7016 105.538 18.7792C105.755 18.4265 106.21 18.1553 106.61 17.9993C107.356 17.7144 108.143 17.3482 108.916 17.3414C118.791 17.3007 128.666 17.3143 138.541 17.3143C138.785 17.3143 139.036 17.3414 139.266 17.2871C139.354 17.2668 139.47 16.9412 139.422 16.9005C139.205 16.6767 138.961 16.3987 138.683 16.3308C137.828 16.1274 137.36 15.4356 136.757 14.9201C136.682 14.8591 136.628 14.7099 136.56 14.7099C135.278 14.6828 134.973 13.3738 134.091 12.8312C133.284 12.3429 133.528 11.5087 133.515 10.7694C133.508 10.4167 133.583 10.0437 133.501 9.71818C133.318 8.99248 133.847 8.60589 134.234 8.23287C134.702 7.77846 135.292 7.4597 135.848 7.10702C136.221 6.86964 138.093 7.39188 138.534 7.43257C139.544 7.52752 139.883 8.69406 140.894 8.72797C141.131 8.73475 141.498 9.08743 141.559 9.34515C141.681 9.83347 141.986 9.77243 142.332 9.84025C142.576 9.88773 142.779 10.1522 143.003 10.3218C143.953 11.0475 145.011 11.6647 145.811 12.5328C146.299 13.0686 147.134 13.4213 147.161 14.4183C147.174 14.8591 147.737 15.2796 148.022 15.7272C148.117 15.8764 148.117 16.0799 148.158 16.2562C148.226 16.5411 148.226 16.8666 148.375 17.104C148.897 17.9586 148.836 18.7114 148.273 19.627C147.961 20.1424 147.853 20.78 147.602 21.3361C147.479 21.6074 147.283 21.8855 147.045 22.0618C146.659 22.3602 146.211 22.5773 145.791 22.835C145.289 23.147 144.801 23.4725 144.292 23.7709C144.163 23.8455 143.98 23.832 143.831 23.8591C143.41 23.9405 142.82 23.6082 142.644 24.3406C142.63 24.4017 142.345 24.4152 142.183 24.4152C141.586 24.422 140.982 24.3678 140.392 24.4356C139.768 24.5034 139.165 24.7001 138.547 24.8222C138.235 24.8832 137.91 24.9307 137.591 24.9307C135.753 24.9442 133.908 24.9307 131.948 24.9307V26.0904C131.948 51.5373 131.948 76.9842 131.935 102.431C131.935 102.967 132.233 103.652 131.446 103.977C131.385 104.005 131.399 104.228 131.392 104.364C131.365 104.839 131.514 105.32 130.897 105.653C130.578 105.822 130.476 106.405 130.266 106.785C130.205 106.887 130.103 106.989 129.995 107.043C129.595 107.26 129.052 107.368 128.808 107.694C128.442 108.182 128.008 108.155 127.54 108.162C126.78 108.176 126.021 108.203 125.261 108.155C124.705 108.115 123.999 108.488 123.674 107.667C122.433 107.721 122.107 106.487 121.287 105.937C120.968 105.727 120.758 105.252 120.635 104.852C120.378 103.991 120.025 103.109 120.025 102.234C119.984 87.9103 119.998 73.5863 119.998 59.2623V57.9804L119.991 57.994Z" fill="#2AB3DE"/>
<path d="M103.245 77.8995V91.3622C102.947 91.3825 102.662 91.4096 102.377 91.4096C75.4112 91.4096 48.4519 91.4096 21.4858 91.4096C20.5227 91.4096 20.0208 90.9281 20.0208 89.9515C20.0208 82.898 20.0073 75.8445 20.048 68.7909C20.048 68.3976 20.4753 67.9906 20.7533 67.6312C21.1467 67.1361 21.6825 67.0547 22.3132 67.0547C29.2582 67.075 36.2032 67.0547 43.1482 67.0954C43.84 67.0954 44.3487 66.8987 44.8031 66.4714C45.1896 66.112 45.5762 65.7322 45.8882 65.3117C46.1595 64.9454 46.268 64.4639 46.5461 64.1044C47.4074 62.9786 48.1806 61.7307 49.2522 60.849C49.8016 60.3946 49.5574 59.696 50.2085 59.3569C50.7443 59.0788 51.1037 58.4345 51.5107 57.9326C51.843 57.5189 52.0804 57.0238 52.4331 56.6372C53.2266 55.7691 54.0676 54.9552 54.8814 54.1142C55.5257 53.4564 56.1497 52.7781 56.794 52.127C57.3976 51.5234 58.042 50.9605 58.6388 50.3501C59.2899 49.6922 59.8731 48.9597 60.5649 48.3426C61.5009 47.5084 62.5114 46.7623 63.4745 45.962C63.9696 45.5483 64.4579 45.1142 64.9123 44.6598C65.4549 44.1105 65.8551 43.4187 66.7435 43.2695C67.0352 43.222 67.2997 42.8693 67.5371 42.6252C68.1271 42.0148 68.5544 41.2755 69.5175 41.0652C69.938 40.9771 70.216 40.3599 70.6162 40.0615C71.1588 39.6478 71.7759 39.3358 72.3185 38.9288C72.9696 38.4405 73.5257 37.7894 74.2379 37.4232C74.6041 37.2333 75.1331 37.2808 75.3909 36.8535C75.8588 36.0735 77.0932 36.2973 77.378 35.3004C77.3848 35.2665 77.4662 35.2461 77.5205 35.2393C78.5921 35.1105 79.2703 34.3373 80.057 33.7269C80.1316 33.6659 80.2334 33.6048 80.3283 33.6048C80.7013 33.6048 81.0269 33.6116 81.2303 33.1572C81.2982 33.008 81.8136 33.069 82.1731 33.0283V33.8218C81.6712 34.161 81.3389 34.439 80.9591 34.6425C80.2198 35.0359 79.4466 35.375 78.7074 35.7751C78.4836 35.8972 78.3208 36.1278 78.1377 36.3177C77.5544 36.9349 76.5303 36.9552 76.1233 37.8098C75.0585 37.6741 74.8551 39.2001 73.7563 39.0509C73.6682 39.0374 73.58 39.4307 73.424 39.5121C73.0171 39.7224 72.7933 40.2243 72.1761 40.1429C71.9591 40.1157 71.6742 40.6041 71.4233 40.8618C71.0502 41.2551 70.7993 41.7706 70.1075 41.757C69.8837 41.757 69.5242 42.0215 69.4429 42.2454C69.097 43.1542 68.1203 43.2356 67.5235 43.812C66.852 44.4699 66.1467 45.0871 65.4549 45.7246C64.8716 46.2672 64.4444 46.9319 63.5491 47.1625C63.0337 47.2981 62.6606 47.9628 62.2198 48.3833C61.5348 49.0479 60.8362 49.699 60.1648 50.3772C59.2288 51.3267 58.3336 52.3169 57.3909 53.2597C56.5431 54.1074 55.6275 54.8942 54.7797 55.7487C53.993 56.5355 53.2266 57.3493 52.5144 58.2039C52.0804 58.7194 51.8023 59.3637 51.3818 59.8927C51.0902 60.2657 50.6697 60.5438 50.317 60.8693C49.6456 61.4933 49.5031 62.4835 48.7096 63.0735C48.1806 63.4669 47.5295 63.9349 47.5838 64.803C47.5906 64.9251 47.1972 65.0336 47.0683 65.2099C46.6953 65.7186 46.4579 66.3561 46.0035 66.7698C45.3592 67.3667 45.3592 68.3704 44.4843 68.8452C44.1588 69.0215 44.1181 69.7269 43.9078 70.2966C44.4504 70.161 45.0947 70.7646 45.4609 69.8829C45.4745 69.8422 45.5423 69.8083 45.5898 69.7947C46.3969 69.6048 47.204 69.4353 48.0043 69.225C48.2416 69.164 48.4383 68.9673 48.6757 68.8791C48.9131 68.7909 49.1708 68.7503 49.4285 68.7096C49.9575 68.6146 50.6222 68.9808 50.9749 68.228C51.0224 68.1263 51.375 68.1738 51.5921 68.1466C52.4738 68.0449 53.4368 68.4518 54.21 67.6651C54.3049 67.5634 54.5762 67.6312 54.7661 67.6312C55.7699 67.6312 56.7737 67.6448 57.7774 67.6244C58.2658 67.6176 58.7066 67.4616 59.1746 67.2921C60.0902 66.9597 61.1618 66.8038 62.1181 67.4345C62.3215 67.5701 62.6132 67.6176 62.8641 67.6176C63.9764 67.638 65.0887 67.6176 66.201 67.6312C66.8249 67.638 67.4082 67.6244 68.0322 67.9974C68.5205 68.2891 69.3004 68.0788 69.938 68.1534C70.4941 68.2145 71.1113 67.8889 71.5928 68.6146C71.7556 68.8656 72.5627 68.6756 73.0781 68.7096C73.5054 68.7367 74.0209 68.5197 74.265 69.1301C74.2921 69.1979 74.5092 69.2047 74.6448 69.2182C75.3162 69.3064 75.947 69.2996 76.6456 69.6387C77.6222 70.1203 78.8362 70.1135 79.9417 70.3441C80.1791 70.3916 80.3894 70.5882 80.6132 70.7171C80.681 70.7578 80.7352 70.8324 80.8098 70.846C81.7594 71.0359 82.7089 71.1986 83.6516 71.4157C83.9229 71.4767 84.1738 71.6666 84.4248 71.7955C84.5129 71.8429 84.5943 71.9379 84.6893 71.9447C85.259 72.0125 85.7609 72.0125 86.3306 72.4059C86.9817 72.8603 87.9719 72.8196 88.8129 73.0027C88.9553 73.0366 89.0909 73.1112 89.2266 73.1723C89.5182 73.3079 89.8031 73.4503 90.0879 73.586C90.3592 73.7216 90.6373 73.8573 90.9086 73.9929C90.956 74.0133 90.99 74.0743 91.0374 74.0811C91.8445 74.2642 92.6516 74.427 93.4451 74.6304C93.6893 74.6915 93.8995 74.8746 94.1301 74.9763C94.2929 75.0509 94.4692 75.1052 94.6456 75.1323C95.0729 75.2069 95.6629 74.9085 95.7985 75.6545C95.7985 75.6885 95.8867 75.7156 95.9342 75.7224C96.7616 75.8987 97.5823 76.0615 98.4097 76.2514C98.5928 76.2921 98.7556 76.4074 98.9319 76.4888C99.1218 76.5769 99.305 76.699 99.5084 76.7601C99.9018 76.8821 100.553 76.4481 100.614 77.2891C100.614 77.323 100.77 77.384 100.831 77.3637C101.76 77.0246 102.337 78.0487 103.245 77.8995Z" fill="#2AB3DE"/>
<path d="M15.7551 77.3776H18.4205V78.4085C18.4205 82.505 18.3934 86.6014 18.4476 90.6979C18.4544 91.2608 18.7596 91.8916 19.1055 92.3663C19.4243 92.8004 19.899 93.2412 20.5908 93.0242C20.7129 92.9835 20.9503 92.9971 20.9774 93.0513C21.3572 93.8923 22.0965 93.5125 22.6662 93.5125C49.1643 93.5329 75.6624 93.5261 102.167 93.5261C102.922 93.5261 103.3 93.9059 103.3 94.6655C103.3 96.2322 103.3 97.8056 103.3 99.4809H15.7551C15.7551 100.498 15.6805 101.421 15.7754 102.323C15.8568 103.048 15.3482 103.367 15.0158 103.828C14.5072 104.54 13.7679 104.378 13.0693 104.384C9.43406 104.384 5.79879 104.344 2.16353 104.418C1.42427 104.432 1.06481 104.045 0.617182 103.686C0.0542578 103.231 0.00678222 102.614 0.00678222 101.936C0.0271289 79.453 0.0339111 56.9699 0 34.4801C0 33.3746 0.685004 32.7778 1.20723 32.0249C1.26827 31.9368 1.51243 31.9639 1.67521 31.9639C5.79879 31.9639 9.92238 31.9639 14.046 31.9639C14.636 31.9639 15.6873 33.0558 15.7483 33.7137C15.7754 33.985 15.7619 34.2563 15.7619 34.5276C15.7619 48.4447 15.7619 62.355 15.7619 76.2721V77.3776H15.7551Z" fill="#2AB3DE"/>
<path d="M144.36 99.4807H134.112V93.5259C135.59 93.5259 137.021 93.5395 138.446 93.5192C138.859 93.5192 139.375 93.7294 139.605 93.1122C139.632 93.0376 139.904 93.0444 140.06 93.0241C140.399 92.9766 140.948 93.0512 141.036 92.8748C141.423 92.1424 142.366 91.81 142.244 90.6638C142.061 88.8937 142.196 87.0896 142.196 85.2991V84.3971H140.596C140.596 86.3097 140.596 88.1748 140.596 90.0399C140.596 91.0097 140.175 91.4167 139.185 91.4167C137.557 91.4167 135.929 91.4031 134.302 91.3963C134.254 91.3963 134.207 91.3556 134.105 91.3149V83.8477C135.238 83.8477 136.37 83.8816 137.496 83.8342C137.889 83.8206 138.269 83.59 138.663 83.4883C138.995 83.4001 139.341 83.3458 139.68 83.2916C140.372 83.1763 141.152 83.5696 141.749 82.8168C141.898 82.6269 142.474 82.7897 142.847 82.7558C143.234 82.7219 143.688 82.9457 143.939 82.3421C144.007 82.1861 144.645 82.2742 145.011 82.22C145.391 82.1657 145.92 82.4506 146.048 81.7724C146.062 81.7113 146.333 81.7045 146.489 81.6638C147.161 81.4807 148.009 81.4807 148.456 81.0602C149.148 80.4023 150.172 80.6329 150.83 79.6767C150.749 79.541 150.579 79.2629 150.409 78.9781C150.355 78.8899 150.287 78.8017 150.274 78.7068C150.091 77.3707 149.928 76.0346 149.724 74.6985C149.691 74.4883 149.487 74.3119 149.399 74.1017C149.304 73.8711 149.229 73.6269 149.195 73.3828C149.1 72.6706 149.46 71.8635 148.68 71.2938C148.571 71.2124 148.653 70.8801 148.626 70.6699C148.551 70.1069 148.775 69.5508 148.219 68.9879C147.914 68.6759 148.158 67.8417 148.09 67.2516C148.063 67.0075 147.873 66.7904 147.771 66.5531C147.69 66.3699 147.588 66.18 147.568 65.9834C147.486 65.1152 147.656 64.2607 147.134 63.3993C146.815 62.8703 147.052 62.0225 146.978 61.3308C146.951 61.0663 146.733 60.8289 146.625 60.5711C146.557 60.4084 146.503 60.232 146.483 60.0557C146.381 59.1876 146.639 58.3195 146.076 57.4445C145.764 56.9562 145.994 56.122 145.967 55.4506C145.954 55.125 146.089 54.7384 145.567 54.6231C145.465 54.6028 145.384 54.2637 145.377 54.067C145.35 53.4702 145.567 52.7648 145.323 52.2968C144.672 51.076 145.228 49.6653 144.739 48.5802C144.244 47.4883 144.495 46.4777 144.339 45.4468C144.312 45.284 144.238 45.1213 144.163 44.9653C144.054 44.7279 143.858 44.5041 143.831 44.2599C143.776 43.7241 143.831 43.1748 143.804 42.6322C143.79 42.232 143.973 41.7573 143.383 41.547C143.275 41.5063 143.234 41.1604 143.227 40.957C143.207 40.3873 143.241 39.8176 143.207 39.2479C143.18 38.7663 143.39 38.2238 142.793 37.8779C142.671 37.81 142.752 37.4167 142.712 37.1793C142.556 36.223 142.976 35.2531 142.291 34.2833C141.938 33.7882 142.223 32.859 142.169 32.1333C142.135 31.645 142.434 31.0143 141.66 30.7701C141.593 30.7497 141.593 30.4717 141.586 30.3157C141.579 29.6917 141.62 29.0678 141.565 28.4438C141.532 28.0708 141.369 27.7113 141.24 27.2501C141.301 27.1552 141.423 26.911 141.599 26.7143C141.687 26.6194 141.959 26.5312 141.999 26.5787C142.257 26.8364 142.562 27.1145 142.664 27.44C142.779 27.8131 142.664 28.2471 142.705 28.654C142.766 29.3255 142.651 29.9562 143.071 30.6684C143.444 31.3059 143.193 32.3029 143.241 33.1371C143.261 33.5237 143.044 34.0323 143.695 34.1883C143.776 34.2087 143.81 34.5274 143.817 34.7106C143.837 35.2803 143.804 35.85 143.837 36.4197C143.871 36.969 143.607 37.5998 144.272 38.0135C144.394 38.0881 144.305 38.4747 144.333 38.7189C144.448 39.7294 144.122 40.74 144.767 41.7573C145.099 42.2863 144.841 43.1816 144.875 43.914C144.895 44.3413 144.719 44.8093 145.269 45.1213C145.438 45.223 145.37 45.7249 145.431 46.0436C145.58 46.8304 145.119 47.6782 145.886 48.4378C146.177 48.7226 145.926 49.5297 145.967 50.0994C146.008 50.6149 145.804 51.1235 146.374 51.6118C146.672 51.8696 146.449 52.6902 146.503 53.2599C146.557 53.8025 146.238 54.4468 146.964 54.8266C147.086 54.8877 147.018 55.281 147.059 55.5184C147.201 56.3933 146.767 57.3157 147.507 58.177C147.805 58.5229 147.52 59.3368 147.588 59.9201C147.636 60.3134 147.859 60.6864 147.968 61.0798C148.049 61.3579 148.063 61.6495 148.117 61.9276C148.253 62.6601 147.853 63.4332 148.565 64.1454C148.877 64.4574 148.68 65.2848 148.721 65.9901H149.589C152.41 65.9901 155.232 65.9901 158.053 65.9901C158.84 65.9901 159.884 66.9125 159.979 67.6993C160.006 67.9434 159.999 68.1876 159.999 68.4317C159.999 79.636 159.999 90.8334 159.999 102.038C159.999 103.496 159.118 104.384 157.673 104.384C153.902 104.384 150.131 104.357 146.36 104.411C145.628 104.425 145.296 104.004 144.821 103.625C144.224 103.143 144.333 102.533 144.326 101.929C144.319 101.149 144.326 100.369 144.326 99.4807H144.36Z" fill="#2AB3DE"/>
<path d="M123.789 15.7949H122.717C118.268 15.7949 113.826 15.7949 109.377 15.7949C108.868 15.7949 108.414 15.761 107.905 16.1679C107.383 16.5817 106.569 16.6902 105.857 16.7851C104.989 16.9072 104.48 16.3307 104.317 15.4626C104.181 14.7437 103.958 14.0316 103.401 13.4618C103.246 13.2991 103.232 12.96 103.232 12.6955C103.218 11.2034 103.212 9.71128 103.245 8.21919C103.245 7.99538 103.49 7.77835 103.632 7.56132C103.686 7.47993 103.829 7.38498 103.815 7.34429C103.51 6.51686 104.31 5.98784 104.378 5.25536C104.398 5.06546 104.697 4.91625 104.839 4.72635C105.395 3.98709 105.931 3.24105 106.481 2.495C106.555 2.39327 106.671 2.21693 106.732 2.2305C107.267 2.33223 107.545 1.96599 107.885 1.66757C108.597 1.05039 109.492 0.833359 110.34 0.480684C112.429 -0.401004 114.551 0.22296 116.647 0.107662C117.23 0.0737509 117.854 0.650239 118.451 0.955439C118.539 1.00291 118.614 1.09108 118.709 1.11821C120.031 1.53871 120.567 1.98634 121.741 3.15966C122.222 3.6412 122.643 4.03456 122.805 4.73313C122.887 5.09937 123.395 5.35031 123.565 5.71655C123.877 6.41512 124.196 7.1476 124.304 7.89365C124.433 8.76177 124.175 9.71806 125.213 10.3081C125.688 9.08053 127.187 10.5048 127.763 9.35182L130.917 9.14157L130.808 10.342C130.463 10.342 130.151 10.342 129.832 10.342C129.337 10.3556 128.828 10.2199 128.441 10.7286C128.333 10.8778 127.987 10.8507 127.75 10.8982C126.875 11.0745 125.952 11.1423 125.145 11.4882C124.806 11.6306 124.23 11.9901 124.298 12.709C124.352 13.2516 124.562 13.8756 123.891 14.3571C123.66 14.5267 123.809 15.2184 123.775 15.7814L123.789 15.7949Z" fill="#2AB3DE"/>
<path d="M92.4822 27.3788C92.9841 27.0533 93.3504 26.7752 93.7437 26.565C94.483 26.1716 95.0934 25.5409 95.9954 25.4323C96.1853 25.412 96.3074 25.0525 96.5041 24.9305C97.223 24.4964 97.847 23.8656 98.7626 23.8182C98.8236 23.8182 98.8711 23.7164 98.9321 23.6825C99.1152 23.5876 99.2984 23.513 99.4815 23.4248C99.4408 23.7436 99.5018 24.259 99.3323 24.354C98.688 24.7134 98.4506 25.7036 97.474 25.5476C97.3722 25.5341 97.2434 25.941 97.067 26.036C96.3684 26.4293 95.7648 26.9516 94.9374 27.1618C94.4152 27.2975 93.9811 27.7586 93.5064 28.0706C93.425 28.1249 93.2622 28.2063 93.2351 28.1791C92.9367 27.8875 92.6654 27.5823 92.4755 27.3788H92.4822Z" fill="#2AB3DE"/>
</svg>
