<svg width="129" height="120" viewBox="0 0 129 120" fill="none" xmlns="http://www.w3.org/2000/svg">
<g clip-path="url(#clip0_3648_202022)">
<path d="M11.2239 62.0417C13.5364 71.7079 20.4837 79.5163 18.7227 90.6049C16.8262 102.564 34.3685 98.1521 34.3685 98.1521C34.3685 98.1521 44.0444 96.8748 50.3531 97.4264C56.6617 97.9779 74.0299 91.108 78.3163 90.4404C81.2674 89.976 79.5838 84.6833 79.4677 80.3485C79.4097 78.1133 78.9065 75.9169 77.9873 73.8753C75.8586 69.1341 74.9104 65.1187 74.1847 62.2062" fill="#F4E390"/>
<path d="M97.7359 72.6367C98.8196 71.853 99.4873 71.2724 99.5743 71.195C100.019 70.808 100.174 70.1887 99.9807 69.6275L96.3813 59.2744C96.1781 58.6938 95.6266 58.2971 95.0073 58.2971H94.9783C94.7558 58.2971 94.5526 58.3745 94.359 58.4713C93.8269 56.9038 93.2173 55.0847 92.8593 54.001C93.3624 53.5656 93.6721 53.2657 93.7204 53.2173C94.1075 52.8206 94.2429 52.24 94.0591 51.7175L90.4597 41.3644C90.2565 40.7838 89.705 40.3871 89.0857 40.3871H89.0567C88.4568 40.3968 87.9343 40.7935 87.7311 41.3547C80.6 23.0673 71.8724 5.16697 71.7853 4.98312C71.4369 4.26711 70.5661 3.96716 69.8404 4.31549C69.1244 4.66382 68.8245 5.53465 69.1728 6.26034C69.2695 6.45385 78.3939 25.167 85.5637 43.8123C83.7833 44.9057 81.2966 45.554 79.3324 45.9023C78.7132 42.1094 77.0683 37.465 73.972 34.4171C71.4369 31.9207 68.3213 30.9144 64.9348 31.5337C59.2067 32.5787 51.5047 34.2526 47.6924 35.1041L44.9444 23.5221C44.6445 22.2449 43.3866 21.4514 42.0997 21.7127L36.4974 22.8835C36.4684 21.3837 36.4974 19.8743 36.6426 18.3552C37.7553 6.19261 35.5298 1.73204 35.2783 1.26759C34.6396 0.0968152 33.1496 -0.35795 31.9788 0.280657C30.808 0.919263 30.3629 2.37064 31.0112 3.54142C31.0306 3.58012 32.7916 7.34403 31.824 17.9197C31.6401 19.9323 31.6111 21.9352 31.6885 23.8898L26.0378 25.0702C24.7896 25.3315 23.9575 26.5216 24.1413 27.7794L25.854 39.7195C23.9381 39.8162 21.2773 40.0291 18.4132 40.4935C17.0683 37.9875 14.8525 33.5269 12.2594 26.9086C7.8859 15.6846 2.76737 6.45385 2.71899 6.36677C2.33196 5.67011 1.44178 5.41854 0.745116 5.80557C0.0484539 6.19261 -0.203118 7.07311 0.183916 7.76977C0.232295 7.85685 5.26374 16.9328 9.58885 27.973C11.9885 34.0978 14.0494 38.3939 15.4524 41.0741C11.2241 42.0223 6.99572 43.5801 4.42194 46.1926C2.67061 47.973 1.79978 50.063 1.83849 52.4142C1.94492 58.7519 4.1994 65.0315 6.57966 71.6885C9.20182 79.0228 11.9207 86.6087 11.4369 94.0881C11.1563 98.4326 12.4045 101.809 15.1621 104.132C18.1617 106.657 22.419 107.315 26.0668 107.315C29.7146 107.315 32.598 106.686 33.2463 106.541C33.3431 106.531 33.5269 106.502 33.7591 106.464L36.9619 118.907C37.1263 119.565 37.7166 120 38.3649 120C38.481 120 38.6068 119.99 38.7325 119.952C39.5066 119.748 39.9807 118.965 39.7775 118.181L36.6619 106.096C40.4065 105.67 46.3861 105.167 50.7693 105.602C56.3329 106.164 66.899 102.796 77.2425 99.3034C79.4582 98.5584 81.374 97.9101 82.4287 97.6198C88.9502 95.8201 88.3697 88.9599 87.944 83.9575C87.8472 82.777 87.7504 81.674 87.7214 80.629C87.6924 79.5259 87.5763 78.4422 87.4215 77.3489C90.2855 76.8167 92.9464 75.5975 95.0364 74.3784C97.8617 96.5651 98.5293 110.547 98.539 110.692C98.5777 111.466 99.2163 112.076 99.9904 112.076C100.01 112.076 100.039 112.076 100.058 112.076C100.861 112.037 101.48 111.36 101.442 110.556C101.442 110.411 100.735 95.733 97.7456 72.6271L97.7359 72.6367ZM92.2304 61.1418C90.1888 62.7287 86.4055 63.793 83.2221 64.3058C82.5061 62.3126 81.9159 60.5709 81.4418 59.0615C85.1186 58.7422 88.2342 57.2328 90.421 55.8201C90.9531 57.4263 91.7175 59.7001 92.24 61.1418H92.2304ZM88.2923 45.4572C88.2923 45.4572 88.3407 45.4185 88.36 45.3992C88.4761 45.3024 88.5922 45.2153 88.6987 45.1089L91.0112 51.7756C89.4921 53.0625 85.496 56.0039 80.5709 56.2168C79.6711 53.0431 79.4389 51.4079 79.526 50.866C79.6227 50.3145 79.6517 49.6082 79.6324 48.8244C82.0997 48.4374 85.8346 47.5182 88.2923 45.4572V45.4572ZM81.1418 92.9657C79.9614 93.2947 78.0843 93.9236 75.704 94.7267C68.9019 97.0199 56.2458 101.287 51.2531 100.793C43.8317 100.048 32.8883 101.693 32.4239 101.771C32.3561 101.78 32.2884 101.79 32.2207 101.809C29.5598 102.458 21.8675 103.454 18.2778 100.426C16.7393 99.1389 16.0814 97.165 16.2652 94.3977C16.8167 85.9217 13.9333 77.852 11.137 70.0533C8.89219 63.7833 6.77318 57.8617 6.67642 52.3271C6.65707 51.2918 7.03442 50.421 7.86655 49.5792C11.9691 45.4089 24.2575 44.48 28.6503 44.48C29.347 44.48 30.0146 44.1704 30.479 43.6479C30.9338 43.1157 31.1467 42.419 31.0402 41.7224L29.2695 29.3469L32.1143 28.7567C33.0722 36.42 35.2686 42.3416 35.404 42.6996C35.7717 43.6672 36.6909 44.2671 37.6682 44.2671C37.9488 44.2671 38.2391 44.2187 38.5197 44.1123C39.7679 43.6382 40.4065 42.2449 39.9323 40.9967C39.9033 40.9193 37.7553 35.0944 36.8748 27.7601L40.8128 26.9376L43.5608 38.5487C43.8704 39.8452 45.1573 40.6483 46.4539 40.3484C46.57 40.3194 58.0649 37.7069 65.8249 36.2942C67.6247 35.9652 69.1921 36.478 70.5951 37.8617C73.8462 41.0644 75.1525 47.6633 74.7558 50.0533C74.5816 51.1079 74.0494 54.3107 81.3257 73.0334C82.2933 75.5201 82.8158 78.1133 82.8835 80.7451C82.9125 81.9352 83.0189 83.1737 83.1157 84.3639C83.6092 90.1597 83.3866 92.3271 81.1321 92.9464L81.1418 92.9657ZM85.8346 71.2918C85.2444 69.7824 84.7219 68.389 84.2284 67.0731C87.2666 66.5409 91.9304 65.3702 94.5816 62.9415L96.9038 69.6275C95.2879 70.8854 91.2628 73.7108 86.8409 74.5138C86.5603 73.4302 86.241 72.3465 85.8346 71.2918Z" fill="#4BBBEB"/>
<path d="M112.143 34.2857C121.611 34.2857 129.286 26.6106 129.286 17.1429C129.286 7.67512 121.611 0 112.143 0C102.675 0 95 7.67512 95 17.1429C95 26.6106 102.675 34.2857 112.143 34.2857Z" fill="#54D0F8"/>
<path d="M122.857 12.8575L110 25.7146L101.429 17.1432L105.714 12.8575L110 17.1432L118.572 8.57178L122.857 12.8575Z" fill="#F8F8F8"/>
</g>
<defs>
<clipPath id="clip0_3648_202022">
<rect width="129" height="120" fill="white"/>
</clipPath>
</defs>
</svg>
