<svg width="105" height="120" viewBox="0 0 105 120" fill="none" xmlns="http://www.w3.org/2000/svg">
<path d="M63.2175 66.0645C60.6067 67.3051 57.7368 68.3605 54.8483 68.879C42.5723 71.1009 30.2778 71.0453 18.0573 68.4531C16.1502 68.0457 14.2431 67.3792 12.5396 66.5274C9.52153 65.0091 9.42895 62.8613 12.5396 61.6207C15.854 60.3061 19.4275 59.2877 23.0011 58.7508C27.7782 58.0287 32.6478 57.8991 37.4805 57.5102C44.8313 57.7509 52.0895 58.1768 59.107 60.232C60.5512 60.6579 61.9954 61.2689 63.236 62.0281C65.3098 63.3242 65.4024 65.0091 63.2175 66.0645V66.0645ZM15.9095 15.2015C13.3913 15.2015 11.3361 13.4055 11.3361 11.1836C11.3361 8.96167 13.3728 7.16563 15.9095 7.16563C18.4462 7.16563 20.4829 8.96167 20.4829 11.1836C20.4829 13.4055 18.4462 15.2015 15.9095 15.2015ZM68.6611 57.214C67.0503 56.4548 65.3653 55.7142 63.6248 55.2698C60.1809 54.3625 56.6814 53.5663 53.1634 52.9368C51.4784 52.6406 51.5155 51.8073 51.4784 50.7149C51.4414 49.4743 52.2931 49.3818 53.3485 49.4003C55.052 49.4003 56.7369 49.4003 58.4404 49.4003C63.2175 49.3818 66.0504 46.9747 66.4763 42.7531C67.0873 36.828 67.8279 30.9029 68.4945 24.9594C69.1611 19.0343 69.9573 13.1092 70.3646 7.16563C70.6609 2.66628 67.4391 0 62.3843 0C54.1262 0 45.8867 0 37.6286 0C29.1483 0 20.6866 0 12.2063 0C8.05878 0 4.9296 2.66628 4.72592 6.29539C4.68889 7.07305 4.67038 7.85072 4.76296 8.62838C6.07758 20.2378 7.37369 31.8287 8.74386 43.4382C9.15121 46.9932 12.0767 49.2892 16.1502 49.4003C17.9092 49.4373 19.6867 49.4003 21.4457 49.4003C22.5937 49.4003 23.6306 49.3262 23.6491 50.8445C23.6676 52.1962 23.2973 52.9368 21.6124 52.9738C20.7421 52.9738 19.8719 53.2145 19.0202 53.3997C13.6135 54.4921 8.318 55.8068 3.7631 58.7693C1.46713 60.2691 -0.217808 62.1392 0.0228979 64.8055C0.208056 66.8607 0.467282 68.953 1.09682 70.9342C4.09639 80.5069 11.0213 87.2652 21.0014 91.6349C22.6678 92.357 23.0196 93.1162 22.6678 94.616C21.4272 100.078 20.4088 105.577 19.1127 111.021C18.6313 113.002 19.2238 114.558 20.8903 115.687C22.39 116.705 24.075 117.594 25.8155 118.187C31.5184 120.112 37.499 120.446 43.424 119.464C46.6273 118.946 49.7935 117.89 52.7375 116.65C55.4408 115.502 56.6999 113.484 55.9408 110.54C54.6076 105.3 53.7189 99.9856 52.4783 94.7086C52.108 93.0977 52.5153 92.357 54.2373 91.5794C65.0876 86.7097 72.2347 79.2478 74.6788 68.5642C76.0119 62.7502 74.6047 60.0654 68.6982 57.251" fill="#4BBBEB"/>
<path d="M94.2195 23.8505C93.4857 23.8505 92.8668 23.5906 92.363 23.0707C91.8578 22.5509 91.6358 21.9394 91.697 21.2361C91.7887 19.9518 92.0945 18.8358 92.6143 17.8879C93.1341 16.94 93.9596 15.9615 95.091 14.9524C96.3446 13.8516 97.2998 12.8958 97.9566 12.0849C98.6146 11.2752 98.9436 10.3505 98.9436 9.31086C98.9436 8.05718 98.5235 7.01754 97.6832 6.19195C96.8418 5.36636 95.6719 4.95356 94.1737 4.95356C93.1952 4.95356 92.3623 5.15965 91.675 5.57184C90.9864 5.98525 90.4281 6.49773 90 7.10928C89.572 7.72083 89.0448 8.13362 88.4186 8.34767C87.7912 8.56171 87.187 8.54642 86.6061 8.3018C85.9028 7.99602 85.4215 7.4915 85.1622 6.78821C84.9017 6.08493 84.9549 5.42751 85.3219 4.81596C86.2086 3.43997 87.401 2.29331 88.8993 1.37599C90.3975 0.458663 92.1556 0 94.1737 0C97.3842 0 99.8535 0.894698 101.582 2.6841C103.309 4.47227 104.172 6.62004 104.172 9.12739C104.172 10.6563 103.844 11.9638 103.187 13.0499C102.529 14.1348 101.497 15.3652 100.09 16.7412C99.0506 17.7197 98.3168 18.5147 97.8887 19.1262C97.4606 19.7378 97.1702 20.4411 97.0173 21.2361C96.895 22.0005 96.5739 22.6274 96.0541 23.1166C95.5343 23.6059 94.9228 23.8505 94.2195 23.8505ZM94.1737 34.8584C93.1647 34.8584 92.3012 34.4994 91.5833 33.7814C90.8641 33.0623 90.5045 32.1981 90.5045 31.1891C90.5045 30.18 90.8641 29.3159 91.5833 28.5967C92.3012 27.8788 93.1647 27.5198 94.1737 27.5198C95.1827 27.5198 96.0468 27.8788 96.7659 28.5967C97.4839 29.3159 97.8428 30.18 97.8428 31.1891C97.8428 32.1981 97.4839 33.0623 96.7659 33.7814C96.0468 34.4994 95.1827 34.8584 94.1737 34.8584Z" fill="#4BBBEB"/>
</svg>
