<svg width="135" height="120" viewBox="0 0 135 120" fill="none" xmlns="http://www.w3.org/2000/svg">
<path d="M112.774 98.7304C106.888 98.7304 102.139 103.498 102.139 109.365C102.139 115.232 106.907 120 112.774 120C118.64 120 123.408 115.232 123.408 109.365C123.408 103.498 118.64 98.7304 112.774 98.7304ZM100.667 78.3362L100.295 75.3748L105.864 64.4979L99.6989 65.2802L99.1402 60.8661L111.805 59.2457L112.178 62.2443L106.646 73.084L113.556 72.2086L114.115 76.6227L100.649 78.3362H100.667ZM95.0613 52.4104L79.9566 69.8805L93.1057 71.3891L92.1372 79.7889L66.528 76.8648L67.1799 71.2401L82.3778 53.6955L70.6814 52.3545L71.6499 43.9547L95.7318 46.7112L95.08 52.429L95.0613 52.4104ZM58.1096 69.4149L26.0189 54.8316L29.2224 47.7728L56.3775 31.327L41.7011 24.6593L46.4877 14.1176L76.6786 27.8442L73.4192 34.9961L46.3945 51.386L62.8776 58.8732L58.091 69.3962L58.1096 69.4149ZM122.719 48.257C123.52 45.8544 123.986 43.2656 123.986 40.5836C123.986 27.2668 113.183 16.4644 99.8665 16.4644C99.1029 16.4644 98.3579 16.5016 97.6129 16.5761C90.163 6.53733 78.2431 0 64.7773 0C48.0522 0 33.6924 10.0388 27.3599 24.4172C12.2179 24.5848 0 36.8959 0 52.0751C0 67.2544 12.3855 79.7517 27.6766 79.7517C29.2969 79.7517 30.8614 79.5841 32.4073 79.3233C35.3314 88.8406 44.0851 95.7877 54.5709 95.7877C60.5681 95.7877 65.9879 93.4596 70.104 89.7346C74.5926 95.3966 81.521 99.047 89.3062 99.047C97.0914 99.047 104.635 95.0613 109.086 88.9524C110.278 89.1572 111.47 89.3249 112.718 89.3249C124.768 89.3249 134.527 79.5654 134.527 67.5151C134.527 59.1153 129.722 51.8889 122.738 48.257" fill="#3EBD5F"/>
</svg>
