<svg width="113" height="120" viewBox="0 0 113 120" fill="none" xmlns="http://www.w3.org/2000/svg">
<g clip-path="url(#clip0_2665_1727002)">
<path d="M109.119 6.62472C104.137 0.0754954 96.1529 0 95.8131 0C95.5395 0 95.2658 0.0377477 95.011 0.0943693C94.7562 0.0283108 94.4825 0 94.2089 0C93.8691 0 85.8855 0.0754954 80.9028 6.62472C76.6751 12.1831 76.0333 20.3932 78.9777 31.0286C79.006 31.1136 79.0248 31.1985 79.0626 31.2834C79.5722 32.6707 83.7905 43.5609 91.7081 46.0617V92.7178C91.7081 92.8216 91.6892 102.712 85.7251 108.704C82.6297 111.809 78.3643 113.385 73.023 113.385C58.6977 113.385 55.1777 101.126 54.3095 95.0676C55.6024 94.8978 56.8481 94.709 58.0088 94.5014C63.9446 93.435 70.0126 91.727 70.0126 87.2067V74.8254C76.4486 70.7675 80.7424 63.5955 80.7424 55.4325C80.7424 47.2696 76.458 40.1069 70.0126 36.0396V20.0535C70.0126 15.5332 63.9446 13.8345 58.0088 12.7587C51.8371 11.6452 43.6647 11.0318 35.011 11.0318C26.3573 11.0318 18.185 11.6452 12.0132 12.7587C6.06795 13.8251 0 15.5332 0 20.0535V87.2161C0 91.7364 6.06795 93.4445 12.0038 94.5109C18.1755 95.6244 26.3479 96.2378 35.0016 96.2378C39.4275 96.2378 43.7213 96.0774 47.6848 95.766C48.9965 105.826 55.3193 120 73.0135 120C80.195 120 86.0554 117.754 90.4341 113.328C98.3422 105.344 98.3045 93.1802 98.3045 92.699V46.0711C106.222 43.5609 110.44 32.6707 110.95 31.2834C110.978 31.1985 111.007 31.1136 111.035 31.0286C113.979 20.3932 113.338 12.1831 109.11 6.62472H109.119ZM74.1271 55.4325C74.1271 64.4259 66.8135 71.749 57.8106 71.749C48.8078 71.749 41.4942 64.4354 41.4942 55.4325C41.4942 46.4297 48.8078 39.1161 57.8106 39.1161C66.8135 39.1161 74.1271 46.4297 74.1271 55.4325ZM35.0016 17.6282C47.4017 17.6282 56.0271 18.8644 60.5096 20.044C56.0365 21.2237 47.4111 22.4599 35.0016 22.4599C22.592 22.4599 13.9761 21.2237 9.49355 20.044C13.9667 18.8644 22.6014 17.6282 35.0016 17.6282ZM6.60585 86.1969V26.0931C8.29506 26.6121 10.1541 27.0085 12.0038 27.3482C18.1755 28.4618 26.3479 29.0752 35.0016 29.0752C43.6552 29.0752 51.8276 28.4618 57.9994 27.3482C59.849 27.0179 61.7081 26.6216 63.3973 26.0931V33.2086C61.6043 32.7556 59.7358 32.5197 57.8106 32.5197C45.1746 32.5197 34.8883 42.7965 34.8883 55.442C34.8883 68.0874 45.1651 78.3643 57.8106 78.3643C59.7358 78.3643 61.6043 78.1189 63.3973 77.6754V86.2064C60.8588 87.5464 51.1198 89.632 35.0016 89.632C18.8833 89.632 9.14438 87.5464 6.60585 86.2064V86.1969ZM104.712 29.1318C103.589 32.0761 99.5879 39.9843 95.011 39.9843C90.4341 39.9843 86.4234 32.0761 85.3098 29.1318C83.0261 20.8179 83.3092 14.4385 86.1214 10.6826C89.0846 6.72853 94.1806 6.60585 94.2089 6.60585C94.4825 6.60585 94.7562 6.5681 95.011 6.51148C95.2658 6.57754 95.5395 6.60585 95.8131 6.60585C95.8603 6.60585 100.881 6.71909 103.853 10.626C106.703 14.3724 106.996 20.7707 104.703 29.1318H104.712Z" fill="#2AB3DE"/>
<path d="M60.1698 54.3945V45.203C60.1698 43.9007 59.1129 42.8438 57.8106 42.8438C56.5083 42.8438 55.4514 43.9007 55.4514 45.203V54.3945C53.7716 55.2533 52.6203 56.9991 52.6203 59.0092C52.6203 61.878 54.9418 64.1995 57.8106 64.1995C60.6794 64.1995 63.0009 61.878 63.0009 59.0092C63.0009 56.9897 61.8496 55.2533 60.1698 54.3945Z" fill="#2AB3DE"/>
</g>
<defs>
<clipPath id="clip0_2665_1727002">
<rect width="112.856" height="120" fill="white"/>
</clipPath>
</defs>
</svg>
