<svg width="95" height="120" viewBox="0 0 95 120" fill="none" xmlns="http://www.w3.org/2000/svg">
<path d="M72.7432 10.0725C72.7432 15.6457 68.2254 20.145 62.6707 20.145C57.116 20.145 52.5982 15.6272 52.5982 10.0725C52.5982 4.51782 57.116 0 62.6707 0C68.2254 0 72.7432 4.51782 72.7432 10.0725Z" fill="#3EBD5F"/>
<path d="M30.3794 28.5698C35.9341 28.5698 40.4519 24.052 40.4519 18.4973C40.4519 12.9426 35.9341 8.4248 30.3794 8.4248C24.8247 8.4248 20.3069 12.9426 20.3069 18.4973C20.3069 24.052 24.8247 28.5698 30.3794 28.5698Z" fill="#3EBD5F"/>
<path d="M46.3769 68.3967C42.4516 68.3967 39.2669 65.212 39.2669 61.2867C39.2669 57.3614 42.4516 54.1952 46.3769 54.1952C50.3023 54.1952 53.487 57.3799 53.487 61.2867C53.487 65.1935 50.3023 68.3967 46.3769 68.3967V68.3967ZM94.4621 65.249L82.7232 29.3657C80.5569 25.2182 76.2612 22.626 71.5953 22.626H53.7462C49.0802 22.626 44.7846 25.2182 42.6183 29.3657L41.0815 32.6615C39.5447 31.9023 37.8227 31.4765 36.0452 31.4765H24.7692C20.5106 31.4765 16.6038 33.8465 14.6226 37.6237L0.458097 68.3411C-0.634327 70.4149 0.291455 72.7849 2.55037 73.3959C3.97607 73.7847 5.42029 73.2293 6.2535 72.0998L19.2145 47.8443C19.3256 47.511 19.8255 47.6591 19.7329 48.0109L6.42014 84.2091C6.06834 85.5052 7.04967 86.7827 8.3828 86.7827H19.5107V115.297C19.5107 117.889 21.6215 120 24.2137 120H41.9702C40.1186 120 38.6189 118.5 38.6189 116.648V111.316L38.767 87.0975C38.8411 81.8761 38.4893 81.765 38.3967 82.0057L31.7125 93.8002C31.12 94.5963 30.1017 94.9852 29.1018 94.7074C27.5095 94.2816 26.8614 92.6152 27.6206 91.1339L35.1564 74.7846C36.5451 72.1183 39.304 70.4519 42.3035 70.4519H50.4504C53.4499 70.4519 56.2088 72.1183 57.5974 74.7846L65.1333 91.1339C65.8924 92.5967 65.2629 94.2631 63.6521 94.7074C62.6522 94.9852 61.6153 94.5963 61.0413 93.8002L54.3572 82.0057C54.2831 81.765 53.9313 81.8761 53.9869 87.0975L54.135 111.316V116.648C54.135 118.5 52.6352 120 50.7837 120H72.6322C75.2243 120 77.3166 117.908 77.3166 115.315C77.3166 105.465 77.3166 83.561 77.3166 83.561L77.0944 39.1419C76.9833 38.7716 77.5388 38.605 77.6684 38.9753L88.0742 69.415C88.9815 70.6556 90.5738 71.2666 92.1477 70.8408C94.6288 70.1742 95.6286 67.5635 94.4436 65.2861" fill="#3EBD5F"/>
<path d="M47.4323 116.63V99.4846C47.4323 98.8921 46.9509 98.4292 46.3769 98.4292C45.8029 98.4292 45.3215 98.9106 45.3215 99.4846V116.63C45.3215 118.482 43.8217 119.981 41.9702 119.981H50.7836C48.932 119.981 47.4323 118.482 47.4323 116.63" fill="#3EBD5F"/>
</svg>
