<svg width="132" height="120" viewBox="0 0 132 120" fill="none" xmlns="http://www.w3.org/2000/svg">
<path d="M131.835 101.783L102.063 108.936L101.975 98.4688L131.8 91.3853V85.3362L108.393 76.7798C104.149 84.6699 95.8034 90.0527 86.2301 90.0527C82.3727 90.0527 78.7257 89.1585 75.447 87.598L85.1781 109.445L99.3102 114.547C100.082 115.003 101.028 115.143 102.028 114.915L131.852 107.832V101.765L131.835 101.783Z" fill="#3EBD5F"/>
<path d="M86.2301 85.0204C97.3289 85.0204 106.341 76.0081 106.341 64.9094C106.341 53.8106 97.3464 44.7983 86.2301 44.7983C75.1138 44.7983 66.1191 53.8106 66.1191 64.9094C66.1191 76.0081 75.1138 85.0204 86.2301 85.0204Z" fill="#3EBD5F"/>
<path d="M56.0198 71.9579C65.0496 74.9035 69.17 86.1075 74.7106 98.153C76.8146 102.712 83.1092 117.422 83.1092 117.422C83.1092 117.422 78.4628 118.773 71.6071 118.773C64.7515 118.773 61.5078 117.422 61.5078 117.422L55.3886 107.621L46.8848 120C46.8848 120 39.0473 120 28.8427 111.899C21.3909 105.973 18.5856 99.205 18.5856 99.205C20.6721 94.5586 24.284 89.1758 29.772 81.7241C35.7685 73.571 45.6574 68.5914 56.0373 71.9754" fill="#3EBD5F"/>
<path d="M54.8801 35.1022L55.3009 38.4161L59.9298 37.8375L55.7393 46.0081L56.0198 48.2349L66.1191 46.9549L65.6983 43.6411L60.5084 44.3074L64.6638 36.1718L64.3833 33.9099L54.8801 35.1198V35.1022ZM33.5067 28.72L42.291 29.737L30.8942 42.9047L30.4032 47.1303L49.62 49.3395L50.3389 43.0274L40.485 41.8877L51.8293 28.7726L52.3202 24.4944L34.2431 22.4255L33.5242 28.7375L33.5067 28.72ZM15.377 0.035068L11.7826 7.94271L22.7937 12.9398L2.4021 25.2834L0 30.5786L24.0736 41.5195L27.668 33.6119L15.3068 27.9836L35.5756 15.6926L38.0303 10.3097L15.377 0V0.035068Z" fill="#3EBD5F"/>
</svg>
