<svg width="56" height="56" viewBox="0 0 56 56" fill="none" xmlns="http://www.w3.org/2000/svg">
<path d="M30.5858 22.5858C29.8047 23.3668 29.8047 24.6332 30.5858 25.4142C31.3668 26.1953 32.6332 26.1953 33.4142 25.4142L30.5858 22.5858ZM56 2C56 0.89543 55.1046 0 54 0H36C34.8954 0 34 0.89543 34 2C34 3.10457 34.8954 4 36 4H52V20C52 21.1046 52.8954 22 54 22C55.1046 22 56 21.1046 56 20V2ZM33.4142 25.4142L55.4142 3.41421L52.5858 0.585786L30.5858 22.5858L33.4142 25.4142Z" fill="#333333"/>
<path d="M25.4142 33.4142C26.1953 32.6332 26.1953 31.3668 25.4142 30.5858C24.6332 29.8047 23.3668 29.8047 22.5858 30.5858L25.4142 33.4142ZM-1.90735e-06 54C-2.00391e-06 55.1046 0.895429 56 2 56L20 56C21.1046 56 22 55.1046 22 54C22 52.8954 21.1046 52 20 52L4 52L4 36C4 34.8954 3.10457 34 2 34C0.895431 34 1.67017e-06 34.8954 1.57361e-06 36L-1.90735e-06 54ZM22.5858 30.5858L0.585785 52.5858L3.41421 55.4142L25.4142 33.4142L22.5858 30.5858Z" fill="#333333"/>
<path d="M22.5858 25.4142C23.3668 26.1953 24.6332 26.1953 25.4142 25.4142C26.1953 24.6332 26.1953 23.3668 25.4142 22.5858L22.5858 25.4142ZM2 0C0.895429 4.82823e-08 -1.00993e-06 0.895432 -9.61651e-07 2L-1.74846e-07 20C-1.26563e-07 21.1046 0.89543 22 2 22C3.10457 22 4 21.1046 4 20L4 4L20 4C21.1046 4 22 3.10457 22 2C22 0.895431 21.1046 -8.35087e-07 20 -7.86805e-07L2 0ZM25.4142 22.5858L3.41421 0.585787L0.585786 3.41421L22.5858 25.4142L25.4142 22.5858Z" fill="#333333"/>
<path d="M33.4142 30.5858C32.6332 29.8047 31.3668 29.8047 30.5858 30.5858C29.8047 31.3668 29.8047 32.6332 30.5858 33.4142L33.4142 30.5858ZM54 56C55.1046 56 56 55.1046 56 54L56 36C56 34.8954 55.1046 34 54 34C52.8954 34 52 34.8954 52 36L52 52L36 52C34.8954 52 34 52.8954 34 54C34 55.1046 34.8954 56 36 56L54 56ZM30.5858 33.4142L52.5858 55.4142L55.4142 52.5858L33.4142 30.5858L30.5858 33.4142Z" fill="#333333"/>
</svg>
