<svg width="146" height="120" viewBox="0 0 146 120" fill="none" xmlns="http://www.w3.org/2000/svg">
<path d="M69 42L72.5 46L76 42" stroke="#3EBD5F" stroke-width="6" stroke-miterlimit="10" stroke-linecap="round" stroke-linejoin="round"/>
<path d="M69 80L72.5 77L76 80" stroke="#3EBD5F" stroke-width="6" stroke-miterlimit="10" stroke-linecap="round" stroke-linejoin="round"/>
<path d="M73 77V46" stroke="#3EBD5F" stroke-width="6" stroke-miterlimit="10" stroke-linecap="round" stroke-linejoin="round"/>
<path d="M87.3401 48L86 53.5204L91 55" stroke="#3EBD5F" stroke-width="6" stroke-miterlimit="10" stroke-linecap="round" stroke-linejoin="round"/>
<path d="M54 67L59 68.4796L57.6599 74" stroke="#3EBD5F" stroke-width="6" stroke-miterlimit="10" stroke-linecap="round" stroke-linejoin="round"/>
<path d="M59 69L86 54" stroke="#3EBD5F" stroke-width="6" stroke-miterlimit="10" stroke-linecap="round" stroke-linejoin="round"/>
<path d="M91 67L86 68.4796L87.3401 74" stroke="#3EBD5F" stroke-width="6" stroke-miterlimit="10" stroke-linecap="round" stroke-linejoin="round"/>
<path d="M57.6599 48L59 53.5204L54 55" stroke="#3EBD5F" stroke-width="6" stroke-miterlimit="10" stroke-linecap="round" stroke-linejoin="round"/>
<path d="M59 54L86 69" stroke="#3EBD5F" stroke-width="6" stroke-miterlimit="10" stroke-linecap="round" stroke-linejoin="round"/>
<path d="M32 95.1501C32 95.1501 59.0007 97 72.5 97C85.9993 97 113 95.1501 113 95.1501V24.8499C113 24.8499 85.9993 23 72.5 23C59.0007 23 32 24.8499 32 24.8499V95.1501Z" stroke="#3EBD5F" stroke-width="6" stroke-miterlimit="10" stroke-linecap="round" stroke-linejoin="round"/>
<path d="M32 25H17V95H32V25Z" stroke="#3EBD5F" stroke-width="6" stroke-miterlimit="10" stroke-linecap="round" stroke-linejoin="round"/>
<path d="M128 25H113V95H128V25Z" stroke="#3EBD5F" stroke-width="6" stroke-miterlimit="10" stroke-linecap="round" stroke-linejoin="round"/>
</svg>
