<svg width="120" height="120" viewBox="0 0 120 120" fill="none" xmlns="http://www.w3.org/2000/svg">
<path d="M60 0C26.8639 0 0 26.8639 0 60C0 93.1361 26.8639 120 60 120C93.1361 120 120 93.1361 120 60C120 26.8639 93.1361 0 60 0ZM69.6252 22.1302C71.1355 21.8033 72.6233 22.7444 72.9727 24.2378C73.1192 24.7957 76.2975 35.6833 100.733 35.6833C102.288 35.6833 103.55 36.9456 103.55 38.501C103.55 40.0564 102.288 41.3187 100.733 41.3187C71.2877 41.3187 67.619 26.1313 67.4782 25.4832C67.1457 23.9617 68.1093 22.4627 69.6252 22.1302V22.1302ZM16.4497 38.6306C16.4497 37.0752 17.712 35.8129 19.2674 35.8129C43.8095 35.8129 46.909 24.8295 47.0273 24.3618C47.3598 22.8402 48.8588 21.9048 50.3804 22.2372C51.9019 22.5697 52.8543 24.0969 52.5218 25.6185C52.381 26.2666 48.7123 41.4539 19.2674 41.4539C17.712 41.4539 16.4497 40.1916 16.4497 38.6362V38.6306ZM32.967 53.1924C32.967 49.1857 36.213 45.9397 40.2198 45.9397C44.2265 45.9397 47.4725 49.1857 47.4725 53.1924C47.4725 57.1992 44.2265 60.4452 40.2198 60.4452C36.213 60.4452 32.967 57.1992 32.967 53.1924V53.1924ZM79.4985 96.6695H40.4959C38.9405 96.6695 37.6782 95.4072 37.6782 93.8518C37.6782 86.0693 43.9842 79.7633 51.7667 79.7633H68.2277C76.0101 79.7633 82.3161 86.0693 82.3161 93.8518C82.3161 95.4072 81.0538 96.6695 79.4985 96.6695ZM79.7746 60.4452C75.7678 60.4452 72.5218 57.1992 72.5218 53.1924C72.5218 49.1857 75.7678 45.9397 79.7746 45.9397C83.7813 45.9397 87.0273 49.1857 87.0273 53.1924C87.0273 57.1992 83.7813 60.4452 79.7746 60.4452ZM103.545 73.4686C96.0947 73.4686 95.5368 68.2671 96.5399 63.2573C97.2218 59.8366 103.545 50.758 103.545 50.758C103.545 50.758 109.868 59.8366 110.549 63.2573C111.553 68.2671 110.989 73.4686 103.545 73.4686Z" fill="#3EBD5F"/>
</svg>
