<svg width="84" height="120" viewBox="0 0 84 120" fill="none" xmlns="http://www.w3.org/2000/svg">
<g clip-path="url(#clip0_3218_614910)">
<path d="M41.9232 0C18.7727 0 0 18.7661 0 41.9232C0 48.5946 1.61394 56.4421 4.95943 61.7152L41.9232 120L78.887 61.7152C82.2325 56.4421 83.8465 48.5946 83.8465 41.9232C83.8465 18.7661 65.0738 0 41.9232 0ZM41.9232 76.7634C22.6801 76.7634 7.08304 61.1664 7.08304 41.9232C7.08304 22.6801 22.6801 7.08304 41.9232 7.08304C61.1664 7.08304 76.7634 22.6801 76.7634 41.9232C76.7634 61.1664 61.1664 76.7634 41.9232 76.7634V76.7634Z" fill="#3EBD5F"/>
<path d="M54.7824 14.7542H54.4949V25.8884C54.4949 26.4634 54.0309 26.9338 53.4494 26.9338C52.8679 26.9338 52.4039 26.4699 52.4039 25.8884V14.7542H49.7511C49.7707 14.8195 49.7772 14.8914 49.7772 14.9567V25.8884C49.7772 26.3784 49.3329 26.7705 48.7775 26.7705C48.2221 26.7705 47.7777 26.3784 47.7777 25.8884V14.9632C47.7777 14.8914 47.7843 14.8195 47.8039 14.7607H47.536C46.2749 14.7607 45.249 15.8715 45.249 17.2371V30.6387C45.249 32.0044 46.2749 33.1152 47.536 33.1152H48.9474V66.361C48.9474 67.596 50.0712 68.5957 51.4565 68.5957C52.8417 68.5957 53.9656 67.596 53.9656 66.361V33.1086H54.7758C56.0369 33.1086 57.0628 31.9978 57.0628 30.6322V17.2306C57.0628 15.865 56.0369 14.7542 54.7758 14.7542H54.7824Z" fill="#3EBD5F"/>
<path d="M41.3025 24.0261C41.3025 18.0016 38.0485 13.114 34.0365 13.114C30.0245 13.114 26.7705 18.0016 26.7705 24.0261C26.7705 28.7372 28.7569 32.7492 31.5339 34.2782C31.5339 34.3435 31.5274 34.4023 31.5274 34.4742V67.7527C31.5274 68.9877 32.6513 69.9874 34.0365 69.9874C35.4217 69.9874 36.5456 68.9877 36.5456 67.7527V34.4677C36.5456 34.4023 36.5456 34.3305 36.5391 34.2717C39.3161 32.7427 41.3025 28.7307 41.3025 24.0195" fill="#3EBD5F"/>
</g>
<defs>
<clipPath id="clip0_3218_614910">
<rect width="83.8465" height="120" fill="white"/>
</clipPath>
</defs>
</svg>
