<svg width="120" height="120" viewBox="0 0 120 120" fill="none" xmlns="http://www.w3.org/2000/svg">
<path d="M30.4745 89.5355C29.0982 88.1773 27.74 86.8372 26.418 85.5515C25.3677 84.5374 24.3536 83.5414 23.3576 82.5635L8.16406 95.0406C-1.45187 102.809 -2.03137 110.741 3.60056 116.391C9.23249 122.041 17.1824 121.444 24.9512 111.828L37.4284 96.6342C36.4505 95.6382 35.4545 94.606 34.4222 93.5738C33.1365 92.2518 31.8145 90.8937 30.4383 89.5174" fill="#3EBD5F"/>
<path d="M102.675 19.5805C101.643 20.6127 99.9772 20.6127 98.9631 19.5805C95.3775 15.9949 90.2889 14.2383 84.6569 14.6367C79.0069 15.0532 73.3931 17.6609 69.2461 21.8079L33.3901 57.682C32.883 58.1891 32.1949 58.4426 31.5248 58.4426C30.8548 58.4426 30.1848 58.1891 29.6596 57.682C28.6274 56.6498 28.6274 54.9837 29.6596 53.9696L65.5156 18.0955C70.6224 12.9888 77.2865 9.89209 84.2585 9.38504C91.466 8.87798 97.9852 11.1597 102.675 15.85C103.708 16.8822 103.708 18.5482 102.675 19.5623V19.5805ZM110.082 9.92831C96.8444 -3.30944 75.367 -3.30944 62.1111 9.92831L21.5648 50.4746C8.32709 63.7123 20.7499 72.7669 33.9877 86.0046C47.2254 99.2424 56.28 111.683 69.5177 98.4275L110.064 57.8812C123.302 44.6435 123.302 23.1661 110.064 9.9102" fill="#3EBD5F"/>
</svg>
