<svg width="110" height="110" viewBox="0 0 110 110" fill="none" xmlns="http://www.w3.org/2000/svg">
<g clip-path="url(#clip0_917_242)">
<path d="M42.9163 94.6641C32.3064 91.3651 25.1778 81.6763 25.1778 70.5545C25.1778 65.1183 26.8797 59.9391 30.0997 55.5766C30.1731 55.4771 30.2395 55.3683 30.2948 55.2576C30.8269 54.1938 30.3948 52.9016 29.3307 52.3696C28.3677 51.8873 27.2157 52.197 26.6113 53.0487C22.8554 58.1511 20.8701 64.2037 20.8701 70.5545C20.8701 76.9858 22.9009 83.1007 26.7427 88.2375C30.4562 93.2027 35.7457 96.9461 41.6372 98.7778C41.8503 98.8441 42.0656 98.8756 42.2774 98.8756C43.1956 98.8756 44.0467 98.2835 44.3336 97.3605C44.6868 96.2245 44.0523 95.0174 42.9163 94.6641Z" fill="#2AB3DE"/>
<path d="M98.1293 50.3338C98.1293 46.2338 96.8515 42.3275 94.4335 39.0332L80.7986 18.7921C80.3982 18.1978 79.7287 17.8416 79.0121 17.8416C78.2955 17.8416 77.626 18.1978 77.2256 18.7921L71.4801 27.3212L53.7154 0.950549C53.3152 0.356267 52.6455 0 51.9291 0C51.2127 0 50.543 0.356267 50.1428 0.950549L19.6477 46.2191C14.5596 53.1336 11.8708 61.3351 11.8708 69.9417C11.8708 92.0298 29.841 110 51.9291 110C74.0172 110 91.9874 92.0298 91.9874 69.9417C91.9874 68.1784 91.8696 66.412 91.6406 64.6731C95.6164 61.1673 98.1293 56.0389 98.1293 50.3338ZM79.0121 23.851L90.86 41.439C90.8837 41.4756 90.9087 41.5116 90.9348 41.5469C92.8232 44.1043 93.8213 47.1427 93.8213 50.3336C93.8213 58.4993 87.178 65.1426 79.0121 65.1426C70.8464 65.1426 64.2031 58.4993 64.2031 50.3336C64.2031 47.1427 65.2012 44.1043 67.0896 41.5469C67.1146 41.5131 67.1385 41.4786 67.1616 41.4431L73.2623 32.3867C73.2735 32.3701 73.2851 32.3538 73.2959 32.3367L79.0121 23.851ZM87.6793 69.9417C87.6793 89.6546 71.6416 105.692 51.9289 105.692C32.2159 105.692 16.1785 89.6546 16.1785 69.9417C16.1785 62.2425 18.5888 54.9072 23.1492 48.7291C23.1753 48.694 23.2005 48.6572 23.2248 48.6195L51.9291 6.00916L68.8832 31.1766L63.5907 39.0335C61.1729 42.3275 59.8951 46.234 59.8951 50.3338C59.8951 60.875 68.471 69.4508 79.0121 69.4508C82.0944 69.4508 85.0081 68.7165 87.589 67.4153C87.6478 68.2553 87.6793 69.0988 87.6793 69.9417Z" fill="#2AB3DE"/>
<path d="M71.4174 49.8085C71.4174 48.7649 71.63 47.7577 72.0491 46.8149C72.5325 45.7278 72.0429 44.4548 70.956 43.9716C69.8689 43.4889 68.5961 43.9777 68.1128 45.0648C67.447 46.5622 67.1094 48.1581 67.1094 49.8085C67.1094 53.7177 69.0515 57.3515 72.3042 59.5279C72.6721 59.7741 73.0882 59.8917 73.5001 59.8917C74.1949 59.8917 74.8769 59.5561 75.2922 58.9355C75.9536 57.9466 75.6885 56.6088 74.6998 55.9473C72.6445 54.572 71.4174 52.2772 71.4174 49.8085Z" fill="#2AB3DE"/>
<path d="M50.9077 97.6483C50.3804 96.2624 48.4129 95.8671 47.3945 96.9504C46.1821 98.1254 46.8347 100.283 48.4974 100.584C50.1458 100.945 51.5827 99.1957 50.9077 97.6483Z" fill="#2AB3DE"/>
<path d="M77.8774 61.4914C79.2662 62.4534 81.2552 61.3898 81.2268 59.7015C81.258 58.013 79.2652 56.9472 77.8774 57.9094C76.6194 58.6977 76.6145 60.7057 77.8774 61.4914Z" fill="#2AB3DE"/>
</g>
<defs>
<clipPath id="clip0_917_242">
<rect width="110" height="110" fill="white"/>
</clipPath>
</defs>
</svg>
