<svg width="120" height="120" viewBox="0 0 120 120" fill="none" xmlns="http://www.w3.org/2000/svg">
<path d="M114.716 77.3132C110.646 64.5612 103.893 53.0896 93.4215 40.2498C89.3696 35.2858 81.5991 34.2159 76.0738 37.8643L69.7592 42.039C67.5841 43.4773 66.0932 45.4419 65.3214 47.5994L50.2014 81.3651C48.2894 85.61 50.1312 90.6441 54.2708 92.6087C54.5163 92.7315 54.7795 92.8192 55.025 92.9244L69.5311 104.501C72.5657 108.009 77.7928 108.343 81.2132 105.238C84.6336 102.133 84.9494 96.7834 81.9324 93.2752L68.0577 82.1895L74.4776 67.8237C82.5638 80.5583 86.4052 93.4682 87.142 109.307C87.4226 115.464 93.211 120.253 100.052 119.99L107.875 119.691C114.716 119.428 120.031 114.219 119.732 108.062C119.189 96.4676 117.645 86.5572 114.698 77.3308" fill="#3EBD5F"/>
<path d="M48.8507 49.8095C61.5501 49.9849 72.3903 40.0569 73.4252 26.9014C74.4951 13.1846 64.497 1.18682 51.1135 0.0817597C37.7124 -1.0233 25.9953 9.2029 24.9253 22.9197C24.2412 31.6199 28.0124 39.6184 34.2744 44.5999C34.8533 40.4077 38.5193 37.3556 42.694 37.6889C47.0265 38.0397 50.254 41.9338 49.9032 46.3715C49.7979 47.6345 49.4296 48.7921 48.8332 49.8095" fill="#3EBD5F"/>
<path d="M29.556 67.8939C30.9417 67.8939 32.0643 69.0516 32.0643 70.4548C32.0643 71.8581 30.9417 73.0333 29.556 73.0333C28.1703 73.0333 27.0477 71.8756 27.0477 70.4548C27.0477 69.0341 28.1703 67.8939 29.556 67.8939ZM35.818 82.9263C35.818 84.4172 34.6253 85.6451 33.1694 85.6451C31.7135 85.6451 30.5207 84.4348 30.5207 82.9263C30.5207 81.4178 31.7135 80.2074 33.1694 80.2074C34.6253 80.2074 35.818 81.4178 35.818 82.9263ZM36.3091 58.9306C37.7299 58.9306 38.8876 60.1059 38.8876 61.5617C38.8876 63.0176 37.7299 64.1928 36.3091 64.1928C34.8884 64.1928 33.7307 63.0176 33.7307 61.5617C33.7307 60.1059 34.8884 58.9306 36.3091 58.9306ZM19.8385 84.1015C18.6457 84.1015 17.6634 83.1017 17.6634 81.8738C17.6634 80.646 18.6457 79.6461 19.8385 79.6461C21.0312 79.6461 22.0135 80.646 22.0135 81.8738C22.0135 83.1017 21.0312 84.1015 19.8385 84.1015V84.1015ZM0 95.3626L14.7868 90.8546L14.4009 101.519L24.8726 90.8546L26.2584 106.606L34.9234 90.8546L38.3088 111.763L41.3959 76.6467L44.4831 41.5479L22.2416 68.4552L0 95.3626V95.3626Z" fill="#3EBD5F"/>
</svg>
