<svg width="130" height="120" viewBox="0 0 130 120" fill="none" xmlns="http://www.w3.org/2000/svg">
<path d="M69.0258 119.514C67.3091 115.58 49.1364 93.6975 69.7616 94.1886C90.3868 94.6797 84.2507 84.1067 84.7412 81.6512C85.2317 79.1957 89.8963 80.1779 88.9153 76.7355C87.9343 73.293 89.651 74.5207 91.3726 72.5563C93.0942 70.5919 90.1512 64.1981 90.1512 64.1981C90.1512 64.1981 96.2824 60.51 90.1463 54.8576C84.0102 49.2052 90.3916 36.1719 90.1463 31.2562C89.9011 26.3404 82.0049 2.00711 52.4497 0.153465C17.2104 -2.06128 5.50085 20.428 5.50085 20.428C2.39433 27.0289 -10.5367 73.1726 18.932 81.8968C18.932 81.8968 45.5634 86.1866 22.1251 110.168L14.5126 119.509" fill="#2AB2DD"/>
<path d="M127.713 71.5743C127.713 71.5743 105.915 77.7226 92.873 65.9219C79.8313 54.1211 65.097 54.1211 56.0083 70.8376C56.0083 70.8376 41.8462 109.345 41.8462 120" stroke="white" stroke-width="8" stroke-miterlimit="10"/>
<path d="M128.12 73.018C128.917 72.7931 129.381 71.9644 129.157 71.1671C128.932 70.3698 128.103 69.9057 127.306 70.1306L128.12 73.018ZM54.6902 70.1212L53.9737 71.439L56.6094 72.872L57.3259 71.5541L54.6902 70.1212ZM127.713 71.5743C127.306 70.1306 127.306 70.1305 127.306 70.1304C127.306 70.1304 127.307 70.1304 127.307 70.1304C127.307 70.1304 127.306 70.1305 127.305 70.1307C127.304 70.1311 127.301 70.1318 127.297 70.1329C127.289 70.1351 127.276 70.1388 127.258 70.1437C127.222 70.1535 127.165 70.1687 127.089 70.1883C126.937 70.2276 126.708 70.285 126.41 70.3547C125.813 70.4941 124.938 70.6823 123.845 70.8729C121.657 71.2546 118.609 71.6433 115.17 71.6734C108.249 71.734 99.993 70.3418 93.8792 64.8096L91.8663 67.0341C98.7941 73.3027 107.958 74.7367 115.197 74.6733C118.838 74.6414 122.054 74.2306 124.361 73.8283C125.515 73.6269 126.446 73.4269 127.092 73.2762C127.415 73.2008 127.667 73.1376 127.841 73.0926C127.928 73.0701 127.995 73.0521 128.042 73.0395C128.065 73.0331 128.084 73.0281 128.097 73.0245C128.103 73.0227 128.108 73.0212 128.112 73.0201C128.114 73.0196 128.116 73.0191 128.117 73.0188C128.118 73.0186 128.119 73.0184 128.119 73.0183C128.12 73.0181 128.12 73.018 127.713 71.5743ZM93.8792 64.8096C87.1766 58.7448 79.8332 55.524 72.8158 56.1926C65.7341 56.8672 59.3997 61.4592 54.6902 70.1212L57.3259 71.5541C61.7051 63.4996 67.2823 59.7333 73.1003 59.179C78.9827 58.6186 85.5273 61.2983 91.8663 67.0341L93.8792 64.8096Z" fill="#4BBBEB"/>
<path d="M97.2148 61.4194C101.052 63.8027 105.914 64.0434 109.001 64.3708" stroke="#4BBBEB" stroke-miterlimit="10" stroke-linecap="round"/>
<path d="M98.9123 64.8473L97.1331 61.4049L100.874 60.6682" stroke="#4BBBEB" stroke-linecap="round" stroke-linejoin="round"/>
<path d="M112.143 34.2857C121.611 34.2857 129.286 26.6106 129.286 17.1429C129.286 7.67512 121.611 0 112.143 0C102.675 0 95 7.67512 95 17.1429C95 26.6106 102.675 34.2857 112.143 34.2857Z" fill="#54D0F8"/>
<path d="M122.857 12.8575L110 25.7146L101.429 17.1432L105.714 12.8575L110 17.1432L118.572 8.57178L122.857 12.8575Z" fill="#F8F8F8"/>
</svg>
