<svg width="120" height="120" viewBox="0 0 120 120" fill="none" xmlns="http://www.w3.org/2000/svg">
<circle cx="60" cy="60" r="60" fill="#3EBD5F"/>
<path d="M88.5001 45H73.5001C72.1182 45 71 46.1182 71 47.5001C71 48.882 72.1182 50.0002 73.5001 50.0002H76.0002C76.0002 52.7564 78.2438 55.0001 81.0001 55.0001C83.7563 55.0001 86 52.7564 86 50.0002H88.5001C89.882 50.0002 91.0002 48.882 91.0002 47.5001C91.0002 46.1182 89.882 45 88.5001 45Z" fill="white"/>
<path d="M46 49.9999H48.5001C49.882 49.9999 51.0002 48.8817 51.0002 47.4998C51.0002 46.118 49.882 44.9998 48.5001 44.9998H33.5001C32.1182 44.9998 31 46.118 31 47.4998C31 48.8817 32.1182 49.9999 33.5001 49.9999H36.0002C36.0002 52.7562 38.2438 54.9998 41.0001 54.9998C43.7563 55.0001 46 52.7564 46 49.9999Z" fill="white"/>
<path d="M78.5002 85H43.5001C42.1182 85 41 86.1182 41 87.5001C41 88.882 42.1182 90.0002 43.5001 90.0002H78.5C79.8819 90.0002 81.0001 88.882 81.0001 87.5001C81.0001 86.1182 79.8821 85 78.5002 85Z" fill="white"/>
</svg>
