<svg width="70" height="120" viewBox="0 0 70 120" fill="none" xmlns="http://www.w3.org/2000/svg">
<path d="M21.2663 72.5303L13.314 114.271C12.9056 116.592 14.2439 118.867 16.4718 119.637C18.9763 120.502 21.708 119.174 22.5737 116.67L31.6535 89.4304L30.9098 86.8876L21.2663 72.5303Z" fill="#3EBD5F"/>
<path d="M33.6205 21.5899C39.5824 21.5899 44.4155 16.7569 44.4155 10.795C44.4155 4.83307 39.5824 0 33.6205 0C27.6586 0 22.8256 4.83307 22.8256 10.795C22.8256 16.7569 27.6586 21.5899 33.6205 21.5899Z" fill="#3EBD5F"/>
<path d="M66.881 54.4067V54.4546H66.809C61.8074 51.576 58.245 46.6223 54.5268 40.6971C52.5915 37.3716 50.4145 34.1925 48.0138 31.1855C46.4764 29.3645 44.6683 27.7908 42.6523 26.5197C41.5009 25.8096 40.2738 25.2306 38.994 24.7925C37.6381 24.3763 36.2362 24.1265 34.82 24.0488C34.157 24.0033 33.4919 24.0033 32.8289 24.0488C32.1821 24.0665 31.5368 24.1265 30.8978 24.2288C29.5928 24.4099 28.3103 24.7274 27.0716 25.1763C24.727 26.066 22.5614 27.3701 20.6786 29.0265C19.0542 30.4742 17.5795 32.0818 16.2766 33.8243C15.0772 35.4315 13.9617 37.0388 12.9782 38.622C9.02002 44.8951 5.88948 50.7364 1.5715 55.2583C-0.392586 57.0469 -0.535021 60.089 1.25364 62.0531C3.04231 64.0172 6.08439 64.1596 8.04847 62.3709C11.0966 59.8554 13.8451 56.9981 16.2406 53.8549C18.5796 50.8443 20.6066 47.7858 22.5857 44.9791L22.8256 44.6192V64.7698C22.8187 65.7348 23.1029 66.6796 23.6412 67.4806L35.3117 84.8604L44.6194 116.538C45.3577 119.083 48.0189 120.547 50.5638 119.809C52.8638 119.142 54.3196 116.88 53.975 114.511L50.0289 86.9235C50.0034 86.7418 49.9671 86.5615 49.9209 86.3837L44.4155 65.3456V46.1545L45.0152 47.0061C47.1886 50.2185 49.6367 53.2366 52.3318 56.0259C55.3139 59.0494 58.8699 61.4474 62.7909 63.0786C65.23 64.1137 68.0466 62.9758 69.0817 60.5367C70.0598 58.232 69.1015 55.5629 66.881 54.4067Z" fill="#3EBD5F"/>
</svg>
