<svg width="73" height="73" viewBox="0 0 73 73" fill="none" xmlns="http://www.w3.org/2000/svg">
<circle cx="36.5" cy="36.5" r="36.5" fill="#3EBD5F"/>
<path d="M44.5938 34.1875V37.6562C44.5938 39.8028 43.741 41.8615 42.2231 43.3794C40.7053 44.8973 38.6466 45.75 36.5 45.75C34.3534 45.75 32.2947 44.8973 30.7769 43.3794C29.259 41.8615 28.4062 39.8028 28.4062 37.6562V34.1875H26.0938V37.6562C26.095 40.2151 27.0389 42.6838 28.7453 44.5907C30.4516 46.4975 32.8007 47.7088 35.3438 47.9931V50.375H30.7188V52.6875H42.2812V50.375H37.6562V47.9931C40.1993 47.7088 42.5484 46.4975 44.2547 44.5907C45.9611 42.6838 46.905 40.2151 46.9062 37.6562V34.1875H44.5938Z" fill="white"/>
<path d="M36.5 43.4375C38.0333 43.4375 39.5038 42.8284 40.588 41.7442C41.6722 40.66 42.2812 39.1895 42.2812 37.6562V26.0938C42.2812 24.5605 41.6722 23.09 40.588 22.0058C39.5038 20.9216 38.0333 20.3125 36.5 20.3125C34.9667 20.3125 33.4962 20.9216 32.412 22.0058C31.3278 23.09 30.7188 24.5605 30.7188 26.0938V37.6562C30.7188 39.1895 31.3278 40.66 32.412 41.7442C33.4962 42.8284 34.9667 43.4375 36.5 43.4375Z" fill="white"/>
</svg>
