<svg width="110" height="120" viewBox="0 0 110 120" fill="none" xmlns="http://www.w3.org/2000/svg">
<g clip-path="url(#clip0_3116_145877)">
<path d="M107.597 115.161H52.1451C49.2613 115.161 47.1516 114.377 45.7 112.752C42.8645 109.597 43.4161 104.226 43.4161 104.177C43.4258 104.09 43.4355 103.994 43.4355 103.897V101.884H48.7C50.0064 101.884 51.0806 100.848 51.1193 99.5419C51.1193 99.2903 51.1387 98.5452 51.1 97.5193L65.0258 91.771C66.1387 91.3161 66.7387 90.1065 66.4484 88.9452C66.3903 88.7129 66.0613 87.4355 65.4419 85.5484C70.8709 81.2419 74.1226 70.9548 74.9258 68.1484C76.2129 67.2774 79.4161 64.7516 80.5193 60.3871C81.4774 56.5935 80.6161 52.4613 77.9548 48.0871C78.3032 46.471 79.1742 41.8452 79.1451 36.0097C79.0968 26.4774 76.629 18.3097 71.9838 12.3677C65.5774 4.16129 55.1258 0 40.9484 0C26.7709 0 16.329 4.16129 9.91288 12.3774C5.2774 18.3194 2.79998 26.4968 2.75159 36.0194C2.72256 41.8548 3.59352 46.4806 3.94191 48.0968C1.28062 52.4806 0.419331 56.6129 1.3774 60.4064C2.48062 64.7613 5.68385 67.2968 6.97094 68.1677C7.35804 69.4742 8.42256 72.8903 10.0967 76.4903C12.0709 80.7387 14.2 83.7677 16.4548 85.5581C15.8355 87.4452 15.5161 88.7226 15.4484 88.9548C15.158 90.1258 15.7677 91.3258 16.8806 91.7806L30.8064 97.471C30.758 98.5258 30.7774 99.2903 30.7871 99.5516C30.8258 100.858 31.9 101.894 33.2064 101.894H38.5967V103.781C38.4903 104.913 38.0935 111.484 42.0709 115.955C44.4613 118.635 47.8484 119.99 52.1451 119.99H107.597C108.932 119.99 110.016 118.906 110.016 117.571C110.016 116.235 108.932 115.152 107.597 115.152V115.161ZM9.62256 66.8516C9.52578 66.4742 9.26449 66.1548 8.93546 65.9613C8.89675 65.9419 5.22901 63.8226 4.19352 59.6516C3.41933 56.5258 4.27094 52.9935 6.72901 49.1323C6.94191 48.7935 7.00965 48.3871 6.91288 48C6.86449 47.7968 1.90965 27.3387 12.2064 14.1581C18.0322 6.69677 27.7097 2.90323 40.9484 2.90323C54.1871 2.90323 63.8548 6.6871 69.6903 14.1581C79.9774 27.3194 75.0516 47.8065 74.9935 48.0097C74.8967 48.3968 74.9645 48.8032 75.1774 49.1419C77.6355 52.9935 78.4871 56.5355 77.7129 59.6613C76.6774 63.8323 73.0097 65.9516 72.9709 65.9613C72.6322 66.1548 72.3806 66.4742 72.2742 66.8516C71.3064 70.4323 68.3355 78.7935 64.4161 82.6065C61.1258 73.7806 53.7032 58.9355 40.9484 58.9355C28.1935 58.9355 20.7709 73.7806 17.4806 82.6065C13.5613 78.7935 10.5903 70.4323 9.62256 66.8516ZM20.7322 88.1226C20.7903 87.9387 20.8484 87.7452 20.9161 87.5419L21.2355 87.6194L21.9226 84.7935H21.8645C24.6709 77.071 30.9613 63.7645 40.958 63.7645C50.9548 63.7645 57.2451 77.071 60.0516 84.7742H59.9935L60.6806 87.6097L61 87.5322C61.0677 87.7355 61.1258 87.9387 61.1838 88.1226L50.5387 92.5161C49.9774 89.5839 48.9032 86.3806 46.8322 84.2419C45.2451 82.6065 43.2129 81.7452 40.958 81.7452C38.7032 81.7452 36.6709 82.6065 35.0838 84.2419C33.0226 86.371 31.9484 89.5452 31.3871 92.4677L20.7322 88.1129V88.1226ZM38.558 87.6194C39.2355 86.9129 40 86.5936 40.958 86.5936C41.9161 86.5936 42.6709 86.9226 43.358 87.6194C45.3419 89.6613 46.0387 94.0355 46.2322 97.0645H35.6935C35.8967 94.0742 36.6032 89.6516 38.558 87.629V87.6194Z" fill="#4BBBEB"/>
</g>
<defs>
<clipPath id="clip0_3116_145877">
<rect width="109.016" height="120" fill="white"/>
</clipPath>
</defs>
</svg>
