<svg width="160" height="103" viewBox="0 0 160 103" fill="none" xmlns="http://www.w3.org/2000/svg">
<path d="M146.806 20.098V11.1305C146.806 4.99296 141.813 0 135.675 0H24.3249C18.1873 0 13.1944 4.99296 13.1944 11.1305V20.098C5.75903 21.1074 0 27.4883 0 35.1941V71.722C0 80.0496 5.57878 87.0794 13.1944 89.3145V98.8768C13.1944 100.616 14.6094 102.031 16.3488 102.031C18.0882 102.031 19.5032 100.616 19.5032 98.8768V90.0625H140.497V98.8768C140.497 100.616 141.912 102.031 143.651 102.031C145.391 102.031 146.806 100.616 146.806 98.8768V89.3145C154.421 87.0794 160 80.0496 160 71.722V35.1941C160 27.4883 154.241 21.1074 146.806 20.098V20.098ZM24.3249 6.30879H135.675C138.334 6.30879 140.497 8.47181 140.497 11.1305V20.5577C134.152 22.4052 129.492 28.2634 129.492 35.1941V39.9076C129.357 39.9076 129.222 39.8896 129.078 39.8896H30.9221C30.7869 39.8896 30.6427 39.9076 30.5075 39.9076V35.1941C30.5075 28.2544 25.848 22.3962 19.5032 20.5577V11.1305C19.5032 8.47181 21.6662 6.30879 24.3249 6.30879V6.30879ZM137.117 54.2376C137.117 58.6718 133.512 62.2858 129.069 62.2858H83.1499V46.1984H129.069C133.503 46.1984 137.117 49.8034 137.117 54.2376ZM30.9221 46.1984H76.8411V62.2858H30.9221C26.4879 62.2858 22.8739 58.6808 22.8739 54.2376C22.8739 49.7944 26.4789 46.1984 30.9221 46.1984V46.1984ZM153.691 71.731C153.691 78.3642 148.293 83.7627 141.659 83.7627H18.3406C11.7073 83.7627 6.30879 78.3642 6.30879 71.731V35.1941C6.30879 30.2642 10.3194 26.2536 15.2493 26.2536C20.1791 26.2536 24.1897 30.2642 24.1897 35.1941V41.5659C19.6564 43.9813 16.5561 48.7489 16.5561 54.2376C16.5561 62.1506 22.991 68.5946 30.9131 68.5946H129.069C136.982 68.5946 143.426 62.1596 143.426 54.2376C143.426 48.7489 140.326 43.9813 135.792 41.5659V35.1941C135.792 30.2642 139.803 26.2536 144.733 26.2536C149.663 26.2536 153.673 30.2642 153.673 35.1941V71.722L153.691 71.731Z" fill="#3EBD5F"/>
</svg>
