<svg width="111" height="120" viewBox="0 0 111 120" fill="none" xmlns="http://www.w3.org/2000/svg">
<path d="M107.771 100.442H90.7971C89.826 100.442 89.0392 101.229 89.0392 102.199C89.0392 103.17 89.826 103.957 90.7971 103.957H106.013V104.949L80.4175 109.81H29.1108L3.51563 104.949V103.957H10.5047C10.5075 103.957 10.5103 103.958 10.5129 103.958C10.515 103.958 10.5174 103.957 10.5195 103.957H16.8528C16.8549 103.957 16.8568 103.958 16.8589 103.958C16.8621 103.958 16.8657 103.957 16.8689 103.957H37.9433C37.9445 103.957 37.9456 103.958 37.947 103.958C37.9482 103.958 37.9491 103.957 37.9503 103.957H44.2304C44.2323 103.957 44.2342 103.958 44.236 103.958C44.2379 103.958 44.24 103.957 44.2419 103.957H65.2865C65.2886 103.957 65.2904 103.958 65.2923 103.958C65.2942 103.958 65.2961 103.957 65.2977 103.957H84.2695C85.2405 103.957 86.0273 103.17 86.0273 102.199C86.0273 101.229 85.2405 100.442 84.2695 100.442H72.9313C75.0306 99.1076 76.9898 97.5453 78.7511 95.7851C81.2934 93.2417 83.3805 90.3649 84.9756 87.2548C87.1984 88.1602 89.552 88.6198 91.9921 88.6198C102.287 88.6198 110.662 80.2432 110.662 69.9471C110.662 59.6521 102.287 51.2767 91.9921 51.2767C90.8765 51.2767 89.7712 51.3777 88.6851 51.5725V50.5668C88.6851 48.3168 86.8546 46.4863 84.6048 46.4863H76.2913C75.3203 46.4863 74.5335 47.2734 74.5335 48.2441C74.5335 49.2149 75.3203 50.002 76.2913 50.002H84.6048C84.9161 50.002 85.1695 50.2553 85.1695 50.5668V53.5551H24.3561V50.5668C24.3561 50.2553 24.6094 50.002 24.9209 50.002H69.7616C70.7326 50.002 71.5194 49.2149 71.5194 48.2441C71.5194 47.2734 70.7326 46.4863 69.7616 46.4863H24.9209C22.6709 46.4863 20.8404 48.3168 20.8404 50.5668V71.7965C20.8404 74.4478 21.1505 77.0763 21.7547 79.6294C18.8937 78.7762 15.4845 79.4466 12.3739 81.5749C11.5725 82.1231 11.3672 83.2169 11.9154 84.0183C12.4639 84.8194 13.5579 85.0245 14.359 84.4765C16.3976 83.0817 18.537 82.5342 20.3061 82.8886L13.9034 92.468C13.3639 93.2752 13.5809 94.3669 14.3878 94.9062C14.6878 95.1068 15.0275 95.2029 15.3631 95.2029C15.9305 95.2029 16.4874 94.9287 16.826 94.4217L23.2306 84.8391C23.8948 85.8251 24.2588 87.1153 24.2759 88.6191C24.2759 88.6198 24.2759 88.6202 24.2759 88.6209C24.2759 88.6242 24.2761 88.6275 24.2761 88.6308C24.2998 90.953 23.4884 93.4648 21.9919 95.7035C21.1388 96.9802 20.13 98.0749 18.9877 98.9618C18.1957 99.582 17.3637 100.078 16.5113 100.442H10.9582C10.8947 100.404 10.8314 100.365 10.7684 100.323C7.84173 98.3681 7.65658 93.3129 10.3467 88.8141C10.845 87.9809 10.5736 86.9013 9.74041 86.403C8.90767 85.9052 7.82791 86.1762 7.32962 87.0096C5.6147 89.8772 4.77704 93.0722 4.9711 96.0063C5.08126 97.6711 5.51696 99.1713 6.23415 100.441H1.75782C0.786798 100.441 0 101.228 0 102.199V106.404C0 107.248 0.60047 107.973 1.42992 108.131L27.2792 113.04V118.242C27.2792 119.213 28.066 120 29.037 120H80.489C81.46 120 82.2468 119.213 82.2468 118.242V113.04L108.098 108.131C108.928 107.973 109.528 107.248 109.528 106.404V102.199C109.528 101.229 108.741 100.442 107.771 100.442ZM88.6851 63.4795C89.7037 62.9566 90.8301 62.6791 91.9921 62.6791C95.9997 62.6791 99.2601 65.9395 99.2601 69.9471C99.2601 73.9547 95.9997 77.2151 91.9921 77.2151C90.715 77.2151 89.4857 76.8834 88.3938 76.2581C88.5855 74.7904 88.6849 73.301 88.6849 71.7961V63.4795H88.6851V63.4795ZM91.9924 54.7924C100.349 54.7924 107.147 61.5907 107.147 69.9471C107.147 78.3047 100.349 85.1041 91.9924 85.1041C90.0543 85.1041 88.1861 84.743 86.4182 84.0405C86.9449 82.6776 87.3806 81.2789 87.7263 79.8527C89.0627 80.4298 90.5064 80.7309 91.9921 80.7309C97.9382 80.7309 102.776 75.8934 102.776 69.9473C102.776 64.0012 97.9382 59.1637 91.9921 59.1637C90.8578 59.1637 89.7449 59.3411 88.6851 59.6826V55.331C88.6851 55.3249 88.686 55.319 88.686 55.3129C88.686 55.3068 88.6851 55.301 88.6851 55.2949V55.1568C89.7642 54.9159 90.8718 54.7924 91.9924 54.7924ZM85.1695 57.0705V62.4815C85.1695 62.4834 85.1695 62.4855 85.1695 62.4874V71.7963C85.1695 79.9183 82.007 87.555 76.2653 93.2991C73.0841 96.4781 69.1879 98.9419 64.9841 100.442H44.5463C43.9794 100.24 43.4152 100.023 42.8581 99.7854C44.1479 97.7576 44.6394 95.5015 44.2149 93.3513C44.2145 93.3485 44.2142 93.346 44.2138 93.3431C44.2131 93.3399 44.2119 93.3366 44.2114 93.3333C43.651 90.536 41.6745 88.2345 38.6445 86.8521C35.8062 85.5572 32.3373 85.222 28.8762 85.9092C28.5615 85.9718 28.2495 86.0433 27.9401 86.1218C25.5938 81.7357 24.3561 76.8129 24.3561 71.7965V57.0707H85.1695V57.0705V57.0705ZM24.9153 97.6568C26.5426 95.2221 27.5246 92.4919 27.744 89.8463C28.3337 89.6475 28.9402 89.4809 29.5615 89.3571C34.0341 88.4693 38.3466 89.8151 40.0663 92.3754L28.7694 94.621C27.8171 94.8103 27.1986 95.7354 27.3877 96.6877C27.5541 97.5242 28.2884 98.1031 29.1101 98.1031C29.2236 98.1031 29.3391 98.0921 29.4547 98.0688L40.7586 95.8217C40.5331 96.9781 39.8886 98.1373 38.8562 99.2023C38.8534 99.2051 38.8508 99.2081 38.8482 99.211C38.4177 99.6528 37.9309 100.064 37.4007 100.441H22.6207C23.4633 99.6103 24.2318 98.6796 24.9153 97.6568ZM78.7312 116.485H30.7946V113.325H78.7312V116.485Z" fill="#3EBD5F"/>
<path d="M59.3614 35.1298C58.5397 35.6469 58.2927 36.732 58.8097 37.5538C59.1437 38.0848 59.7149 38.3757 60.2989 38.3757C60.6189 38.3757 60.9428 38.2883 61.2334 38.1055C64.7659 35.8829 66.8748 32.0687 66.8748 27.9029C66.8748 24.5558 65.5112 21.4379 63.1443 19.1879C65.5115 16.9379 66.8748 13.82 66.8748 10.4731C66.8748 6.30705 64.7659 2.49306 61.2334 0.270241C60.4119 -0.246791 59.326 0.000240505 58.8095 0.821961C58.2925 1.64368 58.5395 2.72884 59.3612 3.24587C61.8648 4.82111 63.3594 7.52276 63.3594 10.4728C63.3594 13.4229 61.8648 16.1246 59.3612 17.6998C58.2866 18.3739 58.2866 19.999 59.3612 20.6754C61.8648 22.2507 63.3594 24.9523 63.3594 27.9024C63.3597 30.8527 61.865 33.5546 59.3614 35.1298C61.865 33.5546 58.5397 35.6469 59.3614 35.1298Z" fill="#3EBD5F"/>
<path d="M71.7322 35.13C70.9105 35.6471 70.6635 36.7322 71.1805 37.5539C71.5145 38.085 72.0857 38.3759 72.6697 38.3759C72.9896 38.3759 73.3136 38.2885 73.6042 38.1057C77.1365 35.8831 79.2454 32.0689 79.2454 27.9031C79.2454 23.7373 77.1365 19.9231 73.6042 17.7005C72.7827 17.1834 71.6971 17.4302 71.1803 18.2522C70.6632 19.0737 70.9103 20.1591 71.732 20.6761C74.2354 22.2513 75.73 24.9532 75.73 27.9033C75.7302 30.8529 74.2356 33.5548 71.7322 35.13Z" fill="#3EBD5F"/>
<path d="M45.9779 35.1297C45.1562 35.6468 44.9091 36.7319 45.4262 37.5536C45.7602 38.0847 46.3313 38.3756 46.9154 38.3756C47.2353 38.3756 47.5592 38.2882 47.8499 38.1054C51.3824 35.8828 53.4913 32.0686 53.4913 27.9028C53.4913 23.7367 51.3824 19.9227 47.8499 17.6999C47.0284 17.1829 45.9425 17.4299 45.4259 18.2516C44.9089 19.0734 45.1559 20.1585 45.9777 20.6756C48.4813 22.2508 49.9759 24.9524 49.9759 27.9025C49.9761 30.8526 48.4815 33.5545 45.9779 35.1297Z" fill="#3EBD5F"/>
</svg>
