<svg width="110" height="110" viewBox="0 0 110 110" fill="none" xmlns="http://www.w3.org/2000/svg">
<path d="M99 49.6774L96.5162 47.1935V1.77419C96.5162 0.709677 95.8065 0 94.742 0H34.4194C33.3549 0 32.6452 0.709677 32.6452 1.77419V54.2903L11.7097 75.2258C8.16132 78.7742 6.03229 83.7419 6.03229 88.8871V90.4839C6.03229 101.306 14.7258 110 25.5484 110H27.1452C31.4033 110 35.4839 108.581 38.8549 106.097C42.2258 108.581 46.3065 110 50.5645 110H52.1613C57.3065 110 62.2742 107.871 66 104.323L92.6129 77.7097L95.0968 76.4677C100.597 73.8064 103.968 68.3064 103.968 62.2742V61.0323C103.613 56.5968 102.016 52.5161 99 49.6774ZM71.6774 3.54839H92.9678V10.6452H71.6774V3.54839ZM71.6774 14.1935H92.9678V17.7419H71.6774V14.1935ZM68.6613 49.1452L71.6774 52.1613C73.9839 54.4677 75.4033 57.6613 75.4033 60.8548V62.0968C75.4033 66.8871 72.742 71.1452 68.4839 73.2742L66.8871 74.1613L65.2903 72.5645C62.6291 69.9032 61.2097 66.3548 61.2097 62.4516V61.5645C61.2097 57.8387 62.6291 54.1129 65.2903 51.4516L68.3065 48.4355C68.3065 48.6129 68.4839 48.9677 68.6613 49.1452ZM36.1936 3.54839H68.1291V10.6452H36.1936V3.54839ZM36.1936 14.1935H68.1291V17.7419H36.1936V14.1935ZM27.1452 106.452H25.5484C16.6774 106.452 9.58067 99.3548 9.58067 90.4839V88.8871C9.58067 84.9839 11 81.0806 13.8387 78.0645C19.871 78.0645 25.5484 80.5484 29.8065 84.8064L31.2258 86.2258C35.4839 90.4839 37.9678 96.1613 37.9678 102.194C34.9516 104.855 31.2258 106.452 27.1452 106.452ZM33.7097 83.7419L32.2904 82.3226C28.2097 78.2419 22.8871 75.5806 17.0323 74.871L35.6613 56.2419C36.0162 55.8871 36.1936 55.5323 36.1936 55V21.2903H68.1291V43.6452L62.6291 49.1452C59.2581 52.3387 57.4839 56.9516 57.4839 61.5645V62.4516C57.4839 67.2419 59.2581 71.6774 62.6291 75.0484L63.871 76.2903L41.1613 99C40.4516 93.3226 37.7904 88 33.7097 83.7419ZM51.9839 106.452H50.3871C47.1936 106.452 44 105.565 41.5162 103.79L57.4839 87.8226C60.8549 91.9032 62.8065 96.871 62.8065 102.194C59.7904 105.032 55.8871 106.452 51.9839 106.452ZM66 98.8226C65.2903 93.8548 63.1613 89.0645 59.7904 85.1613L67.242 77.7097L69.7258 76.4677C75.2258 73.8064 78.5968 68.3065 78.5968 62.0968V60.8548C78.5968 56.5968 77 52.5161 73.9839 49.5L71.6774 47.1935V21.2903H92.9678V43.6452L87.4678 49.1452C84.0968 52.3387 82.3226 56.9516 82.3226 61.5645V62.4516C82.3226 67.2419 84.0968 71.6774 87.4678 75.0484L88.7097 76.2903L66 98.8226ZM93.1452 73.4516L91.5484 74.3387L89.9516 72.7419C87.2903 70.0806 85.871 66.5323 85.871 62.629V61.7419C85.871 58.0161 87.2903 54.2903 89.9516 51.629L92.9678 48.6129C92.9678 48.7903 93.1452 49.1452 93.3226 49.3226L96.3387 52.3387C98.6452 54.6452 100.065 57.8387 99.8871 61.0323V62.2742H100.065C100.065 67.0645 97.4033 71.3226 93.1452 73.4516Z" fill="#2AB3DE"/>
</svg>
