<svg width="93" height="120" viewBox="0 0 93 120" fill="none" xmlns="http://www.w3.org/2000/svg">
<path fill-rule="evenodd" clip-rule="evenodd" d="M43.8509 0.0591975C38.5294 0.801914 34.7928 2.66253 31.3702 6.25361C28.8741 8.87226 27.1589 12.0116 26.2707 15.5414C25.796 17.5398 25.773 22.2258 26.2707 24.2473C28.2309 32.4171 34.3564 38.2364 42.488 39.6605C54.1034 41.7049 64.9839 33.0603 65.7419 21.1922C66.1324 15.4112 63.9502 9.79874 59.693 5.69466C56.9901 3.05303 54.0422 1.42212 50.4511 0.533924C48.8585 0.143423 45.1066 -0.124567 43.8509 0.0591975V0.0591975Z" fill="#3EBD5F"/>
<path fill-rule="evenodd" clip-rule="evenodd" d="M30.0073 44.5303C23.8588 45.0892 17.7103 49.8518 13.5603 57.302C10.5665 62.6694 5.53592 72.8837 3.05509 78.6417C0.413471 84.7672 0 86.6278 0 92.1178C0 96.888 0.719746 100.617 2.2894 103.794C3.79781 106.911 5.52826 108.687 9.76251 111.49C16.9447 116.26 26.2707 119.437 34.5631 119.95C39.9918 120.303 45.9948 118.756 50.3286 115.908C53.7512 113.657 55.0989 111.39 54.6394 108.58C54.203 105.732 52.2046 103.259 49.4404 102.102C47.151 101.153 46.3011 101.053 40.3594 101.053C33.4682 101.053 30.1834 100.579 24.5556 98.7639C21.0258 97.6307 19.1881 96.5741 19.1881 95.6859C19.1881 94.9814 19.9921 94.6981 22.695 94.4684C24.1191 94.3229 26.0181 94.0932 26.9445 93.9324C30.3672 93.2893 33.4835 91.8651 34.165 90.6093C34.4942 89.9891 34.4942 89.8896 34.1879 89.0397C34.0042 88.565 33.1772 87.2633 32.3733 86.1913C31.5693 85.1194 30.7194 83.8177 30.4973 83.3047C28.2692 78.2282 30.2676 72.1639 34.1497 72.1639C36.0868 72.1639 37.6565 73.2359 39.3487 75.6938C39.9459 76.536 41.5385 79.5911 42.8172 82.3399C44.5324 85.9923 49.3179 89.9738 54.1035 91.7732C56.2933 92.5772 57.7328 92.8452 60.4204 92.9906L63.1462 93.1132L61.9288 94.6216C56.3776 101.39 56.2091 105.869 61.3698 108.304C64.134 109.606 68.3223 109.897 70.9869 108.948C77.5488 106.635 85.4966 99.721 89.417 92.9141C91.7676 88.8253 92.5103 84.8284 91.7293 80.3032C90.7186 74.5835 88.077 68.2972 83.123 59.8134C78.437 51.8043 73.0542 46.7278 67.3192 44.8749C65.9563 44.4231 65.7955 44.4231 48.7054 44.4231C39.2338 44.4231 30.8113 44.4844 30.0073 44.5456V44.5303ZM64.1799 62.9987C68.8429 64.3846 72.3498 68.0139 73.5672 72.677C73.9807 74.2849 74.0037 77.2558 73.5902 79.0092C72.725 82.7457 70.1676 86.0076 66.6761 87.8222C64.5704 88.9172 62.9395 89.3077 60.5046 89.3077C57.35 89.3077 54.8079 88.4425 52.2735 86.5206C48.9121 83.9632 46.8677 79.5069 47.1127 75.2573C47.5032 69.0017 52.128 63.7873 58.2535 62.6694C59.716 62.4244 62.794 62.5852 64.1722 62.9987H64.1799Z" fill="#3EBD5F"/>
</svg>
