<svg width="86" height="114" viewBox="0 0 86 114" fill="none" xmlns="http://www.w3.org/2000/svg">
<path d="M78.5 110.683C78.5091 112.616 80.0833 114.175 82.0163 114.166C83.9493 114.157 85.509 112.583 85.5 110.65L78.5 110.683ZM43.0905 68.4886L42.3456 71.9084C42.5903 71.9618 42.84 71.9886 43.0905 71.9886V68.4886ZM42.9095 68.4492L43.6544 65.0294C43.4097 64.9761 43.16 64.9492 42.9095 64.9492V68.4492ZM0.500038 110.611C0.491028 112.544 2.05071 114.118 3.98369 114.127C5.91666 114.136 7.49095 112.576 7.49996 110.643L0.500038 110.611ZM85.5 110.65C85.3837 85.7164 66.7215 64.9886 43.0905 64.9886V71.9886C62.3142 71.9886 78.3991 89.0238 78.5 110.683L85.5 110.65ZM43.8354 65.0688L43.6544 65.0294L42.1646 71.869L42.3456 71.9084L43.8354 65.0688ZM42.9095 64.9492C19.2785 64.9492 0.616255 85.677 0.500038 110.611L7.49996 110.643C7.60091 88.9844 23.6858 71.9492 42.9095 71.9492V64.9492Z" fill="#2AB3DE"/>
<path d="M15.6924 38.6883L21.4474 4H43.0919H42.9471H64.5917L70.3467 38.6883C70.3467 55.1258 58.1128 68.4493 43.0195 68.4493C27.9263 68.4493 15.6924 55.1258 15.6924 38.6883Z" stroke="#2AB3DE" stroke-width="7" stroke-miterlimit="10" stroke-linecap="round" stroke-linejoin="round"/>
<path d="M37.0462 15.4785C35.1132 15.4785 33.5462 17.0455 33.5462 18.9785C33.5462 20.9115 35.1132 22.4785 37.0462 22.4785V15.4785ZM49.7144 22.4785C51.6474 22.4785 53.2144 20.9115 53.2144 18.9785C53.2144 17.0455 51.6474 15.4785 49.7144 15.4785V22.4785ZM37.0462 22.4785H49.7144V15.4785H37.0462V22.4785Z" fill="#2AB3DE"/>
<path d="M47.097 12.082C47.097 10.149 45.53 8.58203 43.597 8.58203C41.664 8.58203 40.097 10.149 40.097 12.082H47.097ZM40.097 25.8785C40.097 27.8115 41.664 29.3785 43.597 29.3785C45.53 29.3785 47.097 27.8115 47.097 25.8785H40.097ZM40.097 12.082V25.8785H47.097V12.082H40.097Z" fill="#2AB3DE"/>
<path d="M62.6971 73.1779C62.6971 71.2449 61.1301 69.6779 59.1971 69.6779C57.2641 69.6779 55.6971 71.2449 55.6971 73.1779H62.6971ZM59.1971 79.6031L61.4694 82.2651C62.2484 81.6002 62.6971 80.6273 62.6971 79.6031H59.1971ZM43.1265 93.3207L42.5014 96.7644C43.5356 96.9522 44.5994 96.6652 45.3989 95.9828L43.1265 93.3207ZM42.9094 93.2813L40.64 95.9459C41.1098 96.346 41.6771 96.6148 42.2843 96.725L42.9094 93.2813ZM26.8026 79.5637H23.3026C23.3026 80.5893 23.7525 81.5633 24.5333 82.2282L26.8026 79.5637ZM30.3026 73.1779C30.3026 71.2449 28.7356 69.6779 26.8026 69.6779C24.8696 69.6779 23.3026 71.2449 23.3026 73.1779H30.3026ZM55.6971 73.1779V79.6031H62.6971V73.1779H55.6971ZM56.9248 76.941L40.8542 90.6586L45.3989 95.9828L61.4694 82.2651L56.9248 76.941ZM43.7516 89.877L43.5345 89.8376L42.2843 96.725L42.5014 96.7644L43.7516 89.877ZM45.1787 90.6167L29.072 76.8991L24.5333 82.2282L40.64 95.9459L45.1787 90.6167ZM30.3026 79.5637V73.1779H23.3026V79.5637H30.3026Z" fill="#2AB3DE"/>
<path d="M68.9685 40.1471C70.8409 40.6272 72.748 39.4985 73.2281 37.6261C73.7082 35.7536 72.5795 33.8465 70.7071 33.3664L68.9685 40.1471ZM15.5448 33.3664C13.6724 33.8465 12.5437 35.7536 13.0238 37.6261C13.5039 39.4985 15.411 40.6272 17.2834 40.1471L15.5448 33.3664ZM69.8378 36.7567C70.7071 33.3664 70.7067 33.3663 70.7063 33.3662C70.706 33.3661 70.7055 33.366 70.7051 33.3659C70.7042 33.3657 70.7031 33.3654 70.7017 33.365C70.6991 33.3644 70.6955 33.3635 70.6911 33.3623C70.6823 33.3601 70.6701 33.357 70.6544 33.353C70.6232 33.3451 70.5784 33.3339 70.5205 33.3194C70.4048 33.2906 70.2369 33.2492 70.0206 33.197C69.5883 33.0926 68.9625 32.945 68.1749 32.7686C66.6009 32.416 64.3753 31.9472 61.7534 31.4784C56.5406 30.5464 49.6318 29.5908 43.126 29.5908V36.5908C49.035 36.5908 55.4821 37.4682 60.5215 38.3691C63.0257 38.8169 65.1503 39.2645 66.6449 39.5993C67.3917 39.7666 67.9798 39.9054 68.3778 40.0015C68.5768 40.0495 68.7281 40.0868 68.8279 40.1117C68.8778 40.1241 68.9148 40.1335 68.9384 40.1394C68.9502 40.1424 68.9586 40.1446 68.9636 40.1458C68.9662 40.1465 68.9678 40.1469 68.9686 40.1471C68.969 40.1472 68.9692 40.1473 68.9692 40.1473C68.9692 40.1472 68.969 40.1472 68.969 40.1472C68.9688 40.1471 68.9685 40.1471 69.8378 36.7567ZM43.126 29.5908C36.6202 29.5908 29.7113 30.5464 24.4985 31.4784C21.8766 31.9472 19.651 32.416 18.077 32.7686C17.2895 32.945 16.6636 33.0926 16.2313 33.197C16.0151 33.2492 15.8471 33.2906 15.7314 33.3194C15.6735 33.3339 15.6287 33.3451 15.5975 33.353C15.5818 33.357 15.5696 33.3601 15.5608 33.3623C15.5564 33.3635 15.5529 33.3644 15.5502 33.365C15.5489 33.3654 15.5477 33.3657 15.5468 33.3659C15.5464 33.366 15.5459 33.3661 15.5457 33.3662C15.5452 33.3663 15.5448 33.3664 16.4141 36.7567C17.2834 40.1471 17.2832 40.1471 17.2829 40.1472C17.2829 40.1472 17.2827 40.1472 17.2827 40.1473C17.2827 40.1473 17.2829 40.1472 17.2833 40.1471C17.2841 40.1469 17.2857 40.1465 17.2883 40.1458C17.2933 40.1446 17.3018 40.1424 17.3136 40.1394C17.3372 40.1335 17.3741 40.1241 17.424 40.1117C17.5238 40.0868 17.6752 40.0495 17.8741 40.0015C18.2721 39.9054 18.8602 39.7666 19.607 39.5993C21.1017 39.2645 23.2263 38.8169 25.7305 38.3691C30.7699 37.4682 37.2169 36.5908 43.126 36.5908V29.5908Z" fill="#2AB3DE"/>
</svg>
