<svg width="137" height="120" viewBox="0 0 137 120" fill="none" xmlns="http://www.w3.org/2000/svg">
<path d="M131.645 54.7564H116.887V41.4199C116.887 40.525 116.15 39.7704 115.255 39.7704C114.817 39.7704 114.396 39.9459 114.097 40.2618L99.6026 54.7564H77.5623L88.5825 35.6642L108.342 30.3647C108.991 30.2243 109.5 29.6803 109.605 29.031C109.71 28.3642 109.394 27.6798 108.798 27.3464L97.2336 20.6782L104.604 7.9032C106.06 5.39383 105.2 2.16499 102.674 0.708507C100.164 -0.747979 96.9353 0.111875 95.4788 2.63879L88.1087 15.4138L76.5972 8.76305C75.9128 8.3419 74.9301 8.51738 74.4387 9.16666C74.1229 9.57026 74.0351 10.0967 74.158 10.588L79.475 30.3998L68.4549 49.492L57.4347 30.3998L62.7342 10.6056C62.8746 10.1142 62.7693 9.57026 62.4534 9.16666C61.9621 8.53493 61.0145 8.3419 60.3301 8.7455L48.7835 15.4138L41.4134 2.63879C39.9569 0.129423 36.7456 -0.747979 34.2187 0.708507C31.6917 2.16499 30.8319 5.37628 32.2884 7.9032L39.6761 20.6782L28.0944 27.364C27.5329 27.6974 27.2345 28.3467 27.3223 28.9959C27.41 29.6452 27.9014 30.1892 28.5331 30.3471L48.3448 35.6642L59.365 54.7389H37.3247L22.83 40.2442C22.5141 39.9459 22.093 39.7529 21.6718 39.7529C20.7769 39.7529 20.0399 40.4899 20.0399 41.4024V54.7389H5.26441C2.35144 54.7389 0 57.0903 0 60.0033C0 62.9163 2.35144 65.2677 5.26441 65.2677H20.0399V78.6042C20.0399 79.4992 20.7769 80.2537 21.6718 80.2537C22.1105 80.2537 22.5317 80.0782 22.83 79.7799L37.3247 65.2677H59.365L48.3448 84.3424L28.5331 89.6595C27.9014 89.8349 27.4276 90.3614 27.3398 91.0107C27.2521 91.6775 27.568 92.3268 28.147 92.6602L39.6936 99.3284L32.3059 112.103C30.8494 114.613 31.7093 117.842 34.2362 119.298C35.061 119.772 35.9735 120 36.8684 120C38.6934 120 40.4658 119.052 41.4309 117.368L48.8011 104.593L60.3828 111.279C60.6284 111.419 60.9092 111.489 61.1724 111.489C61.6813 111.489 62.1727 111.244 62.4885 110.84C62.7869 110.436 62.8921 109.91 62.7693 109.419L57.4523 89.6068L68.4724 70.5146L79.4926 89.5893L74.1931 109.383C74.0527 109.875 74.158 110.419 74.4563 110.822C74.7722 111.226 75.246 111.472 75.7724 111.472C76.0532 111.472 76.3515 111.401 76.5972 111.244L88.1438 104.575L95.5315 117.368C96.5142 119.052 98.269 120 100.094 120C100.989 120 101.901 119.772 102.726 119.298C105.236 117.842 106.113 114.63 104.656 112.103L97.2687 99.3109L108.798 92.6602C109.377 92.3443 109.71 91.6775 109.64 91.0282C109.552 90.3614 109.079 89.8174 108.429 89.6419L88.6175 84.3424L77.5974 65.2502H99.6377L114.132 79.7448C114.448 80.0607 114.869 80.2362 115.308 80.2362C116.203 80.2362 116.94 79.4992 116.94 78.5867V65.2502H131.698C134.611 65.2502 136.962 62.8987 136.962 59.9857C136.962 57.0728 134.611 54.7213 131.698 54.7213" fill="#3EBD5F"/>
</svg>
