<svg width="131" height="129" viewBox="0 0 131 129" fill="none" xmlns="http://www.w3.org/2000/svg">
<path d="M121.068 29.4586C120.346 29.4586 119.738 29.203 119.242 28.6917C118.745 28.1804 118.527 27.5789 118.587 26.8872C118.677 25.6241 118.978 24.5263 119.489 23.594C120 22.6617 120.812 21.6992 121.925 20.7068C123.158 19.6241 124.098 18.6839 124.744 17.8863C125.391 17.0899 125.715 16.1805 125.715 15.1579C125.715 13.9248 125.301 12.9023 124.475 12.0902C123.647 11.2782 122.497 10.8722 121.023 10.8722C120.061 10.8722 119.241 11.0749 118.565 11.4803C117.888 11.8869 117.339 12.391 116.918 12.9925C116.497 13.594 115.978 14 115.362 14.2105C114.745 14.4211 114.151 14.406 113.58 14.1654C112.888 13.8647 112.415 13.3684 112.16 12.6767C111.903 11.985 111.956 11.3383 112.317 10.7368C113.189 9.38346 114.362 8.25564 115.835 7.35338C117.309 6.45113 119.038 6 121.023 6C124.181 6 126.61 6.88 128.309 8.64C130.008 10.3988 130.857 12.5113 130.857 14.9774C130.857 16.4812 130.534 17.7672 129.888 18.8355C129.241 19.9026 128.226 21.1128 126.842 22.4662C125.82 23.4286 125.098 24.2105 124.677 24.812C124.256 25.4135 123.97 26.1053 123.82 26.8872C123.7 27.6391 123.384 28.2556 122.873 28.7368C122.361 29.218 121.76 29.4586 121.068 29.4586ZM121.023 40.2857C120.031 40.2857 119.181 39.9326 118.475 39.2265C117.768 38.5191 117.414 37.6692 117.414 36.6767C117.414 35.6842 117.768 34.8343 118.475 34.1269C119.181 33.4208 120.031 33.0677 121.023 33.0677C122.015 33.0677 122.865 33.4208 123.573 34.1269C124.279 34.8343 124.632 35.6842 124.632 36.6767C124.632 37.6692 124.279 38.5191 123.573 39.2265C122.865 39.9326 122.015 40.2857 121.023 40.2857Z" fill="#4BBBEB"/>
<g clip-path="url(#clip0_4604_114606)">
<path d="M91.1952 27.0619L84.7815 22.2516V12.4531C84.7815 11.4679 83.9851 10.6715 82.9999 10.6715C82.0147 10.6715 81.2183 11.4679 81.2183 12.4531V23.1425C81.2183 23.7037 81.482 24.2329 81.931 24.5678L89.0572 29.9125C89.3778 30.153 89.752 30.2689 90.1244 30.2689C90.6677 30.2689 91.2022 30.0248 91.5514 29.5544C92.1431 28.7686 91.9827 27.6516 91.1952 27.0619Z" fill="#4BBBEB"/>
<path d="M83 0C70.317 0 60 10.317 60 23C60 35.683 70.317 46 83 46C95.683 46 106 35.683 106 23C106 10.317 95.683 0 83 0ZM83 42.4369C72.2839 42.4369 63.5631 33.7161 63.5631 23C63.5631 12.2839 72.2839 3.56311 83 3.56311C93.7179 3.56311 102.437 12.2839 102.437 23C102.437 33.7161 93.7161 42.4369 83 42.4369Z" fill="#4BBBEB"/>
</g>
<g clip-path="url(#clip1_4604_114606)">
<path d="M8.05289 51.0553C6.89696 51.0553 5.80001 51.5526 5.04511 52.4289C4.27843 53.3053 3.93636 54.4539 4.07791 55.6026L12.7828 122.439C13.0423 124.441 14.7526 125.945 16.7578 125.945H54.2429C56.2481 125.945 57.9584 124.441 58.2179 122.439L66.9228 55.6026C67.0761 54.4539 66.7222 53.2934 65.9556 52.4289C65.1889 51.5526 64.0919 51.0553 62.9478 51.0553H8.05289V51.0553ZM54.2429 129H16.7578C13.231 129 10.2232 126.347 9.7632 122.842L1.05833 56.0053C0.798839 53.9803 1.41219 51.9434 2.75684 50.4158C4.1015 48.8882 6.02412 48 8.05289 48H62.9478C64.9766 48 66.911 48.8763 68.2438 50.4158C69.5767 51.9434 70.2018 53.9803 69.9423 56.0053L61.2375 122.842C60.7775 126.359 57.7697 129 54.2429 129Z" fill="#4BBBEB"/>
<path d="M48.5209 121H21.8994C19.796 121 18.0103 119.352 17.7364 117.154L11.0518 63.9871C10.7231 61.3386 11.9699 59 14.5006 59H55.8866C58.4173 59 60.2912 61.3526 59.9626 63.9871L52.6511 117.154C52.3772 119.352 50.6025 121 48.499 121" stroke="#4BBBEB" stroke-width="4" stroke-linecap="round" stroke-dasharray="3 8"/>
<path d="M50.163 123H20.873C18.5587 123 16.594 121.724 16.2927 120.022L11.067 78.5821C10.7054 76.5316 11.7967 75 14.5811 75H56.4187C59.2031 75 60.2946 76.5426 59.933 78.5821L54.7071 120.022C54.4058 121.724 52.4531 123 50.1388 123" fill="#4BBBEB"/>
</g>
<defs>
<clipPath id="clip0_4604_114606">
<rect width="46" height="46" fill="white" transform="translate(60)"/>
</clipPath>
<clipPath id="clip1_4604_114606">
<rect width="69" height="81" fill="white" transform="translate(1 48)"/>
</clipPath>
</defs>
</svg>
