<svg width="151" height="138" viewBox="0 0 151 138" fill="none" xmlns="http://www.w3.org/2000/svg">
<g clip-path="url(#clip0_4604_114605)">
<path d="M61.1148 120.362C45.5813 120.362 32.9806 107.808 32.9806 92.3042C32.9806 76.8005 45.5813 64.2463 61.1148 64.2463C76.6482 64.2463 89.2489 76.8005 89.2489 92.3042C89.2489 107.808 76.6607 120.362 61.1148 120.362V120.362ZM61.3012 49.8331C37.8271 49.8331 18.8017 68.8069 18.8017 92.2174C18.8017 115.628 37.8271 134.602 61.3012 134.602C84.7753 134.602 103.801 115.628 103.801 92.2174C103.801 68.8069 84.7753 49.8331 61.3012 49.8331" fill="#4BBBEB"/>
<path d="M61.0278 68.4725C47.756 68.4725 36.9944 79.2049 36.9944 92.4407C36.9944 105.677 47.756 116.409 61.0278 116.409C74.2996 116.409 85.0611 105.677 85.0611 92.4407C85.0611 79.2049 74.2996 68.4725 61.0278 68.4725" fill="#4BBBEB"/>
<path d="M119.819 54.7162H119.421V70.158C119.421 70.9511 118.775 71.6079 117.967 71.6079C117.159 71.6079 116.513 70.9635 116.513 70.158V54.7162H112.822C112.847 54.8029 112.86 54.9021 112.86 55.0012V70.158C112.86 70.8396 112.238 71.3849 111.468 71.3849C110.697 71.3849 110.076 70.8396 110.076 70.158V55.0012C110.076 54.9021 110.089 54.8029 110.113 54.7162H109.741C107.988 54.7162 106.559 56.2529 106.559 58.1491V76.7387C106.559 78.6348 107.988 80.1716 109.741 80.1716H111.704V126.274C111.704 127.984 113.27 129.372 115.196 129.372C117.122 129.372 118.688 127.984 118.688 126.274V80.1716H119.819C121.571 80.1716 123 78.6348 123 76.7387V58.1491C123 56.2529 121.571 54.7162 119.819 54.7162Z" fill="#4BBBEB"/>
<path d="M20.2059 67.5675C20.2059 59.2146 15.6826 52.4355 10.1029 52.4355C4.52334 52.4355 0 59.2146 0 67.5675C0 74.0986 2.75874 79.6631 6.62346 81.7823C6.62346 81.8691 6.61103 81.9559 6.61103 82.055V128.207C6.61103 129.917 8.1768 131.305 10.1029 131.305C12.0291 131.305 13.5949 129.917 13.5949 128.207V82.055C13.5949 81.9682 13.5949 81.8691 13.5824 81.7823C17.4472 79.6631 20.2059 74.0986 20.2059 67.5675" fill="#4BBBEB"/>
</g>
<path d="M141.068 29.4586C140.346 29.4586 139.738 29.203 139.242 28.6917C138.745 28.1804 138.527 27.5789 138.587 26.8872C138.677 25.6241 138.978 24.5263 139.489 23.594C140 22.6617 140.812 21.6992 141.925 20.7068C143.158 19.6241 144.098 18.6839 144.744 17.8863C145.391 17.0899 145.715 16.1805 145.715 15.1579C145.715 13.9248 145.301 12.9023 144.475 12.0902C143.647 11.2782 142.497 10.8722 141.023 10.8722C140.061 10.8722 139.241 11.0749 138.565 11.4803C137.888 11.8869 137.339 12.391 136.918 12.9925C136.497 13.594 135.978 14 135.362 14.2105C134.745 14.4211 134.151 14.406 133.58 14.1654C132.888 13.8647 132.415 13.3684 132.16 12.6767C131.903 11.985 131.956 11.3383 132.317 10.7368C133.189 9.38346 134.362 8.25564 135.835 7.35338C137.309 6.45113 139.038 6 141.023 6C144.181 6 146.61 6.88 148.309 8.64C150.008 10.3988 150.857 12.5113 150.857 14.9774C150.857 16.4812 150.534 17.7672 149.888 18.8355C149.241 19.9026 148.226 21.1128 146.842 22.4662C145.82 23.4286 145.098 24.2105 144.677 24.812C144.256 25.4135 143.97 26.1053 143.82 26.8872C143.7 27.6391 143.384 28.2556 142.873 28.7368C142.361 29.218 141.76 29.4586 141.068 29.4586ZM141.023 40.2857C140.031 40.2857 139.181 39.9326 138.475 39.2265C137.768 38.5191 137.414 37.6692 137.414 36.6767C137.414 35.6842 137.768 34.8343 138.475 34.1269C139.181 33.4208 140.031 33.0677 141.023 33.0677C142.015 33.0677 142.865 33.4208 143.573 34.1269C144.279 34.8343 144.632 35.6842 144.632 36.6767C144.632 37.6692 144.279 38.5191 143.573 39.2265C142.865 39.9326 142.015 40.2857 141.023 40.2857Z" fill="#4BBBEB"/>
<g clip-path="url(#clip1_4604_114605)">
<path d="M111.195 27.0619L104.782 22.2516V12.4531C104.782 11.4679 103.985 10.6715 103 10.6715C102.015 10.6715 101.218 11.4679 101.218 12.4531V23.1425C101.218 23.7037 101.482 24.2329 101.931 24.5678L109.057 29.9125C109.378 30.153 109.752 30.2689 110.124 30.2689C110.668 30.2689 111.202 30.0248 111.551 29.5544C112.143 28.7686 111.983 27.6516 111.195 27.0619Z" fill="#4BBBEB"/>
<path d="M103 0C90.317 0 80 10.317 80 23C80 35.683 90.317 46 103 46C115.683 46 126 35.683 126 23C126 10.317 115.683 0 103 0ZM103 42.4369C92.2839 42.4369 83.5631 33.7161 83.5631 23C83.5631 12.2839 92.2839 3.56311 103 3.56311C113.718 3.56311 122.437 12.2839 122.437 23C122.437 33.7161 113.716 42.4369 103 42.4369Z" fill="#4BBBEB"/>
</g>
<defs>
<clipPath id="clip0_4604_114605">
<rect width="123" height="92" fill="white" transform="translate(0 46)"/>
</clipPath>
<clipPath id="clip1_4604_114605">
<rect width="46" height="46" fill="white" transform="translate(80)"/>
</clipPath>
</defs>
</svg>
