<svg width="160" height="120" viewBox="0 0 160 120" fill="none" xmlns="http://www.w3.org/2000/svg">
<path d="M41.7349 69.7912H17.301V13.2103C17.301 9.22823 14.0727 6 10.0906 6H7.21034C3.22822 6 0 9.22823 0 13.2103V111.41H17.301V81.5636H60.853L41.7349 69.7912Z" fill="#4BBBEB"/>
<path d="M152.79 32.1544H149.909C145.927 32.1544 142.699 35.3826 142.699 39.3647V65.6931H138.272C138.33 65.4224 138.388 65.1518 138.388 64.8812V41.8004C138.388 39.906 136.861 38.3788 134.967 38.3788C133.072 38.3788 131.545 39.906 131.545 41.8004V49.2427H58.1079C54.1258 49.2427 48.2299 49.0687 48.2299 53.94V57.0523C48.1913 60.9957 51.3615 64.2239 55.305 64.2819L36.6122 64.3786C37.6947 64.108 38.7772 63.702 39.8018 63.1028C45.8716 59.6232 47.9786 51.891 44.4991 45.8211C41.0196 39.7513 33.2873 37.6443 27.2175 41.1238C21.1477 44.584 19.0406 52.3162 22.5201 58.3861C24.9558 62.6388 29.4985 64.9392 34.0799 64.7265C30.523 65.8091 27.9134 69.1146 27.9521 73.0387C27.9714 77.8134 31.8762 81.6602 36.6509 81.6409L88.1091 81.3896C89.6556 81.3896 142.718 81.3896 142.718 81.3896V113.053H160V39.3647C160 35.3826 156.772 32.1544 152.79 32.1544" fill="#4BBBEB"/>
</svg>
