<svg width="117" height="120" viewBox="0 0 117 120" fill="none" xmlns="http://www.w3.org/2000/svg">
<g clip-path="url(#clip0_3218_848649)">
<path d="M80.6576 111.509C79.63 111.509 81.7262 69.9549 82.7538 65.8447" stroke="#4BBBEB" stroke-width="5" stroke-miterlimit="10" stroke-linecap="round"/>
<path d="M48.582 5.90186C27.5298 9.49413 9.96299 25.5155 3.79776 46.4691C2.67158 50.4723 2.05505 56.0211 2.05505 62.3918C2.05505 78.6187 7.80927 91.6643 20.0329 102.967C37.2873 118.989 62.5565 122.482 84.3321 111.903C91.3193 108.615 101.587 99.1694 106.108 92.1822C115.454 77.5993 117.402 57.6733 111.138 41.1341" stroke="#4BBBEB" stroke-width="5" stroke-miterlimit="10" stroke-linecap="round"/>
<path d="M47.4229 27.7272C44.2416 27.7272 42.7784 27.6368 38.9971 31.788C34.1717 36.6134 33.9662 38.2574 31.5001 46.4777C29.9629 51.5086 27.5955 57.9779 26.1569 60.6495C23.1812 66.6092 23.5922 68.5575 27.8996 68.5575H30.9823V76.7778C30.9823 84.2747 31.2864 85.3022 33.547 87.5628C35.7007 89.8234 36.9338 90.1275 44.1265 90.1275C54.8047 90.1275 55.0102 90.3331 54.0895 103.173C53.6785 108.722 53.1689 113.547 52.9634 113.851" stroke="#4BBBEB" stroke-width="5" stroke-miterlimit="10" stroke-linecap="round"/>
<path d="M63.9211 3.88811C54.6732 8.0969 50.6699 18.0599 54.4677 26.8967C55.1829 28.4339 62.1702 36.1446 69.9794 44.0525L84.3568 58.2243L97.4024 45.0801C112.396 30.0862 114.764 26.7981 114.764 20.7397C114.764 12.9304 111.476 7.59546 104.291 3.89633C99.1533 1.33159 94.5335 1.43024 88.7793 4.40599L83.954 6.76521L79.1286 4.40599C73.3744 1.43024 69.4698 1.32337 63.9293 3.89633L63.9211 3.88811Z" stroke="#4BBBEB" stroke-width="5" stroke-linecap="round" stroke-linejoin="round"/>
<path d="M39.852 45.3018C39.852 45.3018 41.7262 47.4308 44.8088 47.4308C47.8914 47.4308 49.6095 45.3018 49.6095 45.3018" stroke="#4BBBEB" stroke-width="3" stroke-miterlimit="10" stroke-linecap="round"/>
<path d="M32.2565 77.9614C32.2565 77.9614 35.487 83.4197 42.762 79.6384" stroke="#4BBBEB" stroke-width="3" stroke-miterlimit="10" stroke-linecap="round"/>
</g>
<defs>
<clipPath id="clip0_3218_848649">
<rect width="116.819" height="120" fill="white"/>
</clipPath>
</defs>
</svg>
