<svg width="160" height="83" viewBox="0 0 160 83" fill="none" xmlns="http://www.w3.org/2000/svg">
<path d="M118.599 73.6897C112.881 73.6897 108.22 69.7978 108.22 64.993C108.22 60.1882 112.881 56.2963 118.599 56.2963C124.316 56.2963 128.977 60.2042 128.977 64.993C128.977 69.7818 124.316 73.6897 118.599 73.6897V73.6897ZM71.2713 8.88889H90.026C92.4605 8.88889 96.2563 10.5065 97.6977 12.1562L110.511 26.9229H71.2873V8.88889H71.2713ZM44.3003 73.6416C38.5666 73.6416 33.9219 69.7337 33.9219 64.9449C33.9219 60.1562 38.5826 56.2482 44.3003 56.2482C50.018 56.2482 54.6787 60.1562 54.6787 64.9449C54.6787 69.7337 50.018 73.6416 44.3003 73.6416ZM42.4905 12.044C43.3714 10.4585 46.2863 8.88889 48.3844 8.88889H60.6527V26.9229H34.2262L42.4745 12.044H42.4905ZM152.088 31.2633L125.726 27.6757C125.229 27.5956 124.669 27.5155 124.092 27.4354L106.298 6.93494C102.871 2.97898 95.8719 0 90.026 0H48.3684C42.1381 0 35.4595 3.57157 32.8328 8.31231L22.5185 26.9389H11.996C6.98298 26.9389 2.91491 30.3503 2.91491 34.5465V47.6476C1.21722 48.8328 0 50.9469 0 54.0861V57.5455C0 61.7417 4.06807 65.1532 9.08108 65.1532H23.2873C23.4314 74.7628 32.7848 82.5465 44.3003 82.5465C55.8158 82.5465 65.1692 74.7628 65.3133 65.1532H97.6176C97.7137 74.7788 107.099 82.5946 118.615 82.5946C130.13 82.5946 139.516 74.7788 139.628 65.1532H150.919C155.932 65.1532 160 61.7417 160 57.5455V39.4154C160 35.5556 156.605 32.048 152.088 31.2472" fill="#3EBD5F"/>
</svg>
