<svg width="160" height="95" viewBox="0 0 160 95" fill="none" xmlns="http://www.w3.org/2000/svg">
<path d="M67.6834 65.1904H75.6642C76.0656 65.1904 76.3867 65.5116 76.3867 65.913V69.0443C76.3867 69.4458 76.0656 69.7669 75.6642 69.7669H67.6834C67.282 69.7669 66.9608 69.4458 66.9608 69.0443V65.913C66.9608 65.5116 67.282 65.1904 67.6834 65.1904Z" fill="#2AB3DE"/>
<path d="M109.065 65.5913H153.304C156.869 65.5913 159.936 63.4395 160 59.8747C160 59.1842 159.92 58.5098 159.727 57.8835C158.924 55.2179 156.451 53.2749 153.529 53.2749H109.081V52.0064L148.005 51.8297C151.586 51.8297 154.476 49.2605 154.476 45.6796C154.476 42.0987 151.57 39.2083 148.005 39.2083H95.3672C95.3672 39.0959 95.3672 38.9674 95.3672 38.855C95.3672 37.2171 96.7 35.8683 98.3379 35.8683L112.597 35.8201C117.029 35.8201 120.562 31.9662 120.048 27.4219C119.614 23.584 116.226 20.7739 112.356 20.7739L91.1601 20.8382C86.2464 20.8382 81.3487 21.4323 76.5796 22.5563C65.5157 25.1738 56.427 36.077 48.1894 43.8972L29.482 43.1425C30.1404 44.0256 30.7345 44.5716 31.1681 44.9891C34.4439 48.024 40.9794 51.9582 48.6069 53.0019C52.541 53.5479 55.9774 52.9698 60.7305 52.1669C61.0677 52.1027 61.4049 52.0545 61.7582 51.9903C62.0473 50.5612 63.3158 49.4853 64.8253 49.4853H94.8694C96.5876 49.4853 98.0007 50.8984 98.0007 52.6166V72.8815C98.0007 74.5997 96.5876 76.0128 94.8694 76.0128H64.8253C63.1071 76.0128 61.694 74.5997 61.694 72.8815V60.4528C56.989 61.2396 52.5089 61.9461 47.4828 61.2557C37.9284 59.9389 29.8674 55.1376 25.4997 51.075C23.0749 48.8269 21.2283 46.0971 19.8634 42.741L-0.00012207 41.9381V87.0445L24.4077 86.3701L32.244 86.2898L51.4652 86.0329C56.4913 87.8635 70.7666 93.7245 76.0978 94.1902C87.0653 95.1537 98.097 95.2019 109.081 94.3347H140.843C144.424 94.3347 147.314 91.4283 147.314 87.8635C147.314 84.2986 144.408 81.3761 140.843 81.3761H109.081V79.674H147.057C150.622 79.674 153.689 77.474 153.753 73.9092C153.818 70.2801 150.895 67.3095 147.282 67.3095H109.097V65.5592L109.065 65.5913Z" fill="#2AB3DE"/>
<path d="M23.3798 0.0597019C22.6091 -0.181165 21.8062 0.332685 21.6777 1.13558C16.6837 33.8935 22.2237 44.1866 27.4264 49.02C31.473 52.7775 38.9559 57.2255 47.8519 58.4619C52.6051 59.1203 56.7961 58.4138 61.6295 57.5948C67.2016 56.6635 73.5284 55.5876 82.9543 56.0693C87.2417 56.2781 90.8708 57.8839 91.7861 59.9553C92.605 61.818 92.1073 65.4953 90.4694 66.5551C88.5906 67.7594 86.744 68.4981 79.9194 66.8602C79.2128 66.6835 78.6348 66.5711 78.1209 66.4908V69.1725C78.4581 69.2367 78.8435 69.317 79.2931 69.4294C86.4389 71.1476 89.1366 70.5535 91.8985 68.7871C95.0298 66.7638 95.367 61.4969 94.2108 58.8955C92.862 55.8445 88.4943 53.7088 83.0828 53.4359C73.3517 52.9541 66.6075 54.0942 61.1799 54.9935C56.3626 55.7964 52.5569 56.4387 48.2052 55.8445C39.9194 54.7044 32.7897 50.417 29.2249 47.093C26.3987 44.4595 18.8515 37.4583 24.3112 1.55308C24.4075 0.894708 24.0222 0.268454 23.3798 0.0757601V0.0597019Z" fill="#2AB3DE"/>
</svg>
