<svg width="120" height="120" viewBox="0 0 120 120" fill="none" xmlns="http://www.w3.org/2000/svg">
<path d="M120 60C120 75.913 113.679 91.1742 102.426 102.426C91.1742 113.679 75.913 120 60 120C44.087 120 28.8258 113.679 17.5736 102.426C6.32141 91.1742 0 75.913 0 60C0 44.087 6.32141 28.8258 17.5736 17.5736C28.8258 6.32141 44.087 0 60 0C75.913 0 91.1742 6.32141 102.426 17.5736C113.679 28.8258 120 44.087 120 60ZM41.22 45.2475H47.4075C48.4425 45.2475 49.2675 44.4 49.4025 43.3725C50.0775 38.4525 53.4525 34.8675 59.4675 34.8675C64.6125 34.8675 69.3225 37.44 69.3225 43.6275C69.3225 48.39 66.5175 50.58 62.085 53.91C57.0375 57.5775 53.04 61.86 53.325 68.8125L53.3475 70.44C53.3554 70.9321 53.5564 71.4013 53.9072 71.7465C54.2579 72.0916 54.7304 72.2851 55.2225 72.285H61.305C61.8023 72.285 62.2792 72.0875 62.6308 71.7358C62.9825 71.3842 63.18 70.9073 63.18 70.41V69.6225C63.18 64.2375 65.2275 62.67 70.755 58.4775C75.3225 55.005 80.085 51.15 80.085 43.0575C80.085 31.725 70.515 26.25 60.0375 26.25C50.535 26.25 40.125 30.675 39.4125 43.395C39.4022 43.6372 39.4416 43.879 39.5282 44.1054C39.6149 44.3318 39.7469 44.5381 39.9162 44.7116C40.0855 44.8851 40.2885 45.0222 40.5127 45.1143C40.7369 45.2065 40.9776 45.2518 41.22 45.2475ZM58.6575 93.57C63.2325 93.57 66.375 90.615 66.375 86.6175C66.375 82.4775 63.225 79.5675 58.6575 79.5675C54.2775 79.5675 51.09 82.4775 51.09 86.6175C51.09 90.615 54.2775 93.57 58.665 93.57H58.6575Z" fill="#2AB3DE"/>
</svg>
