<svg width="145" height="104" viewBox="0 0 145 104" fill="none" xmlns="http://www.w3.org/2000/svg">
<path d="M50.9947 58.8747C49.088 55.2051 44.5464 53.7403 40.8183 55.5487C39.0851 52.2131 35.1212 50.6372 31.5184 51.8636V36.5871C31.5184 32.5154 28.1813 29.1135 24.0782 29.0031C19.7791 28.8836 16.2167 32.2595 16.2167 36.4838V74.9118L13.228 71.8432C10.3592 68.8985 5.55591 68.6913 2.51955 71.3826C-0.684441 74.222 -0.84411 79.0569 2.10613 82.0957L19.2828 100.059C21.6779 102.563 25.0607 104 28.5629 104H49.2795C56.2936 104 62 98.405 62 91.5278V65.5856C62 60.0595 56.0551 56.4198 50.9947 58.8747ZM56.9118 91.5278C56.9118 95.654 53.4878 99.0111 49.2795 99.0111H28.5629C26.4613 99.0111 24.432 98.1491 22.995 96.646C22.9334 96.5823 5.85604 78.723 5.79442 78.6593C4.81057 77.6486 4.85761 76.0356 5.9309 75.0833C6.94258 74.1875 8.56511 74.2798 9.54764 75.2886L16.9203 82.8583C18.5011 84.4823 21.3042 83.3806 21.3042 81.1362V36.4838C21.3042 35.082 22.4901 33.9504 23.9397 33.99C25.3132 34.027 26.4302 35.1918 26.4302 36.5871C26.4302 64.035 26.3825 51.5934 26.3825 66.4171C26.3825 67.7988 27.53 68.9245 28.9504 68.9102C30.3689 68.9245 31.5184 67.7994 31.5184 66.4171V58.4596C31.745 57.3098 32.7772 56.4393 34.0148 56.4393C35.4174 56.4393 36.5589 57.5586 36.5589 58.9338V66.4171C36.5589 67.7949 37.6978 68.9115 39.103 68.9115C40.5083 68.9115 41.6471 67.7949 41.6471 66.4171V62.2597C41.6471 60.8845 42.7887 59.7652 44.1912 59.7652C45.5938 59.7652 46.7354 60.8845 46.7354 62.2597V66.4171C46.7354 67.7949 47.8742 68.9115 49.2795 68.9115C50.6847 68.9115 51.8236 67.7949 51.8236 66.4171V65.5856C51.8236 64.2104 52.9651 63.0912 54.3677 63.0912C55.7702 63.0912 56.9118 64.2104 56.9118 65.5856V91.5278Z" fill="#4BBBEB"/>
<path d="M131.296 95.2672C130.161 95.2672 132.476 49.3863 133.61 44.8481" stroke="#4BBBEB" stroke-width="5" stroke-miterlimit="10" stroke-linecap="round"/>
<path d="M94.6002 2.76043C91.0877 2.76043 89.4721 2.66059 85.297 7.24414C79.9692 12.572 79.7423 14.3872 77.0194 23.4636C75.3221 29.0183 72.7081 36.1614 71.1197 39.1112C67.8341 45.6915 68.2879 47.8426 73.0439 47.8426H76.4475V56.919C76.4475 65.1966 76.7834 66.3311 79.2794 68.8271C81.6574 71.3231 83.0188 71.6589 90.9606 71.6589C102.751 71.6589 102.978 71.8858 101.961 86.0631C101.507 92.1896 100.945 97.5174 100.718 97.8533" stroke="#4BBBEB" stroke-width="5" stroke-miterlimit="10" stroke-linecap="round"/>
<path d="M86.2408 22.166C86.2408 22.166 88.3102 24.5168 91.7139 24.5168C95.1175 24.5168 97.0145 22.166 97.0145 22.166" stroke="#4BBBEB" stroke-width="3" stroke-miterlimit="10" stroke-linecap="round"/>
<path d="M109.301 11.5934L118.848 22.572C119.64 23.4831 121.053 23.4898 121.853 22.5862L141.873 0" stroke="#4BBBEB" stroke-width="5" stroke-linecap="round"/>
</svg>
