<svg width="103" height="120" viewBox="0 0 103 120" fill="none" xmlns="http://www.w3.org/2000/svg">
<path d="M47.1429 8.57178H4.28571C1.91786 8.57178 0 10.4896 0 12.8575V30.0003H51.4286V12.8575C51.4286 10.4896 49.5107 8.57178 47.1429 8.57178ZM32.1429 19.2861H29.4064C28.665 20.5611 27.2979 21.4289 25.7143 21.4289C24.1307 21.4289 22.7657 20.5611 22.0221 19.2861H19.2857C18.1029 19.2861 17.1429 18.3261 17.1429 17.1432C17.1429 15.9603 18.1029 15.0003 19.2857 15.0003H22.0221C22.7636 13.7253 24.1307 12.8575 25.7143 12.8575C27.2979 12.8575 28.6629 13.7253 29.4064 15.0003H32.1429C33.3257 15.0003 34.2857 15.9603 34.2857 17.1432C34.2857 18.3261 33.3257 19.2861 32.1429 19.2861Z" fill="#2AB3DE"/>
<path d="M80.3569 43H82.4998V55.8571H80.3569V43Z" fill="#144757"/>
<path d="M45.1864 76.6029L30 85.7143H21.4286L6.24214 76.6029C2.37 74.2779 0 70.0929 0 65.5779V30H51.4286V65.5779C51.4286 70.0929 49.0586 74.2779 45.1864 76.6029V76.6029Z" fill="#2AB3DE"/>
<path d="M30.0003 90.0001V85.7144H21.4288V90.0001H17.1431V94.2858H34.286V90.0001H30.0003Z" fill="#144757"/>
<path d="M77.1426 68.5713V102.857C77.1426 107.591 73.3048 111.428 68.5712 111.428H38.5712C33.8376 111.428 29.9998 107.591 29.9998 102.857V94.2856H21.4283V102.857C21.4283 112.324 29.1041 120 38.5712 120H68.5712C78.0383 120 85.7141 112.324 85.7141 102.857V68.5713H77.1426Z" fill="#2AB3DE"/>
<path d="M25.7141 102.857V94.2856H21.4283V102.857C21.4283 112.324 29.1041 120 38.5712 120H42.8569C33.3898 120 25.7141 112.324 25.7141 102.857Z" fill="#2AB3DE"/>
<path d="M90 68.5716H72.8572V60.0001C72.8572 55.2666 76.695 51.4287 81.4286 51.4287C86.1622 51.4287 90 55.2666 90 60.0001V68.5716Z" fill="#144757"/>
<path d="M40.7144 64.2858H10.7144C9.53153 64.2858 8.57153 63.3258 8.57153 62.1429V27.8572C8.57153 26.6744 9.53153 25.7144 10.7144 25.7144H40.7144C41.8972 25.7144 42.8572 26.6744 42.8572 27.8572V62.1429C42.8572 63.3258 41.8972 64.2858 40.7144 64.2858Z" fill="#F8F8F8"/>
<path d="M85.7143 34.2857C95.182 34.2857 102.857 26.6106 102.857 17.1429C102.857 7.67512 95.182 0 85.7143 0C76.2465 0 68.5714 7.67512 68.5714 17.1429C68.5714 26.6106 76.2465 34.2857 85.7143 34.2857Z" fill="#54D0F8"/>
<path d="M96.4284 12.8575L83.5712 25.7146L74.9998 17.1432L79.2855 12.8575L83.5712 17.1432L92.1427 8.57178L96.4284 12.8575Z" fill="#F8F8F8"/>
</svg>
