<svg width="94" height="120" viewBox="0 0 94 120" fill="none" xmlns="http://www.w3.org/2000/svg">
<path d="M71.0115 19.2922C71.0115 29.9375 62.3838 38.5845 51.7192 38.5845C41.0547 38.5845 32.427 29.9568 32.427 19.2922C32.427 8.6277 41.0547 0 51.7192 0C62.3838 0 71.0115 8.6277 71.0115 19.2922Z" fill="#3EBD5F"/>
<path d="M28.0458 29.207C28.2956 36.4896 22.6079 42.6001 15.3253 42.8691C8.04265 43.1189 1.93216 37.4312 1.68236 30.1486C1.43256 22.8659 7.12031 16.7555 14.4029 16.4864C21.6856 16.2366 27.7961 21.9244 28.0651 29.207" fill="#3EBD5F"/>
<path d="M45.1668 82.8565L29.5831 81.2232L28.7376 57.4345L43.3989 55.4554C47.1267 54.9558 49.8745 51.7084 49.74 47.9422C49.5863 43.6571 45.7816 40.4097 41.535 40.9286L11.6936 44.5987C4.60311 46.4626 -0.258383 52.9958 0.0106321 60.3361L0.952188 86.7188C1.14434 92.2144 5.1027 96.8645 10.5022 97.9405L35.5014 100.381C36.8849 100.515 38.0955 101.342 38.7488 102.571L42.6495 110.142C44.1099 112.967 47.0883 114.716 50.2588 114.6C55.9081 114.408 59.6936 108.682 57.6567 103.398L51.6616 87.8333C50.6047 85.0855 48.1067 83.1831 45.186 82.8565" fill="#3EBD5F"/>
<path d="M51.8729 47.8464C52.0459 52.7271 48.5294 56.8777 43.7064 57.531L30.9474 59.2604L31.5046 79.0906L45.3973 80.7239C49.1251 81.1082 52.2957 83.5294 53.6407 87.0266L58.752 100.304C59.2324 97.4797 61.0002 94.828 63.6135 93.4829L76.1996 86.9882L72.1451 74.4789C71.9722 73.8256 72.933 73.5374 73.1443 74.1715L78.4478 88.2179L64.5551 95.3853C61.4998 96.9609 59.9049 100.593 61.1155 103.821C62.5759 107.722 67.0915 109.336 70.6463 107.395L89.2084 97.3068C92.8977 95.2892 94.6079 90.9081 93.2244 86.9305L91.3605 81.5502L81.9642 54.5718C78.1788 47.3468 70.704 42.812 62.5567 42.812H50.2973C51.258 44.2339 51.8537 45.9441 51.9306 47.7888" fill="#3EBD5F"/>
<path d="M71.6263 109.317C70.9346 109.701 70.1852 110.008 69.4166 110.181C65.8233 110.969 62.3453 109.586 60.3085 106.838C60.2316 108.682 59.6744 110.469 58.5983 112.084C56.7344 114.908 53.7176 116.599 50.3165 116.734C50.2012 116.734 50.0667 116.734 49.9514 116.734C46.0507 116.734 42.5342 114.582 40.7472 111.123L36.8465 103.552C36.5391 102.956 35.9434 102.553 35.2901 102.495L25.7208 101.573L21.724 113.909C30.0058 117.81 39.2292 120 48.9522 120C61.692 120 73.5863 116.253 83.5783 109.816L81.6567 103.898L71.6455 109.336L71.6263 109.317Z" fill="#3EBD5F"/>
</svg>
