<svg width="160" height="107" viewBox="0 0 160 107" fill="none" xmlns="http://www.w3.org/2000/svg">
<path d="M91.1279 64.4349H114.243V97.1785H91.1279V64.4349V64.4349ZM21.9051 84.025C21.186 84.1127 20.4319 84.1477 19.6427 84.1477C-5.22635 84.1477 11.049 44.0557 19.6427 44.0557C20.3617 44.0557 21.1159 44.3363 21.9051 44.8449C13.4693 50.2466 2.17472 81.8152 21.9051 84.025ZM143.602 64.4349L102.686 23.5186L61.7516 64.4349V97.1785H25.9213V90.0055C58.4018 85.9542 34.3922 36.3038 21.4842 36.3038C8.57613 36.3038 -15.4335 85.9542 17.047 90.0055V97.1785H0V106.842H160V97.2136H143.619V64.4349H143.602Z" fill="#3EBD5F"/>
<path d="M102.686 0L76.659 26.0265V9.43549H61.7516V40.9339L45.371 57.3145L53.2983 65.2417L102.686 15.8544L152.073 65.2417L160 57.3145L102.686 0Z" fill="#3EBD5F"/>
</svg>
