<svg width="117" height="120" viewBox="0 0 117 120" fill="none" xmlns="http://www.w3.org/2000/svg">
<g clip-path="url(#clip0_2766_290831)">
<path d="M115.57 114.72L86.57 118.16L27.8 113.44C27.8 113.44 27.74 113.44 27.72 113.44C27.52 113.44 27.33 113.44 27.14 113.44C5.75 113.44 2.15 100.37 1.84 99.0499C1.86 98.1199 2.16 90.3099 7.04 86.2499C9.79 83.9599 13.55 83.2299 18.22 84.0799C20.17 84.8199 39.95 92.2799 58.13 97.7699C58.16 97.7799 58.2 97.7899 58.23 97.7999C71.34 101.75 83.59 104.67 87.7 103.3C97.22 100.11 111.84 97.9099 111.99 97.8899C112.49 97.8199 112.84 97.3499 112.76 96.8399C112.69 96.3399 112.21 95.9899 111.71 96.0699C111.62 96.0799 106.12 96.9099 99.65 98.2799C100.61 75.4199 88.81 63.7899 84.01 60.0399L115.79 55.8299C116.29 55.7599 116.65 55.2999 116.58 54.7999C116.51 54.2999 116.06 53.9399 115.55 54.0099L83.93 58.1999C86.99 54.8799 87.56 50.5699 88.11 46.3799C88.59 42.6899 89.05 39.2099 91.07 36.2999C91.16 36.1699 91.23 36.0199 91.28 35.8699C91.9 33.8399 93.09 32.6899 94.75 31.0799C97.07 28.8299 99.96 26.0299 102.25 19.6799C102.56 18.8299 103.05 17.8099 103.57 16.7399C104.45 14.9299 105.36 13.0699 105.69 11.3799C105.76 11.0299 105.83 10.6899 105.9 10.3799C106.53 7.44995 106.79 5.41995 104.39 0.839945C104 0.0899455 103.07 -0.200054 102.32 0.189946C101.57 0.579946 101.28 1.50995 101.67 2.25995C103.67 6.07995 103.41 7.29995 102.89 9.72995C102.82 10.0599 102.74 10.4099 102.67 10.7899C102.42 12.0899 101.6 13.7699 100.8 15.3999C100.24 16.5499 99.71 17.6399 99.35 18.6399C97.31 24.3199 94.81 26.7399 92.61 28.8699C90.9 30.5299 89.28 32.0899 88.41 34.7299C86.07 38.2099 85.55 42.1499 85.06 45.9699C84.46 50.5499 83.94 54.4999 80.51 57.1699C79.64 57.8499 78.92 58.7299 78.37 59.7999C76.25 63.9099 71.25 68.7699 70.06 68.3499C70.03 68.3299 69.95 68.2299 69.86 67.9999C70.21 67.3699 70.55 66.7499 70.89 66.1299C73.25 61.8299 75.47 57.7599 79.67 53.5599C80.27 52.9599 80.27 51.9899 79.67 51.3899C79.07 50.7899 78.1 50.7899 77.5 51.3899C72.99 55.8999 70.56 60.35 68.2 64.66C67.31 66.28 66.39 67.9599 65.37 69.6199C64.43 71.1499 63.4 72.5699 62.2 72.6799L62.28 69.9199C62.35 69.7399 62.42 69.5599 62.49 69.3899L62.56 69.1999C62.6 69.0899 66.47 58.0799 70.74 53.5099C71.32 52.8899 71.29 51.9199 70.67 51.3399C70.05 50.7599 69.08 50.7999 68.5 51.4099C63.79 56.4499 59.83 67.6999 59.68 68.1299L59.62 68.2699C59.59 68.3399 59.57 68.3999 59.54 68.4599C59.38 68.6699 59.27 68.9199 59.24 69.1999C59.03 69.6799 58.81 70.1099 58.51 70.4599C57.78 71.3199 57.44 71.5199 57.31 71.5599C56.81 71.3999 56.48 70.5599 56.4 69.6899C56.68 69.3099 56.94 68.8799 57.16 68.3899C58.42 65.6499 59.17 62.7399 59.91 59.9199C60.84 56.3399 61.72 52.9599 63.52 49.9999C63.96 49.2799 63.73 48.3299 63.01 47.8899C62.29 47.4499 61.34 47.6799 60.9 48.3999C58.86 51.7399 57.88 55.5099 56.94 59.1499C56.21 61.9599 55.52 64.6199 54.38 67.1099C54.19 67.5299 53.97 67.8499 53.78 68.0699C53.76 68.0899 53.74 68.1099 53.72 68.1299C53.55 68.3099 53.41 68.4199 53.35 68.4299C53.3 68.3999 53.07 68.1099 52.93 67.3399C52.24 63.3599 53.46 59.3899 54.76 55.1899C55.67 52.2499 56.61 49.2099 56.88 46.0599C56.95 45.2199 56.33 44.4699 55.49 44.3999C54.65 44.3199 53.9 44.9499 53.83 45.7899C53.72 47.0299 53.48 48.2799 53.18 49.5299C52.2 49.4399 51.16 49.3799 50.08 49.3299C43.96 49.0199 39.47 48.4799 38.44 44.5799C43.62 46.6799 48.85 46.4599 54.41 43.8999C55.74 43.4899 57.12 43.1899 58.58 42.8599C62.2 42.0599 65.95 41.2299 68.94 38.7099C69.07 38.5999 69.18 38.4699 69.27 38.3199L74.63 29.3599C75.97 27.5299 76.63 25.4299 77.28 23.3599C77.84 21.5799 78.16 20.4699 78.39 19.6699C78.7167 18.5233 79.3433 17.1066 80.27 15.4199C81.12 13.8699 82.41 11.5199 84.55 7.44995C84.94 6.69995 84.66 5.76995 83.91 5.37995C83.16 4.97995 82.23 5.26995 81.84 6.01995C79.71 10.0699 78.43 12.3999 77.58 13.9399C76.09 16.6599 76.03 16.7699 75.44 18.8199C75.21 19.6099 74.9 20.6899 74.34 22.4599C73.74 24.3599 73.18 26.1499 72.11 27.5899C72.08 27.6299 72.05 27.6699 72.02 27.7199L66.76 36.5199C64.37 38.4299 61.23 39.1299 57.9 39.8599C56.41 40.1899 54.87 40.5299 53.39 40.9899C53.32 41.0099 53.26 41.0299 53.2 41.0599C48.14 43.4099 43.62 43.5399 38.99 41.4699C38.91 41.4299 38.82 41.3999 38.73 41.3799C37.71 41.1299 36.7 41.3399 36.01 41.9399C35.42 42.4599 35.13 43.2299 35.22 44.0799C36.18 51.6899 44.12 52.0899 49.92 52.3799C50.77 52.4199 51.58 52.4699 52.35 52.5199C52.18 53.0999 52 53.6799 51.82 54.2599C50.88 57.3199 49.91 60.4499 49.7 63.6699C45.28 64.1099 40.7 62.7199 35.87 61.2499C26.92 58.5199 16.78 55.4299 3.62 61.8999C3.16 62.1199 2.98 62.6799 3.2 63.1299C3.42 63.5899 3.98 63.7699 4.43 63.5499C16.94 57.3999 26.71 60.3799 35.33 63.0099C37.83 63.7699 40.27 64.5099 42.68 64.9999C44.38 67.1599 56.6 83.0699 57.42 95.5699C43.01 91.1599 27.2 85.4799 18.77 82.2799C18.72 82.2599 18.67 82.2499 18.61 82.2399C13.33 81.2599 9.03 82.1099 5.82 84.7899C0.02 89.6999 0 98.7599 0 99.1399C0 99.1999 0 99.2599 0.02 99.3199C0.05 99.4799 3.52 115.28 27.15 115.28C27.33 115.28 27.51 115.28 27.7 115.28L86.52 120C86.52 120 86.57 120 86.59 120C86.63 120 86.66 120 86.7 120L115.79 116.55C116.29 116.49 116.66 116.03 116.6 115.53C116.54 115.03 116.09 114.66 115.58 114.72H115.57ZM45.37 65.4799C46.25 65.5799 47.14 65.6499 48.02 65.6499C48.58 65.6499 49.14 65.6199 49.71 65.5699C49.73 66.3399 49.8 67.1099 49.94 67.8899C50.35 70.2399 51.53 71.0799 52.44 71.3799C52.74 71.4799 53.05 71.5199 53.35 71.5199C53.46 71.5199 53.56 71.4999 53.67 71.4899C54.12 72.9199 55.05 74.1999 56.69 74.5799C56.91 74.6299 57.13 74.66 57.34 74.66C58.08 74.66 58.75 74.3699 59.31 73.9799C59.36 74.1099 59.41 74.2499 59.48 74.3799C59.96 75.2599 60.93 75.7699 62.09 75.7699C62.14 75.7699 62.19 75.7699 62.24 75.7699C65.3 75.6499 67.13 72.6699 68.01 71.2399C68.09 71.0999 68.17 70.9699 68.26 70.8299C68.85 71.2699 69.47 71.3999 69.9 71.4299C69.98 71.4299 70.05 71.4299 70.13 71.4299C74.15 71.4299 79.59 64.1799 81.13 61.2099C81.26 60.9499 81.41 60.7199 81.57 60.4999C84.29 62.3099 99.07 73.3999 97.82 98.6799C94.18 99.4899 90.37 100.46 87.14 101.55C83.57 102.74 72.17 100.05 59.34 96.1899C58.94 84.5799 49.14 70.4799 45.39 65.4899L45.37 65.4799Z" fill="#35AAD0"/>
<path d="M82.06 74.5401C83.3523 74.5401 84.4 74.1103 84.4 73.5801C84.4 73.0499 83.3523 72.6201 82.06 72.6201C80.7676 72.6201 79.72 73.0499 79.72 73.5801C79.72 74.1103 80.7676 74.5401 82.06 74.5401Z" fill="#35AAD0"/>
</g>
<defs>
<clipPath id="clip0_2766_290831">
<rect width="116.6" height="120" fill="white"/>
</clipPath>
</defs>
</svg>
