<svg width="89" height="120" viewBox="0 0 89 120" fill="none" xmlns="http://www.w3.org/2000/svg">
<path d="M44.3804 91.0017C44.3804 100.345 42.2725 105.472 38.4175 109.308C34.5814 113.163 30.0237 115.271 24.5735 115.271C19.1233 115.271 14.5656 113.163 10.7106 109.308C6.8745 105.453 4.74759 100.345 4.74759 91.0017V73.3027C4.74759 73.3027 4.7096 73.2078 4.7096 73.1698V25.6939C4.63364 25.1432 4.61465 24.6115 4.61465 24.1177C4.61465 18.3257 7.78604 13.1413 12.2488 9.68508C13.3692 8.81152 14.9834 9.02042 15.8569 10.1598C16.7305 11.2803 16.5216 12.8944 15.4012 13.768C11.9449 16.4456 9.74205 20.3007 9.76104 24.1367C9.76104 24.5355 9.78003 24.9153 9.81801 25.2761V25.599L9.85599 62.6112H44.3804V91.0207V91.0017ZM24.5545 0C10.6726 0 0 11.2423 0 23.4341V93.2236C0 108.758 10.6726 120 24.5545 120C38.4175 120 49.109 108.758 49.109 93.2236V23.4341C49.109 11.2423 38.4175 0 24.5545 0" fill="#3EBD5F"/>
<path d="M74.9169 62.63C68.5172 58.1483 61.035 56.4202 53.8186 57.1608V82.342L84.2222 103.63C92.0652 89.7672 88.2292 71.9543 74.9169 62.63ZM53.8186 93.2425C53.8186 102.738 50.1725 111.112 44.2095 116.847C56.99 122.564 72.2962 119.05 81.2977 107.903L53.8186 88.6658V93.2425V93.2425Z" fill="#3EBD5F"/>
</svg>
