<svg width="110" height="120" viewBox="0 0 110 120" fill="none" xmlns="http://www.w3.org/2000/svg">
<path d="M8.99166 21.0225C7.51798 21.0225 6.11948 21.6541 5.15708 22.7669C4.17963 23.8797 3.74354 25.3383 3.92399 26.797L15.0217 111.669C15.3526 114.21 17.533 116.12 20.0894 116.12H67.8789C70.4353 116.12 72.6157 114.21 72.9465 111.669L84.0443 26.797C84.2398 25.3383 83.7886 23.8646 82.8112 22.7669C81.8338 21.6541 80.4353 21.0225 78.9766 21.0225H8.99166V21.0225ZM67.8789 120H20.0894C15.5932 120 11.7586 116.632 11.1721 112.18L0.0743691 27.3082C-0.256458 24.7368 0.525498 22.1503 2.23978 20.2105C3.95407 18.2706 6.4052 17.1428 8.99166 17.1428H78.9766C81.5631 17.1428 84.0292 18.2556 85.7285 20.2105C87.4277 22.1503 88.2247 24.7368 87.8939 27.3082L76.7962 112.18C76.2097 116.647 72.3751 120 67.8789 120Z" fill="#4BBBEB"/>
<path d="M60.7702 109.714H26.7754C24.0894 109.714 21.8091 107.641 21.4593 104.876L12.9233 37.9884C12.5036 34.6564 14.0957 31.7144 17.3273 31.7144H70.176C73.4076 31.7144 75.8005 34.6741 75.3808 37.9884L66.0443 104.876C65.6946 107.641 63.4282 109.714 60.7422 109.714" stroke="#4BBBEB" stroke-width="4" stroke-linecap="round" stroke-dasharray="3 8"/>
<path d="M62.2669 112.457H25.5497C22.6486 112.457 20.1856 110.829 19.8079 108.657L13.2571 55.7714C12.8038 53.1546 14.1719 51.2 17.6623 51.2H70.109C73.5994 51.2 74.9677 53.1685 74.5144 55.7714L67.9634 108.657C67.5856 110.829 65.1378 112.457 62.2367 112.457" fill="#4BBBEB"/>
<path d="M99.9253 23.4586C99.2035 23.4586 98.5948 23.203 98.0992 22.6917C97.6023 22.1804 97.384 21.5789 97.4442 20.8872C97.5344 19.6241 97.8351 18.5263 98.3464 17.594C98.8576 16.6617 99.6696 15.6992 100.782 14.7068C102.015 13.6241 102.955 12.6839 103.601 11.8863C104.248 11.0899 104.572 10.1805 104.572 9.15789C104.572 7.92481 104.158 6.90226 103.332 6.09023C102.504 5.2782 101.354 4.87218 99.8801 4.87218C98.9178 4.87218 98.0986 5.07489 97.4225 5.4803C96.7452 5.88692 96.1961 6.39098 95.7751 6.99248C95.354 7.59398 94.8355 8 94.2196 8.21053C93.6025 8.42105 93.0083 8.40601 92.4369 8.16541C91.7452 7.86466 91.2718 7.36842 91.0168 6.67669C90.7605 5.98496 90.8129 5.33835 91.1737 4.73684C92.0459 3.38346 93.2188 2.25564 94.6924 1.35338C96.166 0.451128 97.8953 0 99.8801 0C103.038 0 105.467 0.88 107.166 2.64C108.865 4.3988 109.714 6.51128 109.714 8.97744C109.714 10.4812 109.391 11.7672 108.745 12.8355C108.098 13.9026 107.083 15.1128 105.699 16.4662C104.677 17.4286 103.955 18.2105 103.534 18.812C103.113 19.4135 102.827 20.1053 102.677 20.8872C102.557 21.6391 102.241 22.2556 101.73 22.7368C101.218 23.218 100.617 23.4586 99.9253 23.4586ZM99.8801 34.2857C98.8877 34.2857 98.0384 33.9326 97.3323 33.2265C96.6249 32.5191 96.2713 31.6692 96.2713 30.6767C96.2713 29.6842 96.6249 28.8343 97.3323 28.1269C98.0384 27.4208 98.8877 27.0677 99.8801 27.0677C100.873 27.0677 101.722 27.4208 102.43 28.1269C103.136 28.8343 103.489 29.6842 103.489 30.6767C103.489 31.6692 103.136 32.5191 102.43 33.2265C101.722 33.9326 100.873 34.2857 99.8801 34.2857Z" fill="#4BBBEB"/>
</svg>
