<svg width="160" height="116" viewBox="0 0 160 116" fill="none" xmlns="http://www.w3.org/2000/svg">
<g clip-path="url(#clip0_2787_146672)">
<path d="M154.038 92.5208L145.776 74.792L26.9995 74.8997V92.5208H154.038Z" fill="white"/>
<path d="M35.5946 2.53547C35.5946 2.53547 10.6411 0.518833 7.29308 16.2408C3.94506 31.9628 2.44727 56.1723 2.44727 56.1723V101.605C2.44727 101.605 3.91569 112.041 19.0209 112.785C31.8452 113.412 123.035 112.971 150.044 112.785C152.041 112.775 153.952 111.974 155.359 110.557C156.766 109.141 157.555 107.224 157.553 105.228V100.147C157.553 98.0698 156.727 96.0777 155.259 94.609C153.79 93.1403 151.798 92.3152 149.721 92.3152H35.5163C33.6599 92.3152 31.8795 91.5778 30.5669 90.2651C29.2542 88.9524 28.5168 87.1721 28.5168 85.3157V81.7915C28.5168 79.9351 29.2542 78.1547 30.5669 76.8421C31.8795 75.5294 33.6599 74.792 35.5163 74.792H149.329C149.948 74.792 150.56 74.6702 151.131 74.4335C151.703 74.1969 152.222 73.85 152.659 73.4128C153.096 72.9755 153.443 72.4565 153.68 71.8852C153.916 71.3139 154.038 70.7016 154.038 70.0832V56.1723L147.508 16.9163C146.834 12.8755 144.748 9.20489 141.622 6.55732C138.496 3.90976 134.532 2.4569 130.436 2.45716L35.5946 2.53547Z" fill="white"/>
<path d="M79.1875 22.9956C72.9712 22.9956 72.9712 22.9956 72.9712 18.0226V6.71567C72.9712 5.66819 74.4298 5.05145 75.5165 5.63882C80.098 8.12536 91.0427 12.9614 109.643 15.0857C120.117 16.199 130.474 18.2233 140.597 21.1356C141.674 21.4587 141.39 22.7313 140.245 22.7313L79.1875 22.9956Z" fill="#D8F5DD"/>
<path d="M159.794 98.091H159.843L159.677 97.6407C159.496 96.9259 159.236 96.2332 158.904 95.5751L151.914 76.7499C153.259 76.2289 154.415 75.3136 155.231 74.1239C156.047 72.9342 156.484 71.5257 156.486 70.0832V56.1723C156.496 56.0387 156.496 55.9045 156.486 55.7709L149.956 16.5149C149.199 11.8916 146.819 7.68938 143.244 4.66261C139.668 1.63583 135.13 -0.0172917 130.445 -1.45716e-05V-1.45716e-05L35.6827 0.0880912C31.1561 -0.182213 26.6136 0.146955 22.1732 1.06704C12.4522 3.23053 6.4806 8.29171 4.89469 15.7318C1.54667 31.4439 0.0684563 55.0171 -7.03806e-05 56.0156V101.605C-0.00974217 101.723 -0.00974216 101.841 -7.03801e-05 101.958C0.459759 104.377 1.55441 106.631 3.17174 108.488C5.5408 111.326 10.1908 114.802 18.835 115.223C23.8864 115.477 41.0474 115.556 61.6739 115.556C93.392 115.556 133.304 115.36 149.985 115.272C152.627 115.251 155.154 114.188 157.016 112.315C158.879 110.441 159.926 107.909 159.931 105.267V100.147C159.955 99.4587 159.91 98.7699 159.794 98.091ZM130.436 4.89475C133.96 4.87852 137.374 6.11946 140.066 8.39463C142.757 10.6698 144.549 13.8301 145.12 17.3079L146.598 26.2261L72.4424 26.8135C71.3461 26.7902 70.2983 26.3571 69.5056 25.5996C69.1149 25.2167 68.8047 24.7598 68.5929 24.2555C68.3811 23.7512 68.272 23.2097 68.2721 22.6627L68.5951 4.9437L130.436 4.89475ZM16.6421 48.9476C16.6421 48.9476 9.37829 48.9476 5.2569 51.8159C5.85407 44.0822 7.31271 28.0959 9.72093 16.7792C12.5795 3.38716 35.1052 4.97306 35.438 5.0318C35.5065 5.0318 35.6044 5.0318 35.6338 5.0318H63.7395L63.4165 22.7019C63.4395 25.0868 64.3985 27.3672 66.0867 29.0518C67.775 30.7364 70.0575 31.6904 72.4424 31.7083H72.5109L147.381 31.1209L150.602 50.465C147.088 48.3896 142.144 48.9182 142.144 48.9182L16.6421 48.9476ZM149.78 89.8776H35.5163C34.309 89.8776 33.1512 89.398 32.2975 88.5443C31.4438 87.6906 30.9642 86.5328 30.9642 85.3255V81.7915C30.9668 80.585 31.4472 79.4286 32.3003 78.5755C33.1535 77.7224 34.3098 77.2419 35.5163 77.2393H146.843L151.63 90.0636C150.995 89.9323 150.349 89.8602 149.701 89.8482L149.78 89.8776Z" fill="#3EBD5F"/>
</g>
<defs>
<clipPath id="clip0_2787_146672">
<rect width="160" height="115.556" fill="white"/>
</clipPath>
</defs>
</svg>
