<svg width="140" height="120" viewBox="0 0 140 120" fill="none" xmlns="http://www.w3.org/2000/svg">
<path d="M121.71 94.9356C121.342 96.3038 119.605 96.1986 119.359 94.7953C118.167 87.6384 114.728 74.4297 114.728 59.9405C114.728 47.6966 118.096 33.1021 119.201 25.0857C119.394 23.6473 121.184 23.5245 121.552 24.9103C123.657 33.0495 127.148 47.1353 127.148 59.9756C127.148 74.6051 123.797 86.8841 121.692 94.9356H121.71ZM133.936 16.1746L135.848 14.7187C140.093 11.4735 141.058 5.7375 136.971 1.9661C133.357 -1.38431 127.411 -0.314283 124.552 4.1237L122.148 7.86002C120.903 9.78957 118.833 11.2631 116.728 11.228C116.325 11.228 115.939 11.1052 115.57 10.9298C101.309 3.9132 82.803 5.38668 67.7525 10.5789C63.4373 12.07 58.8239 12.4208 54.2982 11.7367C38.5285 9.31595 28.8105 11.4385 16.286 18.2621C16.093 18.3673 15.9 18.455 15.7071 18.5077C14.1459 18.8936 12.6023 17.8411 11.6901 16.315L10.0061 13.4908C8.04149 10.193 4.07713 10.1229 1.6915 13.2628C-0.974798 16.7711 -0.308225 21.2441 2.42824 23.4368L3.69122 24.4367C5.21732 25.6646 6.1821 28.0502 5.49798 30.2429C-0.729219 50.1348 -0.431015 69.7286 5.49798 89.6557C6.16456 91.8659 5.21732 94.2515 3.69122 95.4794L2.42824 96.4793C-0.308225 98.6719 -0.816925 104.075 1.6915 106.653C4.37534 109.407 8.05903 109.723 10.0061 106.408L11.6901 103.584C12.5321 102.18 13.9179 101.145 15.3387 101.321C15.6895 101.373 16.0228 101.496 16.3386 101.689C26.039 107.443 36.1779 109.863 46.8607 108.53C55.035 107.513 63.3145 107.951 71.3309 109.916C85.2062 113.301 102.134 113.442 115.851 108.811C115.974 108.776 116.097 108.741 116.219 108.706C118.465 108.337 120.798 109.951 122.148 112.039L124.552 115.775C127.393 120.195 133.603 121.528 136.971 117.932C140.549 114.126 140.093 108.407 135.848 105.18L133.936 103.724C131.621 101.952 130.375 98.9526 131.217 96.3038C138.865 72.2195 139.164 47.7317 131.217 23.6473C130.34 20.9985 131.621 17.9814 133.936 16.2273" fill="#3EBD5F"/>
</svg>
