<svg width="160" height="108" viewBox="0 0 160 108" fill="none" xmlns="http://www.w3.org/2000/svg">
<path d="M41.7349 63.7912H17.301V7.21034C17.301 3.22823 14.0727 0 10.0906 0H7.21034C3.22822 0 0 3.22823 0 7.21034V105.41H17.301V75.5636H60.853L41.7349 63.7912Z" fill="#3EBD5F"/>
<path d="M152.79 26.1543H149.909C145.927 26.1543 142.699 29.3825 142.699 33.3646V59.693H138.272C138.33 59.4224 138.388 59.1518 138.388 58.8811V35.8003C138.388 33.9059 136.861 32.3788 134.967 32.3788C133.072 32.3788 131.545 33.9059 131.545 35.8003V43.2426H58.108C54.1259 43.2426 48.23 43.0686 48.23 47.94V51.0522C48.1914 54.9957 51.3616 58.2239 55.3051 58.2819L36.6123 58.3785C37.6948 58.1079 38.7773 57.702 39.8019 57.1027C45.8717 53.6232 47.9787 45.8909 44.4992 39.8211C41.0197 33.7513 33.2874 31.6442 27.2176 35.1237C21.1478 38.5839 19.0407 46.3162 22.5203 52.386C24.9559 56.6388 29.4986 58.9391 34.08 58.7265C30.5232 59.809 27.9135 63.1145 27.9522 67.0387C27.9715 71.8134 31.8763 75.6602 36.651 75.6408L88.1092 75.3895C89.6557 75.3895 142.718 75.3895 142.718 75.3895V107.053H160V33.3646C160 29.3825 156.772 26.1543 152.79 26.1543" fill="#3EBD5F"/>
</svg>
