<svg width="120" height="120" viewBox="0 0 120 120" fill="none" xmlns="http://www.w3.org/2000/svg">
<g clip-path="url(#clip0_2759_68164)">
<path d="M119.819 115.372L111.893 91.5945C109.425 84.1917 103.16 78.5416 95.5428 76.8485L74.8126 72.2419V63.3434C83.8044 58.188 89.8752 48.4929 89.8752 37.4062V22.8696C89.8752 19.3467 88.711 15.8543 86.5972 13.0357L86.5817 13.0151C83.9063 9.45352 75.5567 0 60.0022 0C44.4474 0 36.0985 9.44719 33.4185 13.0151L33.403 13.0357C31.2892 15.8543 30.125 19.3467 30.125 22.8696V37.4062C30.125 48.4929 36.1958 58.188 45.1876 63.3434V72.2419L24.4574 76.8485C16.8399 78.5416 10.5749 84.1917 8.10713 91.5945L0.181504 115.372C-0.432558 117.214 0.563067 119.205 2.40502 119.819C4.24744 120.432 6.23799 119.437 6.85205 117.595L14.7777 93.818C16.4687 88.7447 20.7624 84.8726 25.9829 83.7124L30.1253 82.792V98.4834C25.753 99.9556 22.5941 104.091 22.5941 108.953C22.5941 115.044 27.5497 120 33.6409 120C39.732 120 44.6877 115.044 44.6877 108.953C44.6877 104.091 41.5288 99.9556 37.1565 98.4834V81.2295L46.9834 79.0458L56.9856 95.6998C57.621 96.7587 58.7652 97.4065 60.0001 97.4065C61.235 97.4065 62.3792 96.7584 63.0146 95.6998L73.0081 79.0439L82.8437 81.2297V90.795C79.3473 91.6423 71.5468 95.6044 71.5468 105.188V116.484C71.5468 118.426 73.1209 120 75.0624 120H78.8281C80.7697 120 82.3438 118.426 82.3438 116.484C82.3438 114.543 80.7697 112.969 78.8281 112.969H78.5781V105.188C78.5781 100.889 82.0567 97.4062 86.3593 97.4062C90.65 97.4062 94.1406 100.897 94.1406 105.188V112.969H93.8907C91.9492 112.969 90.3751 114.543 90.3751 116.484C90.3751 118.426 91.9492 120 93.8907 120H97.6562C99.5978 120 101.172 118.426 101.172 116.484V105.188C101.172 98.2312 96.3507 92.3827 89.8749 90.7999V82.7918L94.0173 83.7122C99.2378 84.8723 103.531 88.7447 105.223 93.8177L113.148 117.595C113.762 119.437 115.753 120.432 117.595 119.819C119.437 119.205 120.433 117.214 119.819 115.372ZM37.6562 108.953C37.6562 111.167 35.8548 112.969 33.6406 112.969C31.4265 112.969 29.6251 111.167 29.6251 108.953C29.6251 106.739 31.4265 104.937 33.6406 104.937C35.8548 104.937 37.6562 106.739 37.6562 108.953ZM37.1563 22.8696C37.1563 20.8643 37.8167 18.8766 39.0167 17.2695C39.021 17.2641 39.0249 17.2587 39.0289 17.2533C41.1603 14.4115 47.6626 7.03125 60.0348 7.03125C72.3533 7.03125 78.875 14.4581 80.9713 17.2533C80.9753 17.2587 80.9795 17.2641 80.9835 17.2695C82.1832 18.8763 82.8439 20.8643 82.8439 22.8696V28.9188L78.0041 24.0792C77.2738 23.3489 76.5184 22.5938 75.0622 22.5938C74.5164 22.5938 73.9782 22.7208 73.49 22.965C65.0432 27.1884 54.9573 27.1884 46.5099 22.965C45.1564 22.2877 43.5217 22.5532 42.452 23.6236L37.1565 28.9137V22.8696H37.1563ZM37.1563 37.4062V36.6593C39.1756 36.0762 41.027 34.9917 42.5549 33.4643C43.5995 32.4195 44.7688 31.2504 45.6988 30.3204C54.815 34.1063 65.1847 34.1067 74.3014 30.3204L77.4456 33.4645C78.9732 34.992 80.8246 36.0762 82.8439 36.6593V37.4062C82.8439 50.0023 72.5961 60.2501 60.0001 60.2501C47.4041 60.2501 37.1563 50.0023 37.1563 37.4062ZM67.7814 74.0888L60.0001 87.0574L52.2188 74.0885V66.251C54.7009 66.9213 57.3092 67.2811 60.0001 67.2811C62.691 67.2811 65.2993 66.9213 67.7814 66.251V74.0888Z" fill="#2AB3DE"/>
</g>
<defs>
<clipPath id="clip0_2759_68164">
<rect width="120" height="120" fill="white"/>
</clipPath>
</defs>
</svg>
