<svg width="67" height="48" viewBox="0 0 67 48" fill="none" xmlns="http://www.w3.org/2000/svg">
<path d="M62.5059 46.3904C61.922 45.4247 61.3904 44.3842 61.121 43.2838C60.8515 42.1758 60.8515 41.2101 61.6824 40.4241C70.2987 33.2526 64.9912 23.9625 62.3487 22.615C60.7766 21.4098 51.7934 19.2838 47.2719 24.8009C46.2164 25.9163 45.8346 27.7579 45.7074 29.2101C45.5951 30.5426 45.7373 31.5383 44.9887 32.6836C44.3225 33.7092 43.514 34.7348 42.8178 35.4834C42.5333 35.7828 42.2339 36.0972 42.2413 36.5539C42.2938 37.1378 42.6755 37.1602 43.1771 37.3474C44.4273 37.8115 44.8914 38.4179 45.0112 39.6306C45.1309 40.8284 44.809 41.6743 45.0112 42.9394C45.2357 44.3393 46.8901 44.4067 48.1178 44.3468C49.1509 44.2944 50.0941 44.197 50.9251 44.9756C51.7785 45.7841 51.5838 46.9294 51.8833 47.9999L63.4341 47.7679C63.232 47.7679 62.6032 46.5476 62.5133 46.3904" fill="#3EBD5F"/>
<path d="M2.96997 47.7679L14.5208 47.9999C14.8277 46.9369 14.6256 45.7841 15.479 44.9756C16.31 44.1896 17.2457 44.2944 18.2863 44.3468C19.514 44.4141 21.1684 44.3393 21.3929 42.9394C21.5951 41.6743 21.2732 40.8284 21.3929 39.6306C21.5127 38.4254 21.9768 37.8115 23.227 37.3474C23.736 37.1602 24.1103 37.1378 24.1627 36.5539C24.1702 36.0972 23.8708 35.7828 23.5863 35.4834C22.8826 34.7348 22.0816 33.7167 21.4079 32.6836C20.6593 31.5308 20.8015 30.5352 20.6892 29.2101C20.562 27.7579 20.1802 25.9088 19.1247 24.8009C14.5957 19.2838 5.61251 21.4098 4.04795 22.615C1.41289 23.9625 -3.89466 33.2526 4.7142 40.4241C5.53765 41.2176 5.53765 42.1833 5.26816 43.2912C4.99866 44.3917 4.46716 45.4322 3.88326 46.3979C3.79342 46.5476 3.1646 47.7753 2.96248 47.7753" fill="#3EBD5F"/>
<path d="M21.6782 6.67C22.5915 6.67 23.3251 7.40362 23.3251 8.31691C23.3251 9.2302 22.584 9.96382 21.6782 9.96382C20.7724 9.96382 20.0313 9.2302 20.0313 8.31691C20.0313 7.40362 20.7724 6.67 21.6782 6.67V6.67ZM24.2534 17.0455C23.7967 16.1023 23.5422 15.0842 23.5422 14.0137C23.5422 12.292 24.186 10.6825 25.3238 9.34248C25.0993 9.05802 24.9645 8.70618 24.9645 8.31691C24.9645 7.40362 25.7056 6.67 26.6114 6.67C27.113 6.67 27.5621 6.89457 27.8691 7.2539C29.778 6.14598 32.2109 5.48721 34.9733 5.48721C35.6695 5.48721 36.3432 5.53213 36.9945 5.61447C35.5796 2.35059 31.5971 0 26.4542 0C19.9938 0 15.3525 3.70555 15.3525 8.27948C15.3525 10.8696 16.4305 13.1753 19.0656 14.695C19.1404 16.2445 18.9982 17.7193 18.2571 20.1747C18.2571 20.1747 21.3114 19.5159 24.2534 17.0455" fill="#3EBD5F"/>
<path d="M40.0932 16.0572C39.1874 16.0572 38.4463 15.3236 38.4463 14.4103C38.4463 13.497 39.1799 12.7634 40.0932 12.7634C41.0065 12.7634 41.7401 13.5045 41.7401 14.4103C41.7401 15.3161 41.0065 16.0572 40.0932 16.0572ZM35.1525 16.0572C34.2467 16.0572 33.5056 15.3236 33.5056 14.4103C33.5056 13.497 34.2467 12.7634 35.1525 12.7634C36.0583 12.7634 36.7994 13.5045 36.7994 14.4103C36.7994 15.3161 36.0583 16.0572 35.1525 16.0572ZM30.2118 16.0572C29.2985 16.0572 28.5648 15.3236 28.5648 14.4103C28.5648 13.497 29.2985 12.7634 30.2118 12.7634C31.125 12.7634 31.8587 13.5045 31.8587 14.4103C31.8587 15.3161 31.1176 16.0572 30.2118 16.0572ZM46.4114 14.3654C46.4114 9.79149 41.7701 6.08594 35.3097 6.08594C28.8493 6.08594 24.208 9.79149 24.208 14.3654C24.208 18.9393 28.8493 22.6449 35.3097 22.6449C35.8412 22.6449 36.3652 22.6149 36.8743 22.57C39.9884 25.5045 43.5817 26.2906 43.5817 26.2906C42.9753 24.2544 42.631 22.338 42.7058 20.7884C45.3334 19.2687 46.4189 16.9556 46.4189 14.3729" fill="#3EBD5F"/>
</svg>
