<svg width="103" height="120" viewBox="0 0 103 120" fill="none" xmlns="http://www.w3.org/2000/svg">
<path d="M102.857 44.5714C102.857 37.2857 96.8571 30.8571 89.1429 30.8571C81.4286 30.8571 75.4286 36.8571 75.4286 44.5714C75.4286 50.5714 79.2857 55.7143 84.8571 57.4286V86.5714C84.8571 100.286 73.7143 111.429 60 111.429C46.2857 111.429 35.1429 100.286 35.1429 86.5714V72C50.1429 69.8571 62.1429 56.1429 62.1429 39.4286V16.2857C62.1429 9.85714 57 4.71429 50.5714 4.71429H48.4286C48.4286 2.14286 46.7143 0.428571 44.1429 0.428571C41.5714 0.428571 39.8571 2.14286 39.8571 4.71429V13.7143C39.8571 16.2857 41.5714 18 44.1429 18C46.7143 18 48.4286 16.2857 48.4286 13.7143H50.5714C52.2857 13.7143 53.5714 15 53.5714 16.7143V39.8571C53.5714 53.1429 43.2857 64.2857 30.8571 64.2857C18.4286 64.2857 8.57143 52.7143 8.57143 39.4286V16.2857C8.57143 14.5714 9.85714 12.8571 11.5714 12.8571H13.2857C13.2857 15.4286 15 17.1429 17.5714 17.1429C20.1429 17.1429 21.8571 15.4286 21.8571 12.8571V4.28571C21.8571 1.71429 20.1429 0 17.5714 0C15 0 13.2857 1.71429 13.2857 4.28571H11.5714C5.14286 4.28571 0 9.85714 0 16.2857V39.4286C0 56.1429 11.5714 69.8571 27 72V86.5714C27 105 42 120 60.4286 120C78.8571 120 93.8571 105 93.8571 86.5714V57.4286C99 55.7143 102.857 50.5714 102.857 44.5714ZM89.1429 49.7143C86.5714 49.7143 84 47.5714 84 44.5714C84 42 86.1429 39.4286 89.1429 39.4286C92.1429 39.4286 94.2857 41.5714 94.2857 44.5714C94.2857 47.5714 92.1429 49.7143 89.1429 49.7143Z" fill="#2AB3DE"/>
</svg>
