<svg width="132" height="120" viewBox="0 0 132 120" fill="none" xmlns="http://www.w3.org/2000/svg">
<g clip-path="url(#clip0_3120_512088)">
<path d="M124.4 71.8242C116.868 64.8973 106.312 65.1608 104.273 65.2778C100.741 65.4925 97.6488 63.7266 96.4586 62.9364C97.0049 61.7949 96.761 60.39 95.7561 59.5217L95.4439 59.2486C94.2439 58.2144 92.4293 58.3412 91.3951 59.5412L88.1561 63.2876L66.2439 48.6534C65.0927 47.8827 63.6976 48.0193 62.8585 48.9851C62.0195 49.951 62.0976 51.3461 63.0244 52.3803L80.7025 71.9217L77.4634 75.6681C76.4293 76.8681 76.5561 78.6827 77.7659 79.7168L78.0781 79.9803C79.0829 80.8486 80.5073 80.8876 81.561 80.1754C82.5171 81.2388 84.7122 84.0193 85.0244 87.5607C85.2 89.5998 86.4878 100.078 94.439 106.517C98.3903 109.717 103.249 111.327 108.927 111.327C110.234 111.327 111.581 111.239 112.966 111.073C113.044 111.063 113.132 111.053 113.21 111.034C113.532 110.966 121.063 109.2 126.01 103.473C130.956 97.7461 131.59 90.0388 131.62 89.7071C131.62 89.629 131.62 89.5412 131.62 89.4632C131.434 81.9705 129.005 76.029 124.41 71.8047L124.4 71.8242ZM67.639 53.112L86.2342 65.5315L82.6342 69.6973L67.639 53.112V53.112ZM122.312 100.312C118.712 104.488 113.054 106.068 112.234 106.273C106.224 106.985 101.278 105.795 97.5122 102.751C90.9561 97.4437 89.9805 88.1949 89.8829 87.1607C89.4146 81.7559 86.039 77.8047 84.8488 76.5656L93.3464 66.7217C94.7512 67.7266 99.1317 70.4778 104.566 70.1559C105.6 70.0973 114.888 69.7168 121.102 75.4242C124.663 78.7022 126.556 83.4242 126.741 89.4729C126.654 90.3315 125.912 96.1559 122.312 100.322V100.312Z" fill="#4BBBEB"/>
<path d="M1.46341 105.805C0.653659 105.805 0 105.151 0 104.341C0 96.8096 3.87317 88.9754 4.02927 88.6535C4.05854 88.595 4.09756 88.5364 4.13659 88.4779C16.4488 70.6828 10.8976 58.595 7.94146 54.2242C7.49268 53.5511 7.66829 52.6437 8.33171 52.195C8.99512 51.7462 9.9122 51.9218 10.361 52.5852C13.6488 57.4437 19.8537 70.8193 6.60488 90.0486C6.19512 90.9072 2.91707 97.912 2.91707 104.341C2.91707 105.151 2.26341 105.805 1.45366 105.805H1.46341Z" fill="#4BBBEB"/>
<path d="M30.3415 120C29.6293 120 29.0049 119.483 28.8976 118.751C28.5756 116.595 28.1756 114.761 27.7463 112.82C26.8195 108.595 25.8634 104.234 25.8634 96.6732C25.8634 91.961 28.1463 89.0341 30.7902 85.6488C34.6732 80.6732 39.5024 74.4683 39.5024 58.9561C39.5024 48.039 26.761 30.1073 21.2781 22.8976C19.3268 20.3415 18.2537 17.161 18.2537 13.9415V1.46341C18.2537 0.653659 18.9073 0 19.7171 0C20.5268 0 21.1805 0.653659 21.1805 1.46341V13.9415C21.1805 16.5171 22.039 19.0732 23.6 21.122C30.6342 30.361 42.4195 47.561 42.4195 58.9463C42.4195 75.4634 37.0244 82.3805 33.0829 87.4342C30.5854 90.6342 28.7805 92.9561 28.7805 96.6634C28.7805 103.902 29.6585 107.922 30.5951 112.176C31.0146 114.088 31.4439 116.059 31.7854 118.312C31.9024 119.112 31.3561 119.854 30.5561 119.98C30.4781 119.99 30.4098 120 30.3415 120V120Z" fill="#4BBBEB"/>
</g>
<defs>
<clipPath id="clip0_3120_512088">
<rect width="131.61" height="120" fill="white"/>
</clipPath>
</defs>
</svg>
