<svg width="143" height="120" viewBox="0 0 143 120" fill="none" xmlns="http://www.w3.org/2000/svg">
<g clip-path="url(#clip0_2766_291782)">
<path d="M27.311 35.0254C27.2066 35.0254 27.1023 34.998 27.0035 34.9321L0.241641 16.9664C-0.0109326 16.7962 -0.0768214 16.4558 0.0933913 16.2032C0.263604 15.9506 0.60403 15.8847 0.856603 16.0549L27.6184 34.0206C27.871 34.1908 27.9369 34.5313 27.7667 34.7838C27.6624 34.9431 27.4867 35.0254 27.311 35.0254Z" fill="#2AB3DE"/>
<path d="M43.2724 120C42.4598 120 41.757 119.401 41.6417 118.578L35.9039 76.7109C35.3658 72.7685 37.9574 69.0019 41.8119 68.1343C46.5614 67.0691 53.0624 65.6141 61.1118 70.413C70.2265 75.8488 79.3685 88.1206 89.0706 107.92C89.4715 108.738 89.131 109.727 88.3129 110.122C87.4948 110.523 86.5065 110.182 86.1111 109.364C65.0212 66.3059 51.4866 69.3423 42.5312 71.3464C40.3349 71.8406 38.8579 73.9984 39.1654 76.2606L44.9032 118.127C45.024 119.028 44.398 119.857 43.4921 119.983C43.4152 119.994 43.3383 120 43.2669 120H43.2724Z" fill="#2AB3DE"/>
<path d="M141.546 38.1713L124.31 29.0622C123.992 28.892 123.69 28.7602 123.393 28.6614C121.878 28.1343 120.297 27.8213 118.699 27.739C114.141 27.5029 102.386 27.0856 91.7831 28.277C77.7982 29.8474 70.6383 33.5262 69.8971 39.5221C69.3864 43.6676 71.0611 47.9833 74.8827 52.3539C82.4654 61.0293 97.1531 67.8597 104.73 67.9421C105.444 67.9476 106.147 68.2057 106.718 68.6614L114.905 76.332C101.375 73.9654 77.4633 60.019 76.7001 59.5687L78.4626 56.7245L30.8909 33.1034L27.6239 38.2043L67.7172 74.0533L70.7426 69.1665C72.582 70.5996 98.0536 90.0258 125.381 90.0258C126.71 90.0258 128.038 89.9819 129.373 89.8831L137.779 97.7568C138.097 98.0533 138.504 98.2016 138.905 98.2016C139.344 98.2016 139.783 98.0258 140.107 97.6799C140.728 97.0155 140.695 95.9723 140.03 95.3519L108.925 66.2015C108.925 66.2015 108.87 66.1521 108.843 66.1302C107.69 65.1803 106.24 64.6477 104.763 64.6312C98.0096 64.5543 84.2828 58.0862 77.359 50.1686C74.1853 46.5337 72.7742 43.0856 73.1641 39.9119C74.1798 31.6758 98.2402 29.9682 118.529 31.0169C119.813 31.0828 121.082 31.3299 122.306 31.7582C122.443 31.8076 122.597 31.8735 122.767 31.9613L140.003 41.0705C140.804 41.4932 141.804 41.1858 142.227 40.3841C142.649 39.5825 142.342 38.5832 141.54 38.1604L141.546 38.1713ZM72.0165 67.3711L71.3302 68.2276L76.1181 60.5022L75.5635 61.4466C76.7605 62.1494 104.159 78.1988 117.59 78.8412L127.154 87.8021C99.0913 88.719 72.2965 67.5962 72.022 67.3711H72.0165Z" fill="#2AB3DE"/>
<path d="M11.1791 6.1606L15.8187 0L29.0459 10.4434L33.5758 5.42485L37.7378 22.814L19.9697 22.5504L24.1866 17.1311L11.1791 6.1606Z" fill="#2AB3DE"/>
</g>
<defs>
<clipPath id="clip0_2766_291782">
<rect width="142.424" height="120" fill="white"/>
</clipPath>
</defs>
</svg>
