<svg width="160" height="106" viewBox="0 0 160 106" fill="none" xmlns="http://www.w3.org/2000/svg">
<path d="M41.7094 63.7797H17.284V7.19848C17.284 3.22887 14.0551 0 10.0855 0H7.19848C3.20988 0 0 3.22887 0 7.19848V105.394H17.284V75.5556H60.8357L41.7094 63.7987V63.7797Z" fill="#3EBD5F"/>
<path d="M152.745 24.4821H149.858C145.869 24.4821 142.659 27.7109 142.659 31.6805V58.0053H138.234C138.31 57.7394 138.348 57.4735 138.348 57.1886V34.1117C138.348 32.2313 136.809 30.6929 134.929 30.6929C133.048 30.6929 131.51 32.2313 131.51 34.1117V42.0319H86.0779C85.5081 40.7024 84.5394 39.5058 83.2099 38.7081L61.0257 25.3178C57.6258 23.2665 53.1814 24.3491 51.1301 27.7489L48.1482 32.6872C46.0969 36.068 47.1605 40.4555 50.5223 42.5257L34.454 32.9911C35.5366 33.314 36.6572 33.5039 37.8348 33.5419C44.8243 33.6938 50.5983 28.1288 50.7503 21.1392C50.9022 14.1497 45.3561 8.37569 38.3666 8.22374C31.377 8.0718 25.6031 13.6368 25.4511 20.6074C25.3561 25.5077 28.0532 29.8192 32.0988 32.0034C28.49 31.0917 24.5584 32.6112 22.5641 35.973C20.133 40.0756 21.4815 45.3747 25.5841 47.8249L69.8386 74.0737C71.1681 74.8714 72.7066 75.2893 74.245 75.2893H142.697V105.375H160V31.6805C160 27.6919 156.771 24.4821 152.802 24.4821" fill="#3EBD5F"/>
</svg>
