<svg width="120" height="120" viewBox="0 0 120 120" fill="none" xmlns="http://www.w3.org/2000/svg">
<g clip-path="url(#clip0_915_189)">
<mask id="mask0_915_189" style="mask-type:luminance" maskUnits="userSpaceOnUse" x="0" y="0" width="120" height="120">
<path d="M120 0H0V120H120V0Z" fill="white"/>
</mask>
<g mask="url(#mask0_915_189)">
<path d="M106.131 51.07C111.003 50.8119 114.902 45.8891 114.902 39.8759C114.902 34.39 111.657 29.8124 107.39 28.8538V27.4228C107.791 27.0383 108.156 26.6117 108.479 26.1347C108.704 25.8033 108.808 25.4041 108.775 25.004C108.205 18.1412 105.089 11.7765 99.9996 7.08345C94.8827 2.36481 88.2231 -0.234375 81.2468 -0.234375H73.6204C58.3842 -0.234375 45.9888 12.1189 45.9888 27.302V27.6884C45.9888 28.234 46.2434 28.7494 46.6773 29.0827C47.2962 29.5579 48.0094 29.957 48.7949 30.2683C48.859 30.2939 48.9231 30.3132 48.9872 30.337V43.1452C48.9872 50.9785 51.6038 57.5511 56.5531 62.1525C57.9951 63.4929 59.6238 64.6419 61.4 65.5885C60.6501 66.3283 59.9635 67.122 59.3446 67.9652C57.1675 68.8661 54.8091 69.3404 52.3737 69.3404C51.9297 69.3404 51.4884 69.3211 51.0499 69.2882V63.7199C51.0499 61.9236 49.5823 60.4625 47.7787 60.4625H45.1456C45.1209 57.6957 42.8495 55.4518 40.0599 55.4518H30.3736C27.584 55.4518 25.3116 57.6957 25.2869 60.4625H22.6548C20.8503 60.4625 19.3836 61.9236 19.3836 63.7199V88.3568H8.42744C6.62384 88.3568 5.15625 89.818 5.15625 91.6143V116.508C5.15625 118.305 6.62384 119.766 8.42744 119.766H72.097C72.2307 119.766 72.3616 119.75 72.4879 119.721C73.8978 119.569 75.1741 118.984 76.1839 118.107C77.1928 118.982 78.4663 119.567 79.8744 119.72C80.0017 119.75 80.1353 119.765 80.2718 119.765H100.492C105.097 119.765 108.844 116.046 108.844 111.474C108.844 107.36 105.81 103.939 101.847 103.295V99.843C101.847 98.8726 101.061 98.0852 100.089 98.0852C99.1179 98.0852 98.3315 98.8726 98.3315 99.843V103.184H86.9414C85.9856 100.603 83.4926 98.8039 80.6114 98.8039C78.9177 98.8039 77.3695 99.4283 76.183 100.456C74.9974 99.4283 73.4492 98.8039 71.7564 98.8039C68.8752 98.8039 66.3823 100.603 65.4264 103.184H64.9733V98.3178C66.2367 98.4798 67.502 98.5622 68.7636 98.5622C79.8552 98.5622 90.5541 92.4208 95.7625 81.8822C96.5306 80.3276 96.6451 78.5707 96.0829 76.9356C95.5199 75.295 94.3462 73.9738 92.7779 73.2158C89.5589 71.6612 85.6532 72.9988 84.0712 76.1986C82.5642 79.2473 80.193 81.743 77.2148 83.4157C76.3679 83.8909 76.0667 84.9629 76.5419 85.8089C77.018 86.6558 78.0891 86.957 78.936 86.4818C82.5349 84.4603 85.4006 81.4436 87.2234 77.7559C87.953 76.2782 89.7594 75.663 91.248 76.3817C91.9658 76.7278 92.5014 77.3302 92.7577 78.0772C93.0123 78.8188 92.9601 79.6172 92.6103 80.3249C87.4193 90.8287 76.0484 96.3704 64.9733 94.7609V94.3819C65.8494 93.2265 66.4244 91.8303 66.5791 90.2941C66.623 89.8629 66.6295 89.4316 66.6029 89.0041C67.8032 89.1359 69.0153 89.1652 70.2266 89.0828C71.1952 89.016 71.9258 88.1765 71.8599 87.2078C71.793 86.2392 70.9544 85.5123 69.9849 85.5745C68.4532 85.6807 66.9188 85.569 65.4246 85.2614C65.3733 85.1781 65.3212 85.0948 65.2671 85.0124L63.4718 80.3185C62.9316 78.8893 61.5437 77.9298 60.0166 77.9298C59.7172 77.9298 59.4215 77.9692 59.1313 78.0406C59.5826 73.5829 61.6444 69.8164 64.8799 67.1147C66.4583 67.6723 68.119 68.0897 69.842 68.3616C70.579 71.6814 73.5646 74.1743 77.126 74.1743C80.6041 74.1743 83.5329 71.7976 84.355 68.5942C87.0073 68.3214 89.5571 67.643 91.9328 66.6139C95.9529 69.6535 98.3306 74.222 98.3306 79.6877V91.6408C98.3306 92.6113 99.1179 93.3986 100.088 93.3986C101.06 93.3986 101.846 92.6113 101.846 91.6408V79.6877C101.846 73.7303 99.5903 68.6079 95.3166 64.8405C100.328 61.7195 104.228 56.9038 106.131 51.07ZM77.3814 105.505C77.3814 103.749 78.8307 102.32 80.6123 102.32C82.2566 102.32 83.6354 103.534 83.8203 105.142C83.9229 106.03 84.6736 106.699 85.5663 106.699H100.492C103.159 106.699 105.328 108.842 105.328 111.475C105.328 114.108 103.159 116.25 100.492 116.25H80.5144C80.4732 116.245 80.432 116.24 80.3899 116.237C78.7025 116.125 77.3814 114.73 77.3814 113.065V105.505ZM64.9742 106.699H66.8025C67.696 106.699 68.4468 106.03 68.5484 105.142C68.7333 103.534 70.113 102.32 71.7573 102.32C72.7324 102.32 73.6067 102.75 74.2 103.426C73.9839 104.081 73.8658 104.78 73.8658 105.505V113.065C73.8658 113.787 73.9839 114.483 74.2 115.137C73.6534 115.76 72.8688 116.178 71.9789 116.237C71.9368 116.24 71.8956 116.245 71.8544 116.25H64.9742V106.699ZM51.0499 72.813C51.4893 72.8395 51.9306 72.856 52.3737 72.856C53.9201 72.856 55.438 72.6903 56.9139 72.3781C56.0926 74.4756 55.6147 76.7598 55.5351 79.186C54.4932 79.3004 53.4385 79.359 52.3737 79.359C51.9306 79.359 51.4893 79.3462 51.0499 79.3251V72.813ZM51.3346 99.4576C51.5397 99.4576 51.9819 99.7075 52.0854 99.8824L54.279 103.647C54.3769 103.817 54.3769 104.304 54.279 104.476L52.0854 108.239C51.9819 108.414 51.5397 108.665 51.3346 108.665H46.9474C46.7414 108.665 46.2992 108.414 46.1958 108.239L44.0022 104.475C43.9042 104.304 43.9042 103.817 44.0022 103.647L46.1958 99.8824C46.2992 99.7075 46.7414 99.4567 46.9474 99.4567L51.3346 99.4576ZM30.3736 58.9674H40.0599C40.9104 58.9674 41.6044 59.6339 41.6291 60.4625H28.8044C28.8291 59.6339 29.5221 58.9674 30.3736 58.9674ZM22.8992 63.9781H47.5343V88.3568H22.8992V63.9781ZM33.3079 116.25H8.67188V91.8724H33.3079V116.25ZM61.4585 116.25H36.8235V91.8724H48.6814C48.599 92.1187 48.5395 92.376 48.513 92.6442L48.4635 93.1322C48.3564 94.2061 48.7418 95.2169 49.4358 95.9411H46.9474C45.4853 95.9411 43.8914 96.8548 43.158 98.1127L40.9653 101.877C40.2274 103.143 40.2274 104.98 40.9653 106.245L43.158 110.01C43.8923 111.268 45.4853 112.182 46.9474 112.182H51.3346C52.7967 112.182 54.3907 111.268 55.1231 110.009L57.3167 106.245C58.0537 104.98 58.0537 103.144 57.3167 101.877L55.124 98.1127C54.9546 97.8243 54.7395 97.5542 54.4923 97.3079L57.4668 97.6073C57.7516 97.6357 58.04 97.6503 58.3247 97.6503C59.4325 97.6503 60.4908 97.4379 61.4585 97.0516V116.25ZM59.2906 84.0126C59.6531 83.532 59.7438 82.8984 59.5314 82.3345L59.3565 81.8739C59.3391 81.8282 59.3409 81.7824 59.3611 81.7375C59.3812 81.6936 59.4151 81.6615 59.4618 81.6441L59.9534 81.4583C59.9754 81.4501 59.9964 81.4455 60.0175 81.4455C60.0294 81.4455 60.1411 81.4491 60.1869 81.5682L62.0582 86.4598C62.1095 86.5962 62.1782 86.7244 62.2615 86.8434C62.9005 87.7516 63.1916 88.853 63.0827 89.9425C62.8419 92.333 60.7966 94.1356 58.3247 94.1356C58.1571 94.1356 57.9878 94.1265 57.8193 94.11L51.9947 93.5241C51.9746 93.5222 51.9599 93.5039 51.9618 93.4847L52.0112 92.9976C52.0139 92.9711 52.0387 92.9647 52.0506 92.9647L56.2583 93.3876C57.2224 93.4874 58.0857 92.7816 58.1837 91.8157L58.2148 91.5035C58.2624 91.0393 58.1224 90.5751 57.8276 90.2144C57.5328 89.8528 57.1061 89.6239 56.6419 89.5772L51.5067 89.0599C51.4903 89.0581 51.4729 89.037 51.4747 89.0206L51.5232 88.5335C51.526 88.507 51.5525 88.5033 51.5635 88.5005L56.6987 89.0178C57.1629 89.0636 57.6261 88.9244 57.9878 88.6296C58.3485 88.3348 58.5774 87.9082 58.6241 87.4449L58.6552 87.1318C58.7522 86.1659 58.0482 85.3035 57.0823 85.2065L52.8745 84.7835C52.8572 84.7817 52.8398 84.7606 52.8416 84.7432L52.891 84.2562C52.8938 84.2296 52.9203 84.2269 52.9304 84.2241L57.6994 84.7038C57.7113 84.7048 57.7333 84.7066 57.7442 84.7084C58.3457 84.7579 58.9289 84.4942 59.2906 84.0126ZM77.1269 70.6587C75.673 70.6587 74.4032 69.8778 73.7202 68.7196C74.0333 68.7288 74.3465 68.7343 74.6623 68.7343H80.5244C79.8396 69.8851 78.5744 70.6587 77.1269 70.6587ZM81.7128 65.2186H74.6623C61.2013 65.2186 52.5028 56.555 52.5028 43.1452V30.8442C54.2726 30.6885 55.9782 29.9021 57.5511 28.4885C57.8422 28.2276 58.1278 27.9465 58.4108 27.6435C58.5105 27.9777 58.6341 28.2981 58.7797 28.602C59.5268 30.1584 60.8525 31.2534 62.6139 31.767C65.475 32.6038 68.3653 31.3752 71.2373 28.1113C71.956 29.8206 73.4227 31.0767 75.5778 31.757C76.5236 32.0545 77.4611 32.2028 78.3876 32.2019C81.4638 32.2019 84.409 30.5714 87.0293 27.3835C87.9183 26.3013 88.6543 25.178 89.2302 24.1883C89.9727 25.2118 90.9624 26.3498 92.2176 27.3459C92.9784 27.9484 94.0843 27.8211 94.6877 27.0603C95.291 26.2995 95.1628 25.1944 94.402 24.5911C91.9328 22.6328 90.7381 19.8679 90.7289 19.845C90.4552 19.1904 89.8152 18.7647 89.1066 18.7647C89.102 18.7647 89.0965 18.7647 89.092 18.7647C88.3778 18.7711 87.7379 19.2096 87.4733 19.8725C87.4312 19.9787 83.1721 30.4652 76.6353 28.4034C75.0239 27.8953 73.5216 26.8873 74.5863 23.2599C74.8353 22.4112 74.4151 21.5094 73.604 21.1551C72.7946 20.7999 71.8461 21.1029 71.3911 21.8619C68.5374 26.6245 65.7002 29.0076 63.5991 28.3933C62.7897 28.1562 62.266 27.7396 61.9493 27.0814C61.3258 25.7822 61.5428 23.5813 62.5288 21.1945C62.8923 20.3138 62.4885 19.3039 61.6178 18.9167C60.749 18.5303 59.7273 18.9057 59.3171 19.7663C54.9491 28.9252 51.2925 27.4759 50.0904 26.9999C49.8872 26.9193 49.6949 26.8305 49.5118 26.7344C49.8158 13.7512 60.5137 3.28126 73.6204 3.28126H81.2468C93.4691 3.28126 103.866 12.6059 105.207 24.6314C104.718 25.1862 104.116 25.5854 103.378 25.8463C102.65 26.1045 101.931 26.2903 101.239 26.3993C100.281 26.5503 99.626 27.4503 99.7771 28.4098C99.9291 29.3683 100.828 30.0239 101.788 29.8719C102.472 29.7629 103.171 29.6 103.874 29.3839V30.4304C103.874 30.8991 104.061 31.3486 104.393 31.6782C104.723 32.0051 105.168 32.1882 105.632 32.1882C105.668 32.1891 105.702 32.1873 105.745 32.1854C108.857 32.1992 111.386 35.6434 111.386 39.8759C111.386 44.1157 108.847 47.5654 105.727 47.5654C105.527 47.5654 105.322 47.5498 105.1 47.516C104.212 47.3805 103.367 47.9353 103.136 48.8023C100.571 58.4684 91.7616 65.2186 81.7128 65.2186Z" fill="#2AB3DE"/>
<path d="M87.1116 36.4683C86.1402 36.4683 85.3538 37.2547 85.3538 38.2261V41.1091C85.3538 42.0805 86.1402 42.8669 87.1116 42.8669C88.082 42.8669 88.8694 42.0805 88.8694 41.1091V38.2261C88.8694 37.2547 88.082 36.4683 87.1116 36.4683Z" fill="#2AB3DE"/>
<path d="M61.1389 36.4683C60.1675 36.4683 59.3811 37.2547 59.3811 38.2261V41.1091C59.3811 42.0805 60.1675 42.8669 61.1389 42.8669C62.1094 42.8669 62.8967 42.0805 62.8967 41.1091V38.2261C62.8967 37.2547 62.1094 36.4683 61.1389 36.4683Z" fill="#2AB3DE"/>
<path d="M74.1238 45.3974H75.2636C76.235 45.3974 77.0214 44.6101 77.0214 43.6396C77.0214 42.6682 76.235 41.8818 75.2636 41.8818H74.7427V40.2512C74.7427 39.2798 73.9553 38.4934 72.9849 38.4934C72.0135 38.4934 71.2271 39.2798 71.2271 40.2512V42.4677C71.2271 44.0827 72.5262 45.3974 74.1238 45.3974Z" fill="#2AB3DE"/>
<path d="M81.0573 48.1797H67.9863C66.1827 48.1797 64.7151 49.6409 64.7151 51.4371C64.7151 56.804 69.1142 61.1701 74.5213 61.1701C79.9294 61.1701 84.3285 56.804 84.3285 51.4371C84.3285 49.6418 82.8609 48.1797 81.0573 48.1797ZM74.5213 57.6554C71.1403 57.6554 68.3726 55.005 68.2353 51.6953H80.8083C80.67 55.005 77.9033 57.6554 74.5213 57.6554Z" fill="#2AB3DE"/>
<path d="M42.0152 72.1639L38.9345 71.7236L37.5612 68.9816C37.1153 68.0908 36.2172 67.5369 35.2165 67.5369C34.2159 67.5369 33.3177 68.0908 32.8719 68.9807L31.4986 71.7236L28.4141 72.1649C27.4245 72.3077 26.6151 72.9843 26.3011 73.9328C25.9889 74.8767 26.2526 75.9332 26.9704 76.6217L29.185 78.7484L28.6641 81.7459C28.4929 82.7246 28.9067 83.7307 29.7096 84.3029C30.1582 84.627 30.6892 84.7983 31.244 84.7983C31.667 84.7983 32.0882 84.6957 32.4544 84.5035L35.2165 83.0725L37.9695 84.4989C38.3431 84.6948 38.7642 84.7983 39.1881 84.7983C39.7438 84.7983 40.2748 84.627 40.7161 84.3084C41.5264 83.7298 41.9402 82.7237 41.769 81.7459L41.248 78.7484L43.4609 76.6226C44.1796 75.9332 44.4432 74.8767 44.131 73.9328C43.8198 72.9852 43.0095 72.3086 42.0152 72.1639ZM38.138 76.8615C37.7159 77.2662 37.5237 77.854 37.6244 78.4298L37.9933 80.552L36.0249 79.5321C35.7723 79.4003 35.4939 79.3353 35.2165 79.3353C34.9391 79.3353 34.6617 79.4003 34.4081 79.5321L32.4406 80.552L32.8096 78.4298C32.9094 77.854 32.7171 77.2662 32.2951 76.8606L30.7542 75.3811L32.9076 75.0735C33.4779 74.9911 33.9714 74.635 34.2296 74.1204L35.2165 72.1502L36.2035 74.1204C36.4616 74.6359 36.956 74.992 37.5264 75.0735L39.6788 75.3811L38.138 76.8615Z" fill="#2AB3DE"/>
<path d="M19.2572 111.556C19.7214 112.01 20.3366 112.261 20.9894 112.261C21.6413 112.261 22.2565 112.011 22.7216 111.557L29.0131 105.403C30.0916 104.348 30.6858 102.942 30.6858 101.442C30.6858 99.9428 30.0916 98.5365 29.0131 97.4818C27.9438 96.4363 26.5256 95.8613 25.0196 95.8613C23.5135 95.8613 22.0944 96.4372 21.026 97.4818L20.9894 97.5175L20.9537 97.4818C19.8853 96.4372 18.4662 95.8613 16.9602 95.8613C15.4532 95.8613 14.035 96.4363 12.9666 97.4818C11.8881 98.5365 11.2939 99.9428 11.2939 101.442C11.2939 102.942 11.8881 104.348 12.9666 105.404L19.2572 111.556ZM15.4239 99.9949C15.8313 99.5958 16.377 99.376 16.9592 99.376C17.5415 99.376 18.0872 99.5958 18.4955 99.9949L19.7598 101.233C20.4428 101.9 21.5351 101.9 22.218 101.233L23.4833 99.9959C23.8916 99.5967 24.4364 99.376 25.0196 99.376C25.6018 99.376 26.1466 99.5958 26.5549 99.9949C26.9513 100.382 27.1692 100.897 27.1692 101.442C27.1701 101.988 26.9513 102.503 26.5549 102.89L20.9894 108.333L15.4239 102.89C15.0275 102.503 14.8087 101.988 14.8096 101.442C14.8096 100.897 15.0275 100.382 15.4239 99.9949Z" fill="#2AB3DE"/>
<path d="M105.578 45.3827C105.86 45.3827 106.146 45.315 106.412 45.1712C110.166 43.1424 109.552 38.8925 108.703 36.9287C108.318 36.0379 107.283 35.6268 106.392 36.0132C105.501 36.3986 105.091 37.4332 105.476 38.324C105.525 38.4348 106.632 41.0568 104.74 42.0786C103.886 42.54 103.568 43.6066 104.03 44.4608C104.347 45.0485 104.952 45.3827 105.578 45.3827Z" fill="#2AB3DE"/>
</g>
</g>
<defs>
<clipPath id="clip0_915_189">
<rect width="120" height="120" fill="white"/>
</clipPath>
</defs>
</svg>
