<svg width="160" height="116" viewBox="0 0 160 116" fill="none" xmlns="http://www.w3.org/2000/svg">
<path d="M150.612 111.781C149.205 109.454 147.924 106.947 147.275 104.295C146.626 101.626 146.626 99.2989 148.628 97.4049C169.389 80.1245 156.601 57.7394 150.233 54.4926C146.445 51.5885 124.8 46.4657 113.905 59.7597C111.361 62.4474 110.441 66.8847 110.135 70.3841C109.864 73.5948 110.207 75.9939 108.403 78.7537C106.798 81.2249 104.85 83.6961 103.172 85.4999C102.487 86.2214 101.765 86.979 101.783 88.0793C101.909 89.4862 102.829 89.5404 104.038 89.9913C107.05 91.1097 108.169 92.5707 108.457 95.4929C108.746 98.379 107.97 100.417 108.457 103.466C108.998 106.839 112.985 107.001 115.943 106.857C118.432 106.731 120.705 106.496 122.707 108.372C124.764 110.32 124.295 113.08 125.016 115.659L152.849 115.1C152.362 115.1 150.846 112.16 150.63 111.781" fill="#4BBBEB"/>
<path d="M7.15634 115.1L34.9889 115.659C35.7285 113.098 35.2414 110.32 37.2978 108.372C39.3 106.478 41.5547 106.731 44.062 106.857C47.0202 107.019 51.0066 106.839 51.5478 103.466C52.0348 100.417 51.2591 98.379 51.5478 95.4929C51.8364 92.5888 52.9547 91.1097 55.967 89.9913C57.1936 89.5404 58.0955 89.4862 58.2218 88.0793C58.2398 86.979 57.5183 86.2214 56.8329 85.4999C55.1373 83.6961 53.2072 81.2429 51.5838 78.7537C49.78 75.9758 50.1227 73.5768 49.8522 70.3841C49.5455 66.8847 48.6256 62.4293 46.0822 59.7597C35.1693 46.4657 13.5237 51.5885 9.75381 54.4926C3.40445 57.7394 -9.38446 80.1245 11.3592 97.4049C13.3434 99.3169 13.3434 101.644 12.694 104.313C12.0446 106.965 10.7639 109.472 9.35697 111.799C9.14052 112.16 7.62533 115.118 7.1383 115.118" fill="#4BBBEB"/>
<path d="M52.2348 16.0718C54.4354 16.0718 56.2031 17.8395 56.2031 20.0402C56.2031 22.2408 54.4174 24.0085 52.2348 24.0085C50.0522 24.0085 48.2664 22.2408 48.2664 20.0402C48.2664 17.8395 50.0522 16.0718 52.2348 16.0718V16.0718ZM58.4398 41.0724C57.3395 38.7996 56.7262 36.3465 56.7262 33.767C56.7262 29.6183 58.2775 25.7402 61.0193 22.5114C60.4781 21.8259 60.1534 20.9781 60.1534 20.0402C60.1534 17.8395 61.9392 16.0718 64.1218 16.0718C65.3303 16.0718 66.4126 16.613 67.1522 17.4788C71.7518 14.8092 77.6142 13.2218 84.2702 13.2218C85.9477 13.2218 87.5711 13.33 89.1404 13.5285C85.7313 5.66392 76.1351 0 63.743 0C48.1762 0 36.9927 8.92878 36.9927 19.95C36.9927 26.1911 39.5902 31.7468 45.9395 35.4085C46.1199 39.1424 45.7772 42.6958 43.9914 48.6123C43.9914 48.6123 51.3509 47.0249 58.4398 41.0724" fill="#4BBBEB"/>
<path d="M96.6074 38.6911C94.4248 38.6911 92.6391 36.9234 92.6391 34.7228C92.6391 32.5221 94.4068 30.7544 96.6074 30.7544C98.808 30.7544 100.576 32.5402 100.576 34.7228C100.576 36.9053 98.808 38.6911 96.6074 38.6911ZM84.7024 38.6911C82.5198 38.6911 80.734 36.9234 80.734 34.7228C80.734 32.5221 82.5198 30.7544 84.7024 30.7544C86.885 30.7544 88.6707 32.5402 88.6707 34.7228C88.6707 36.9053 86.885 38.6911 84.7024 38.6911ZM72.7973 38.6911C70.5967 38.6911 68.829 36.9234 68.829 34.7228C68.829 32.5221 70.5967 30.7544 72.7973 30.7544C74.9979 30.7544 76.7657 32.5402 76.7657 34.7228C76.7657 36.9053 74.9799 38.6911 72.7973 38.6911ZM111.831 34.6145C111.831 23.5933 100.648 14.6646 85.0812 14.6646C69.5144 14.6646 58.3309 23.5933 58.3309 34.6145C58.3309 45.6357 69.5144 54.5645 85.0812 54.5645C86.3619 54.5645 87.6245 54.4923 88.8511 54.3841C96.3549 61.455 105.013 63.349 105.013 63.349C103.552 58.4427 102.722 53.8249 102.903 50.0911C109.234 46.4294 111.849 40.8557 111.849 34.6326" fill="#4BBBEB"/>
</svg>
