<svg width="112" height="120" viewBox="0 0 112 120" fill="none" xmlns="http://www.w3.org/2000/svg">
<path d="M102.068 29.4586C101.346 29.4586 100.738 29.203 100.242 28.6917C99.7452 28.1804 99.5268 27.5789 99.587 26.8872C99.6772 25.6241 99.9779 24.5263 100.489 23.594C101 22.6617 101.812 21.6992 102.925 20.7068C104.158 19.6241 105.098 18.6839 105.744 17.8863C106.391 17.0899 106.715 16.1805 106.715 15.1579C106.715 13.9248 106.301 12.9023 105.475 12.0902C104.647 11.2782 103.497 10.8722 102.023 10.8722C101.061 10.8722 100.241 11.0749 99.5653 11.4803C98.8881 11.8869 98.3389 12.391 97.9179 12.9925C97.4968 13.594 96.9784 14 96.3625 14.2105C95.7453 14.4211 95.1511 14.406 94.5797 14.1654C93.888 13.8647 93.4146 13.3684 93.1596 12.6767C92.9034 11.985 92.9557 11.3383 93.3166 10.7368C94.1887 9.38346 95.3616 8.25564 96.8352 7.35338C98.3088 6.45113 100.038 6 102.023 6C105.181 6 107.61 6.88 109.309 8.64C111.008 10.3988 111.857 12.5113 111.857 14.9774C111.857 16.4812 111.534 17.7672 110.888 18.8355C110.241 19.9026 109.226 21.1128 107.842 22.4662C106.82 23.4286 106.098 24.2105 105.677 24.812C105.256 25.4135 104.97 26.1053 104.82 26.8872C104.7 27.6391 104.384 28.2556 103.873 28.7368C103.361 29.218 102.76 29.4586 102.068 29.4586ZM102.023 40.2857C101.031 40.2857 100.181 39.9326 99.4751 39.2265C98.7678 38.5191 98.4141 37.6692 98.4141 36.6767C98.4141 35.6842 98.7678 34.8343 99.4751 34.1269C100.181 33.4208 101.031 33.0677 102.023 33.0677C103.015 33.0677 103.865 33.4208 104.573 34.1269C105.279 34.8343 105.632 35.6842 105.632 36.6767C105.632 37.6692 105.279 38.5191 104.573 39.2265C103.865 39.9326 103.015 40.2857 102.023 40.2857Z" fill="#4BBBEB"/>
<g clip-path="url(#clip0_4604_114837)">
<path d="M72.1952 27.0619L65.7815 22.2516V12.4531C65.7815 11.4679 64.9851 10.6715 63.9999 10.6715C63.0147 10.6715 62.2183 11.4679 62.2183 12.4531V23.1425C62.2183 23.7037 62.482 24.2329 62.931 24.5678L70.0572 29.9125C70.3778 30.153 70.752 30.2689 71.1244 30.2689C71.6677 30.2689 72.2022 30.0248 72.5514 29.5544C73.1431 28.7686 72.9827 27.6516 72.1952 27.0619Z" fill="#4BBBEB"/>
<path d="M64 0C51.317 0 41 10.317 41 23C41 35.683 51.317 46 64 46C76.683 46 87 35.683 87 23C87 10.317 76.683 0 64 0ZM64 42.4369C53.2839 42.4369 44.5631 33.7161 44.5631 23C44.5631 12.2839 53.2839 3.56311 64 3.56311C74.7179 3.56311 83.4369 12.2839 83.4369 23C83.4369 33.7161 74.7161 42.4369 64 42.4369Z" fill="#4BBBEB"/>
</g>
<g clip-path="url(#clip1_4604_114837)">
<g clip-path="url(#clip2_4604_114837)">
<path fill-rule="evenodd" clip-rule="evenodd" d="M29.7055 39.04C26.1006 39.5413 23.5693 40.7972 21.2508 43.2212C19.5599 44.9888 18.398 47.1078 17.7963 49.4904C17.4747 50.8394 17.4592 54.0024 17.7963 55.3669C19.1242 60.8815 23.2737 64.8096 28.7822 65.7708C36.6507 67.1508 44.0214 61.3157 44.5349 53.3047C44.7994 49.4026 43.3211 45.6141 40.4372 42.8439C38.6062 41.0608 36.6093 39.9599 34.1766 39.3604C33.0977 39.0968 30.5561 38.9159 29.7055 39.04Z" fill="#4BBBEB"/>
<path fill-rule="evenodd" clip-rule="evenodd" d="M20.3275 69.058C16.1624 69.4352 11.9973 72.65 9.18601 77.6789C7.15795 81.3018 3.75014 88.1965 2.06958 92.0832C0.280093 96.2179 0 97.4738 0 101.18C0 104.399 0.48757 106.916 1.55088 109.061C2.57271 111.165 3.74495 112.364 6.61331 114.256C11.4787 117.476 17.7963 119.62 23.4137 119.966C27.0912 120.205 31.1578 119.16 34.0936 117.238C36.4121 115.718 37.3251 114.188 37.0138 112.292C36.7182 110.369 35.3644 108.7 33.4919 107.919C31.941 107.278 31.3653 107.211 27.3402 107.211C22.672 107.211 20.4468 106.891 16.6344 105.666C14.2433 104.901 12.9984 104.188 12.9984 103.588C12.9984 103.112 13.543 102.921 15.374 102.766C16.3387 102.668 17.6252 102.513 18.2527 102.404C20.5713 101.97 22.6824 101.009 23.144 100.161C23.367 99.7426 23.367 99.6755 23.1595 99.1018C23.0351 98.7814 22.4749 97.9027 21.9303 97.1791C21.3857 96.4556 20.8099 95.577 20.6595 95.2307C19.1501 91.804 20.5039 87.7106 23.1337 87.7106C24.4459 87.7106 25.5092 88.4342 26.6556 90.0933C27.0601 90.6618 28.139 92.724 29.0052 94.5794C30.1671 97.0448 33.4089 99.7323 36.6508 100.947C38.1342 101.49 39.1093 101.671 40.9299 101.769L42.7765 101.851L41.9518 102.87C38.1913 107.438 38.0771 110.462 41.5731 112.105C43.4456 112.984 46.2828 113.18 48.0879 112.54C52.5331 110.979 57.9171 106.312 60.5728 101.717C62.1651 98.9571 62.6683 96.2592 62.1392 93.2047C61.4545 89.3439 59.6651 85.1006 56.3091 79.374C53.1347 73.9679 49.4883 70.5413 45.6033 69.2906C44.6801 68.9856 44.5711 68.9856 32.994 68.9856C26.5777 68.9856 20.8722 69.027 20.3275 69.0683V69.058ZM43.4767 81.5241C46.6355 82.4596 49.0112 84.9094 49.8358 88.057C50.116 89.1423 50.1315 91.1477 49.8514 92.3312C49.2653 94.8534 47.5329 97.0551 45.1677 98.28C43.7412 99.0191 42.6364 99.2827 40.987 99.2827C38.85 99.2827 37.1279 98.6987 35.4111 97.4014C33.134 95.6752 31.7491 92.6672 31.9151 89.7987C32.1796 85.5762 35.3125 82.0564 39.4621 81.3018C40.4528 81.1365 42.5379 81.245 43.4715 81.5241H43.4767Z" fill="#4BBBEB"/>
</g>
</g>
<defs>
<clipPath id="clip0_4604_114837">
<rect width="46" height="46" fill="white" transform="translate(41)"/>
</clipPath>
<clipPath id="clip1_4604_114837">
<rect width="112" height="120" fill="white"/>
</clipPath>
<clipPath id="clip2_4604_114837">
<rect width="63" height="81" fill="white" transform="translate(0 39)"/>
</clipPath>
</defs>
</svg>
