<svg width="128" height="120" viewBox="0 0 128 120" fill="none" xmlns="http://www.w3.org/2000/svg">
<g clip-path="url(#clip0_3218_926786)">
<path d="M127.218 46.4394C123.027 48.2724 99.7389 67.636 100.264 45.6561C100.788 23.6761 89.5323 30.2168 86.9159 29.692C84.2996 29.1673 85.3492 24.1933 81.6833 25.2428C78.0175 26.2924 79.3256 24.4594 77.2341 22.6265C75.1426 20.7936 68.3356 23.9271 68.3356 23.9271C68.3356 23.9271 64.4112 17.3939 58.3876 23.9271C52.3716 30.4678 38.4992 23.6685 33.2666 23.9271C28.034 24.1856 2.13714 32.605 0.159703 64.0995C-2.19801 101.656 21.7442 114.136 21.7442 114.136C28.7717 117.445 77.8882 131.226 87.1745 99.8226C87.1745 99.8226 91.7455 71.4388 117.27 96.4229L127.218 104.538" fill="#4BBBEB"/>
<path d="M121.019 9.03552C121.019 9.03552 103.26 7.05808 90.6959 16.7779C78.1316 26.4978 74.2299 37.5486 92.0269 44.3252" stroke="#4BBBEB" stroke-width="5" stroke-miterlimit="10"/>
<path d="M92.8939 3.01953C88.1176 3.63558 83.9346 6.70821 81.1738 8.51833" stroke="#4BBBEB" stroke-width="2" stroke-linecap="round" stroke-linejoin="round"/>
<path d="M90.4221 0.760742L94.2097 2.40354L91.6086 5.52941" stroke="#4BBBEB" stroke-width="2" stroke-linecap="round" stroke-linejoin="round"/>
</g>
<defs>
<clipPath id="clip0_3218_926786">
<rect width="127.218" height="120" fill="white"/>
</clipPath>
</defs>
</svg>
