<svg width="113" height="120" viewBox="0 0 113 120" fill="none" xmlns="http://www.w3.org/2000/svg">
<path d="M41.6086 72.357L43.4505 71.1992C42.5558 68.796 43.0645 66.042 44.8362 64.13C45.766 52.0965 47.8358 43.1678 49.8531 36.9406L56.3786 54.9031C73.4992 40.3612 76.7444 31.7307 77.0952 27.8189L78.6739 26.9419C78.7266 31.836 74.9025 43.5537 46.7132 64.4984C44.3451 66.2525 43.8539 69.6029 45.6081 71.9886C46.6606 73.3919 48.2744 74.1462 49.9058 74.1462C51.0109 74.1462 52.1335 73.7954 53.0983 73.0937C79.4282 53.5173 91.2337 37.5194 89.1638 24.1878C89.0234 23.2581 88.7954 22.3811 88.5323 21.5391C86.4448 14.961 81.0069 11.0317 77.1829 9.38276C75.8848 8.5583 74.2184 8.31272 72.6396 8.87405L71.096 9.43538C74.1833 18.0132 69.7453 27.5207 61.1674 30.6431C54.4139 33.099 47.0991 30.8712 42.7663 25.6438C39.1528 33.6603 33.8377 49.9564 33.6798 76.5845C33.6798 78.9 35.1182 80.8646 37.153 81.6189C36.8022 78.0404 38.4511 74.3918 41.6612 72.3745" fill="#3EBD5F"/>
<path d="M110.389 105.914L91.3214 87.4256L95.3033 59.1311C95.4788 57.8505 95.356 56.6051 94.9701 55.4473C94.935 55.2719 94.8648 55.0965 94.8122 54.9211L88.5674 37.6777C83.954 48.4483 72.5168 60.5519 53.993 74.3221C52.8001 75.2167 51.3793 75.6728 49.8882 75.6728C47.7131 75.6728 45.6432 74.6378 44.3626 72.9012C44.2925 72.7959 44.2223 72.6907 44.1521 72.5854L42.4331 73.673C38.7844 75.9534 37.5214 80.6897 39.5562 84.4786L56.2558 115.668C57.7293 118.422 60.5535 120 63.4829 120C64.781 120 66.1142 119.685 67.3421 119.036C71.324 116.895 72.8326 111.931 70.6925 107.949L57.589 83.4963L65.7809 78.3566L76.7268 71.5154C76.8321 71.4452 76.9373 71.3575 77.0601 71.2874L74.5341 89.285C74.1658 91.8812 75.0604 94.4773 76.9373 96.3016L98.9871 117.685C100.583 119.228 102.636 120 104.688 120C106.74 120 108.951 119.176 110.565 117.509C113.704 114.264 113.634 109.089 110.389 105.932" fill="#3EBD5F"/>
<path d="M60.5886 29.1698C68.3946 26.3456 72.4292 17.7151 69.5874 9.90913C66.7457 2.10313 58.1328 -1.93143 50.3268 0.910303C42.5208 3.7345 38.4862 12.3649 41.328 20.1709C44.1522 27.9769 52.7826 32.0115 60.5886 29.1698" fill="#3EBD5F"/>
<path d="M12.7001 74.5669L0.701662 70.5675L0 73.3215L14.8752 77.1806L14.1736 71.3217L27.5578 76.0229L27.7508 75.3914L12.3843 68.0239L12.7001 74.5669Z" fill="#3EBD5F"/>
<path d="M22.6111 62.6565L30.4697 71.7255L30.8556 71.3571L22.6812 59.4815L20.1552 64.4282L13.0334 56.4468L11.3494 58.1658L20.6639 67.2524L22.6111 62.6565Z" fill="#3EBD5F"/>
<path d="M28.6278 81.5663L14.4192 81.5312L17.0153 86.3376L6.56055 87.6357L7.01663 89.9512L19.5939 87.5129L16.9627 83.3556L28.7155 82.0926L28.6278 81.5663Z" fill="#3EBD5F"/>
</svg>
