<svg width="139" height="120" viewBox="0 0 139 120" fill="none" xmlns="http://www.w3.org/2000/svg">
<path d="M126.473 53.2869L109.86 49.837L113.222 15.0742C113.486 15.1621 113.728 15.25 113.992 15.3378C116.76 16.2827 119.375 17.1617 121.946 18.1725C122.166 18.2604 122.583 18.7218 122.649 19.0075L123.067 20.4138C123.99 23.5781 124.957 26.8522 125.484 30.0604C126.736 37.7294 126.649 45.618 126.495 53.2869H126.473ZM106.894 80.8204L108.828 60.7581L121.968 63.4609C115.881 69.4598 110.959 75.1291 106.894 80.8204ZM99.6865 32.8511C99.0712 39.2236 98.456 45.596 97.8407 51.9685C97.4452 56.0337 97.0496 60.0769 96.6321 64.1421C96.1926 68.471 95.7751 72.8218 95.3576 77.1507C94.8083 82.776 94.2809 88.3794 93.7535 94.0048L93.4019 97.7403C93.336 98.2897 93.3141 98.861 93.2701 99.4104C93.2042 100.553 93.1163 101.63 92.9185 102.663C92.8526 103.014 92.479 103.52 92.1274 103.783C89.0511 106.047 85.2276 107.475 80.0857 108.266C75.9766 108.903 72.1751 109.233 68.5054 109.233C63.0559 109.233 58.0678 108.552 53.2774 107.123C50.9921 106.442 48.7288 105.146 46.5534 103.893L45.4327 103.256C45.2569 103.124 44.9273 102.597 44.8834 102.201C44.334 96.6856 43.8726 91.0822 43.4111 85.6546C43.2353 83.5671 43.0595 81.4796 42.8837 79.414C42.4442 74.2501 41.9828 69.1082 41.5433 63.9443C41.0379 58.1432 40.5325 52.3421 40.0271 46.5409C39.5876 41.5089 39.1701 36.4768 38.7306 31.4448L37.8077 20.4578C37.61 18.0187 37.3902 15.4917 37.1485 12.9866C51.5195 11.3825 65.7806 10.943 79.6243 11.6462C84.9639 11.9099 90.3695 12.3933 95.6213 12.8328C97.599 13.0086 99.5766 13.1844 101.576 13.3382L99.7085 32.8731L99.6865 32.8511ZM16.8445 63.7466L29.4796 61.3734L31.1496 80.6665C27.5459 74.9753 22.8654 69.4598 16.8445 63.7246V63.7466ZM11.8125 53.265C11.8125 51.4631 11.8125 49.6612 11.8125 47.8374C11.9663 39.6191 12.274 30.8735 14.4714 22.2377C15.3503 18.8097 17.0863 16.9859 20.3384 16.2168C22.0084 15.8213 23.6125 15.3378 25.3265 14.8544H25.4364L28.5347 50.4303L11.7905 53.5946C11.7905 53.5946 11.7905 53.3748 11.7905 53.265H11.8125ZM137.987 35.7517C137.833 29.7748 136.823 23.8638 135.021 18.1285C133.153 12.2175 129.285 8.35012 123.55 6.68009C117.705 4.98809 112.915 3.84545 108.41 3.12031C94.9841 0.966856 81.2723 0.461454 68 0H67.8022C64.638 0.197766 61.4957 0.373558 58.3314 0.54935C50.9702 0.944882 43.3452 1.36239 35.874 2.15345C28.9083 2.90057 22.0084 4.57059 15.5261 6.24062C9.6151 7.75682 5.50596 11.5803 3.9458 17.0079L3.81396 17.4693C2.80316 20.9632 1.77038 24.5669 1.26498 28.2146C-0.0314876 37.5975 -0.31715 47.9473 0.34207 60.7801C0.473914 63.1313 1.39682 64.9771 3.28659 66.6032C13.944 75.7224 21.3712 85.1273 25.9857 95.3671C27.1943 98.026 28.7984 100.509 30.3805 102.904L31.1936 104.135C35.874 111.386 42.9057 116.089 52.0689 118.154C57.5404 119.385 63.2097 120 68.9449 120C73.4715 120 78.152 119.604 82.8764 118.835C95.6872 116.748 104.763 110.222 109.86 99.4104C111.574 95.7846 113.706 91.9612 116.365 87.7422C121.858 78.9965 129.439 71.7231 135.416 66.3615C137.218 64.7354 138.097 62.8456 138.097 60.5384C138.097 57.5719 138.097 54.6054 138.097 51.6389C138.119 46.4311 138.141 41.0255 138.009 35.7077" fill="#2AB3DE"/>
<path d="M82.3932 36.2572C81.0528 36.2572 79.9102 35.1145 79.8882 33.7521C79.8882 33.0929 80.1299 32.4776 80.6133 31.9942C81.0968 31.5108 81.734 31.2471 82.3932 31.2471C83.7996 31.2471 84.9202 32.3458 84.9202 33.7301C84.9202 35.1365 83.8215 36.2572 82.3932 36.2572ZM82.3493 23.0068C79.9102 23.0068 77.6029 23.8199 75.7131 25.38C74.8561 26.0832 74.0871 26.8523 73.3619 27.6214C73.0982 27.907 72.8126 28.1707 72.5489 28.4564C71.4722 29.5331 70.3954 30.6098 69.3187 31.6866L67.8684 33.1588L67.7585 34.2575C69.1869 36.367 71.1206 37.7074 73.5157 38.2128C75.1198 38.5424 76.68 38.4765 78.1962 37.9931C77.9105 38.916 77.7567 39.8829 77.7787 40.8717C77.7787 42.4318 78.1742 43.8821 78.9873 45.3104L76.4163 47.8814C74.7902 49.5075 73.1422 51.1335 71.5161 52.7816C71.1206 53.1771 70.9887 53.6386 71.0986 54.1879C71.2085 54.7373 71.3183 55.3086 71.3843 55.9898C71.4282 56.3853 71.4502 56.7809 71.4502 57.1984V57.8136L72.9224 58.4289L73.0103 58.363C73.0103 58.363 73.1422 58.2531 73.2081 58.1872L78.0643 53.3309C82.0636 49.3317 86.0629 45.3324 90.0402 41.3331C92.6111 38.7402 93.6 35.4441 92.9188 31.7964C91.9959 26.7644 87.5351 23.0947 82.3493 23.0947" fill="#2AB3DE"/>
<path d="M59.0786 62.7798C55.9143 62.7798 53.3434 60.1649 53.3654 56.9787C53.3654 53.8364 55.9363 51.3094 59.0786 51.3094V50.4304L59.1225 51.3094C62.3967 51.3314 64.8358 53.8584 64.8138 57.1984C64.8138 60.2089 62.1769 62.7579 59.0566 62.7579L59.0786 62.7798ZM61.4298 46.563L62.8801 45.1127C64.4622 43.5306 66.0663 41.9485 67.6485 40.3444C68.6593 39.3116 68.7032 37.7514 67.7364 36.7846C66.7475 35.7958 65.1434 35.7958 64.1326 36.7846L60.9684 39.9489C57.8261 43.0692 54.5959 46.2993 51.4317 49.5075C48.9266 52.0565 47.9378 55.1549 48.5091 58.7366C49.3222 63.8566 53.8268 67.724 58.9907 67.724C59.606 67.724 60.2212 67.6581 60.8365 67.5702C65.0116 66.823 67.9341 64.34 69.2306 60.3847C70.571 56.3415 69.6701 52.5619 66.6596 49.4416C65.2533 47.9694 63.4954 47.0025 61.4078 46.563" fill="#2AB3DE"/>
</svg>
