<svg width="98" height="111" viewBox="0 0 98 111" fill="none" xmlns="http://www.w3.org/2000/svg">
<path d="M85.3159 54.2871V50.9441C85.3159 47.1765 84.7337 43.4752 83.5876 39.9233L96.4707 29.5484C97.8384 28.447 98.3447 26.6653 97.761 25.0092C97.1772 23.3531 95.6651 22.2832 93.9091 22.2832H88.3622L96.9035 7.22354C97.7625 5.70925 97.752 3.9068 96.8758 2.40232C95.9993 0.89828 94.4368 0 92.6956 0H76.9125C75.0749 0 73.3678 1.06755 72.5633 2.71993L64.866 18.5321C62.1223 17.2218 59.2265 16.2674 56.2348 15.6926C54.0063 15.2634 51.7126 15.0457 49.4174 15.0457C40.8521 15.0457 32.5586 18.1122 26.0647 23.6805C25.3787 24.2686 25.2995 25.3015 25.8876 25.9873C26.2111 26.3647 26.6692 26.5584 27.1303 26.5584C27.5073 26.5584 27.886 26.4288 28.1944 26.1642C34.0956 21.1041 41.6326 18.3175 49.4172 18.3175C51.5052 18.3175 53.5908 18.5153 55.6164 18.9056C58.3258 19.4262 60.947 20.292 63.4322 21.4767L60.6987 27.0919C60.0882 28.346 60.1652 29.8007 60.9046 30.9833C61.6443 32.166 62.9185 32.8721 64.3134 32.8721H69.5524L64.7715 45.5597C64.1302 47.2618 64.6891 49.1221 66.1623 50.1887C66.87 50.7011 67.6856 50.9559 68.4994 50.9559C69.3798 50.9559 70.2581 50.6575 70.9943 50.0648L80.8378 42.1376C81.6375 44.9923 82.0432 47.9448 82.0432 50.9444V54.3527C70.8352 54.2055 55.393 52.629 42.4031 46.3094C34.2815 42.3583 30.9329 38.3652 30.9036 38.3296C30.4667 37.7923 29.7388 37.5882 29.0866 37.8198C28.4339 38.0515 27.9981 38.669 27.9981 39.3614C27.9981 42.2205 26.5854 45.3758 24.0204 48.2458C22.0288 50.4743 19.4747 52.3513 16.7925 53.5956V50.9441C16.7925 43.7276 19.1003 36.8888 23.4668 31.1678C24.0149 30.4495 23.8771 29.4227 23.1587 28.8748C22.4406 28.3266 21.4139 28.4647 20.8657 29.1828C16.0604 35.4792 13.5204 43.0042 13.5204 50.9444V54.2969C13.2463 54.2875 13.0054 54.281 12.8634 54.281C5.77055 54.281 0 60.0504 0 67.1422C0 74.2351 5.77055 80.0056 12.8634 80.0056C13.2336 80.0056 13.6031 79.986 13.9713 79.9544C16.7015 97.0588 31.5554 110.172 49.4168 110.172C51.7122 110.172 54.0061 109.954 56.2335 109.525C65.7514 107.695 74.2508 101.96 79.5526 93.7896C80.0445 93.0316 79.8287 92.0186 79.0707 91.5267C78.3129 91.0348 77.2997 91.2507 76.8078 92.0085C71.9881 99.436 64.2641 104.649 55.6151 106.312C53.5903 106.702 51.505 106.9 49.4168 106.9C31.4278 106.9 16.7927 92.265 16.7927 74.2761V57.1507C20.4044 55.7551 23.8027 53.4004 26.4602 50.4265C28.615 48.0155 30.0972 45.383 30.8016 42.7717C32.7587 44.4446 35.972 46.7922 40.7236 49.1304C48.3771 52.8965 61.7015 57.3706 82.0435 57.6245V74.2761C82.0435 78.5721 81.222 82.7463 79.6017 86.683C79.2577 87.5186 79.6562 88.4745 80.4919 88.8185C80.6956 88.9023 80.9065 88.942 81.114 88.942C81.7573 88.942 82.3676 88.56 82.6274 87.9283C83.681 85.3683 84.4253 82.7168 84.8602 80.0019C84.9305 80.003 85.0005 80.0059 85.0707 80.0059C92.1625 80.0059 97.932 74.2353 97.932 67.1424C97.9324 60.1324 92.2947 54.4186 85.3159 54.2871ZM68.9425 47.5162C68.5751 47.8119 68.2451 47.6569 68.0813 47.5384C67.9175 47.4197 67.6673 47.1547 67.8335 46.7136L73.4481 31.8133C73.6374 31.3107 73.568 30.7472 73.2626 30.3055C72.957 29.864 72.4542 29.6003 71.9172 29.6003H64.3134C63.9526 29.6003 63.7609 29.38 63.6789 29.2486C63.5969 29.1173 63.4828 28.8488 63.6407 28.5244L75.5053 4.1522C75.7655 3.61755 76.3181 3.27203 76.9127 3.27203H92.6959C93.508 3.27203 93.9122 3.81562 94.0483 4.04946C94.1844 4.2833 94.458 4.90324 94.0572 5.60934L84.1304 23.1121C83.8431 23.6186 83.8468 24.2394 84.1397 24.7426C84.4329 25.2459 84.9713 25.5552 85.5535 25.5552H93.9091C94.4279 25.5552 94.6176 25.9343 94.675 26.0972C94.7326 26.2602 94.8225 26.6744 94.4185 26.9999L68.9425 47.5162ZM12.8641 76.7336C7.5754 76.7336 3.27268 72.4309 3.27268 67.1422C3.27268 61.8546 7.5754 57.553 12.8641 57.553C12.9821 57.553 13.226 57.5602 13.5211 57.5709V63.0572C11.2852 63.009 8.48437 63.779 7.15898 66.8272C6.79862 67.6557 7.17839 68.6196 8.00709 68.9798C8.21955 69.0723 8.44074 69.1159 8.65844 69.1159C9.29016 69.1159 9.89177 68.7479 10.1596 68.1317C10.8612 66.5179 12.4156 66.2712 13.5211 66.3235V74.2759C13.5211 75.0913 13.551 75.8999 13.6049 76.702C13.3586 76.721 13.1117 76.7336 12.8641 76.7336ZM85.2322 76.7295C85.2867 75.916 85.3159 75.098 85.3159 74.2759V66.3235C86.4212 66.2714 87.9739 66.519 88.6752 68.1317C88.9431 68.7479 89.5447 69.1159 90.1764 69.1159C90.3941 69.1159 90.6155 69.0721 90.8278 68.9798C91.6565 68.6196 92.0362 67.6557 91.6759 66.8272C90.3511 63.7801 87.5516 63.0096 85.3159 63.0572V57.5591C90.4905 57.6898 94.6604 61.9366 94.6604 67.1422C94.6604 72.3768 90.4454 76.6429 85.2322 76.7295Z" fill="#2AB3DE"/>
<path d="M41.1427 88.995C45.7054 84.4323 53.129 84.4325 57.6915 88.995C58.0109 89.3143 58.4297 89.4742 58.8483 89.4742C59.2669 89.4742 59.6857 89.3146 60.005 88.995C60.644 88.3561 60.644 87.3201 60.005 86.6814C54.1667 80.8431 44.6673 80.8433 38.8289 86.6814C38.19 87.3204 38.19 88.3563 38.8289 88.995C39.4678 89.6339 40.5038 89.6339 41.1427 88.995Z" fill="#2AB3DE"/>
<path d="M30.1105 74.0065C30.3269 74.7099 30.9743 75.1617 31.6736 75.1617C31.8329 75.1617 31.9952 75.1384 32.1553 75.0891L40.8026 72.4283C41.351 72.2594 41.7709 71.8157 41.9092 71.2588C42.0475 70.7019 41.8839 70.1134 41.4782 69.7077L35.6579 63.8874C35.019 63.2485 33.983 63.2485 33.3443 63.8874C32.7054 64.5263 32.7054 65.5622 33.3443 66.2009L37.2433 70.0999L31.1931 71.9614C30.3295 72.2274 29.8448 73.1429 30.1105 74.0065Z" fill="#2AB3DE"/>
<path d="M66.9289 75.1616C67.6282 75.1616 68.2756 74.7096 68.492 74.0063C68.7577 73.1427 68.273 72.2272 67.4094 71.9615L61.3594 70.1L65.2584 66.201C65.8973 65.5621 65.8973 64.5262 65.2584 63.8875C64.6195 63.2483 63.5835 63.2486 62.9448 63.8875L57.1246 69.7078C56.7188 70.1135 56.5552 70.702 56.6935 71.2589C56.8318 71.8158 57.2517 72.2595 57.8001 72.4283L66.4474 75.0891C66.6076 75.1382 66.7696 75.1616 66.9289 75.1616Z" fill="#2AB3DE"/>
<path d="M10.0284 19.918L3.70165 21.378C3.17812 21.4988 2.74731 21.869 2.54902 22.3683C2.35074 22.8676 2.41029 23.4326 2.70826 23.8796L9.36007 33.8573C9.67528 34.3302 10.194 34.5861 10.7228 34.5861C11.0347 34.5861 11.3499 34.4971 11.6287 34.311C12.3806 33.81 12.5837 32.7941 12.0824 32.0424L6.74354 24.0342L13.0845 22.571C13.6096 22.4497 14.0415 22.0778 14.2389 21.5763C14.4363 21.0748 14.3741 20.5083 14.0727 20.0616L4.86867 6.42527C4.36325 5.6762 3.34609 5.47857 2.59745 5.98442C1.84837 6.48984 1.65118 7.50679 2.1566 8.25565L10.0284 19.918Z" fill="#2AB3DE"/>
<path d="M22.431 20.156C22.6974 20.7753 23.3007 21.1461 23.9346 21.1461C24.1504 21.1461 24.3696 21.1032 24.5803 21.0126C25.4103 20.6556 25.7938 19.6934 25.4367 18.8631L22.7983 12.7298L27.1198 12.535C27.6582 12.5108 28.1503 12.2229 28.435 11.7655C28.7198 11.3078 28.7611 10.7394 28.5453 10.2457L25.1682 2.51676C24.8063 1.68872 23.8413 1.31047 23.0141 1.67257C22.186 2.03446 21.8082 2.99883 22.1699 3.82666L24.5936 9.3734L20.2867 9.56754C19.7499 9.59175 19.2593 9.87772 18.974 10.3332C18.6887 10.7884 18.6453 11.3549 18.8575 11.8484L22.431 20.156Z" fill="#2AB3DE"/>
</svg>
