<svg width="102" height="120" viewBox="0 0 102 120" fill="none" xmlns="http://www.w3.org/2000/svg">
<g clip-path="url(#clip0_3119_225171)">
<path d="M11.224 62.0415C13.5365 71.7077 20.4838 79.5161 18.7228 90.6046C16.8263 102.564 34.3687 98.1518 34.3687 98.1518C34.3687 98.1518 44.0445 96.8746 50.3532 97.4261C56.6618 97.9776 74.03 91.1078 78.3164 90.4401C81.2675 89.9757 79.5839 84.683 79.4678 80.3482C79.4098 78.1131 78.9066 75.9167 77.9874 73.8751C75.8587 69.1339 74.9105 65.1184 74.1848 62.206" fill="#F4E390"/>
<path d="M97.7358 72.6367C98.8195 71.853 99.4871 71.2724 99.5742 71.195C100.019 70.808 100.174 70.1887 99.9806 69.6275L96.3812 59.2744C96.178 58.6938 95.6265 58.2971 95.0072 58.2971H94.9782C94.7556 58.2971 94.5524 58.3745 94.3589 58.4713C93.8268 56.9038 93.2172 55.0847 92.8592 54.001C93.3623 53.5656 93.6719 53.2657 93.7203 53.2173C94.1074 52.8206 94.2428 52.24 94.059 51.7175L90.4596 41.3644C90.2564 40.7838 89.7048 40.3871 89.0856 40.3871H89.0566C88.4567 40.3968 87.9342 40.7935 87.731 41.3547C80.5999 23.0673 71.8722 5.16697 71.7852 4.98312C71.4368 4.26711 70.566 3.96716 69.8403 4.31549C69.1243 4.66382 68.8243 5.53465 69.1727 6.26034C69.2694 6.45385 78.3938 25.167 85.5636 43.8123C83.7832 44.9057 81.2965 45.554 79.3323 45.9023C78.7131 42.1094 77.0682 37.465 73.9719 34.4171C71.4368 31.9207 68.3212 30.9144 64.9346 31.5337C59.2065 32.5787 51.5046 34.2526 47.6923 35.1041L44.9443 23.5221C44.6444 22.2449 43.3865 21.4514 42.0996 21.7127L36.4973 22.8835C36.4683 21.3837 36.4973 19.8743 36.6424 18.3552C37.7552 6.19261 35.5297 1.73204 35.2781 1.26759C34.6395 0.0968152 33.1494 -0.35795 31.9787 0.280657C30.8079 0.919263 30.3628 2.37064 31.0111 3.54142C31.0304 3.58012 32.7914 7.34403 31.8239 17.9197C31.64 19.9323 31.611 21.9352 31.6884 23.8898L26.0377 25.0702C24.7895 25.3315 23.9574 26.5216 24.1412 27.7794L25.8538 39.7195C23.938 39.8162 21.2772 40.0291 18.4131 40.4935C17.0682 37.9875 14.8524 33.5269 12.2593 26.9086C7.88578 15.6846 2.76725 6.45385 2.71887 6.36677C2.33183 5.67011 1.44166 5.41854 0.744994 5.80557C0.0483318 6.19261 -0.20324 7.07311 0.183794 7.76977C0.232173 7.85685 5.26362 16.9328 9.58873 27.973C11.9883 34.0978 14.0493 38.3939 15.4523 41.0741C11.2239 42.0223 6.9956 43.5801 4.42182 46.1926C2.67049 47.973 1.79966 50.063 1.83837 52.4142C1.9448 58.7519 4.19928 65.0315 6.57954 71.6885C9.20169 79.0228 11.9206 86.6087 11.4368 94.0881C11.1562 98.4326 12.4044 101.809 15.162 104.132C18.1615 106.657 22.4189 107.315 26.0667 107.315C29.7145 107.315 32.5979 106.686 33.2462 106.541C33.343 106.531 33.5268 106.502 33.759 106.464L36.9617 118.907C37.1262 119.565 37.7165 120 38.3647 120C38.4808 120 38.6066 119.99 38.7324 119.952C39.5065 119.748 39.9806 118.965 39.7774 118.181L36.6618 106.096C40.4063 105.67 46.386 105.167 50.7692 105.602C56.3328 106.164 66.8988 102.796 77.2423 99.3034C79.4581 98.5584 81.3739 97.9101 82.4286 97.6198C88.9501 95.8201 88.3696 88.9599 87.9438 83.9575C87.8471 82.777 87.7503 81.674 87.7213 80.629C87.6923 79.5259 87.5761 78.4422 87.4213 77.3489C90.2854 76.8167 92.9463 75.5975 95.0362 74.3784C97.8616 96.5651 98.5292 110.547 98.5389 110.692C98.5776 111.466 99.2162 112.076 99.9903 112.076C100.01 112.076 100.039 112.076 100.058 112.076C100.861 112.037 101.48 111.36 101.442 110.556C101.442 110.411 100.735 95.733 97.7455 72.6271L97.7358 72.6367ZM92.2302 61.1418C90.1886 62.7287 86.4054 63.793 83.222 64.3058C82.506 62.3126 81.9158 60.5709 81.4417 59.0615C85.1185 58.7422 88.2341 57.2328 90.4209 55.8201C90.953 57.4263 91.7174 59.7001 92.2399 61.1418H92.2302ZM88.2922 45.4572C88.2922 45.4572 88.3405 45.4185 88.3599 45.3992C88.476 45.3024 88.5921 45.2153 88.6985 45.1089L91.0111 51.7756C89.492 53.0625 85.4958 56.0039 80.5708 56.2168C79.671 53.0431 79.4388 51.4079 79.5258 50.866C79.6226 50.3145 79.6516 49.6082 79.6323 48.8244C82.0996 48.4374 85.8345 47.5182 88.2922 45.4572V45.4572ZM81.1417 92.9657C79.9613 93.2947 78.0841 93.9236 75.7039 94.7267C68.9017 97.0199 56.2457 101.287 51.253 100.793C43.8316 100.048 32.8882 101.693 32.4238 101.771C32.356 101.78 32.2883 101.79 32.2206 101.809C29.5597 102.458 21.8674 103.454 18.2777 100.426C16.7392 99.1389 16.0812 97.165 16.2651 94.3977C16.8166 85.9217 13.9332 77.852 11.1369 70.0533C8.89207 63.7833 6.77305 57.8617 6.6763 52.3271C6.65694 51.2918 7.0343 50.421 7.86643 49.5792C11.969 45.4089 24.2573 44.48 28.6502 44.48C29.3468 44.48 30.0145 44.1704 30.4789 43.6479C30.9337 43.1157 31.1465 42.419 31.0401 41.7224L29.2694 29.3469L32.1141 28.7567C33.072 36.42 35.2685 42.3416 35.4039 42.6996C35.7716 43.6672 36.6908 44.2671 37.6681 44.2671C37.9487 44.2671 38.2389 44.2187 38.5195 44.1123C39.7677 43.6382 40.4063 42.2449 39.9322 40.9967C39.9032 40.9193 37.7552 35.0944 36.8747 27.7601L40.8127 26.9376L43.5607 38.5487C43.8703 39.8452 45.1572 40.6483 46.4538 40.3484C46.5699 40.3194 58.0648 37.7069 65.8248 36.2942C67.6245 35.9652 69.192 36.478 70.595 37.8617C73.8461 41.0644 75.1523 47.6633 74.7556 50.0533C74.5815 51.1079 74.0493 54.3107 81.3255 73.0334C82.2931 75.5201 82.8156 78.1133 82.8834 80.7451C82.9124 81.9352 83.0188 83.1737 83.1156 84.3639C83.6091 90.1597 83.3865 92.3271 81.132 92.9464L81.1417 92.9657ZM85.8345 71.2918C85.2443 69.7824 84.7218 68.389 84.2283 67.0731C87.2665 66.5409 91.9303 65.3702 94.5815 62.9415L96.9037 69.6275C95.2878 70.8854 91.2627 73.7108 86.8408 74.5138C86.5602 73.4302 86.2409 72.3465 85.8345 71.2918Z" fill="#4BBBEB"/>
</g>
<defs>
<clipPath id="clip0_3119_225171">
<rect width="101.442" height="120" fill="white"/>
</clipPath>
</defs>
</svg>
