<svg width="132" height="99" viewBox="0 0 132 99" fill="none" xmlns="http://www.w3.org/2000/svg">
<g clip-path="url(#clip0_3648_236274)">
<path d="M6.17871 50.0974C6.17871 25.3125 26.2661 5.2251 51.051 5.2251C75.8359 5.2251 95.9233 25.3125 95.9233 50.0974C95.9233 74.8823 75.8359 94.9697 51.051 94.9697C26.2661 94.9697 6.17871 74.8823 6.17871 50.0974Z" stroke="#4BBBEB" stroke-width="6"/>
<path d="M113.22 23.8505C112.486 23.8505 111.867 23.5906 111.363 23.0707C110.858 22.5509 110.636 21.9394 110.697 21.2361C110.789 19.9518 111.094 18.8358 111.614 17.8879C112.134 16.94 112.96 15.9615 114.091 14.9524C115.345 13.8516 116.3 12.8958 116.957 12.0849C117.615 11.2752 117.944 10.3505 117.944 9.31086C117.944 8.05718 117.523 7.01754 116.683 6.19195C115.842 5.36636 114.672 4.95356 113.174 4.95356C112.195 4.95356 111.362 5.15965 110.675 5.57184C109.986 5.98525 109.428 6.49773 109 7.10928C108.572 7.72083 108.045 8.13362 107.419 8.34767C106.791 8.56171 106.187 8.54642 105.606 8.3018C104.903 7.99602 104.422 7.4915 104.162 6.78821C103.902 6.08493 103.955 5.42751 104.322 4.81596C105.209 3.43997 106.401 2.29331 107.899 1.37599C109.398 0.458663 111.156 0 113.174 0C116.384 0 118.854 0.894698 120.582 2.6841C122.309 4.47227 123.172 6.62004 123.172 9.12739C123.172 10.6563 122.844 11.9638 122.187 13.0499C121.529 14.1348 120.497 15.3652 119.09 16.7412C118.051 17.7197 117.317 18.5147 116.889 19.1262C116.461 19.7378 116.17 20.4411 116.017 21.2361C115.895 22.0005 115.574 22.6274 115.054 23.1166C114.534 23.6059 113.923 23.8505 113.22 23.8505ZM113.174 34.8584C112.165 34.8584 111.301 34.4994 110.583 33.7814C109.864 33.0623 109.505 32.1981 109.505 31.1891C109.505 30.18 109.864 29.3159 110.583 28.5967C111.301 27.8788 112.165 27.5198 113.174 27.5198C114.183 27.5198 115.047 27.8788 115.766 28.5967C116.484 29.3159 116.843 30.18 116.843 31.1891C116.843 32.1981 116.484 33.0623 115.766 33.7814C115.047 34.4994 114.183 34.8584 113.174 34.8584Z" fill="#4BBBEB"/>
<path d="M58.0728 47.2965C59.9543 40.3955 64.6664 37.7101 67.7569 35.6421C76.0111 30.1189 70.371 13.025 48.9823 17.847C9.24404 26.8057 14.7937 53.0297 26.9821 63.3941C31.3706 67.1257 37.4491 68.9668 44.011 67.4901C54.8688 65.0466 55.6176 56.3019 58.0728 47.2965Z" stroke="#4BBBEB" stroke-width="4" stroke-miterlimit="22.926" stroke-linecap="round" stroke-linejoin="round"/>
<path d="M52.8383 45.8695C53.8924 42.0033 55.7924 38.6421 58.6325 35.813C60.5422 33.9108 62.5297 32.6117 64.7397 31.1329C65.1837 30.8357 65.5149 30.4473 65.7223 29.9538C66.4813 28.1477 65.3962 26.0646 64.0423 24.864C60.52 21.7405 54.3977 22.1877 50.1755 23.1397C40.6108 25.2959 26.3147 30.3258 23.7981 41.3055C22.3033 47.8271 25.5311 55.0383 30.4968 59.2608C33.9571 62.2032 38.4076 63.1898 42.8197 62.1969C45.1452 61.6736 47.0935 60.7587 48.5116 58.7911C49.5904 57.2943 50.2735 55.385 50.8014 53.6316C51.5707 51.0759 52.1357 48.4468 52.8383 45.8695Z" stroke="#4BBBEB" stroke-width="4" stroke-miterlimit="22.926" stroke-linecap="round" stroke-linejoin="round"/>
<path d="M39.0829 53.2256C41.4735 53.2256 43.4233 51.2758 43.4233 48.8851C43.4233 46.4945 41.4735 44.5447 39.0829 44.5447C36.6923 44.5447 34.7424 46.4945 34.7424 48.8851C34.7424 51.2758 36.6923 53.2256 39.0829 53.2256Z" stroke="#4BBBEB" stroke-width="4" stroke-miterlimit="22.926" stroke-linecap="round" stroke-linejoin="round"/>
<path d="M105.454 90.4054C109.979 90.8246 113.986 87.4967 114.405 82.9724C114.825 78.4481 111.497 74.4406 106.972 74.0214C102.448 73.6023 98.4407 76.9301 98.0215 81.4544C97.6023 85.9787 100.93 89.9862 105.454 90.4054Z" stroke="#4BBBEB" stroke-width="4" stroke-linecap="round" stroke-linejoin="round"/>
<path d="M103.564 90.2302C103.33 92.7508 101.72 96.4149 99.0824 97.4417C97.1919 97.2666 95.535 94.5708 94.5083 91.9334C92.1044 90.4396 89.8173 87.6854 89.9341 86.4251C91.428 84.0213 95.3256 83.1113 97.8462 83.3448M108.863 74.1966C109.096 71.676 110.707 68.0118 113.344 66.9851C115.235 67.1602 116.892 69.856 117.918 72.4934C120.322 73.9872 122.609 76.7413 122.493 78.0016C120.999 80.4055 117.101 81.3155 114.58 81.0819" stroke="#4BBBEB" stroke-width="4" stroke-linecap="round" stroke-linejoin="round"/>
<path d="M63.9417 82.3875C62.1752 81.6655 61.363 79.5639 62.1274 77.6936C64.0317 73.0347 62.8853 68.2023 61.4975 63.7276C60.4317 60.2915 62.3175 56.8035 65.9421 57.2643C64.5844 53.5367 68.5655 49.7814 71.9917 51.7449C72.8402 49.391 75.3718 48.1683 77.5622 49.0636C79.7526 49.9589 80.703 52.6047 79.6598 54.879C83.4804 55.8776 83.6913 61.3463 80.1114 63.0558C83.021 65.2657 81.9238 69.076 78.7563 70.7819C74.6316 73.0034 70.4285 75.6493 68.5243 80.3082C67.7598 82.1785 65.7081 83.1094 63.9417 82.3875Z" stroke="#4BBBEB" stroke-width="3" stroke-miterlimit="22.926" stroke-linecap="round" stroke-linejoin="round"/>
<path d="M65.3259 79.001L75.8258 53.3121" stroke="#4BBBEB" stroke-width="3" stroke-miterlimit="22.926" stroke-linecap="round" stroke-linejoin="round"/>
<path d="M70.3822 56.5234L72.6198 61.156L77.4618 59.417" stroke="#4BBBEB" stroke-width="3" stroke-miterlimit="22.926" stroke-linecap="round" stroke-linejoin="round"/>
<path d="M65.8573 62.4564L69.2322 69.4436L76.5351 66.8208" stroke="#4BBBEB" stroke-width="3" stroke-miterlimit="22.926" stroke-linecap="round" stroke-linejoin="round"/>
</g>
<defs>
<clipPath id="clip0_3648_236274">
<rect width="132" height="99" fill="white"/>
</clipPath>
</defs>
</svg>
