<svg width="100" height="108" viewBox="0 0 100 108" fill="none" xmlns="http://www.w3.org/2000/svg">
<g clip-path="url(#clip0_4602_114439)">
<path d="M29.2171 88.9095C29.2171 95.0605 27.8294 98.436 25.2915 100.961C22.7661 103.499 19.7656 104.887 16.1776 104.887C12.5895 104.887 9.58902 103.499 7.05111 100.961C4.52572 98.4235 3.12549 95.0605 3.12549 88.9095V77.2576C3.12549 77.2576 3.10049 77.1951 3.10049 77.1701V45.9152C3.05048 45.5526 3.03798 45.2026 3.03798 44.8775C3.03798 41.0644 5.12581 37.6514 8.06378 35.376C8.80139 34.8009 9.86406 34.9384 10.4392 35.6886C11.0142 36.4262 10.8767 37.4888 10.1391 38.0639C7.86374 39.8267 6.41351 42.3646 6.42602 44.89C6.42602 45.1526 6.43852 45.4026 6.46352 45.6401V45.8527L6.48853 70.219H29.2171V88.922V88.9095ZM16.1651 29C7.02611 29 0 36.4012 0 44.4274V90.3722C0 100.599 7.02611 108 16.1651 108C25.2915 108 32.3301 100.599 32.3301 90.3722V44.4274C32.3301 36.4012 25.2915 29 16.1651 29" fill="#4BBBEB"/>
<path d="M49.3203 70.2314C45.1071 67.2809 40.1813 66.1432 35.4306 66.6308V83.2084L55.4462 97.2231C60.6096 88.0967 58.0842 76.3699 49.3203 70.2314ZM35.4306 90.3846C35.4306 96.6355 33.0302 102.149 29.1046 105.925C37.5184 109.688 47.595 107.375 53.5209 100.036L35.4306 87.3716V90.3846V90.3846Z" fill="#4BBBEB"/>
<path fill-rule="evenodd" clip-rule="evenodd" d="M70 3C70 1.34316 71.3431 0 73 0H96.9907C98.2057 0 99.3001 0.73179 99.7648 1.85307C100.23 2.97534 99.9739 4.26882 99.1147 5.12787L80.2426 24H97C98.6569 24 100 25.3431 100 27C100 28.6569 98.6569 30 97 30H73.0093C71.7946 30 70.6993 29.2683 70.2346 28.146C69.7693 27.0222 70.0279 25.7295 70.8853 24.8721L89.7574 6H73C71.3431 6 70 4.65684 70 3ZM46 18C46 16.3432 47.3432 15 49 15H63.9908C65.2054 15 66.3003 15.7317 66.7651 16.8537C67.2301 17.9759 66.9737 19.269 66.1148 20.1279L56.2426 30H64C65.6568 30 67 31.3431 67 33C67 34.6569 65.6568 36 64 36H49.0092C47.7947 36 46.6997 35.2683 46.2349 34.1463C45.7703 33.0249 46.0259 31.7316 46.8852 30.8721L56.7574 21H49C47.3432 21 46 19.6568 46 18ZM64 42C64 40.3431 65.3432 39 67 39H78.9907C80.2045 39 81.2998 39.7308 81.7648 40.8531C82.2301 41.9754 81.9739 43.2687 81.1147 44.1279L74.2426 51H79C80.6569 51 82 52.3431 82 54C82 55.6569 80.6569 57 79 57H67.0093C65.7947 57 64.6997 56.2683 64.2349 55.1463C63.7702 54.0246 64.026 52.7313 64.8852 51.8721L71.7574 45H67C65.3432 45 64 43.6569 64 42Z" fill="#4BBBEB"/>
</g>
<defs>
<clipPath id="clip0_4602_114439">
<rect width="100" height="108" fill="white"/>
</clipPath>
</defs>
</svg>
