<svg width="24" height="24" viewBox="0 0 24 24" fill="none" xmlns="http://www.w3.org/2000/svg">
<path d="M17 7C18.5092 8.70732 21 13.25 17 17.25" stroke="white" stroke-width="2" stroke-linecap="round"/>
<path d="M19.5 4C22.25 7 25.5 14 19.5 20.25" stroke="white" stroke-width="2" stroke-linecap="round"/>
<path d="M0 7.11868V11.4356V16.8813C0 17.4336 0.447716 17.8813 1 17.8813H6.48888C6.71568 17.8813 6.93575 17.9584 7.11296 18.1L12.8759 22.7028C13.5308 23.2259 14.5 22.7596 14.5 21.9215V2.07852C14.5 1.24038 13.5308 0.774091 12.8759 1.29715L7.11296 5.90004C6.93575 6.04158 6.71568 6.11868 6.48888 6.11868H1C0.447715 6.11868 0 6.5664 0 7.11868Z" fill="white"/>
</svg>
