<svg width="76" height="120" viewBox="0 0 76 120" fill="none" xmlns="http://www.w3.org/2000/svg">
<path d="M63.2177 66.0645C60.607 67.3051 57.737 68.3605 54.8486 68.879C42.5726 71.1009 30.278 71.0453 18.0576 68.4531C16.1504 68.0457 14.2433 67.3792 12.5399 66.5274C9.52178 65.0091 9.4292 62.8613 12.5399 61.6207C15.8542 60.3061 19.4277 59.2877 23.0013 58.7508C27.7784 58.0287 32.6481 57.8991 37.4807 57.5102C44.8315 57.7509 52.0897 58.1768 59.1072 60.232C60.5515 60.6579 61.9957 61.2689 63.2362 62.0281C65.31 63.3242 65.4026 65.0091 63.2177 66.0645V66.0645ZM15.9097 15.2015C13.3916 15.2015 11.3363 13.4055 11.3363 11.1836C11.3363 8.96167 13.3731 7.16563 15.9097 7.16563C18.4464 7.16563 20.4832 8.96167 20.4832 11.1836C20.4832 13.4055 18.4464 15.2015 15.9097 15.2015ZM68.6614 57.214C67.0505 56.4548 65.3656 55.7142 63.6251 55.2698C60.1811 54.3625 56.6816 53.5663 53.1636 52.9368C51.4787 52.6406 51.5157 51.8073 51.4787 50.7149C51.4417 49.4743 52.2934 49.3818 53.3488 49.4003C55.0522 49.4003 56.7372 49.4003 58.4406 49.4003C63.2177 49.3818 66.0507 46.9747 66.4765 42.7531C67.0875 36.828 67.8282 30.9029 68.4948 24.9594C69.1613 19.0343 69.9575 13.1092 70.3648 7.16563C70.6611 2.66628 67.4393 0 62.3845 0C54.1265 0 45.8869 0 37.6288 0C29.1486 0 20.6868 0 12.2066 0C8.05902 0 4.92984 2.66628 4.72617 6.29539C4.68914 7.07305 4.67062 7.85072 4.7632 8.62838C6.07783 20.2378 7.37393 31.8287 8.7441 43.4382C9.15145 46.9932 12.077 49.2892 16.1504 49.4003C17.9094 49.4373 19.687 49.4003 21.446 49.4003C22.594 49.4003 23.6309 49.3262 23.6494 50.8445C23.6679 52.1962 23.2976 52.9368 21.6126 52.9738C20.7424 52.9738 19.8721 53.2145 19.0204 53.3997C13.6138 54.4921 8.31824 55.8068 3.76334 58.7693C1.46738 60.2691 -0.217564 62.1392 0.023142 64.8055C0.2083 66.8607 0.467526 68.953 1.09706 70.9342C4.09663 80.5069 11.0216 87.2652 21.0016 91.6349C22.668 92.357 23.0198 93.1162 22.668 94.616C21.4275 100.078 20.4091 105.577 19.113 111.021C18.6316 113.002 19.2241 114.558 20.8905 115.687C22.3903 116.705 24.0752 117.594 25.8157 118.187C31.5186 120.112 37.4992 120.446 43.4243 119.464C46.6275 118.946 49.7937 117.89 52.7378 116.65C55.4411 115.502 56.7001 113.484 55.941 110.54C54.6079 105.3 53.7191 99.9856 52.4785 94.7086C52.1082 93.0977 52.5156 92.357 54.2375 91.5794C65.0878 86.7097 72.2349 79.2478 74.679 68.5642C76.0122 62.7502 74.605 60.0654 68.6984 57.251" fill="#2AB3DE"/>
</svg>
