<svg width="273" height="112" viewBox="0 0 273 112" fill="none" xmlns="http://www.w3.org/2000/svg">
<path d="M0 56C0 25.0721 25.0721 0 56 0H217C247.928 0 273 25.0721 273 56V56C273 86.9279 247.928 112 217 112H56C25.0721 112 0 86.9279 0 56V56Z" fill="white"/>
<rect x="4" y="4" width="265" height="104" rx="52" fill="#4EE074"/>
<g filter="url(#filter0_di_1139_130402)">
<circle cx="217" cy="56" r="50" fill="white"/>
</g>
<path d="M22.5101 69.36C22.5101 70.448 23.3741 71.28 24.4301 71.28C25.5181 71.28 26.3821 70.448 26.3821 69.36V63.376C27.5661 64.944 29.3261 66.352 32.1421 66.352C36.1421 66.352 39.9821 63.184 39.9821 57.584V57.52C39.9821 51.888 36.1101 48.752 32.1421 48.752C29.3901 48.752 27.6301 50.16 26.3821 51.92V50.864C26.3821 49.776 25.5181 48.912 24.4301 48.912C23.3421 48.912 22.5101 49.776 22.5101 50.864V69.36ZM31.2141 62.992C28.5901 62.992 26.2861 60.816 26.2861 57.584V57.52C26.2861 54.288 28.5901 52.112 31.2141 52.112C33.8381 52.112 36.0461 54.256 36.0461 57.52V57.584C36.0461 60.912 33.8701 62.992 31.2141 62.992ZM48.8429 66.352C51.4349 66.352 53.1949 65.264 54.3469 63.888V64.528C54.3469 65.392 55.1149 66.16 56.2349 66.16C57.2909 66.16 58.1229 65.36 58.1229 64.304V55.984C58.1229 53.776 57.5469 51.984 56.2989 50.768C55.1149 49.552 53.2269 48.88 50.6989 48.88C48.4909 48.88 46.8589 49.264 45.2589 49.872C44.6829 50.096 44.2029 50.704 44.2029 51.408C44.2029 52.304 44.9389 53.008 45.8349 53.008C46.0269 53.008 46.2189 52.976 46.4429 52.912C47.4989 52.496 48.7149 52.24 50.1869 52.24C52.9069 52.24 54.3789 53.52 54.3789 55.92V56.336C53.0669 55.92 51.7229 55.632 49.8349 55.632C45.7069 55.632 42.8589 57.424 42.8589 61.072V61.136C42.8589 64.528 45.6749 66.352 48.8429 66.352ZM49.9309 63.536C48.0749 63.536 46.6349 62.608 46.6349 60.976V60.912C46.6349 59.152 48.1069 58.096 50.6029 58.096C52.1389 58.096 53.4509 58.384 54.4429 58.768V59.92C54.4429 62.064 52.4909 63.536 49.9309 63.536ZM70.5681 66.384C73.3841 66.384 75.2081 65.424 76.7121 63.984C77.0641 63.696 77.2561 63.28 77.2561 62.768C77.2561 61.84 76.5201 61.072 75.5921 61.072C75.1441 61.072 74.7601 61.296 74.5361 61.488C73.4801 62.384 72.2961 62.992 70.7601 62.992C67.7841 62.992 65.7041 60.592 65.7041 57.584V57.52C65.7041 54.576 67.7841 52.144 70.6001 52.144C72.1361 52.144 73.2241 52.752 74.2161 53.584C74.4721 53.776 74.8881 53.968 75.3681 53.968C76.3601 53.968 77.1601 53.2 77.1601 52.208C77.1601 51.568 76.8081 51.088 76.5521 50.864C75.1121 49.616 73.2881 48.752 70.6321 48.752C65.5441 48.752 61.8321 52.784 61.8321 57.584V57.648C61.8321 62.448 65.5441 66.384 70.5681 66.384ZM80.9774 44.752C80.9774 45.904 81.9374 46.672 83.1854 46.672C84.4334 46.672 85.3934 45.904 85.3934 44.752V44.56C85.3934 43.408 84.4334 42.672 83.1854 42.672C81.9374 42.672 80.9774 43.408 80.9774 44.56V44.752ZM81.2654 64.24C81.2654 65.328 82.1294 66.16 83.1854 66.16C84.2734 66.16 85.1374 65.328 85.1374 64.24V50.864C85.1374 49.776 84.2734 48.912 83.1854 48.912C82.0974 48.912 81.2654 49.776 81.2654 50.864V64.24ZM93.1096 56.368C93.4616 53.744 95.1256 51.92 97.4936 51.92C100.054 51.92 101.526 53.872 101.782 56.368H93.1096ZM104.022 64.144C104.31 63.856 104.534 63.44 104.534 62.96C104.534 62.064 103.862 61.392 102.998 61.392C102.55 61.392 102.294 61.52 102.006 61.744C100.918 62.64 99.6376 63.216 98.0056 63.216C95.5096 63.216 93.5576 61.68 93.1416 58.928H103.734C104.726 58.928 105.558 58.16 105.558 57.072C105.558 53.168 102.902 48.752 97.5256 48.752C92.6936 48.752 89.2696 52.72 89.2696 57.552V57.616C89.2696 62.832 93.0456 66.384 97.9416 66.384C100.566 66.384 102.486 65.52 104.022 64.144ZM109.51 64.24C109.51 65.328 110.374 66.16 111.43 66.16C112.518 66.16 113.382 65.328 113.382 64.24V56.464C113.382 53.84 114.95 52.272 117.19 52.272C119.494 52.272 120.806 53.776 120.806 56.4V64.24C120.806 65.328 121.67 66.16 122.758 66.16C123.846 66.16 124.678 65.328 124.678 64.24V55.216C124.678 51.312 122.47 48.752 118.662 48.752C116.038 48.752 114.47 50.128 113.382 51.696V50.864C113.382 49.776 112.518 48.912 111.43 48.912C110.342 48.912 109.51 49.776 109.51 50.864V64.24ZM135.018 66.288C136.042 66.288 136.842 66.128 137.674 65.84C138.218 65.616 138.698 65.04 138.698 64.336C138.698 63.44 137.93 62.736 137.066 62.736C136.938 62.736 136.554 62.832 136.106 62.832C134.794 62.832 134.026 62.224 134.026 60.72V52.432H137.066C137.994 52.432 138.762 51.696 138.762 50.768C138.762 49.84 137.994 49.104 137.066 49.104H134.026V46.224C134.026 45.168 133.162 44.304 132.106 44.304C131.018 44.304 130.154 45.168 130.154 46.224V49.104H129.514C128.586 49.104 127.85 49.84 127.85 50.768C127.85 51.696 128.586 52.432 129.514 52.432H130.154V61.328C130.154 65.04 132.17 66.288 135.018 66.288ZM144.953 56.368C145.305 53.744 146.969 51.92 149.337 51.92C151.897 51.92 153.369 53.872 153.625 56.368H144.953ZM155.865 64.144C156.153 63.856 156.377 63.44 156.377 62.96C156.377 62.064 155.705 61.392 154.841 61.392C154.393 61.392 154.137 61.52 153.849 61.744C152.761 62.64 151.481 63.216 149.849 63.216C147.353 63.216 145.401 61.68 144.985 58.928H155.577C156.569 58.928 157.401 58.16 157.401 57.072C157.401 53.168 154.745 48.752 149.369 48.752C144.537 48.752 141.113 52.72 141.113 57.552V57.616C141.113 62.832 144.889 66.384 149.785 66.384C152.409 66.384 154.329 65.52 155.865 64.144Z" fill="white"/>
<path d="M217.23 58.4713C228.509 58.4713 237.653 48.7399 237.653 36.7356C237.653 24.7314 228.509 15 217.23 15C205.95 15 196.807 24.7314 196.807 36.7356C196.807 48.7399 205.95 58.4713 217.23 58.4713Z" stroke="black" stroke-width="2.5" stroke-miterlimit="10" stroke-linecap="round" stroke-linejoin="round"/>
<path d="M200.449 24.3398C200.449 24.3398 224.074 26.7778 237.349 32.946" stroke="black" stroke-width="2.5" stroke-miterlimit="10" stroke-linecap="round" stroke-linejoin="round"/>
<path d="M206.19 18.5244C206.19 18.5244 221.894 20.0224 235.169 26.1613" stroke="black" stroke-width="2.5" stroke-miterlimit="10" stroke-linecap="round" stroke-linejoin="round"/>
<path d="M209.557 25.6035C209.557 25.6035 201.774 27.9827 196.807 34.1215" stroke="black" stroke-width="2.5" stroke-miterlimit="10" stroke-linecap="round" stroke-linejoin="round"/>
<path d="M203.182 60.5869L196.807 63.906L200.45 96.9207H218.141L203.182 60.5869Z" stroke="black" stroke-width="2.5" stroke-miterlimit="10" stroke-linecap="round" stroke-linejoin="round"/>
<path d="M194.322 81.0889H198.738" stroke="black" stroke-width="2.5" stroke-miterlimit="10" stroke-linecap="round" stroke-linejoin="round"/>
<path d="M211.71 81.0889H228.297C228.297 81.0889 235.169 81.0008 235.169 89.137C235.169 97.2438 227.717 96.9501 227.717 96.9501C227.717 96.9501 222.75 96.9501 221.922 92.8379L216.981 92.8967" stroke="black" stroke-width="2.5" stroke-miterlimit="10" stroke-linecap="round" stroke-linejoin="round"/>
<path d="M230.78 81.0562L232.012 61.9426L226.469 59.8164L220.926 81.0562" stroke="black" stroke-width="2.5" stroke-miterlimit="10" stroke-linecap="round" stroke-linejoin="round"/>
<path d="M246.995 95C247.235 78.5811 238.876 67.5769 232 64" stroke="black" stroke-width="2.5" stroke-miterlimit="10" stroke-linecap="round" stroke-linejoin="round"/>
<path d="M187.001 94C187.001 94 186.678 77.2473 197 68" stroke="black" stroke-width="2.5" stroke-miterlimit="10" stroke-linecap="round" stroke-linejoin="round"/>
<path d="M225.237 60.4567C225.237 60.4567 215.06 54.9231 204.297 61.7376" stroke="black" stroke-width="2.5" stroke-miterlimit="10" stroke-linecap="round" stroke-linejoin="round"/>
<defs>
<filter id="filter0_di_1139_130402" x="157" y="0" width="112" height="112" filterUnits="userSpaceOnUse" color-interpolation-filters="sRGB">
<feFlood flood-opacity="0" result="BackgroundImageFix"/>
<feColorMatrix in="SourceAlpha" type="matrix" values="0 0 0 0 0 0 0 0 0 0 0 0 0 0 0 0 0 0 127 0" result="hardAlpha"/>
<feOffset dx="-4"/>
<feGaussianBlur stdDeviation="3"/>
<feComposite in2="hardAlpha" operator="out"/>
<feColorMatrix type="matrix" values="0 0 0 0 0 0 0 0 0 0 0 0 0 0 0 0 0 0 0.25 0"/>
<feBlend mode="normal" in2="BackgroundImageFix" result="effect1_dropShadow_1139_130402"/>
<feBlend mode="normal" in="SourceGraphic" in2="effect1_dropShadow_1139_130402" result="shape"/>
<feColorMatrix in="SourceAlpha" type="matrix" values="0 0 0 0 0 0 0 0 0 0 0 0 0 0 0 0 0 0 127 0" result="hardAlpha"/>
<feOffset dx="-3" dy="-3"/>
<feGaussianBlur stdDeviation="3"/>
<feComposite in2="hardAlpha" operator="arithmetic" k2="-1" k3="1"/>
<feColorMatrix type="matrix" values="0 0 0 0 0 0 0 0 0 0 0 0 0 0 0 0 0 0 0.15 0"/>
<feBlend mode="normal" in2="shape" result="effect2_innerShadow_1139_130402"/>
</filter>
</defs>
</svg>
