<svg width="106" height="106" viewBox="0 0 106 106" fill="none" xmlns="http://www.w3.org/2000/svg">
<g clip-path="url(#clip0_4578_1000520)">
<path d="M70.9372 38.301C69.695 36.4129 66.0678 30.7485 66.0264 30.6822C65.3856 29.6944 64.5128 28.8784 63.484 28.3055L57.8693 25.2001C56.8363 24.6321 55.6472 24.4139 54.4798 24.5781C53.3125 24.7423 52.2296 25.2801 51.3934 26.111L32.8103 44.719L8.28122 20.1733L20.1731 8.28146L41.2489 29.3738C41.5608 29.6846 41.9833 29.8587 42.4236 29.858C42.8639 29.8572 43.2858 29.6815 43.5966 29.3697C43.9074 29.0578 44.0816 28.6352 44.0808 28.1949C44.08 27.7547 43.9043 27.3327 43.5925 27.0219L21.349 4.77849C21.1951 4.62325 21.0119 4.50004 20.8101 4.41595C20.6082 4.33187 20.3917 4.28857 20.1731 4.28857C19.9545 4.28857 19.738 4.33187 19.5361 4.41595C19.3343 4.50004 19.1511 4.62325 18.9972 4.77849L9.93747 13.8299L2.83216 6.7163C2.51479 6.40552 2.08697 6.23355 1.6428 6.23821C1.19863 6.24286 0.774504 6.42378 0.463724 6.74115C0.152945 7.05852 -0.0190322 7.48634 -0.0143731 7.93051C-0.00971397 8.37468 0.171199 8.7988 0.488568 9.10958L7.59388 16.2149L4.77826 19.0388C4.62302 19.1928 4.4998 19.376 4.41572 19.5778C4.33163 19.7796 4.28834 19.9961 4.28834 20.2147C4.28834 20.4334 4.33163 20.6499 4.41572 20.8517C4.4998 21.0535 4.62302 21.2367 4.77826 21.3907L30.4501 47.0626L26.0942 51.4185C25.2633 52.2547 24.7255 53.3375 24.5613 54.5049C24.3971 55.6723 24.6153 56.8614 25.1833 57.8944L28.2887 63.5091C28.8611 64.5146 29.6679 65.367 30.6406 65.9935C30.8725 66.1508 36.305 69.778 38.3587 70.9622C39.5707 71.6251 40.9361 71.9565 42.3172 71.9229C47.5675 71.9229 54.7887 68.0721 61.4386 61.4222C70.2415 52.6772 74.142 43.1538 70.9372 38.301ZM40.2137 68.1963C44.8098 65.7119 51.352 60.0393 55.6665 55.7165C58.6395 52.7435 61.1984 49.9941 63.277 47.5429C63.5614 47.2068 63.7007 46.7716 63.6642 46.3328C63.6277 45.8941 63.4184 45.4878 63.0824 45.2034C62.7464 44.919 62.3111 44.7797 61.8724 44.8162C61.4336 44.8527 61.0274 45.062 60.7429 45.398C58.7223 47.7747 56.2297 50.4579 53.2898 53.3646C44.6193 62.0351 38.2097 65.7865 36.7273 66.0763C36.189 65.7285 32.007 63.4429 31.1375 61.8694L28.032 56.2547C27.8155 55.8582 27.7324 55.4025 27.795 54.955C27.8577 54.5076 28.0627 54.0922 28.3798 53.7704L53.7453 28.4546C54.0678 28.1386 54.4831 27.9344 54.9302 27.8718C55.3774 27.8092 55.8328 27.8915 56.2297 28.1068L61.8443 31.2122C62.7553 31.7174 67.0615 38.4915 68.1464 40.1311C70.109 43.0627 67.2437 50.9713 59.1115 59.1118C51.2857 66.9293 43.4434 69.8277 40.2137 68.1963Z" fill="#4BBBEB"/>
<path d="M10.0783 6.62508C10.3715 6.95452 10.7836 7.154 11.2239 7.17963C11.6641 7.20525 12.0966 7.05493 12.426 6.76172C12.7555 6.46851 12.9549 6.05643 12.9806 5.61615C13.0062 5.17586 12.8559 4.74343 12.5627 4.41398L9.10938 0.55492C8.9642 0.391794 8.78831 0.25886 8.59175 0.16371C8.39519 0.06856 8.18182 0.0130562 7.96381 0.000367991C7.74581 -0.0123203 7.52743 0.0180554 7.32117 0.0897608C7.1149 0.161466 6.92477 0.273097 6.76165 0.418279C6.59852 0.563462 6.46559 0.739353 6.37044 0.93591C6.27529 1.13247 6.21978 1.34584 6.20709 1.56385C6.19441 1.78185 6.22478 2.00023 6.29649 2.20649C6.36819 2.41276 6.47982 2.60289 6.62501 2.76601L10.0783 6.62508Z" fill="#4BBBEB"/>
<path d="M104.344 47.4517C103.904 47.4517 103.483 47.6262 103.173 47.9368C102.862 48.2474 102.687 48.6686 102.687 49.1079C102.674 63.3127 97.0263 76.932 86.9828 86.977C76.9393 97.0221 63.3208 102.672 49.1161 102.688C48.6768 102.688 48.2555 102.862 47.9449 103.173C47.6343 103.483 47.4598 103.905 47.4598 104.344C47.4598 104.783 47.6343 105.204 47.9449 105.515C48.2555 105.826 48.6768 106 49.1161 106C64.1973 105.983 78.6557 99.9838 89.3197 89.3198C99.9837 78.6558 105.982 64.1974 106 49.1162C106.001 48.898 105.959 48.6817 105.876 48.4798C105.794 48.2779 105.672 48.0944 105.518 47.9397C105.364 47.785 105.181 47.6623 104.979 47.5785C104.778 47.4948 104.562 47.4517 104.344 47.4517Z" fill="#4BBBEB"/>
<path d="M49.1161 91.2098C48.6768 91.2098 48.2555 91.3843 47.9449 91.6949C47.6343 92.0055 47.4598 92.4268 47.4598 92.866C47.4598 93.3053 47.6343 93.7266 47.9449 94.0372C48.2555 94.3478 48.6768 94.5223 49.1161 94.5223C61.1567 94.5091 72.7004 89.7202 81.2144 81.2062C89.7284 72.6922 94.5173 61.1485 94.5305 49.1079C94.5305 48.6686 94.356 48.2474 94.0454 47.9368C93.7348 47.6262 93.3135 47.4517 92.8742 47.4517C92.4349 47.4517 92.0137 47.6262 91.7031 47.9368C91.3925 48.2474 91.218 48.6686 91.218 49.1079C91.2092 60.2713 86.7707 70.975 78.8769 78.8687C70.9832 86.7625 60.2795 91.201 49.1161 91.2098Z" fill="#4BBBEB"/>
<path d="M49.1161 79.2186C48.6768 79.2186 48.2555 79.3931 47.9449 79.7037C47.6343 80.0143 47.4598 80.4355 47.4598 80.8748C47.4598 81.3141 47.6343 81.7353 47.9449 82.0459C48.2555 82.3566 48.6768 82.5311 49.1161 82.5311C57.9757 82.5201 66.4693 78.9964 72.7348 72.7325C79.0002 66.4686 82.5261 57.9758 82.5392 49.1162C82.5392 48.6769 82.3647 48.2557 82.0541 47.9451C81.7435 47.6345 81.3222 47.46 80.883 47.46C80.4437 47.46 80.0224 47.6345 79.7118 47.9451C79.4012 48.2557 79.2267 48.6769 79.2267 49.1162C79.2158 57.0979 76.0396 64.7495 70.3949 70.3926C64.7502 76.0358 57.0978 79.2098 49.1161 79.2186Z" fill="#4BBBEB"/>
</g>
<defs>
<clipPath id="clip0_4578_1000520">
<rect width="106" height="106" fill="white"/>
</clipPath>
</defs>
</svg>
