<svg width="110" height="120" viewBox="0 0 110 120" fill="none" xmlns="http://www.w3.org/2000/svg">
<g clip-path="url(#clip0_2766_294400)">
<path d="M61.2729 22.7161L50.1378 18.8774V20.7416C39.3435 21.2528 30.3834 27.5419 24.1694 38.9827C19.4538 47.6722 17.9905 56.1864 17.9304 56.5472L21.8843 57.2087C21.9394 56.893 27.4117 26.0085 50.1328 24.7557V27.8326L61.2679 22.7161H61.2729Z" fill="#2AB3DE"/>
<path d="M106.48 36.2415C105.492 32.6635 102.496 29.9373 98.8474 29.2859C94.8584 28.5793 92.0721 27.4066 91.1902 26.1187C94.242 23.107 95.5951 17.6096 94.2821 11.9017C92.4981 4.15432 86.4796 -1.0975 80.8569 0.195409C78.0506 0.841864 75.7905 2.96163 74.4976 6.16384C73.2648 9.21069 73.0493 12.914 73.8963 16.5923C74.7432 20.2656 76.5522 23.5029 78.9927 25.7078C79.7394 26.3793 80.5161 26.9306 81.3129 27.3665C81.5435 30.3332 79.7344 32.3528 78.9927 33.0493C78.0706 33.0493 77.1035 33.2047 76.1062 33.5505C73.3901 34.4926 70.4435 39.138 68.1383 43.6482C67.557 44.2896 64.4751 47.4768 61.2328 46.9656C57.785 46.4194 44.8359 49.0153 39.8346 50.7191C34.9586 52.3778 31.7865 57.8902 31.6562 58.1258L31.6111 58.216C29.1105 63.6131 29.797 64.6955 30.0576 65.1015C30.3533 65.5625 30.8394 65.8281 31.3956 65.8281C31.5961 65.8281 31.9769 65.8281 32.8389 65.2618C32.3678 66.3994 32.0371 67.4467 31.9368 68.3087C27.6071 69.802 26.1438 75.7153 25.9133 76.7677C23.1721 82.9767 23.9539 84.1794 24.2145 84.5803C24.5202 85.0463 25.0163 85.3169 25.5775 85.3169C25.6677 85.3169 25.793 85.3169 25.9684 85.2718C26.0887 87.3014 26.2691 89.3961 26.5247 91.2202C25.8632 91.0799 25.2769 90.9296 24.9311 90.8394C23.7635 89.6216 19.4237 85.4172 15.6251 85.9033C14.5327 86.0436 13.0093 86.6399 11.9318 88.6895C9.90227 92.5432 7.04083 96.011 3.41768 99.0027C1.93434 100.23 -0.441005 103.007 0.0851787 105.618L0.115246 105.778L3.92883 113.555C4.38986 116.031 5.2067 118.522 6.66498 119.514C7.15108 119.845 7.69229 120.01 8.25356 120.01C8.63441 120.01 9.02529 119.935 9.41116 119.779C11.2353 119.048 12.1122 116.853 13.2197 114.072C14.9937 109.607 17.2087 104.049 24.0992 103.748C33.8161 103.332 46.7151 108.113 50.3332 109.541C50.1729 110.088 50.0376 110.413 50.0326 110.423L49.4112 111.792L50.8694 112.157C51.2353 112.248 56.3468 113.5 61.8241 113.5C65.8582 113.5 70.0877 112.819 72.7537 110.499C74.9035 108.629 75.8106 105.978 75.4497 102.621C74.5627 94.3623 70.3433 90.5186 66.6349 88.7296C66.9807 85.9784 67.6773 78.3513 65.342 74.7431C63.8436 72.4279 63.0017 70.4334 62.5908 69.3009C67.4417 66.9907 71.8867 63.4427 74.2972 61.5234C74.5678 61.3079 74.8384 61.0924 75.0639 60.912L75.986 61.4983C76.1914 61.6286 76.4269 61.6938 76.6575 61.6938C76.9231 61.6938 77.1887 61.6086 77.4092 61.4432C77.5044 61.3731 77.8952 61.0774 78.4816 60.5963C76.6174 67.0859 74.2019 78.0756 78.0205 81.4432C80.7567 83.8536 85.1816 84.8609 89.9674 84.8609C94.1468 84.8609 98.6018 84.0942 102.45 82.8213C112.658 79.4437 109.902 48.6544 106.485 36.2616L106.48 36.2415ZM76.3418 16.031C75.6101 12.8539 75.7805 9.68175 76.8228 7.10596C77.805 4.68551 79.4387 3.09694 81.4232 2.64091C81.8241 2.55071 82.23 2.50561 82.6359 2.50561C86.5497 2.50561 90.5136 6.66998 91.8466 12.468C93.32 18.8674 91.0398 24.8759 86.7652 25.8582C84.7757 26.3142 82.6159 25.6026 80.6765 23.8486C78.6119 21.9844 77.0734 19.2082 76.3418 16.031ZM33.8562 59.3184C34.1318 58.8474 36.8679 54.3723 40.6414 53.0844C46.1538 51.2102 58.236 49.0253 60.8419 49.4362C62.666 49.7218 64.3798 49.2508 65.8231 48.5292C64.9511 50.5186 64.3448 52.0621 64.1193 52.6484C61.3931 53.2548 59.1832 53.4803 57.7399 53.5655C57.0934 53.6006 56.4069 53.4703 55.7604 53.1896C45.4723 48.7046 37.9754 56.7326 37.8852 56.8328C36.1714 58.7822 34.1168 60.917 32.6986 62.1999C32.9892 61.343 33.4001 60.3057 33.8562 59.3184V59.3184ZM39.7494 58.5066C40.005 58.226 46.1338 51.7264 54.7582 55.4848C55.6151 55.8607 56.5272 56.0511 57.4192 56.0611C57.4994 56.9431 57.6948 58.1207 58.1358 59.2633C57.5745 59.5039 56.9431 59.7745 56.2415 60.0751C50.5237 62.5357 38.8775 67.547 34.5076 67.9328C34.9837 66.2791 36.6124 62.9917 38.5918 59.7945C38.9576 59.3936 39.3435 58.9626 39.7444 58.5016L39.7494 58.5066ZM60.451 58.3162C60.1303 57.4743 59.985 56.5773 59.9198 55.8907C61.0824 55.7604 62.4555 55.555 64.004 55.2342C62.9917 56.4871 61.6587 57.8652 60.451 58.3162ZM5.00625 100.927C8.88498 97.7198 11.9569 93.9914 14.1418 89.8471C14.7682 88.6595 15.4648 88.444 15.9358 88.3788C18.3864 88.0631 22.1899 91.546 23.3275 92.7887L23.568 93.0493L23.9088 93.1445C23.994 93.1696 25.4523 93.5855 27.0007 93.8561C27.0258 93.9614 27.0509 94.0666 27.0809 94.1668H27.0559C25.9584 94.217 25.0814 94.257 24.5502 94.2871C23.3826 93.1095 20.1654 90.233 16.893 90.5337C15.7204 90.6439 14.0466 91.2252 12.7336 93.3851C11.0699 96.1212 8.895 98.9326 7.14607 101.188C4.88097 104.114 3.70332 105.673 3.41267 106.805L2.51565 104.976C2.41041 103.829 3.6933 102.009 5.01126 100.922L5.00625 100.927ZM23.984 101.233C15.4698 101.604 12.7086 108.544 10.8845 113.135C10.1077 115.089 9.30091 117.113 8.47405 117.444C8.2285 117.539 8.14331 117.484 8.06313 117.429C6.61487 116.447 5.84815 110.413 5.83812 107.402C6.01853 106.74 7.7374 104.515 9.12051 102.726C10.9045 100.416 13.1295 97.5444 14.8684 94.688C15.4949 93.6557 16.2315 93.1145 17.1135 93.0293C19.3485 92.8188 22.1899 95.3946 23.102 96.4069L23.5029 96.8579L24.1042 96.8228C24.1042 96.8228 25.3119 96.7527 27.1561 96.6725C36.0311 96.2916 42.4505 96.3768 44.8659 96.908C47.4668 98.4515 49.2358 100.371 50.1228 102.646C50.7291 104.199 50.8444 105.723 50.7592 107.001C46.4395 105.307 33.8912 100.792 23.9789 101.228L23.984 101.233ZM63.2272 76.0962C64.8208 78.5517 64.5703 84.44 64.2095 87.7875C62.1749 87.1861 60.6765 87.1611 60.6314 87.1611C59.9399 87.1611 59.3836 87.7173 59.3786 88.4089C59.3786 89.1004 59.9348 89.6617 60.6264 89.6667C61.0724 89.6667 71.556 89.8872 72.9491 102.876C73.2197 105.407 72.6134 107.276 71.1 108.594C66.7552 112.378 56.4721 110.744 52.7988 110.002C53.2799 108.249 53.766 105.106 52.4781 101.774C51.2403 98.5768 48.6845 95.9859 44.876 94.0566C46.2942 92.5081 49.787 90.1328 56.5723 92.9291C57.2137 93.1947 57.9454 92.889 58.206 92.2475C58.4716 91.6061 58.1659 90.8744 57.5244 90.6139C46.0937 85.9083 41.8942 93.9063 41.8542 93.9915L41.8191 94.0616C38.2561 93.8612 33.4603 93.9463 29.6216 94.0766C29.0955 92.5081 28.6043 87.8526 28.3889 83.6933C29.7569 82.5056 31.7815 80.446 34.8083 76.8729C36.3768 76.0862 46.2641 71.2804 53.9363 71.4958C55.986 71.556 58.1358 71.0699 60.2606 70.2731C60.7366 71.566 61.6487 73.6707 63.2172 76.0962H63.2272ZM72.7236 59.554C69.4663 62.1548 60.882 68.9952 54.2821 68.9952C54.1919 68.9952 54.1017 68.9952 54.0115 68.9952C53.8161 68.9902 53.6206 68.9852 53.4202 68.9852C44.5653 68.9852 33.8912 74.5226 33.4352 74.7682L33.2197 74.8835L33.0594 75.0689C30.9045 77.6196 28.2987 80.441 26.68 81.8842C27.0108 80.7366 27.5921 79.1531 28.2536 77.6647L28.3137 77.5344L28.3387 77.3941C28.3538 77.324 29.7469 70.4735 34.0165 70.4735C38.2861 70.4735 48.1433 66.2991 57.2338 62.3903C59.123 61.5785 60.6164 60.9321 61.323 60.6715C63.6231 59.8196 65.7479 57.1886 66.8253 55.6752L72.8138 59.4788C72.7837 59.5039 72.7587 59.5239 72.7236 59.549V59.554ZM76.5773 58.9025L76.001 58.5367C75.9459 58.4765 75.8857 58.4164 75.8156 58.3663C75.6702 58.2611 75.5349 58.2009 75.4046 58.1558L66.8003 52.6935C69.3159 46.3743 73.9564 36.9481 76.9281 35.9208C82.9566 33.8311 86.9857 41.2929 87.1761 41.6637C89.8421 46.8654 80.9922 55.4046 76.5773 58.9025V58.9025ZM101.659 80.4259C94.1568 82.9065 83.8837 83.2573 79.6692 79.549C76.9581 77.1636 79.4387 65.2418 82.1047 57.349C86.5848 53.0042 92.2325 46.0235 89.3961 40.5111C88.2034 38.216 85.5074 34.8233 81.8842 33.5555C82.7863 32.3578 83.7334 30.5838 83.8386 28.3187C84.4099 28.439 84.9812 28.5041 85.5525 28.5041C86.1238 28.5041 86.7402 28.439 87.3215 28.3037C87.9729 28.1533 88.5843 27.9228 89.1656 27.6171C90.5186 29.5164 93.6106 30.9045 98.4114 31.7564C101.112 32.2375 103.332 34.257 104.064 36.908C108.234 52.007 108.825 78.0556 101.659 80.4209V80.4259Z" fill="#2AB3DE"/>
</g>
<defs>
<clipPath id="clip0_2766_294400">
<rect width="109.582" height="120" fill="white"/>
</clipPath>
</defs>
</svg>
