<svg width="129" height="120" viewBox="0 0 129 120" fill="none" xmlns="http://www.w3.org/2000/svg">
<g clip-path="url(#clip0_3648_219752)">
<path d="M107.597 115.161H52.145C49.2611 115.161 47.1515 114.377 45.6999 112.752C42.8644 109.597 43.416 104.226 43.416 104.177C43.4257 104.09 43.4353 103.994 43.4353 103.897V101.884H48.6999C50.0063 101.884 51.0805 100.848 51.1192 99.5419C51.1192 99.2903 51.1386 98.5452 51.0999 97.5193L65.0257 91.771C66.1386 91.3161 66.7386 90.1065 66.4482 88.9452C66.3902 88.7129 66.0611 87.4355 65.4418 85.5484C70.8708 81.2419 74.1224 70.9548 74.9257 68.1484C76.2128 67.2774 79.416 64.7516 80.5192 60.3871C81.4773 56.5935 80.616 52.4613 77.9547 48.0871C78.3031 46.471 79.1741 41.8452 79.145 36.0097C79.0966 26.4774 76.6289 18.3097 71.9837 12.3677C65.5773 4.16129 55.1257 0 40.9482 0C26.7708 0 16.3289 4.16129 9.91276 12.3774C5.27727 18.3194 2.79985 26.4968 2.75147 36.0194C2.72243 41.8548 3.5934 46.4806 3.94179 48.0968C1.2805 52.4806 0.419209 56.6129 1.37727 60.4064C2.4805 64.7613 5.68373 67.2968 6.97082 68.1677C7.35792 69.4742 8.42243 72.8903 10.0966 76.4903C12.0708 80.7387 14.1999 83.7677 16.4547 85.5581C15.8353 87.4452 15.516 88.7226 15.4482 88.9548C15.1579 90.1258 15.7676 91.3258 16.8805 91.7806L30.8063 97.471C30.7579 98.5258 30.7773 99.2903 30.787 99.5516C30.8257 100.858 31.8999 101.894 33.2063 101.894H38.5966V103.781C38.4902 104.913 38.0934 111.484 42.0708 115.955C44.4611 118.635 47.8482 119.99 52.145 119.99H107.597C108.932 119.99 110.016 118.906 110.016 117.571C110.016 116.235 108.932 115.152 107.597 115.152V115.161ZM9.62243 66.8516C9.52566 66.4742 9.26437 66.1548 8.93534 65.9613C8.89663 65.9419 5.22889 63.8226 4.1934 59.6516C3.41921 56.5258 4.27082 52.9935 6.72889 49.1323C6.94179 48.7935 7.00953 48.3871 6.91276 48C6.86437 47.7968 1.90953 27.3387 12.2063 14.1581C18.0321 6.69677 27.7095 2.90323 40.9482 2.90323C54.1869 2.90323 63.8547 6.6871 69.6902 14.1581C79.9773 27.3194 75.0515 47.8065 74.9934 48.0097C74.8966 48.3968 74.9644 48.8032 75.1773 49.1419C77.6353 52.9935 78.4869 56.5355 77.7128 59.6613C76.6773 63.8323 73.0095 65.9516 72.9708 65.9613C72.6321 66.1548 72.3805 66.4742 72.274 66.8516C71.3063 70.4323 68.3353 78.7935 64.416 82.6065C61.1257 73.7806 53.7031 58.9355 40.9482 58.9355C28.1934 58.9355 20.7708 73.7806 17.4805 82.6065C13.5611 78.7935 10.5902 70.4323 9.62243 66.8516ZM20.7321 88.1226C20.7902 87.9387 20.8482 87.7452 20.916 87.5419L21.2353 87.6194L21.9224 84.7935H21.8644C24.6708 77.071 30.9611 63.7645 40.9579 63.7645C50.9547 63.7645 57.245 77.071 60.0515 84.7742H59.9934L60.6805 87.6097L60.9999 87.5322C61.0676 87.7355 61.1257 87.9387 61.1837 88.1226L50.5386 92.5161C49.9773 89.5839 48.9031 86.3806 46.8321 84.2419C45.245 82.6065 43.2128 81.7452 40.9579 81.7452C38.7031 81.7452 36.6708 82.6065 35.0837 84.2419C33.0224 86.371 31.9482 89.5452 31.3869 92.4677L20.7321 88.1129V88.1226ZM38.5579 87.6194C39.2353 86.9129 39.9999 86.5936 40.9579 86.5936C41.916 86.5936 42.6708 86.9226 43.3579 87.6194C45.3418 89.6613 46.0386 94.0355 46.2321 97.0645H35.6934C35.8966 94.0742 36.6031 89.6516 38.5579 87.629V87.6194Z" fill="#4BBBEB"/>
<path d="M112.143 34.2857C121.611 34.2857 129.286 26.6106 129.286 17.1429C129.286 7.67512 121.611 0 112.143 0C102.675 0 95 7.67512 95 17.1429C95 26.6106 102.675 34.2857 112.143 34.2857Z" fill="#54D0F8"/>
<path d="M122.857 12.8575L110 25.7146L101.429 17.1432L105.714 12.8575L110 17.1432L118.572 8.57178L122.857 12.8575Z" fill="#F8F8F8"/>
</g>
<defs>
<clipPath id="clip0_3648_219752">
<rect width="129" height="120" fill="white"/>
</clipPath>
</defs>
</svg>
