<svg width="148" height="120" viewBox="0 0 148 120" fill="none" xmlns="http://www.w3.org/2000/svg">
<path d="M9.17163 84.9038H56.4041V86.9287C56.4041 88.5724 55.0701 89.9064 53.4264 89.9064H12.1493C10.5056 89.9064 9.17163 88.5724 9.17163 86.9287V84.9038V84.9038Z" fill="#2AB3DE"/>
<path d="M139.381 12.5719H131.484V9.51678C131.484 6.84279 129.024 4.6631 125.999 4.6631H123.313C122.973 3.06109 121.61 0 116.125 0C110.64 0 109.276 3.06109 108.931 4.6631H106.245C103.219 4.6631 100.76 6.84279 100.76 9.51678V12.5719H92.8628C88.432 12.5719 84.823 16.1809 84.823 20.6117V88.1761C84.823 94.0779 91.1358 98.6993 99.1875 98.6993H105.661L113.481 102.511C114.32 102.922 115.22 103.124 116.119 103.124C117.018 103.124 117.917 102.922 118.751 102.511L126.571 98.6993H133.044C141.102 98.6993 147.409 94.0779 147.409 88.1761V20.6117C147.409 16.1809 143.8 12.5719 139.369 12.5719H139.381ZM104.929 9.51678C104.929 9.27856 105.429 8.8319 106.245 8.8319H108.931C110.991 8.8319 112.7 7.47406 112.992 5.5981C113.046 5.24673 113.218 4.1688 116.119 4.1688C119.019 4.1688 119.186 5.24673 119.245 5.5981C119.543 7.47406 121.252 8.8319 123.313 8.8319H125.999C126.803 8.8319 127.315 9.27856 127.315 9.51678V12.5719H104.929V9.51678ZM143.252 88.1761C143.252 91.6183 138.583 94.5305 133.056 94.5305H125.618L116.935 98.7589C116.423 99.009 115.833 99.009 115.315 98.7589L106.632 94.5305H99.1934C93.6668 94.5305 88.9978 91.6183 88.9978 88.1761V20.6117C88.9978 18.4797 90.7367 16.7407 92.8688 16.7407H139.381C141.513 16.7407 143.252 18.4797 143.252 20.6117V88.1761V88.1761Z" fill="#2AB3DE"/>
<path d="M92.5048 24.6807H139.743V86.9268C139.743 88.5705 138.409 89.9045 136.766 89.9045H95.4825C93.8388 89.9045 92.5048 88.5705 92.5048 86.9268V24.6807Z" fill="#2AB3DE"/>
<path d="M98.2772 108.035C98.0628 107.666 97.6698 107.44 97.2469 107.44L86.9143 107.47C86.2592 107.47 85.7232 108.006 85.7291 108.667C85.7291 109.322 86.2651 109.852 86.9202 109.852L94.2752 109.828C89.1297 114.622 79.994 117.868 71.7875 117.606C67.2137 117.457 61.0022 116.183 57.3932 110.936C57.024 110.394 56.2795 110.257 55.7376 110.626C55.1956 111.001 55.0587 111.74 55.4279 112.282C58.6855 117.016 64.4623 119.756 71.71 119.982C72.0555 119.994 72.4009 120 72.7463 120C79.8809 120 87.3371 117.689 92.7625 114.033L90.3803 118.172C90.0528 118.743 90.2493 119.47 90.821 119.797C91.0056 119.905 91.2141 119.958 91.4166 119.958C91.8275 119.958 92.2325 119.744 92.4528 119.363L98.2832 109.221C98.4976 108.851 98.4976 108.399 98.2832 108.03L98.2772 108.035Z" fill="#2AB3DE"/>
<path d="M56.0465 12.5719H48.1496V9.51678C48.1496 6.84279 45.6901 4.6631 42.6647 4.6631H39.9788C39.6393 3.06109 38.2755 0 32.7906 0C27.3056 0 25.9419 3.06705 25.6024 4.6631H22.9165C19.8911 4.6631 17.4315 6.84279 17.4315 9.51678V12.5719H9.52869C5.09785 12.5719 1.48886 16.1809 1.48886 20.6117V88.1761C1.48886 94.0779 7.80161 98.6993 15.8534 98.6993H22.3269L30.1464 102.511C30.2178 102.547 30.2893 102.57 30.3548 102.6C30.1583 102.957 29.8605 103.398 29.3781 103.892C27.1687 106.156 20.6773 109.955 2.0844 109.955C0.935002 109.955 0 110.89 0 112.039C0 113.189 0.935002 114.124 2.0844 114.124C17.4315 114.124 27.6153 111.658 32.3618 106.805C33.8864 105.244 34.4879 103.779 34.7202 102.797C34.9524 102.713 35.1847 102.624 35.4169 102.511L43.2364 98.6993H49.71C57.7677 98.6993 64.0745 94.0779 64.0745 88.1761V20.6117C64.0745 16.1809 60.4655 12.5719 56.0346 12.5719H56.0465ZM21.5944 9.51678C21.5944 9.28451 22.1066 8.8319 22.9105 8.8319H25.5964C27.6511 8.8319 29.3603 7.47406 29.658 5.5981C29.7116 5.24673 29.8843 4.1688 32.7846 4.1688C34.7082 4.1688 35.7624 4.65119 35.9112 5.5981C36.209 7.46811 37.9182 8.8319 39.9728 8.8319H42.6587C43.4746 8.8319 43.9749 9.2726 43.9749 9.51678V12.5719H21.5944V9.51678ZM59.9176 88.1761C59.9176 91.6183 55.2485 94.5305 49.7219 94.5305H42.2836L33.6005 98.7589C33.0884 99.009 32.4988 99.009 31.9807 98.7589L23.2976 94.5305H15.8593C10.3327 94.5305 5.66361 91.6183 5.66361 88.1761V20.6117C5.66361 18.4797 7.4026 16.7407 9.53464 16.7407H56.0465C58.1786 16.7407 59.9176 18.4797 59.9176 20.6117V88.1761Z" fill="#2AB3DE"/>
</svg>
