<svg width="160" height="107" viewBox="0 0 160 107" fill="none" xmlns="http://www.w3.org/2000/svg">
<path d="M150 0H10C4.48656 0 0 4.48656 0 10V96.6666C0 102.18 4.48656 106.667 10 106.667H150C155.513 106.667 160 102.18 160 96.6666V10C160 4.48687 155.513 0 150 0ZM120 100H10C8.16 100 6.66656 98.5 6.66656 96.6666V10C6.66656 8.16 8.16 6.66656 10 6.66656H120V100ZM153.333 96.6669C153.333 98.5003 151.84 100 150 100H126.667V6.66687H150C151.84 6.66687 153.333 8.16031 153.333 10.0003V96.6669Z" fill="#3EBD5F"/>
<path d="M140 26.6666C143.682 26.6666 146.667 23.6819 146.667 20.0001C146.667 16.3182 143.682 13.3335 140 13.3335C136.318 13.3335 133.333 16.3182 133.333 20.0001C133.333 23.6819 136.318 26.6666 140 26.6666Z" fill="#3EBD5F"/>
<path d="M140 46.6666C143.682 46.6666 146.667 43.6819 146.667 40.0001C146.667 36.3182 143.682 33.3335 140 33.3335C136.318 33.3335 133.333 36.3182 133.333 40.0001C133.333 43.6819 136.318 46.6666 140 46.6666Z" fill="#3EBD5F"/>
<path d="M140 66.6666C143.682 66.6666 146.667 63.6819 146.667 60.0001C146.667 56.3182 143.682 53.3335 140 53.3335C136.318 53.3335 133.333 56.3182 133.333 60.0001C133.333 63.6819 136.318 66.6666 140 66.6666Z" fill="#3EBD5F"/>
<path d="M23.3334 86.6669H103.333C105.173 86.6669 106.667 85.1734 106.667 83.3334V23.3334C106.667 21.4934 105.173 20 103.333 20H23.3334C21.4934 20 20 21.4934 20 23.3334V83.3334C20 85.1734 21.4934 86.6669 23.3334 86.6669ZM26.6666 26.6669H100V80.0003H26.6666V26.6669Z" fill="#3EBD5F"/>
</svg>
