<svg width="133" height="120" viewBox="0 0 133 120" fill="none" xmlns="http://www.w3.org/2000/svg">
<path d="M46.4587 89.9758L46.5143 111.437L6.33276 88.0871L6.27721 66.6261L46.4587 89.9758ZM31.2009 48.5722C34.1265 49.8868 37.6077 52.6273 38.6446 53.8494C35.719 58.7564 36.3115 63.3486 41.1074 66.1446C49.477 71.0145 67.4568 68.5148 81.2333 60.5525C95.0284 52.5903 100.065 41.8691 90.1584 36.888C90.6584 32.0551 90.4918 27.4444 89.9548 23.2411L122.748 42.2949L49.5881 84.5318L9.36952 61.1636L31.1823 48.5722H31.2009ZM23.5719 40.5358C28.7937 36.5918 31.386 32.981 33.8858 29.4443C36.867 25.2595 39.7001 21.2969 47.1994 16.6676C54.6617 12.057 59.1428 11.4829 63.8646 10.8719C68.4197 10.2793 73.123 9.6868 80.1779 5.7242C82.7147 11.4089 88.603 27.3333 84.0664 44.1281C82.011 45.9798 71.8083 54.2939 49.2548 60.2192C47.8845 57.5158 44.8293 52.4977 38.9409 47.85C34.4043 44.2577 28.016 41.8691 23.5719 40.5173V40.5358ZM125.951 69.2184L52.7915 111.455L52.7359 89.9573L83.6035 72.1256L125.896 47.7019L125.951 69.1999V69.2184ZM1.61097 92.5867L48.0882 119.603C49.1252 120.195 50.4213 120.066 51.2176 119.603L130.655 73.7365C131.636 73.181 132.229 72.1441 132.229 71.0146L132.155 42.2764C132.155 40.8877 131.47 40.0729 130.581 39.5544L88.3994 15.0382C86.3625 6.98334 83.4924 1.65049 83.2517 1.22461C82.9369 0.650585 82.4184 0.243217 81.7888 0.0765651C81.1593 -0.0900864 80.4927 0.0210138 79.9372 0.354317C72.4749 4.96501 68.0123 5.55755 63.272 6.15008C58.254 6.79817 53.0692 7.46478 44.7367 12.6125C36.4226 17.7416 33.2007 22.2782 30.0528 26.6667C27.0531 30.8515 24.2385 34.8141 16.7392 39.4434C15.9245 39.9433 15.4986 40.9062 15.6652 41.8505C15.8319 42.7949 16.554 43.5541 17.4984 43.7393C17.554 43.7393 20.2944 44.3318 23.8497 45.5169L1.57393 58.3861C0.407371 59.0156 0 60.1637 0 61.108L0.074069 89.8462C0.074069 90.9572 0.666608 91.9941 1.62948 92.5496" fill="#3EBD5F"/>
</svg>
