<svg width="48" height="48" viewBox="0 0 120 120" fill="none" xmlns="http://www.w3.org/2000/svg">
<g clip-path="url(#clip0_2766_292347)">
<path d="M94.8378 74.3356C92.3811 71.7776 89.4179 70.4099 86.2773 70.4099C83.1621 70.4099 80.1736 71.7523 77.6156 74.3103L69.6123 82.2882C68.9538 81.9336 68.2953 81.6044 67.6621 81.2751C66.7504 80.8193 65.8892 80.3887 65.1548 79.9328C57.658 75.1714 50.8451 68.9663 44.3108 60.9377C41.1449 56.9361 39.0175 53.5676 37.4725 50.1485C39.5493 48.249 41.4742 46.2735 43.3484 44.374C44.0575 43.6648 44.7667 42.9303 45.4758 42.2212C50.7945 36.9025 50.7945 30.0137 45.4758 24.695L38.5616 17.7808C37.7765 16.9957 36.966 16.1852 36.2062 15.3748C34.6866 13.8045 33.091 12.1836 31.4448 10.664C28.9881 8.23259 26.0502 6.94092 22.9603 6.94092C19.8704 6.94092 16.8818 8.23259 14.3492 10.664C14.3238 10.6893 14.3238 10.6893 14.2985 10.7146L5.68739 19.4017C2.44555 22.6435 0.596695 26.5945 0.191466 31.1787C-0.416378 38.5741 1.76173 45.463 3.4333 49.9712C7.53624 61.039 13.6653 71.2964 22.8083 82.2882C33.9015 95.5341 47.2487 105.994 62.4954 113.364C68.3206 116.125 76.096 119.392 84.7831 119.949C85.3149 119.975 85.8721 120 86.3786 120C92.2291 120 97.1425 117.898 100.992 113.719C101.018 113.668 101.068 113.643 101.094 113.592C102.411 111.997 103.93 110.553 105.526 109.008C106.615 107.97 107.729 106.881 108.818 105.741C111.326 103.132 112.643 100.093 112.643 96.9778C112.643 93.8372 111.3 90.8233 108.742 88.2907L94.8378 74.3356ZM103.905 101.005C103.879 101.005 103.879 101.03 103.905 101.005C102.917 102.068 101.904 103.031 100.815 104.095C99.1687 105.665 97.4971 107.311 95.9269 109.16C93.3688 111.895 90.355 113.187 86.404 113.187C86.0241 113.187 85.6188 113.187 85.2389 113.162C77.7169 112.68 70.7267 109.742 65.484 107.235C51.149 100.296 38.5616 90.4434 28.1016 77.9573C19.4652 67.548 13.6907 57.9238 9.86631 47.5905C7.51092 41.2841 6.64981 36.3707 7.02971 31.7359C7.28298 28.7726 8.42268 26.3159 10.5248 24.2138L19.1613 15.5774C20.4023 14.4123 21.7193 13.7792 23.0109 13.7792C24.6065 13.7792 25.8982 14.7416 26.7086 15.552C26.734 15.5774 26.7593 15.6027 26.7846 15.628C28.3296 17.0716 29.7985 18.5659 31.3435 20.1615C32.1286 20.972 32.939 21.7824 33.7495 22.6182L40.6637 29.5324C43.3484 32.2171 43.3484 34.6991 40.6637 37.3838C39.9292 38.1182 39.2201 38.8527 38.4856 39.5619C36.3582 41.74 34.332 43.7661 32.1286 45.7416C32.0779 45.7923 32.0273 45.8176 32.002 45.8682C29.8238 48.0463 30.2291 50.1738 30.685 51.6174C30.7103 51.6934 30.7356 51.7694 30.7609 51.8454C32.5591 56.2016 35.0918 60.3045 38.9415 65.1926L38.9668 65.2179C45.957 73.8291 53.3271 80.5407 61.457 85.682C62.4954 86.3405 63.5592 86.8724 64.5722 87.3789C65.484 87.8348 66.3451 88.2653 67.0796 88.7212C67.1809 88.7719 67.2822 88.8479 67.3835 88.8985C68.2446 89.3291 69.0551 89.5317 69.8909 89.5317C71.993 89.5317 73.31 88.2147 73.7406 87.7841L82.4023 79.1224C83.2634 78.2612 84.6311 77.2228 86.2267 77.2228C87.7969 77.2228 89.0886 78.2106 89.8737 79.0717C89.8991 79.097 89.8991 79.097 89.9244 79.1224L103.879 93.0774C106.488 95.6608 106.488 98.3201 103.905 101.005Z" fill="#2AB3DE"/>
<path d="M64.8508 28.5449C71.4865 29.6593 77.5143 32.7998 82.3263 37.6119C87.1384 42.424 90.2536 48.4518 91.3933 55.0874C91.6719 56.759 93.1156 57.924 94.7618 57.924C94.9644 57.924 95.1417 57.8987 95.3443 57.8734C97.2185 57.5695 98.4595 55.7966 98.1556 53.9224C96.788 45.8938 92.9889 38.5743 87.1891 32.7745C81.3893 26.9747 74.0698 23.1756 66.0412 21.808C64.167 21.5041 62.4195 22.7451 62.0902 24.5939C61.761 26.4428 62.9767 28.241 64.8508 28.5449Z" fill="#2AB3DE"/>
<path d="M119.861 52.9345C117.607 39.7139 111.376 27.6837 101.803 18.1101C92.2291 8.53661 80.1989 2.30621 66.9783 0.0521263C65.1294 -0.277122 63.3819 0.989219 63.0526 2.83808C62.7487 4.71226 63.9897 6.45981 65.8639 6.78906C77.6662 8.78988 88.4301 14.3871 96.9906 22.9222C105.551 31.4827 111.123 42.2466 113.124 54.0489C113.402 55.7205 114.846 56.8855 116.492 56.8855C116.695 56.8855 116.872 56.8602 117.075 56.8349C118.924 56.5563 120.19 54.7834 119.861 52.9345Z" fill="#2AB3DE"/>
</g>
<defs>
<clipPath id="clip0_2766_292347">
<rect width="120" height="120" fill="white"/>
</clipPath>
</defs>
</svg>
