<svg width="146" height="120" viewBox="0 0 146 120" fill="none" xmlns="http://www.w3.org/2000/svg">
<path d="M50.5 31C47.1667 27.964 47.1667 23.0341 50.5 20C53.8333 16.964 53.8333 12.0341 50.5 9" stroke="#3EBD5F" stroke-width="6" stroke-miterlimit="10" stroke-linecap="round" stroke-linejoin="round"/>
<path d="M72.5 27C69.1667 23.964 69.1667 19.0341 72.5 16C75.8333 12.964 75.8333 8.03413 72.5 5" stroke="#3EBD5F" stroke-width="6" stroke-miterlimit="10" stroke-linecap="round" stroke-linejoin="round"/>
<path d="M32 114.15C32 114.15 59.0007 116 72.5 116C85.9993 116 113 114.15 113 114.15V43.8499C113 43.8499 85.9993 42 72.5 42C59.0007 42 32 43.8499 32 43.8499V114.15Z" stroke="#3EBD5F" stroke-width="6" stroke-miterlimit="10" stroke-linecap="round" stroke-linejoin="round"/>
<path d="M94.5 31C91.1667 27.964 91.1667 23.0341 94.5 20C97.8333 16.964 97.8333 12.0341 94.5 9" stroke="#3EBD5F" stroke-width="6" stroke-miterlimit="10" stroke-linecap="round" stroke-linejoin="round"/>
<path d="M32 44H17V114H32V44Z" stroke="#3EBD5F" stroke-width="6" stroke-miterlimit="10" stroke-linecap="round" stroke-linejoin="round"/>
<path d="M128 44H113V114H128V44Z" stroke="#3EBD5F" stroke-width="6" stroke-miterlimit="10" stroke-linecap="round" stroke-linejoin="round"/>
<path d="M87.7636 63.6005C87.2935 62.8436 86.8234 64.1582 84.4571 66.8751C76.2428 56.1829 64.1723 52 64.1723 52C65.0646 55.5375 67.5743 62.1902 58.8341 73.3445C47.3691 87.9726 55.0018 98.7524 62.9612 104.218C66.8891 106.768 70.5302 106.345 70.5302 106.345C71.2712 106.345 71.8687 106.043 72.3468 105.604C68.2754 103.389 57.4 95.0715 71.8448 74.4042C71.8448 74.4042 70.8808 82.6902 74.1235 84.8175C75.454 85.6939 79.4457 82.4034 79.4457 82.4034C79.4457 82.4034 86.3374 97.0076 76.1791 104.672C75.717 105.023 75.2309 105.373 74.7131 105.7C75.4222 106.274 76.1233 106.6 76.8244 106.473C81.7323 106.043 88.8073 102.043 91.5082 94.0437C96.3763 79.6547 87.7716 63.6084 87.7716 63.6084" fill="#3EBD5F"/>
</svg>
