<svg width="76" height="120" viewBox="0 0 76 120" fill="none" xmlns="http://www.w3.org/2000/svg">
<path d="M63.2175 66.0645C60.6067 67.3051 57.7368 68.3605 54.8483 68.879C42.5723 71.1009 30.2778 71.0453 18.0573 68.4531C16.1502 68.0457 14.2431 67.3792 12.5396 66.5274C9.52153 65.0091 9.42895 62.8613 12.5396 61.6207C15.854 60.3061 19.4275 59.2877 23.0011 58.7508C27.7782 58.0287 32.6478 57.8991 37.4805 57.5102C44.8313 57.7509 52.0895 58.1768 59.107 60.232C60.5512 60.6579 61.9954 61.2689 63.236 62.0281C65.3098 63.3242 65.4024 65.0091 63.2175 66.0645V66.0645ZM15.9095 15.2015C13.3913 15.2015 11.3361 13.4055 11.3361 11.1836C11.3361 8.96167 13.3728 7.16563 15.9095 7.16563C18.4462 7.16563 20.4829 8.96167 20.4829 11.1836C20.4829 13.4055 18.4462 15.2015 15.9095 15.2015ZM68.6611 57.214C67.0503 56.4548 65.3653 55.7142 63.6248 55.2698C60.1809 54.3625 56.6814 53.5663 53.1634 52.9368C51.4784 52.6406 51.5155 51.8073 51.4784 50.7149C51.4414 49.4743 52.2931 49.3818 53.3485 49.4003C55.052 49.4003 56.7369 49.4003 58.4404 49.4003C63.2175 49.3818 66.0504 46.9747 66.4763 42.7531C67.0873 36.828 67.8279 30.9029 68.4945 24.9594C69.1611 19.0343 69.9573 13.1092 70.3646 7.16563C70.6609 2.66628 67.4391 0 62.3843 0C54.1262 0 45.8867 0 37.6286 0C29.1483 0 20.6866 0 12.2063 0C8.05878 0 4.9296 2.66628 4.72592 6.29539C4.68889 7.07305 4.67038 7.85072 4.76296 8.62838C6.07758 20.2378 7.37369 31.8287 8.74386 43.4382C9.15121 46.9932 12.0767 49.2892 16.1502 49.4003C17.9092 49.4373 19.6867 49.4003 21.4457 49.4003C22.5937 49.4003 23.6306 49.3262 23.6491 50.8445C23.6676 52.1962 23.2973 52.9368 21.6124 52.9738C20.7421 52.9738 19.8719 53.2145 19.0202 53.3997C13.6135 54.4921 8.318 55.8068 3.7631 58.7693C1.46713 60.2691 -0.217808 62.1392 0.0228979 64.8055C0.208056 66.8607 0.467282 68.953 1.09682 70.9342C4.09639 80.5069 11.0213 87.2652 21.0014 91.6349C22.6678 92.357 23.0196 93.1162 22.6678 94.616C21.4272 100.078 20.4088 105.577 19.1127 111.021C18.6313 113.002 19.2238 114.558 20.8903 115.687C22.39 116.705 24.075 117.594 25.8155 118.187C31.5184 120.112 37.499 120.446 43.424 119.464C46.6273 118.946 49.7935 117.89 52.7375 116.65C55.4408 115.502 56.6999 113.484 55.9408 110.54C54.6076 105.3 53.7189 99.9856 52.4783 94.7086C52.108 93.0977 52.5153 92.357 54.2373 91.5794C65.0876 86.7097 72.2347 79.2478 74.6788 68.5642C76.0119 62.7502 74.6047 60.0654 68.6982 57.251" fill="#3EBD5F"/>
</svg>
