<svg width="141" height="117" viewBox="0 0 141 117" fill="none" xmlns="http://www.w3.org/2000/svg">
<path d="M99.7633 8.89906C99.7633 8.89906 82.406 7.41824 75.3391 6.39439C69.9359 5.60771 59.5007 3.346 59.5007 3.346C56.5441 2.57667 53.3961 3.10305 50.8627 4.79789L27.9921 20.0804C24.1543 22.6429 21.8991 26.9812 22.0035 31.5856C22.0035 31.5856 22.7165 44.9245 22.8789 48.6555C23.134 54.4978 22.7281 69.6761 22.7281 69.6761C22.8151 74.2805 26.1486 78.1908 30.6879 79.0122L54.0396 81.6499L73.9187 86.8617C76.4753 87.3244 79.1015 86.613 81.0726 84.9239C81.0726 84.9239 89.9136 75.9117 93.0963 73.2567C95.7515 71.0412 103.943 65.3204 103.943 65.3204C105.879 63.6603 107.022 61.2656 107.085 58.7204L107.99 23.6204C107.938 19.0102 108.945 9.68182 99.7633 8.89327V8.89906Z" stroke="#3EBD5F" stroke-width="5" stroke-miterlimit="10"/>
<path d="M113.753 61.3611C113.346 63.846 112.153 66.1244 110.332 67.783C110.332 67.783 100.984 74.7214 97.9645 77.419C94.3395 80.6452 84.2551 91.5874 84.2551 91.5874C82.0082 93.6349 79.0122 94.5037 76.1002 93.9387L53.4329 87.6079L26.805 84.406C21.622 83.4035 17.0959 78.5896 17 73C17 73 16.9341 70.9206 17 67.5C-4.403 67.5 -1.61454 83.9625 7.45117 85.4206C33.5578 89.625 19.399 106.187 31.3168 113.344C39.6815 118.363 55.0567 109.298 59.6704 106.728C75.8964 97.6813 84.0394 107.554 102.914 107.554C128.206 107.554 122.597 89.1693 116.174 82.3221C109.751 75.4687 123.927 80.1227 130.123 71.7747C135.671 64.3017 119.745 61.9686 113.759 61.3672L113.753 61.3611Z" fill="#3EBD5F"/>
<path d="M12.6667 99.2777C16.9622 99.2777 20.4445 97.7543 20.4445 95.875C20.4445 93.9956 16.9622 92.4722 12.6667 92.4722C8.37115 92.4722 4.88892 93.9956 4.88892 95.875C4.88892 97.7543 8.37115 99.2777 12.6667 99.2777Z" fill="#3EBD5F"/>
<path d="M135.167 65.25C138.388 65.25 141 64.1618 141 62.8195C141 61.4771 138.388 60.3889 135.167 60.3889C131.945 60.3889 129.333 61.4771 129.333 62.8195C129.333 64.1618 131.945 65.25 135.167 65.25Z" fill="#3EBD5F"/>
<path d="M73.4305 116.778C79.0684 116.778 83.6388 114.601 83.6388 111.917C83.6388 109.232 79.0684 107.056 73.4305 107.056C67.7926 107.056 63.2222 109.232 63.2222 111.917C63.2222 114.601 67.7926 116.778 73.4305 116.778Z" fill="#3EBD5F"/>
<path d="M83.5325 46.9049C77.8549 68.513 80.1151 71.7818 96.4706 57.7726C100.613 54.0854 96.4406 47.4629 98.467 42.1685C100.188 37.4685 105.733 25.1271 98.455 24.4418C95.0077 23.8717 87.5074 33.2293 86.794 33.6417C82.7171 36.0069 84.7436 42.6294 83.5325 46.9049Z" fill="#A1E6B3"/>
<path d="M78.2487 18.5756C84.1666 20.0749 90.8583 15.07 97.7726 14.6993C104.253 14.3558 86.8444 32.0419 80.4756 30.101C79.4846 29.8012 75.326 25.3251 67.8327 23.6405C61.9204 22.3102 57.8118 23.7223 51.5433 22.3102C35.3652 18.6737 49.2106 15.7515 50.9364 15.6861C58.0067 15.4189 72.2585 17.0491 78.2487 18.5702V18.5756Z" fill="#A1E5B3"/>
<path d="M36.2796 46.1306C32.6266 68.5061 39.6634 56.2137 61.0907 62.0348C88.0781 72.8764 75.0089 66.2306 78.3868 45.8717C78.6678 43.5842 80.9935 37.4802 78.8531 36.6615C73.4007 34.5787 61.7005 31.6049 50.5564 31.6049C43.4838 31.6049 36.6263 24.3812 35.6697 28.7214C33.7267 37.5886 36.8714 40.8392 36.2736 46.1246L36.2796 46.1306Z" fill="#A1E5B3"/>
</svg>
