<svg width="103" height="120" viewBox="0 0 103 120" fill="none" xmlns="http://www.w3.org/2000/svg">
<path d="M10.4903 4.52632C8.77097 4.52632 7.1394 5.26316 6.01659 6.5614C4.87624 7.85965 4.36746 9.5614 4.57799 11.2632L17.5254 110.281C17.9113 113.246 20.4552 115.474 23.4376 115.474H79.192C82.1745 115.474 84.7183 113.246 85.1043 110.281L98.0517 11.2632C98.2797 9.5614 97.7534 7.8421 96.6131 6.5614C95.4727 5.26316 93.8411 4.52632 92.1394 4.52632H10.4903V4.52632ZM79.192 120H23.4376C18.192 120 13.7183 116.07 13.0341 110.877L0.086764 11.8596C-0.299201 8.85965 0.613081 5.84211 2.61308 3.57895C4.61308 1.31579 7.47273 0 10.4903 0H92.1394C95.1569 0 98.0341 1.29825 100.017 3.57895C101.999 5.84211 102.929 8.85965 102.543 11.8596L89.5955 110.877C88.9113 116.088 84.4376 120 79.192 120Z" fill="#3EBD5F"/>
<path d="M72.6306 111.333H29.999C26.6306 111.333 23.771 109.28 23.3324 106.544L14.192 40.3331C13.6657 37.0348 16.7885 34.1226 20.8412 34.1226H81.7359C85.7885 34.1226 88.9113 37.0524 88.385 40.3331L79.2447 106.544C78.8061 109.28 75.964 111.333 72.5955 111.333" fill="#3EBD5F"/>
</svg>
