<svg width="138" height="120" viewBox="0 0 138 120" fill="none" xmlns="http://www.w3.org/2000/svg">
<g clip-path="url(#clip0_2766_291358)">
<path d="M137.292 118.082C118.869 111.954 109.013 104.685 96.5311 95.4983L96.4426 95.4393L98.9016 92.6164L107.784 99.5311C107.961 99.6688 108.167 99.7377 108.384 99.7377C108.492 99.7377 108.61 99.718 108.708 99.6787C109.023 99.5705 109.259 99.3049 109.338 98.9705C109.446 98.518 110.193 93.9147 104.685 71.8721C104.557 71.341 104.016 71.0262 103.495 71.1541C102.964 71.282 102.649 71.8229 102.777 72.3443C106.505 87.2361 107.311 93.9836 107.449 96.777L100.19 91.1213L100.357 90.9344C101.961 89.0951 101.764 86.2918 99.9246 84.6984L91.1016 77.0262C90.9836 76.9279 90.8557 76.8492 90.7279 76.7606L92.4295 74.8131C93.482 73.6033 94.0033 72.0492 93.8951 70.4557C93.7869 68.8524 93.059 67.3967 91.8492 66.3344L42.7672 23.6065C40.318 21.482 36.6295 21.6885 34.4262 24.0492L24.0689 15.0393L24.4033 14.6557C25.1508 13.7902 25.5246 12.6885 25.4459 11.5475C25.3672 10.4065 24.8459 9.36393 23.9902 8.61639L20.6361 5.69507C18.8557 4.14098 16.141 4.32786 14.5967 6.10819L1.05246 21.6688C-0.501638 23.4492 -0.304916 26.1639 1.47541 27.7082L4.82951 30.6295C5.61639 31.318 6.6 31.682 7.63279 31.682C7.73115 31.682 7.83935 31.682 7.93771 31.6721C9.07869 31.5934 10.1213 31.0721 10.8689 30.2065L11.2033 29.8229L21.5607 38.8328C20.5967 40.0229 20.1148 41.4984 20.223 43.0328C20.3311 44.6361 21.059 46.0918 22.2689 47.1541L71.341 89.8623C72.4426 90.8262 73.8295 91.3377 75.2754 91.3377C75.4131 91.3377 75.5607 91.3377 75.6984 91.318C77.3016 91.2098 78.7574 90.482 79.8197 89.2721L80.7836 88.1705C80.8918 88.2787 80.9803 88.4066 81.0984 88.5049L89.9213 96.177C90.7574 96.9049 91.7902 97.259 92.823 97.259C93.5803 97.259 94.3279 97.0426 95.0066 96.659C95.0754 96.7869 95.1639 96.9049 95.2918 97.0033L95.3803 97.0623C108 106.357 117.964 113.705 136.682 119.931C136.78 119.961 136.889 119.98 136.997 119.98C137.41 119.98 137.793 119.725 137.931 119.311C138.098 118.8 137.823 118.239 137.311 118.072L137.292 118.082ZM7.89836 27.6295C7.81967 27.718 7.72131 27.7475 7.6623 27.7475C7.59344 27.7475 7.50492 27.7475 7.40656 27.659L4.05246 24.7377C3.90492 24.6098 3.89508 24.3934 4.02295 24.2459L17.5672 8.68524C17.6361 8.60655 17.7344 8.56721 17.8328 8.56721C17.9115 8.56721 18 8.59671 18.059 8.65573L21.4131 11.577C21.5016 11.6557 21.5311 11.7541 21.5311 11.8131C21.5311 11.8721 21.5311 11.9803 21.4426 12.0688L7.89836 27.6295V27.6295ZM21.4918 18.0098L31.8393 27.0197L24.1377 35.8721L13.7902 26.8623L21.4918 18.0098V18.0098ZM76.8492 86.7049C76.4852 87.1279 75.9836 87.3738 75.423 87.4131C74.8721 87.4623 74.341 87.2754 73.918 86.9115L24.8557 44.1934C24.4426 43.8295 24.1869 43.3279 24.1475 42.777C24.1082 42.2262 24.2852 41.6852 24.6492 41.2721L37.259 26.7934C37.6721 26.3213 38.2426 26.0852 38.823 26.0852C39.3049 26.0852 39.7869 26.2525 40.1803 26.5967L66.9148 49.8688L89.2525 69.3049C90.118 70.0524 90.2066 71.3705 89.459 72.2361L85.0918 77.2525C85.0131 77.3311 84.9344 77.3902 84.8656 77.4688L80.6656 82.2885C80.5967 82.3672 80.5475 82.4656 80.4787 82.5541L76.8492 86.7246V86.7049ZM92.4984 93.2262L83.6754 85.5541C83.518 85.4164 83.4689 85.2 83.5475 85.0033L87.9443 79.9475C88.023 79.8984 88.1016 79.8688 88.1902 79.8688C88.3082 79.8688 88.4164 79.9082 88.5148 79.9869L97.3377 87.659C97.5443 87.8361 97.5639 88.141 97.3869 88.3475L93.1967 93.1672C93.0197 93.3639 92.7049 93.3934 92.5082 93.2164L92.4984 93.2262Z" fill="#2AB3DE"/>
<path d="M113.243 100.269C113.252 100.544 113.38 100.79 113.597 100.967C113.793 101.134 118.662 105.118 136.633 111.964C136.751 112.003 136.869 112.033 136.987 112.033C137.38 112.033 137.754 111.787 137.902 111.403C138.098 110.892 137.843 110.331 137.331 110.134C122.213 104.38 116.498 100.653 115.18 99.7083C115.013 97.446 114.079 87.0689 110.312 71.8722C110.184 71.341 109.643 71.0263 109.121 71.1542C108.59 71.282 108.275 71.823 108.403 72.3443C112.613 89.3115 113.243 100.171 113.252 100.269H113.243Z" fill="#2AB3DE"/>
<path d="M54.2164 16.8591L51.0492 16.5542C50.4984 16.4853 50.0262 16.8985 49.977 17.4394C49.9279 17.9804 50.3213 18.4624 50.8623 18.5116L57.4131 19.1312C57.4131 19.1312 57.4721 19.1312 57.5016 19.1312C57.6492 19.1312 57.7869 19.1017 57.9147 19.0427C57.9541 19.023 57.9836 18.9935 58.0229 18.964C58.0918 18.9148 58.1705 18.8755 58.2295 18.8165C58.2295 18.8165 58.2393 18.7968 58.2492 18.787C58.2492 18.7771 58.2688 18.7771 58.2787 18.7575C58.3475 18.6689 58.3869 18.5706 58.4262 18.4624C58.4262 18.4427 58.4459 18.4329 58.4557 18.4132C58.4951 18.2755 58.4951 18.1378 58.4754 18.0001C58.4754 18.0001 58.4754 17.9804 58.4754 17.9706L57.2262 11.4099C57.1279 10.8788 56.6065 10.5247 56.0754 10.6329C55.5443 10.7312 55.1902 11.2526 55.2984 11.7837L56.0656 15.787L35.9016 0.20665C35.4688 -0.127776 34.859 -0.0490877 34.5246 0.383699C34.1902 0.816486 34.2688 1.43616 34.7016 1.76075L54.2164 16.8591V16.8591Z" fill="#2AB3DE"/>
</g>
<defs>
<clipPath id="clip0_2766_291358">
<rect width="137.97" height="120" fill="white"/>
</clipPath>
</defs>
</svg>
