<svg width="110" height="120" viewBox="0 0 110 120" fill="none" xmlns="http://www.w3.org/2000/svg">
<path d="M98.2993 96.8401C96.6424 94.3454 93.161 93.5821 90.5173 95.1645C87.8923 96.7098 87.0917 99.9864 88.7487 102.481C90.4056 104.957 93.8684 105.721 96.5121 104.157C99.1557 102.593 99.9563 99.3348 98.318 96.8401H98.2993ZM79.0118 55.5097C79.0118 49.3473 76.2192 47.1691 72.0489 47.1691H18.0402C11.8965 47.1691 10.3326 49.8128 10.3326 55.9751V100.731C10.3326 106.875 10.4629 109.518 16.6066 109.518H70.2989C76.4426 109.518 79.0118 107.024 79.0304 100.861V55.5097H79.0118ZM90.2008 86.8798C91.3551 88.7602 93.794 89.3373 95.6184 88.1458C97.4802 86.9543 98.0201 84.4782 96.8844 82.5792C95.7302 80.6989 93.2913 80.1404 91.4482 81.3133C89.6051 82.4861 89.0465 84.9622 90.2008 86.8612V86.8798ZM109.507 53.3687V103.673C109.507 115.439 103.829 119.981 92.0067 120H17.3513C5.51072 119.981 0.0186173 115.215 0 103.449V53.1639C0.0186173 41.3978 5.04528 37.0413 16.8859 37.0227H94.5945C106.435 37.0227 109.451 41.6026 109.47 53.3501L109.507 53.3687ZM36.434 55.0815C36.434 53.7596 35.3729 52.6985 34.051 52.6985H21.2982C18.4125 52.6985 16.0667 54.8395 16.0667 57.4645V71.1482C16.0667 72.47 17.1279 73.5312 18.4497 73.5312C19.7716 73.5312 20.8328 72.47 20.8328 71.1482L20.7955 57.5948C20.7955 57.5948 20.9817 57.4273 21.2982 57.4273H34.051C35.3729 57.4273 36.434 56.3661 36.434 55.0629V55.0815ZM21.8753 3.88391C23.3461 0.570029 27.2557 -0.900739 30.5882 0.570028C33.8462 2.04079 35.317 5.78287 33.9766 9.0409L53.3944 28.347L68.5117 16.3203C67.8042 12.8202 70.0755 9.39463 73.5942 8.64994C77.1501 7.90524 80.6315 10.1579 81.3948 13.6952C82.1395 17.2139 79.8682 20.6953 76.3123 21.4586C74.674 21.8124 73.0543 21.4586 71.7138 20.7139L57.7322 31.7726H49.038L30.16 12.6527C28.6148 13.2298 26.8275 13.2112 25.2078 12.5037C21.8939 11.0329 20.4046 7.16055 21.8753 3.86529" fill="#3EBD5F"/>
</svg>
