<svg width="117" height="120" viewBox="0 0 117 120" fill="none" xmlns="http://www.w3.org/2000/svg">
<path d="M42.6465 45.5256C42.56 42.9993 42.6465 40.3864 42.8888 38.881C43.4252 35.2992 58.3235 34.9531 58.3235 34.9531C58.3235 34.9531 73.2219 35.3165 73.7583 38.881C73.9832 40.3864 74.087 42.9993 74.0005 45.5256C79.1051 46.6849 82.0813 49.2805 82.0813 52.8796V53.8832C87.3069 48.1557 90.4908 40.5422 90.4908 32.1846C90.4908 14.4138 76.0769 0 58.3062 0C40.5355 0 26.1216 14.4138 26.1216 32.1846C26.1216 40.5422 29.3055 48.1557 34.5312 53.8832V52.8796C34.5312 49.2805 37.5247 46.6849 42.6292 45.5256" fill="#3EBD5F"/>
<path d="M114.283 115.276C114.958 114.29 115.477 113.2 115.84 112.058C116.342 110.501 116.567 108.805 116.446 107.092C116.446 107.04 116.446 107.005 116.446 106.953C116.446 106.746 116.394 106.555 116.377 106.348C116.36 106.157 116.325 105.95 116.308 105.759C116.29 105.621 116.256 105.5 116.221 105.361C116.169 105.102 116.117 104.825 116.048 104.565V104.496C115.927 104.081 113.193 99.7551 109.075 90.1689C104.853 80.3405 99.2464 67.5186 88.0683 65.7018L95.9414 76.6203L96.0279 81.9671L78.8282 57.621V52.8452C78.8282 46.5295 55.9356 46.5295 55.9356 52.8452V61.67C55.9356 64.2829 56.8354 66.8265 58.4792 68.8683L96.6681 114.567L97.3776 115.536C97.5506 115.778 97.7409 116.003 97.9313 116.228C98.0005 116.315 98.087 116.418 98.1562 116.505C98.5196 116.903 98.9003 117.266 99.2983 117.595C99.3848 117.664 99.4886 117.733 99.5751 117.803C99.9212 118.062 100.267 118.322 100.631 118.529C100.734 118.599 100.838 118.651 100.942 118.72C101.392 118.962 101.859 119.187 102.326 119.377C102.396 119.395 102.465 119.412 102.534 119.447C102.949 119.585 103.347 119.706 103.78 119.775C103.936 119.81 104.091 119.845 104.247 119.862C104.697 119.931 105.147 119.983 105.597 119.983C105.649 119.983 105.683 119.983 105.718 119.983C105.735 119.983 105.77 119.983 105.787 119.983C106.237 119.983 106.687 119.931 107.137 119.879C107.206 119.879 107.275 119.879 107.362 119.845C107.829 119.758 108.296 119.637 108.746 119.498C108.781 119.498 108.815 119.498 108.85 119.464C108.902 119.464 108.936 119.429 108.988 119.412C109.23 119.325 109.455 119.239 109.698 119.135C109.784 119.1 109.871 119.066 109.975 119.014C110.199 118.91 110.424 118.772 110.667 118.651C110.753 118.599 110.84 118.564 110.909 118.512C111.186 118.339 111.463 118.149 111.74 117.958C111.895 117.837 112.051 117.716 112.189 117.578C112.293 117.491 112.397 117.405 112.501 117.318L112.535 117.284C112.743 117.093 112.951 116.886 113.158 116.661C113.228 116.591 113.297 116.522 113.349 116.47C113.504 116.297 113.66 116.107 113.799 115.917C113.885 115.795 113.989 115.692 114.075 115.588C114.162 115.484 114.214 115.363 114.3 115.259" fill="#3EBD5F"/>
<path d="M56.2124 71.3427L55.9183 70.9621C53.8072 68.3492 52.6306 65.0616 52.6306 61.6874V52.8626C52.6306 51.2014 53.2708 49.7652 54.4475 48.5713C47.6645 47.2908 37.8534 48.7097 37.8534 52.8626V57.6384L20.4633 81.9844L20.5499 76.6376L27.852 65.7191C16.6739 67.536 11.6212 80.3579 7.39918 90.1863C3.28094 99.7724 0.564287 104.098 0.443162 104.514C0.443162 104.531 0.443162 104.548 0.443162 104.566C0.373948 104.842 0.304733 105.119 0.252822 105.396C0.235519 105.517 0.20091 105.621 0.183607 105.742C0.149 105.95 0.131697 106.175 0.0970904 106.382C0.0797869 106.573 0.0451782 106.746 0.0278747 106.936C0.0278747 107.005 0.0278747 107.092 0.0278747 107.161C-0.0759465 108.718 0.114394 110.258 0.529679 111.695C0.92766 113.044 1.53328 114.342 2.36385 115.484C2.36385 115.501 2.39846 115.536 2.41576 115.553C2.55419 115.726 2.69262 115.899 2.83105 116.072C2.93487 116.193 3.02139 116.332 3.12521 116.453C3.22903 116.574 3.35016 116.695 3.47128 116.799C3.62701 116.955 3.76544 117.111 3.93847 117.266C3.95578 117.284 3.97308 117.301 3.99038 117.318C4.16342 117.474 4.33645 117.612 4.52679 117.751C4.59601 117.803 4.66522 117.872 4.73444 117.924C5.0286 118.149 5.32276 118.339 5.61692 118.529C5.92838 118.72 6.23984 118.876 6.55131 119.031C6.58591 119.031 6.62052 119.066 6.65513 119.083C6.94929 119.222 7.24345 119.343 7.53761 119.447C7.55491 119.447 7.58952 119.464 7.60682 119.481C7.62413 119.481 7.64143 119.481 7.65874 119.481C8.14323 119.637 8.64503 119.775 9.12953 119.862C9.18144 119.862 9.21605 119.862 9.25066 119.879C9.73516 119.948 10.237 120 10.7215 120H10.7561C11.2579 120 11.7597 119.948 12.2442 119.862C12.3826 119.845 12.5037 119.81 12.6248 119.793C13.092 119.706 13.5592 119.585 14.0091 119.412C14.0264 119.412 14.061 119.412 14.0956 119.395C14.5975 119.222 15.0819 118.979 15.5491 118.72C15.6184 118.685 15.6876 118.633 15.7568 118.599C16.1548 118.356 16.5527 118.097 16.9334 117.785C17.0026 117.734 17.0546 117.682 17.1238 117.63C17.5391 117.284 17.937 116.92 18.3177 116.488C18.3696 116.436 18.4215 116.367 18.4734 116.297C18.6811 116.055 18.8887 115.813 19.0964 115.536L19.8058 114.567L56.2124 71.3081V71.3427Z" fill="#3EBD5F"/>
<path d="M41.591 21.872C41.591 24.3291 43.6155 25.6961 46.0899 25.6961C48.5643 25.6961 50.5542 23.7062 50.5542 21.2318C50.5542 19.4668 49.516 17.9787 48.0279 17.252C44.9652 19.5014 44.5845 19.761 41.6083 21.872" fill="white"/>
<path d="M75.0733 21.872C75.0733 24.3291 73.0488 25.6961 70.5744 25.6961C68.1 25.6961 66.11 23.7062 66.11 21.2318C66.11 19.4668 67.1483 17.9787 68.6364 17.252C71.6991 19.5014 72.0798 19.761 75.056 21.872" fill="white"/>
<path d="M21.8649 117.266V119.862H94.609V117.266L58.3408 73.9727L21.8649 117.266Z" fill="#3EBD5F"/>
</svg>
