<svg width="132" height="120" viewBox="0 0 132 120" fill="none" xmlns="http://www.w3.org/2000/svg">
<path d="M122.01 49.17L111.66 42.78C113.35 41.108 114.692 39.1177 115.608 36.9242C116.525 34.7307 116.998 32.3773 117 30C117.796 30 118.559 29.6839 119.121 29.1213C119.684 28.5587 120 27.7956 120 27V21C120 15.4305 117.788 10.089 113.849 6.15076C109.911 2.21249 104.57 0 99 0C93.4305 0 88.089 2.21249 84.1508 6.15076C80.2125 10.089 78 15.4305 78 21V21.78C74.4787 19.3281 70.2908 18.0137 66 18.0137C61.7092 18.0137 57.5213 19.3281 54 21.78V21C54 15.4305 51.7875 10.089 47.8492 6.15076C43.911 2.21249 38.5695 0 33 0C27.4305 0 22.089 2.21249 18.1508 6.15076C14.2125 10.089 12 15.4305 12 21V27C12 27.7956 12.3161 28.5587 12.8787 29.1213C13.4413 29.6839 14.2044 30 15 30C15.0021 32.3773 15.475 34.7307 16.3915 36.9242C17.3081 39.1177 18.6501 41.108 20.34 42.78L9.99001 49.17C6.93156 51.0732 4.40905 53.7249 2.66098 56.8746C0.912917 60.0243 -0.00294017 63.5678 7.09084e-06 67.17V99C7.09084e-06 99.7956 0.316077 100.559 0.878686 101.121C1.4413 101.684 2.20436 102 3.00001 102H33V117C33 117.796 33.3161 118.559 33.8787 119.121C34.4413 119.684 35.2044 120 36 120H96C96.7957 120 97.5587 119.684 98.1213 119.121C98.6839 118.559 99 117.796 99 117V102H129C129.796 102 130.559 101.684 131.121 101.121C131.684 100.559 132 99.7956 132 99V67.05C131.983 63.4681 131.057 59.9491 129.31 56.8222C127.563 53.6952 125.051 51.0624 122.01 49.17ZM42.99 67.17C40.9238 68.455 39.0966 70.0893 37.59 72L44.67 43.65L45 43.35V45C45 45.7957 45.3161 46.5587 45.8787 47.1213C46.4413 47.6839 47.2044 48 48 48C48.002 50.3773 48.475 52.7307 49.3915 54.9242C50.3081 57.1177 51.6501 59.108 53.34 60.78L42.99 67.17ZM33 65.64L28.44 47.4C31.3895 48.1782 34.4905 48.1782 37.44 47.4L33 65.64ZM78 47.64V48C78 51.1826 76.7357 54.2348 74.4853 56.4853C72.2348 58.7357 69.1826 60 66 60C62.8174 60 59.7652 58.7357 57.5147 56.4853C55.2643 54.2348 54 51.1826 54 48V47.16C56.7102 46.4153 59.0955 44.7899 60.78 42.54C63.69 45 69 47.07 78 47.76V47.64ZM66 86.64L63.84 78H68.16L66 86.64ZM69.63 72C69.4202 71.9858 69.2098 71.9858 69 72H63C62.7902 71.9858 62.5798 71.9858 62.37 72L60.63 65.07C64.1286 66.1497 67.8714 66.1497 71.37 65.07L69.63 72ZM78.63 60.66C82.025 57.317 83.9561 52.7644 84 48C84.7956 48 85.5587 47.6839 86.1213 47.1213C86.6839 46.5587 87 45.7957 87 45V43.38L87.33 43.68L94.41 72C92.906 70.0786 91.0787 68.434 89.01 67.14L78.63 60.66ZM99 65.64L94.44 47.4C97.3895 48.1782 100.49 48.1782 103.44 47.4L99 65.64ZM111 30C111 33.1826 109.736 36.2348 107.485 38.4853C105.235 40.7357 102.183 42 99 42C95.8174 42 92.7652 40.7357 90.5147 38.4853C88.2643 36.2348 87 33.1826 87 30V29.34C91.925 28.1992 96.5617 26.0544 100.62 23.04C101.795 24.7829 103.329 26.2545 105.12 27.3565C106.91 28.4586 108.915 29.1655 111 29.43V30ZM84 21C84 17.0218 85.5804 13.2064 88.3934 10.3934C91.2064 7.58035 95.0218 6 99 6C102.978 6 106.794 7.58035 109.607 10.3934C112.42 13.2064 114 17.0218 114 21V24C105.57 23.16 105 18.69 105 18C104.985 17.418 104.802 16.8529 104.471 16.3734C104.141 15.894 103.679 15.521 103.14 15.3C102.594 15.0703 101.992 15.0075 101.41 15.1196C100.828 15.2317 100.292 15.5137 99.87 15.93C95.4415 20.0152 89.9333 22.7432 84 23.79V21ZM66 24C69.9782 24 73.7936 25.5804 76.6066 28.3934C79.4196 31.2064 81 35.0218 81 39V42C67.05 41.52 63.27 37.53 63 36C63 35.2043 62.6839 34.4413 62.1213 33.8787C61.5587 33.3161 60.7957 33 60 33C59.2044 33 58.4413 33.3161 57.8787 33.8787C57.3161 34.4413 57 35.2043 57 36C57 36.21 57 40.62 51 41.73V39C51 35.0218 52.5804 31.2064 55.3934 28.3934C58.2064 25.5804 62.0218 24 66 24ZM18 21C18 17.0218 19.5804 13.2064 22.3934 10.3934C25.2064 7.58035 29.0218 6 33 6C36.9782 6 40.7936 7.58035 43.6066 10.3934C46.4197 13.2064 48 17.0218 48 21V24C39.57 23.16 39 18.69 39 18C38.9854 17.418 38.8017 16.8529 38.4715 16.3734C38.1412 15.894 37.6786 15.521 37.14 15.3C36.5937 15.0703 35.9915 15.0075 35.4096 15.1196C34.8276 15.2317 34.2919 15.5137 33.87 15.93C29.4415 20.0152 23.9333 22.7432 18 23.79V21ZM34.62 23.04C35.7954 24.7829 37.3294 26.2545 39.1196 27.3565C40.9097 28.4586 42.9146 29.1655 45 29.43V30C45 33.1826 43.7357 36.2348 41.4853 38.4853C39.2348 40.7357 36.1826 42 33 42C29.8174 42 26.7652 40.7357 24.5147 38.4853C22.2643 36.2348 21 33.1826 21 30V29.34C25.925 28.1992 30.5616 26.0544 34.62 23.04ZM6.00001 67.05C5.99928 64.4873 6.65516 61.9671 7.90508 59.7298C9.155 57.4926 10.9573 55.6129 13.14 54.27L22.53 48.48L30 78.48V96H6.00001V67.05ZM39 85.05C38.9993 82.4873 39.6552 79.9671 40.9051 77.7298C42.155 75.4926 43.9573 73.6129 46.14 72.27L48 71.13V87.84C46.8562 88.5004 45.9622 89.5198 45.4567 90.7401C44.9513 91.9603 44.8626 93.3133 45.2044 94.5891C45.5463 95.8649 46.2996 96.9922 47.3474 97.7963C48.3953 98.6003 49.6792 99.0361 51 99.0361C52.3208 99.0361 53.6047 98.6003 54.6526 97.7963C55.7004 96.9922 56.4537 95.8649 56.7956 94.5891C57.1374 93.3133 57.0487 91.9603 56.5433 90.7401C56.0378 89.5198 55.1439 88.5004 54 87.84V67.44L54.87 66.9L63 99.36V114H39V85.05ZM93 114H69V99.36L77.13 66.9L78 67.44V84.54C76.2494 85.1589 74.733 86.3042 73.6588 87.8188C72.5846 89.3334 72.0052 91.1432 72 93V102C72 102.796 72.3161 103.559 72.8787 104.121C73.4413 104.684 74.2044 105 75 105C75.7956 105 76.5587 104.684 77.1213 104.121C77.6839 103.559 78 102.796 78 102V93C78 92.2044 78.3161 91.4413 78.8787 90.8787C79.4413 90.3161 80.2044 90 81 90C81.7956 90 82.5587 90.3161 83.1213 90.8787C83.6839 91.4413 84 92.2044 84 93V102C84 102.796 84.3161 103.559 84.8787 104.121C85.4413 104.684 86.2043 105 87 105C87.7956 105 88.5587 104.684 89.1213 104.121C89.6839 103.559 90 102.796 90 102V93C89.9948 91.1432 89.4154 89.3334 88.3412 87.8188C87.267 86.3042 85.7506 85.1589 84 84.54V71.13L85.86 72.27C88.0427 73.6129 89.845 75.4926 91.0949 77.7298C92.3448 79.9671 93.0007 82.4873 93 85.05V114ZM126 96H102V78.36L109.47 48.36L118.86 54.15C121.06 55.5035 122.873 57.4022 124.124 59.6622C125.375 61.9222 126.021 64.467 126 67.05V96Z" fill="#2AB3DE"/>
</svg>
