<svg width="152" height="95" viewBox="0 0 152 95" fill="none" xmlns="http://www.w3.org/2000/svg">
<path d="M143.685 47.1199V45.1237C143.685 42.8738 143.337 40.6636 142.653 38.5425L150.346 32.3471C151.163 31.6894 151.465 30.6254 151.116 29.6365C150.768 28.6476 149.865 28.0086 148.816 28.0086H145.504L150.604 19.0157C151.117 18.1115 151.111 17.0351 150.588 16.1367C150.064 15.2386 149.131 14.7021 148.092 14.7021H138.667C137.569 14.7021 136.55 15.3396 136.07 16.3264L131.473 25.7687C129.835 24.9862 128.105 24.4163 126.319 24.0731C124.988 23.8167 123.618 23.6867 122.248 23.6867C117.133 23.6867 112.181 25.5179 108.303 28.8431C107.893 29.1943 107.846 29.8111 108.197 30.2206C108.39 30.4459 108.664 30.5616 108.939 30.5616C109.164 30.5616 109.39 30.4842 109.574 30.3262C113.098 27.3046 117.599 25.6405 122.248 25.6405C123.495 25.6405 124.74 25.7587 125.95 25.9917C127.568 26.3026 129.133 26.8196 130.617 27.5271L128.985 30.8802C128.62 31.6291 128.666 32.4978 129.108 33.204C129.549 33.9102 130.31 34.3319 131.143 34.3319H134.272L131.417 41.9083C131.034 42.9248 131.367 44.0356 132.247 44.6726C132.67 44.9786 133.157 45.1307 133.643 45.1307C134.169 45.1307 134.693 44.9525 135.133 44.5986L141.011 39.8648C141.488 41.5695 141.731 43.3326 141.731 45.1238V47.1591C135.038 47.0712 125.816 46.1298 118.059 42.3561C113.209 39.9966 111.21 37.6121 111.192 37.5909C110.931 37.27 110.497 37.1481 110.107 37.2864C109.717 37.4248 109.457 37.7936 109.457 38.207C109.457 39.9143 108.614 41.7985 107.082 43.5124C105.893 44.8431 104.367 45.964 102.766 46.707V45.1237C102.766 40.8143 104.144 36.7305 106.751 33.3142C107.079 32.8852 106.996 32.2721 106.567 31.9449C106.139 31.6175 105.525 31.7 105.198 32.1288C102.329 35.8888 100.812 40.3823 100.812 45.1238V47.1258C100.648 47.1202 100.504 47.1163 100.419 47.1163C96.1839 47.1163 92.738 50.5615 92.738 54.7964C92.738 59.032 96.1839 62.4779 100.419 62.4779C100.641 62.4779 100.861 62.4662 101.081 62.4473C102.711 72.6613 111.582 80.4919 122.247 80.4919C123.618 80.4919 124.988 80.3618 126.318 80.1055C132.002 79.0129 137.077 75.588 140.243 70.7091C140.537 70.2564 140.408 69.6515 139.955 69.3577C139.503 69.064 138.898 69.193 138.604 69.6455C135.726 74.0809 131.114 77.194 125.949 78.1869C124.74 78.42 123.494 78.5381 122.247 78.5381C111.505 78.5381 102.766 69.7987 102.766 59.0565V48.83C104.923 47.9966 106.952 46.5904 108.539 44.8146C109.826 43.3748 110.711 41.8028 111.131 40.2435C112.3 41.2425 114.219 42.6443 117.056 44.0406C121.627 46.2895 129.583 48.9613 141.731 49.1129V59.0565C141.731 61.6218 141.24 64.1145 140.273 66.4653C140.067 66.9643 140.305 67.5351 140.804 67.7406C140.926 67.7906 141.052 67.8143 141.176 67.8143C141.56 67.8143 141.924 67.5862 142.079 67.209C142.709 65.6802 143.153 64.0969 143.413 62.4757C143.455 62.4763 143.497 62.478 143.538 62.478C147.773 62.478 151.219 59.0321 151.219 54.7966C151.219 50.6105 147.852 47.1985 143.685 47.1199ZM133.907 43.0767C133.688 43.2533 133.491 43.1607 133.393 43.0899C133.295 43.0191 133.146 42.8608 133.245 42.5974L136.598 33.6996C136.711 33.3995 136.67 33.063 136.487 32.7992C136.305 32.5356 136.004 32.3781 135.684 32.3781H131.143C130.928 32.3781 130.813 32.2465 130.764 32.1681C130.715 32.0897 130.647 31.9294 130.741 31.7357L137.826 17.1817C137.982 16.8624 138.312 16.6561 138.667 16.6561H148.092C148.577 16.6561 148.818 16.9807 148.899 17.1203C148.981 17.2599 149.144 17.6301 148.905 18.0518L142.977 28.5036C142.805 28.8061 142.808 29.1768 142.982 29.4773C143.158 29.7778 143.479 29.9626 143.827 29.9626H148.816C149.126 29.9626 149.239 30.1889 149.274 30.2862C149.308 30.3836 149.362 30.6309 149.12 30.8253L133.907 43.0767ZM100.42 60.524C97.2617 60.524 94.6923 57.9546 94.6923 54.7964C94.6923 51.6389 97.2617 49.0702 100.42 49.0702C100.49 49.0702 100.636 49.0745 100.812 49.0809V52.3571C99.4771 52.3283 97.8045 52.7881 97.0131 54.6083C96.7979 55.1031 97.0246 55.6787 97.5195 55.8938C97.6464 55.949 97.7785 55.975 97.9085 55.975C98.2857 55.975 98.645 55.7553 98.8049 55.3873C99.2238 54.4236 100.152 54.2763 100.812 54.3076V59.0564C100.812 59.5433 100.83 60.0261 100.862 60.5051C100.715 60.5164 100.568 60.524 100.42 60.524ZM143.635 60.5215C143.667 60.0358 143.685 59.5473 143.685 59.0564V54.3076C144.345 54.2764 145.272 54.4243 145.691 55.3873C145.851 55.7553 146.21 55.975 146.587 55.975C146.717 55.975 146.85 55.9489 146.976 55.8938C147.471 55.6787 147.698 55.1031 147.483 54.6083C146.692 52.7887 145.02 52.3287 143.685 52.3571V49.0738C146.775 49.1519 149.265 51.6879 149.265 54.7964C149.265 57.9223 146.748 60.4698 143.635 60.5215Z" fill="#2AB3DE"/>
<path d="M117.307 67.8459C120.031 65.1213 124.464 65.1214 127.189 67.8459C127.38 68.0366 127.63 68.1321 127.88 68.1321C128.13 68.1321 128.38 68.0368 128.57 67.8459C128.952 67.4644 128.952 66.8458 128.57 66.4644C125.084 62.978 119.411 62.9781 115.925 66.4644C115.543 66.8459 115.543 67.4645 115.925 67.8459C116.306 68.2275 116.925 68.2275 117.307 67.8459Z" fill="#2AB3DE"/>
<path d="M110.719 58.8952C110.848 59.3153 111.234 59.5851 111.652 59.5851C111.747 59.5851 111.844 59.5711 111.94 59.5417L117.103 57.9528C117.431 57.852 117.682 57.587 117.764 57.2544C117.847 56.9219 117.749 56.5705 117.507 56.3282L114.031 52.8526C113.65 52.471 113.031 52.471 112.65 52.8526C112.268 53.2341 112.268 53.8527 112.65 54.2341L114.978 56.5624L111.365 57.674C110.849 57.8328 110.56 58.3795 110.719 58.8952Z" fill="#2AB3DE"/>
<path d="M132.705 59.585C133.123 59.585 133.509 59.3151 133.638 58.8951C133.797 58.3794 133.508 57.8327 132.992 57.6741L129.379 56.5624L131.707 54.2341C132.089 53.8526 132.089 53.234 131.707 52.8526C131.326 52.4709 130.707 52.4711 130.326 52.8526L126.85 56.3282C126.608 56.5705 126.51 56.9219 126.593 57.2545C126.675 57.5871 126.926 57.852 127.254 57.9528L132.418 59.5417C132.513 59.571 132.61 59.585 132.705 59.585Z" fill="#2AB3DE"/>
<path d="M98.7265 26.5963L94.9484 27.4681C94.6358 27.5403 94.3785 27.7614 94.2601 28.0595C94.1417 28.3577 94.1773 28.6951 94.3552 28.962L98.3274 34.9202C98.5156 35.2026 98.8254 35.3554 99.1411 35.3554C99.3274 35.3554 99.5156 35.3023 99.6821 35.1912C100.131 34.8919 100.252 34.2853 99.953 33.8364L96.7649 29.0543L100.551 28.1805C100.865 28.1081 101.123 27.886 101.241 27.5866C101.359 27.2871 101.322 26.9488 101.142 26.682L95.6453 18.5391C95.3435 18.0917 94.7361 17.9737 94.2891 18.2758C93.8417 18.5776 93.724 19.1849 94.0258 19.6321L98.7265 26.5963Z" fill="#2AB3DE"/>
<path d="M106.133 26.7387C106.292 27.1085 106.652 27.3299 107.031 27.3299C107.16 27.3299 107.29 27.3043 107.416 27.2502C107.912 27.037 108.141 26.4624 107.928 25.9666L106.352 22.3041L108.933 22.1878C109.254 22.1733 109.548 22.0014 109.718 21.7282C109.888 21.4549 109.913 21.1155 109.784 20.8207L107.767 16.2053C107.551 15.7108 106.975 15.485 106.481 15.7012C105.987 15.9173 105.761 16.4932 105.977 16.9875L107.424 20.2998L104.852 20.4157C104.532 20.4302 104.239 20.6009 104.069 20.8729C103.898 21.1448 103.872 21.4831 103.999 21.7777L106.133 26.7387Z" fill="#2AB3DE"/>
<path d="M70.1574 44.6504C68.0466 40.556 63.019 38.9216 58.8921 40.9395C56.9734 37.2177 52.5854 35.4593 48.597 36.8277V19.7828C48.597 15.2398 44.9028 11.444 40.3607 11.3208C35.6015 11.1875 31.6579 14.9542 31.6579 19.6675V62.5441L28.3495 59.1202C25.1738 55.8347 19.8565 55.6035 16.4952 58.6063C12.9484 61.7743 12.7716 67.169 16.0375 70.5596L35.0522 90.6022C37.7035 93.3963 41.4484 94.9996 45.3252 94.9996H68.2586C76.0233 94.9996 82.3403 88.7569 82.3403 81.0835V52.1382C82.3403 45.9724 75.7593 41.9114 70.1574 44.6504V44.6504ZM76.7076 81.0835C76.7076 85.6874 72.9173 89.4331 68.2586 89.4331H45.3252C42.9988 89.4331 40.7524 88.4713 39.1616 86.7942C39.0934 86.7231 20.1887 66.7964 20.1205 66.7254C19.0314 65.5976 19.0834 63.798 20.2716 62.7354C21.3915 61.7359 23.1877 61.8389 24.2753 62.9645L32.4368 71.4105C34.1868 73.2224 37.2899 71.9932 37.2899 69.489V19.6675C37.2899 18.1034 38.6027 16.8408 40.2074 16.885C41.7278 16.9264 42.9644 18.2259 42.9644 19.7828C42.9644 50.4081 42.9116 36.5262 42.9116 53.066C42.9116 54.6076 44.1818 55.8637 45.7543 55.8477C47.3245 55.8637 48.597 54.6083 48.597 53.066V44.1873C48.8479 42.9044 49.9905 41.9331 51.3606 41.9331C52.9132 41.9331 54.1769 43.182 54.1769 44.7164V53.066C54.1769 54.6032 55.4377 55.8492 56.9932 55.8492C58.5488 55.8492 59.8096 54.6032 59.8096 53.066V48.4273C59.8096 46.8929 61.0733 45.6441 62.6259 45.6441C64.1786 45.6441 65.4422 46.8929 65.4422 48.4273V53.066C65.4422 54.6032 66.703 55.8492 68.2586 55.8492C69.8142 55.8492 71.0749 54.6032 71.0749 53.066V52.1382C71.0749 50.6038 72.3386 49.355 73.8913 49.355C75.4439 49.355 76.7076 50.6038 76.7076 52.1382V81.0835Z" fill="#2AB3DE"/>
</svg>
