<svg width="120" height="120" viewBox="0 0 120 120" fill="none" xmlns="http://www.w3.org/2000/svg">
<path d="M60 0C26.9123 0 0 26.9123 0 60C0 93.0877 26.9123 120 60 120C93.0877 120 120 93.0877 120 60C120 26.9123 93.0877 0 60 0Z" fill="#3EBD5F"/>
<path d="M91.1579 58.7192C87.6141 63.3333 83.9474 69.421 83.9474 73.4385C83.9474 77.421 87.1755 80.6491 91.1579 80.6491C95.1404 80.6491 98.3684 77.421 98.3684 73.4385C98.3684 69.4561 94.7018 63.3333 91.1579 58.7192Z" fill="white"/>
<path d="M40.2105 57.456C44.1404 57.456 47.3509 54.263 47.3509 50.3156C47.3509 46.3683 44.1404 43.1753 40.2105 43.1753C36.2807 43.1753 33.0702 46.3858 33.0702 50.3156C33.0702 54.2455 36.2632 57.456 40.2105 57.456Z" fill="white"/>
<path d="M79.7719 57.456C83.7018 57.456 86.9123 54.263 86.9123 50.3156C86.9123 46.3683 83.7193 43.1753 79.7719 43.1753C75.8246 43.1753 72.6316 46.3858 72.6316 50.3156C72.6316 54.2455 75.8246 57.456 79.7719 57.456" fill="white"/>
<path d="M60 77.9824C48.5088 77.9824 38.0877 82.0701 32.1403 88.8947C30.8246 90.4035 30.9824 92.6842 32.4912 94C34 95.3158 36.2807 95.1579 37.5965 93.6491C42.1228 88.4561 50.7017 85.228 59.9824 85.228C69.2631 85.228 77.8421 88.4561 82.3684 93.6491C83.0877 94.4737 84.0877 94.8947 85.1052 94.8947C85.9474 94.8947 86.7895 94.5965 87.4737 94C88.9824 92.6842 89.1403 90.4035 87.8245 88.8947C81.8772 82.0526 71.4737 77.9824 59.9649 77.9824" fill="white"/>
</svg>
