<svg width="95" height="120" viewBox="0 0 95 120" fill="none" xmlns="http://www.w3.org/2000/svg">
<path d="M67.2491 61.8809L66.7789 62.7135C66.3478 63.4286 65.6229 64.5551 64.6238 65.8482C64.1046 66.5045 63.5364 67.2098 62.9487 67.9347C60.3625 71.138 57.6883 74.4588 56.6009 77.2898C55.7291 79.5919 55.1707 81.649 54.818 83.2556H39.8597C39.5168 81.6686 38.9585 79.6115 38.0768 77.2898C36.9895 74.449 34.3152 71.138 31.7291 67.9347C31.1413 67.2098 30.5731 66.5045 30.054 65.8482C29.0352 64.5649 28.3201 63.4286 27.8989 62.7135L27.4287 61.8711C25.4597 58.1682 24.5291 54.6515 24.5291 50.8213C24.5291 38.2433 34.7658 28.0066 47.3438 28.0066C59.9217 28.0066 70.1585 38.2433 70.1585 50.8213C70.1585 54.6515 69.2278 58.1682 67.2589 61.8907L67.2491 61.8809ZM47.334 20.6792C30.7103 20.6792 17.1821 34.2074 17.1821 50.8311C17.1821 55.8466 18.4164 60.5976 20.9438 65.3388C20.9731 65.3976 21.0417 65.5347 21.1691 65.7503C21.3944 66.1617 21.6393 66.5927 21.894 67.0237H21.9038C22.4425 67.8956 23.2458 69.0711 24.2646 70.3739C24.8034 71.0792 25.3911 71.7845 26.0083 72.5486C28.0262 75.0466 30.5438 78.1519 31.2001 79.9152C32.787 84.0784 33.0711 87.1935 33.0711 87.2229L33.3454 90.5927H61.254L61.538 87.2327C61.538 87.2327 61.8221 84.0882 63.4091 79.9152C64.085 78.1519 66.5829 75.0564 68.6107 72.5486C69.2278 71.7943 69.8156 71.0792 70.3544 70.3739C71.3829 69.0711 72.1666 67.8858 72.7152 67.0139H72.725C72.9699 66.6123 73.2148 66.1813 73.4401 65.7698C73.5674 65.5249 73.6556 65.3878 73.685 65.329C76.2123 60.578 77.4466 55.8368 77.4466 50.8213C77.4466 34.1976 63.9185 20.6694 47.2948 20.6694" fill="#3EBD5F"/>
<path d="M63.1445 98.4098C63.1445 100.34 61.5674 101.917 59.6376 101.917H37.0482C35.1184 101.917 33.5413 100.34 33.5413 98.4098C33.5413 96.48 35.0988 94.9028 37.0482 94.9028H59.6376C61.5674 94.9028 63.1445 96.48 63.1445 98.4098Z" fill="#3EBD5F"/>
<path d="M62.018 108.431C62.018 110.331 60.7837 111.86 59.2751 111.86H37.3813C35.8825 111.86 34.6482 110.331 34.6482 108.431C34.6482 106.531 35.8825 105.002 37.3813 105.002H59.2751C60.7935 105.002 62.018 106.55 62.018 108.431Z" fill="#3EBD5F"/>
<path d="M55.0628 116.924C55.0628 118.012 54.191 118.883 53.1036 118.883C53.1036 118.883 51.4481 120 48.333 120C45.2179 120 43.5722 118.883 43.5722 118.883C42.4849 118.883 41.613 118.012 41.613 116.924C41.613 115.837 42.4849 114.965 43.5722 114.965H53.1134C54.2008 114.965 55.0726 115.847 55.0726 116.924H55.0628Z" fill="#3EBD5F"/>
<path d="M47.3242 14.831C45.9724 14.831 44.8752 13.7339 44.8752 12.382V2.44898C44.8752 1.09714 45.9724 0 47.3242 0C48.6761 0 49.7732 1.09714 49.7732 2.44898V12.382C49.7732 13.7339 48.6761 14.831 47.3242 14.831Z" fill="#3EBD5F"/>
<path d="M23.5493 21.8548C22.9224 21.8548 22.2955 21.6197 21.8155 21.1397L14.7918 14.116C13.8318 13.156 13.8318 11.6082 14.7918 10.6482C15.7518 9.68822 17.2995 9.68822 18.2595 10.6482L25.2832 17.6719C26.2432 18.6319 26.2432 20.1797 25.2832 21.1397C24.8032 21.6197 24.1763 21.8548 23.5493 21.8548Z" fill="#3EBD5F"/>
<path d="M72.4114 23.5103C71.7845 23.5103 71.1575 23.2752 70.6775 22.7952C69.7175 21.8352 69.7175 20.2874 70.6775 19.3274L77.7012 12.3037C78.6612 11.3437 80.2089 11.3437 81.1689 12.3037C82.1289 13.2637 82.1289 14.8115 81.1689 15.7715L74.1453 22.7952C73.6653 23.2752 73.0383 23.5103 72.4114 23.5103Z" fill="#3EBD5F"/>
<path d="M12.382 43.8074H2.44898C1.09714 43.8074 0 42.7102 0 41.3584C0 40.0066 1.09714 38.9094 2.44898 38.9094H12.382C13.7339 38.9094 14.831 40.0066 14.831 41.3584C14.831 42.7102 13.7339 43.8074 12.382 43.8074Z" fill="#3EBD5F"/>
<path d="M91.8562 43.8074H81.9231C80.5713 43.8074 79.4741 42.7102 79.4741 41.3584C79.4741 40.0066 80.5713 38.9094 81.9231 38.9094H91.8562C93.208 38.9094 94.3051 40.0066 94.3051 41.3584C94.3051 42.7102 93.208 43.8074 91.8562 43.8074Z" fill="#3EBD5F"/>
</svg>
