<svg width="89" height="120" viewBox="0 0 89 120" fill="none" xmlns="http://www.w3.org/2000/svg">
<path d="M76.5434 25.5422C75.5083 23.8756 74.4733 26.7702 69.2631 32.7523C51.1766 9.20993 24.5994 0 24.5994 0C26.5641 7.78897 32.0901 22.4371 12.8457 46.997C-12.3982 79.2054 4.40768 102.941 21.9329 114.975C30.5814 120.589 38.5984 119.659 38.5984 119.659C40.2299 119.659 41.5456 118.992 42.5982 118.027C33.6339 113.151 9.68805 94.8359 41.493 49.3301C41.493 49.3301 39.3703 67.5746 46.5102 72.2585C49.4398 74.1882 58.2287 66.943 58.2287 66.943C58.2287 66.943 73.4032 99.0988 51.0362 115.975C50.0188 116.747 48.9486 117.519 47.8084 118.238C49.3697 119.501 50.9134 120.22 52.4572 119.94C63.2635 118.992 78.8414 110.186 84.7884 92.5729C95.507 60.8908 76.5609 25.5597 76.5609 25.5597" fill="#3EBD5F"/>
</svg>
