<svg width="103" height="120" viewBox="0 0 103 120" fill="none" xmlns="http://www.w3.org/2000/svg">
<path d="M90.9532 78.7516C94.3556 88.7785 98.7987 105.15 100.48 110.734C101.741 114.917 99.8594 118.019 96.4571 119.22C91.8539 120.841 89.3321 119.06 87.5309 116.037C87.1306 115.357 85.3894 111.654 83.388 107.271V75.9496C83.388 74.6087 83.1278 73.3278 82.6875 72.127C86.1099 72.7274 88.7517 72.267 90.9532 78.7716" fill="#3EBD5F"/>
<path d="M97.9781 56.6359C91.6937 54.5745 79.205 50.8119 79.205 50.8119C79.205 50.8119 72.2802 36.562 70.1187 32.179C68.3575 28.5965 65.7757 22.0319 58.3506 21.2714C49.1041 20.3107 41.7791 28.4364 36.4153 42.4461C34.4139 47.6697 32.4526 55.0148 31.672 62.8403L26.0081 23.7331C25.6479 21.2314 23.4263 19.4902 21.0447 19.8504L3.69261 22.3522C1.31096 22.6924 -0.310167 24.994 0.0500831 27.4957L5.57392 65.6422C6.6947 65.2619 7.89553 65.0218 9.13639 65.0218H59.3512C59.9116 61.5594 60.9724 56.7961 62.4134 52.0928C63.9544 54.8347 66.256 59.0176 67.2767 60.5587C68.5977 62.5801 69.3782 63.5407 71.5397 64.1612C77.4638 65.8423 95.8165 67.9238 95.8165 67.9238C95.8165 67.9238 101.1 69.0646 102.261 63.6608C103.162 59.4579 100.059 57.3164 98.0381 56.656" fill="#3EBD5F"/>
<path d="M87.3907 26.0748C93.9953 21.9319 95.9767 13.2259 91.8338 6.6213C87.6909 0.0167171 78.9849 -1.98468 72.3803 2.1582C65.7757 6.30108 63.7743 15.0071 67.9172 21.6117C72.06 28.2163 80.7661 30.1977 87.3707 26.0548" fill="#3EBD5F"/>
<path d="M72.4803 71.3662H9.11633C6.59458 71.3662 4.55316 73.4076 4.55316 75.9294V118.859C4.55316 119.279 4.97345 120 5.71397 120H14.9003C15.5408 120 16.0611 119.48 16.0611 118.859V114.256H65.5555V118.859C65.5555 119.5 66.0759 120 66.7163 120H75.9027C76.6832 120 77.0635 119.279 77.0635 118.859V75.9294C77.0635 73.4076 75.0221 71.3662 72.5003 71.3662" fill="#3EBD5F"/>
</svg>
